<svg width="48" height="48" xmlns="http://www.w3.org/2000/svg" viewBox="0 0 48 48"><g fill="none" class="nc-icon-wrapper"><path d="M21.884 15.736a2.263 2.263 0 0 1-.729-1.616 2.242 2.242 0 0 1 .67-1.64 2.291 2.291 0 0 1 1.66-.663 2.308 2.308 0 0 1 1.634.72 2.25 2.25 0 0 1-.056 3.144 2.304 2.304 0 0 1-3.18.055zM13.247 4l2.16 2.135a11.254 11.254 0 0 0-3.352 8.003c0 3.002 1.206 5.88 3.352 8.003l-2.16 2.135a14.327 14.327 0 0 1-3.143-4.651 14.198 14.198 0 0 1 0-10.974A14.327 14.327 0 0 1 13.247 4zm20.506 0a14.327 14.327 0 0 1 3.143 4.651 14.198 14.198 0 0 1 0 10.974 14.327 14.327 0 0 1-3.143 4.651l-2.16-2.135a11.255 11.255 0 0 0 3.352-8.003c0-3.002-1.206-5.88-3.352-8.003L33.753 4zM17.565 8.268l2.158 2.133a5.28 5.28 0 0 0-1.158 1.714 5.23 5.23 0 0 0 0 4.043 5.28 5.28 0 0 0 1.158 1.713l-2.158 2.134a8.253 8.253 0 0 1-2.459-5.868c0-2.202.885-4.313 2.459-5.87zm11.87 0a8.253 8.253 0 0 1 2.459 5.868 8.253 8.253 0 0 1-2.459 5.87l-2.158-2.134a5.28 5.28 0 0 0 1.158-1.714 5.23 5.23 0 0 0 0-4.043 5.28 5.28 0 0 0-1.158-1.713l2.158-2.134z" fill="currentColor"></path><path fill-rule="evenodd" clip-rule="evenodd" d="M35 27.5H13a1.5 1.5 0 0 0-1.5 1.5v12a1.5 1.5 0 0 0 1.5 1.5h22a1.5 1.5 0 0 0 1.5-1.5V29a1.5 1.5 0 0 0-1.5-1.5zM13 26a3 3 0 0 0-3 3v12a3 3 0 0 0 3 3h22a3 3 0 0 0 3-3V29a3 3 0 0 0-3-3H13z" fill="currentColor"></path><path d="M23.02 40.09h-6.822v-1.354l3.22-3.431c.442-.483.768-.905.977-1.265.215-.36.322-.702.322-1.025 0-.442-.112-.789-.335-1.04-.224-.255-.543-.382-.957-.382-.447 0-.8.155-1.06.465-.255.305-.383.708-.383 1.21H16c0-.607.144-1.16.43-1.662a3.059 3.059 0 0 1 1.231-1.175C18.19 30.144 18.79 30 19.46 30c1.025 0 1.82.246 2.386.738.57.492.854 1.188.854 2.085 0 .492-.127.994-.383 1.504-.255.51-.692 1.105-1.312 1.784l-2.263 2.386h4.28v1.593z" fill="currentColor"></path><path d="M32.324 38.832c-.369.442-.89.786-1.565 1.032-.675.242-1.422.363-2.242.363-.862 0-1.618-.187-2.27-.561-.647-.378-1.148-.925-1.504-1.64-.35-.716-.53-1.557-.54-2.523v-.677c0-.993.166-1.852.5-2.577.336-.73.82-1.285 1.448-1.668.634-.387 1.374-.581 2.222-.581 1.18 0 2.103.283 2.769.848.665.56 1.06 1.378 1.182 2.454h-1.996c-.091-.57-.294-.987-.608-1.251-.31-.265-.739-.397-1.285-.397-.698 0-1.229.262-1.593.786-.365.525-.55 1.304-.554 2.338v.636c0 1.044.198 1.832.595 2.365.396.533.977.8 1.743.8.77 0 1.32-.164 1.647-.492V36.37h-1.866v-1.51h3.917v3.971z" fill="currentColor"></path></g></svg>