<svg width="48" height="48" xmlns="http://www.w3.org/2000/svg" viewBox="0 0 48 48"><g fill="none" class="nc-icon-wrapper"><path d="M21.884 16.736a2.263 2.263 0 0 1-.729-1.616 2.242 2.242 0 0 1 .67-1.64 2.291 2.291 0 0 1 1.66-.663 2.308 2.308 0 0 1 1.634.72 2.25 2.25 0 0 1-.056 3.144 2.304 2.304 0 0 1-3.18.055zM13.247 5l2.16 2.135a11.254 11.254 0 0 0-3.352 8.003c0 3.002 1.206 5.88 3.352 8.003l-2.16 2.135a14.327 14.327 0 0 1-3.143-4.651 14.198 14.198 0 0 1 0-10.974A14.327 14.327 0 0 1 13.247 5zm20.506 0a14.327 14.327 0 0 1 3.143 4.651 14.198 14.198 0 0 1 0 10.974 14.327 14.327 0 0 1-3.143 4.651l-2.16-2.135a11.255 11.255 0 0 0 3.352-8.003c0-3.002-1.206-5.88-3.352-8.003L33.753 5zM17.565 9.268l2.158 2.133a5.28 5.28 0 0 0-1.158 1.714 5.23 5.23 0 0 0 0 4.043 5.28 5.28 0 0 0 1.158 1.713l-2.158 2.134a8.253 8.253 0 0 1-2.459-5.868c0-2.202.885-4.313 2.459-5.87zm11.87 0a8.253 8.253 0 0 1 2.459 5.868 8.253 8.253 0 0 1-2.459 5.87l-2.158-2.134a5.28 5.28 0 0 0 1.158-1.714 5.23 5.23 0 0 0 0-4.043 5.28 5.28 0 0 0-1.158-1.713l2.158-2.134z" fill="currentColor"></path><path fill-rule="evenodd" clip-rule="evenodd" d="M36 28.5H12a1.5 1.5 0 0 0-1.5 1.5v10a1.5 1.5 0 0 0 1.5 1.5h24a1.5 1.5 0 0 0 1.5-1.5V30a1.5 1.5 0 0 0-1.5-1.5zM12 27a3 3 0 0 0-3 3v10a3 3 0 0 0 3 3h24a3 3 0 0 0 3-3V30a3 3 0 0 0-3-3H12z" fill="currentColor"></path><path d="M17.686 34.148h1.053c.502 0 .873-.125 1.114-.376.242-.25.363-.583.363-.998 0-.4-.12-.713-.363-.936-.237-.223-.565-.335-.984-.335-.378 0-.695.105-.95.314a.985.985 0 0 0-.383.807H15.56c0-.52.14-.984.417-1.395a2.82 2.82 0 0 1 1.176-.97 3.948 3.948 0 0 1 1.668-.349c1.053 0 1.878.253 2.475.759.597.501.895 1.194.895 2.078 0 .456-.139.875-.417 1.258a2.71 2.71 0 0 1-1.093.882c.56.2.977.501 1.25.902.279.401.418.875.418 1.422 0 .884-.324 1.593-.971 2.126-.643.533-1.495.8-2.557.8-.993 0-1.807-.262-2.44-.786-.629-.524-.944-1.217-.944-2.078h1.976c0 .373.14.678.417.915.283.237.629.356 1.04.356.468 0 .835-.123 1.1-.37.269-.25.403-.58.403-.99 0-.994-.547-1.49-1.64-1.49h-1.047v-1.546z" fill="currentColor"></path><path d="M31.803 38.742c-.37.442-.891.786-1.566 1.032-.674.242-1.422.363-2.242.363-.861 0-1.618-.187-2.27-.56-.647-.38-1.148-.926-1.503-1.642-.351-.715-.531-1.556-.54-2.522v-.677c0-.993.166-1.852.499-2.577.337-.729.82-1.285 1.449-1.668.633-.387 1.374-.58 2.222-.58 1.18 0 2.103.282 2.768.847.665.56 1.06 1.378 1.183 2.454h-1.996c-.091-.57-.294-.987-.609-1.251-.31-.264-.738-.396-1.285-.396-.697 0-1.228.261-1.593.786-.364.524-.549 1.303-.553 2.337v.636c0 1.044.198 1.832.594 2.366.397.533.978.8 1.744.8.77 0 1.319-.165 1.647-.493v-1.716h-1.866v-1.51h3.917v3.971z" fill="currentColor"></path></g></svg>