<svg width="48" height="48" xmlns="http://www.w3.org/2000/svg" viewBox="0 0 48 48"><g fill="none" class="nc-icon-wrapper"><path fill-rule="evenodd" clip-rule="evenodd" d="M7.464 35.465A5 5 0 0 1 16 39v1a1 1 0 1 1-2 0v-1a3 3 0 0 0-6 0v2a1 1 0 1 1-2 0v-2a5 5 0 0 1 1.464-3.535z" fill="currentColor"></path><path fill-rule="evenodd" clip-rule="evenodd" d="M15.172 37.172A4 4 0 0 1 22 40a1 1 0 1 1-2 0 2 2 0 0 0-4 0 1 1 0 1 1-2 0 4 4 0 0 1 1.172-2.828z" fill="currentColor"></path><path fill-rule="evenodd" clip-rule="evenodd" d="M20.879 37.879A3 3 0 0 1 26 40v1a1 1 0 1 1-2 0v-1a1 1 0 0 0-2 0 1 1 0 1 1-2 0 3 3 0 0 1 .879-2.121z" fill="currentColor"></path><path fill-rule="evenodd" clip-rule="evenodd" d="M24.5 41a1 1 0 0 1 1-1h9a1 1 0 1 1 0 2h-9a1 1 0 0 1-1-1z" fill="currentColor"></path><path fill-rule="evenodd" clip-rule="evenodd" d="M16.467 8.579a3 3 0 0 1 3.674-2.121l16.421 4.4a3 3 0 0 1 2.122 3.674l-2.071 7.727-22.216-5.953 2.07-7.727zm3.157-.19a1 1 0 0 0-1.225.708l-1.553 5.795L35.2 19.81l1.553-5.796a1 1 0 0 0-.708-1.225l-16.42-4.4z" fill="currentColor"></path><path fill-rule="evenodd" clip-rule="evenodd" d="M14.965 15.52a3 3 0 0 1 2.52-.457l17.47 4.682a3 3 0 0 1 2.072 1.952l.717 2.159a3 3 0 0 1 .05 1.722l-1.32 4.926a3 3 0 0 1-3.674 2.122L12.516 27.19a3 3 0 0 1-2.122-3.674l1.29-4.813a3 3 0 0 1 1.154-1.665l2.127-1.518zm2.002 1.475a1 1 0 0 0-.84.152L14 18.667a1 1 0 0 0-.384.554l-1.29 4.813a1 1 0 0 0 .707 1.225l20.285 5.435a1 1 0 0 0 1.224-.707l1.32-4.927a1 1 0 0 0-.016-.574l-.717-2.159a1 1 0 0 0-.69-.65l-17.472-4.682z" fill="currentColor"></path><path d="M11.953 26.004l5.795 1.553-1.132 4.224a1 1 0 0 1-1.224.708l-3.864-1.036a1 1 0 0 1-.707-1.225l1.132-4.224z" fill="currentColor"></path><path d="M28.56 30.455l5.796 1.553-1.132 4.223A1 1 0 0 1 32 36.94l-3.864-1.036a1 1 0 0 1-.707-1.224l1.132-4.224z" fill="currentColor"></path><path d="M16.837 22.654a1.5 1.5 0 1 1-2.898-.776 1.5 1.5 0 0 1 2.898.776z" fill="currentColor"></path><path d="M34.224 27.313a1.5 1.5 0 1 1-2.898-.776 1.5 1.5 0 0 1 2.898.776z" fill="currentColor"></path><path fill-rule="evenodd" clip-rule="evenodd" d="M12.698 9.122a2 2 0 0 1 2.45-1.414l3.38.906-.517 1.932-3.38-.906-.907 3.38 3.381.907-.518 1.931-3.38-.905a2 2 0 0 1-1.415-2.45l.906-3.38z" fill="currentColor"></path><path fill-rule="evenodd" clip-rule="evenodd" d="M39.744 16.369l-3.38-.906.517-1.932 3.38.906a2 2 0 0 1 1.415 2.45l-.906 3.38a2 2 0 0 1-2.45 1.415l-3.38-.906.518-1.932 3.38.906.906-3.381z" fill="currentColor"></path><path fill-rule="evenodd" clip-rule="evenodd" d="M22.808 29.346a1 1 0 0 1-.707-1.225l.777-2.898a1 1 0 1 1 1.932.518l-.777 2.898a1 1 0 0 1-1.225.707z" fill="currentColor"></path><path fill-rule="evenodd" clip-rule="evenodd" d="M19.157 21.723a1 1 0 0 1 1.225-.707l8.693 2.33a1 1 0 0 1 .707 1.224l-1.553 5.796a1 1 0 0 1-1.224.707l-8.694-2.33a1 1 0 0 1-.707-1.224l1.553-5.796zm1.673 1.484l-1.035 3.863 6.761 1.812 1.035-3.864-6.761-1.811z" fill="currentColor"></path></g></svg>