<svg width="48" height="48" xmlns="http://www.w3.org/2000/svg" viewBox="0 0 48 48"><g fill="none" class="nc-icon-wrapper"><path fill-rule="evenodd" clip-rule="evenodd" d="M20.579 10.309a2.279 2.279 0 0 0-2.27 2.269 2.279 2.279 0 0 0 2.27 2.269 2.279 2.279 0 0 0 2.269-2.27 2.279 2.279 0 0 0-2.27-2.268zm-4.27 2.269c0-2.35 1.92-4.27 4.27-4.27 2.35 0 4.269 1.92 4.269 4.27 0 2.35-1.919 4.269-4.27 4.269a4.279 4.279 0 0 1-4.268-4.27z" fill="currentColor"></path><path fill-rule="evenodd" clip-rule="evenodd" d="M14.207 19.403C13.55 20.06 13 21.02 13 22.292c0 1.872.612 3.125 1.264 3.897.137.162.275.302.411.424v-5.862h2v19.614a.64.64 0 0 0 .635.635.64.64 0 0 0 .634-.635v-9.172h5.27v9.172a.64.64 0 0 0 .634.635.64.64 0 0 0 .635-.635V19.751h9.172a.64.64 0 0 0 .635-.635.64.64 0 0 0-.635-.635h-17.98l-.005.002a1.81 1.81 0 0 0-.484.189c-.298.157-.648.4-.979.731zm.468 9.577a4.304 4.304 0 0 1-.459-.233 5.808 5.808 0 0 1-1.48-1.267C11.776 26.343 11 24.633 11 22.292c0-1.903.838-3.349 1.794-4.304a6.141 6.141 0 0 1 1.463-1.087c.444-.233.956-.42 1.418-.42h17.98a2.64 2.64 0 0 1 2.635 2.635 2.64 2.64 0 0 1-2.635 2.635h-7.172v18.614A2.64 2.64 0 0 1 23.848 43a2.64 2.64 0 0 1-2.635-2.635v-7.172h-1.269v7.172A2.64 2.64 0 0 1 17.31 43a2.64 2.64 0 0 1-2.635-2.635V28.98z" fill="currentColor"></path><path d="M31.934 15.343v25.834H30.22V15.343a4.287 4.287 0 0 1-3.429-4.2V6h1.714v6h1.715V6h1.714v6h1.714V6h1.714v5.143a4.287 4.287 0 0 1-3.428 4.2z" fill="currentColor"></path></g></svg>