<svg width="48" height="48" xmlns="http://www.w3.org/2000/svg" viewBox="0 0 48 48"><g fill="none" class="nc-icon-wrapper"><path d="M26.8 14.774c.395-.45 1.324-1.018 2.645-1.625 1.282-.59 2.817-1.168 4.303-1.678a96.698 96.698 0 0 1 4.556-1.43 136.389 136.389 0 0 1-.935 4.896c-.334 1.574-.715 3.192-1.112 4.526a17.904 17.904 0 0 1-.591 1.718c-.201.483-.372.777-.493.916-.207.237-.66.43-1.44.482-.749.05-1.641-.04-2.523-.195a23.944 23.944 0 0 1-2.322-.54 24.608 24.608 0 0 1-.73-.218l-.004-.001c-.086-.15-.207-.369-.346-.637a17.485 17.485 0 0 1-.927-2.098c-.292-.815-.507-1.657-.539-2.408-.032-.754.122-1.323.458-1.708z" stroke="currentColor"></path><path d="M34.325 14.194s-6.828 5.884-9.053 12.46" stroke="currentColor" stroke-linecap="round" stroke-linejoin="round"></path><path d="M21.774 17.938c-.263-.304-.916-.714-1.898-1.17-.943-.439-2.075-.87-3.175-1.25a70.86 70.86 0 0 0-3.075-.983l.038.219c.148.84.357 1.974.603 3.15.248 1.178.53 2.386.822 3.38.146.497.292.928.432 1.27.148.359.265.556.334.636.102.117.37.256.934.294.532.036 1.176-.028 1.824-.143a17.405 17.405 0 0 0 2.17-.54 13.594 13.594 0 0 0 .896-1.958c.214-.603.367-1.216.39-1.753.023-.542-.089-.914-.295-1.152z" stroke="currentColor"></path><path d="M16.902 18.029s4.489 3.774 5.765 8.21" stroke="currentColor" stroke-linecap="round" stroke-linejoin="round"></path><path d="M16.373 28.16l.408.913-.408-.913zm-3.484 1.281h-1v1.412l1.331-.468-.331-.944zm6.253-1.281l.215-.977-.018-.004-.017-.003-.18.984zm5.717 1.258l.3-.954-.042-.013-.043-.01-.215.977zm2.411 2.877l.574.819-.574-.82zm-1.548.594l.052-.999h-.02l-.02-.001-.012 1zm-4.615-.055l.012-1-.188 1.985.176-.985zm5.538.81l.06-1-.06 1zm3.564-1.08l.373.928-.373-.928zm4.386-1.438l.16.987-.16-.987zm2.323 2.877l.709.705-.71-.705zm-9.29 4.764l-.338-.941.338.94zm-3.501.103l.098-.995-.098.995zm-1.144-.103l.074-.997-.074.997zm-3.935-.857l-.298.955.298-.955zm-4.194-.851l.04-1-.04 1zm-1.965.035l-.034-1-.966.033v.967h1zm0 1.906v1h1v-1h-1zM8 39H7v1h1v-1zm0-11v-1H7v1h1zm4.889 0h1v-1h-1v1zm3.075-.753c-.461.206-2.165.815-3.407 1.25l.663 1.888c1.191-.418 3.002-1.063 3.56-1.312l-.816-1.826zm3.178.913l.18-.984h-.002-.002l-.006-.002-.02-.003-.073-.013a12.799 12.799 0 0 0-1.084-.13 8.097 8.097 0 0 0-1.047-.018c-.337.019-.756.072-1.124.237l.817 1.826c.034-.016.163-.052.42-.067.237-.013.51-.005.782.016a10.91 10.91 0 0 1 .977.121h.002l.18-.983zm5.932.282l-5.717-1.259-.43 1.953 5.717 1.259.43-1.953zm2.554.426c-.57 0-1.186-.098-1.678-.203a11.283 11.283 0 0 1-.783-.198l-.008-.003h-.001l-.3.954-.3.954h.001l.003.001a.12.12 0 0 1 .005.002l.016.005a7.295 7.295 0 0 0 .257.073c.17.047.408.107.691.168.558.12 1.327.247 2.097.247v-2zm.216 4.246c.642-.45 1.202-1.254 1.408-2.004.1-.367.171-.923-.115-1.438-.333-.599-.947-.804-1.51-.804v2c.061 0 .038.01-.027-.021a.494.494 0 0 1-.21-.202c-.088-.157-.023-.225-.067-.064-.035.13-.12.31-.249.495-.13.186-.27.324-.378.4l1.148 1.638zm-2.122-.225c-.052.998-.051.999-.05.999h.007a.284.284 0 0 0 .032 0 1.744 1.744 0 0 0 .215-.008c.125-.01.288-.035.481-.084a4.418 4.418 0 0 0 1.437-.682l-1.148-1.638c-.345.242-.62.341-.783.382-.082.021-.138.028-.163.03l-.013.001a.703.703 0 0 1 .03 0l.003.001h.003l-.05.999zm-4.627.945l4.615.055.024-2-4.615-.055-.024 2zm5.61-1.19c-.701-.04-2.035-.234-3.24-.427a135.2 135.2 0 0 1-2.138-.36l-.033-.005a.413.413 0 0 0-.008-.002h-.002-.001l-.176.984-.176.984.003.001.01.002.034.006.131.023a126.465 126.465 0 0 0 2.04.342c1.184.19 2.62.401 3.437.45l.118-1.997zm3.13-1.008c-.746.3-1.412.568-1.986.758-.604.199-.967.261-1.145.25l-.118 1.997c.591.035 1.273-.145 1.89-.348.647-.214 1.377-.508 2.106-.801l-.747-1.856zm4.6-1.497c-1.499.243-3.195.931-4.6 1.497l.747 1.856c1.468-.591 2.94-1.178 4.173-1.379l-.32-1.974zm3.192 4.569c.793-.798.91-2.114.39-3.112-.59-1.13-1.874-1.734-3.582-1.457l.32 1.974c1.062-.172 1.386.212 1.488.409.172.328.066.675-.035.776l1.419 1.41zm-9.661 5c.69-.248 2.841-1.242 4.886-2.26a74.567 74.567 0 0 0 2.9-1.511c.416-.232.792-.451 1.098-.646.284-.181.579-.384.777-.583l-1.419-1.41c.002-.002-.006.007-.029.025-.021.018-.051.041-.09.07a6.028 6.028 0 0 1-.313.21c-.26.166-.598.364-.997.586a72.62 72.62 0 0 1-2.818 1.47c-2.064 1.026-4.11 1.965-4.671 2.167l.676 1.882zm-3.937.157c1.265.125 2.701.287 3.937-.157l-.677-1.882c-.723.26-1.655.188-3.064.049l-.196 1.99zm-1.12-.1c.378.027.748.064 1.12.1l.196-1.99c-.368-.036-.762-.075-1.168-.105l-.148 1.994zm-4.159-.9c1.181.368 2.472.774 4.159.9l.148-1.995c-1.435-.107-2.53-.446-3.711-.814l-.596 1.91zm-3.935-.807c1.531.06 2.671.413 3.935.807l.596-1.91c-1.268-.395-2.631-.823-4.452-.895l-.08 1.998zm-1.892.035c.806-.028 1.587-.047 1.892-.035l.079-1.998c-.396-.016-1.263.008-2.04.034l.07 1.999zm-1.034-1V39h2v-1.906h-2zm1 .907H8v2h4.889v-2zM9 39V28H7v11h2zM8 29h4.889v-2H8v2zm3.889-1v1.441h2V28h-2z" fill="currentColor"></path></g></svg>