<svg width="48" height="48" xmlns="http://www.w3.org/2000/svg" viewBox="0 0 48 48"><g fill="none" class="nc-icon-wrapper"><path fill-rule="evenodd" clip-rule="evenodd" d="M24 42c9.941 0 18-8.059 18-18S33.941 6 24 6 6 14.059 6 24s8.059 18 18 18zm0 2c11.046 0 20-8.954 20-20S35.046 4 24 4 4 12.954 4 24s8.954 20 20 20zm1-16V12a1 1 0 1 0-2 0v16a1 1 0 1 0 2 0zM24 9a3 3 0 0 0-3 3v16a3 3 0 1 0 6 0V12a3 3 0 0 0-3-3zm0 28a1 1 0 1 1 0-2 1 1 0 0 1 0 2zm-3-1a3 3 0 1 1 6 0 3 3 0 0 1-6 0z" fill="currentColor"></path></g></svg>