<svg width="48" height="48" xmlns="http://www.w3.org/2000/svg" viewBox="0 0 48 48"><g fill="none" class="nc-icon-wrapper"><path fill-rule="evenodd" clip-rule="evenodd" d="M24 4a1 1 0 0 1 .894.553l19 38A1 1 0 0 1 43 44H5a1 1 0 0 1-.894-1.447l19-38A1 1 0 0 1 24 4zM6.618 42h34.764L24 7.236 6.618 42z" fill="currentColor"></path><path fill-rule="evenodd" clip-rule="evenodd" d="M25 19v10a1 1 0 1 1-2 0V19a1 1 0 1 1 2 0zm-4 0a3 3 0 1 1 6 0v10a3 3 0 1 1-6 0V19zm3 19a1 1 0 1 1 0-2 1 1 0 0 1 0 2zm-3-1a3 3 0 1 1 6 0 3 3 0 0 1-6 0z" fill="currentColor"></path></g></svg>