<svg width="48" height="48" xmlns="http://www.w3.org/2000/svg" viewBox="0 0 48 48"><g fill="none" class="nc-icon-wrapper"><path fill-rule="evenodd" clip-rule="evenodd" d="M6 17a3 3 0 0 1 3-3h16a3 3 0 0 1 3 3v2h5.718a3 3 0 0 1 2.035.796l5.282 4.875A3 3 0 0 1 42 26.876V35h-6v-2h4v-6.124a1 1 0 0 0-.322-.735l-5.282-4.876a1 1 0 0 0-.678-.265H28v12h2v2H17v-2h9V17a1 1 0 0 0-1-1H9a1 1 0 0 0-1 1v16h3v2H6V17z" fill="currentColor"></path><path fill-rule="evenodd" clip-rule="evenodd" d="M14 36a2 2 0 1 0 0-4 2 2 0 0 0 0 4zm0 2a4 4 0 1 0 0-8 4 4 0 0 0 0 8z" fill="currentColor"></path><path fill-rule="evenodd" clip-rule="evenodd" d="M33 36a2 2 0 1 0 0-4 2 2 0 0 0 0 4zm0 2a4 4 0 1 0 0-8 4 4 0 0 0 0 8z" fill="currentColor"></path><path fill-rule="evenodd" clip-rule="evenodd" d="M41 28H27v-2h14v2z" fill="currentColor"></path><path fill-rule="evenodd" clip-rule="evenodd" d="M17 18a1 1 0 0 1 1 1v8a1 1 0 1 1-2 0v-8a1 1 0 0 1 1-1z" fill="currentColor"></path><path fill-rule="evenodd" clip-rule="evenodd" d="M31 16a1 1 0 0 1 1 1v3h-2v-3a1 1 0 0 1 1-1z" fill="currentColor"></path><path fill-rule="evenodd" clip-rule="evenodd" d="M12 23a1 1 0 0 1 1-1h8a1 1 0 1 1 0 2h-8a1 1 0 0 1-1-1z" fill="currentColor"></path><path fill-rule="evenodd" clip-rule="evenodd" d="M33 20h-4v-2h4v2z" fill="currentColor"></path><path fill-rule="evenodd" clip-rule="evenodd" d="M31 14l1-2h-2l1 2z" fill="currentColor"></path><path fill-rule="evenodd" clip-rule="evenodd" d="M33.707 14.121l2.121-.707L34.414 12l-.707 2.121z" fill="currentColor"></path><path fill-rule="evenodd" clip-rule="evenodd" d="M34 17l2 1v-2l-2 1z" fill="currentColor"></path></g></svg>