<svg width="48" height="48" xmlns="http://www.w3.org/2000/svg" viewBox="0 0 48 48"><g fill="none" class="nc-icon-wrapper"><path d="M25.895 23h8.526v18h-8.526V23z" fill="currentColor"></path><path d="M14.526 23h6.632v6.632h-6.632V23z" fill="currentColor"></path><path fill-rule="evenodd" clip-rule="evenodd" d="M26.21 10.79h11.107l-1.106.553V39H11.79V11.343l-1.106-.553h-.001 2.37c.09-.708.29-1.38.585-2H6v1.894l.21.106 3.58 1.789V39H6v2h36v-2h-3.79V12.58l3.58-1.79.21-.105V8.79H25.625c.294.62.496 1.292.585 2z" fill="currentColor"></path><path fill-rule="evenodd" clip-rule="evenodd" d="M26.263 11.632a6.632 6.632 0 1 1-13.263 0 6.632 6.632 0 0 1 13.263 0zM18.653 8h2.273v2.653h2.653v2.273h-2.653v2.653h-2.273v-2.653H16v-2.273h2.653V8z" fill="currentColor"></path></g></svg>