<svg width="48" height="48" xmlns="http://www.w3.org/2000/svg" viewBox="0 0 48 48"><g fill="none" class="nc-icon-wrapper"><path fill-rule="evenodd" clip-rule="evenodd" d="M11.824 12.979a5.69 5.69 0 0 1 3.737.6c.035.019.07.04.102.064a15.846 15.846 0 0 1 3.927 4.035 27.142 27.142 0 0 1 3.302 4.787 8.07 8.07 0 0 1 1.208 4.11c0 .026 0 .052-.002.077a5.838 5.838 0 0 1-.58 2.195 7.523 7.523 0 0 1-1.491 1.953l-.017.015c-.139.125-.297.246-.421.34l-.03.023a5.225 5.225 0 0 0-.347.28.8.8 0 0 0-.167.187 2.195 2.195 0 0 0 0 .1l.008.27c.009.218.023.5.041.824.037.649.09 1.456.143 2.255a873.931 873.931 0 0 0 .152 2.193c.04.573.072 1.055.072 1.176a1 1 0 0 1-1 1h-3.635l-.138 2.37a2.16 2.16 0 0 1-.698 1.549 2.346 2.346 0 0 1-1.595.618c-.586 0-1.16-.215-1.595-.618a2.159 2.159 0 0 1-.699-1.552l-.13-2.44H7.863a1 1 0 0 1-.949-1.314c.36-1.083 1.404-3.833 2.347-6.281a980.049 980.049 0 0 1 1.604-4.137 9.095 9.095 0 0 0-.272-.334c-.063-.074-.092-.101-.091-.102a.98.98 0 0 1-.076-.067L5.803 22.66a2.177 2.177 0 0 1-.781-1.37 2.134 2.134 0 0 1 .427-1.61l2.578-3.253c.127-.172.254-.357.4-.568l.19-.277c.223-.32.478-.676.765-1.014.563-.662 1.345-1.37 2.423-1.585l.019-.004zM12 27.5l.931.365-.149.38-.398 1.023c-.333.855-.784 2.017-1.257 3.245a372.207 372.207 0 0 0-1.848 4.878h3.641a1 1 0 0 1 .999.947l.18 3.409c.002.017.002.035.002.053 0 .028.011.071.06.116.05.046.133.084.234.084a.347.347 0 0 0 .234-.084c.048-.045.06-.088.06-.116v-.058l.195-3.337a1 1 0 0 1 .998-.942h3.514c0-.013-.002-.026-.003-.038l-.043-.627-.108-1.569c-.054-.8-.108-1.617-.145-2.277-.035-.624-.062-1.194-.048-1.436.042-.743.497-1.246.817-1.536.167-.153.344-.289.48-.393.147-.111.243-.184.318-.25.439-.417.801-.892 1.077-1.407.204-.434.325-.895.358-1.363a6.074 6.074 0 0 0-.953-3.126 25.152 25.152 0 0 0-3.11-4.503.986.986 0 0 1-.076-.1 13.834 13.834 0 0 0-3.412-3.533 3.695 3.695 0 0 0-2.359-.36c-.419.087-.83.387-1.284.919-.221.26-.431.551-.645.859l-.163.236c-.157.228-.32.467-.476.675a1.191 1.191 0 0 1-.018.023l-2.575 3.25a.133.133 0 0 0-.027.097.183.183 0 0 0 .076.115c.03.023.058.047.085.074l4.625 4.497c.13.11.25.246.319.327.107.124.221.265.322.394a21.195 21.195 0 0 1 .346.454l.023.031.006.009.002.002L12 27.5zm0 0l.806-.592a1 1 0 0 1 .125.957L12 27.5zm9.041 4.154l.001-.002v.002zM11.963 17.02a1 1 0 0 1 .82.765c.104.457.212.894.324 1.344.081.33.164.666.25 1.023.064.217.125.403.183.576.198.597.344 1.037.354 2.056a1 1 0 0 1-1.564.836c-.67-.458-1.11-.76-1.434-.984-.601-.413-.808-.556-1.35-.909a1 1 0 0 1-.314-1.35l1.716-2.88a1 1 0 0 1 1.015-.477z" fill="currentColor"></path><path fill-rule="evenodd" clip-rule="evenodd" d="M16.5 11a2.5 2.5 0 1 0 0-5 2.5 2.5 0 0 0 0 5zm0 2a4.5 4.5 0 1 0 0-9 4.5 4.5 0 0 0 0 9z" fill="currentColor"></path><path d="M29.938 5.563a.562.562 0 1 1 1.125 0v3.375a.562.562 0 1 1-1.125 0V5.562z" fill="currentColor"></path><path d="M38.938 5.563a.562.562 0 1 1 1.124 0v3.375a.562.562 0 1 1-1.124 0V5.562z" fill="currentColor"></path><path fill-rule="evenodd" clip-rule="evenodd" d="M30.539 16.25a1.177 1.177 0 0 1-.039.039 1.177 1.177 0 0 1-.039-.039l.039-.039.039.039zm-.727-1.688a1 1 0 0 0-1 1v1.376a1 1 0 0 0 1 1h1.375a1 1 0 0 0 1-1v-1.375a1 1 0 0 0-1-1h-1.375z" fill="currentColor"></path><path fill-rule="evenodd" clip-rule="evenodd" d="M35.039 16.25a1.177 1.177 0 0 1-.039.039 1.177 1.177 0 0 1-.039-.039l.039-.039.039.039zm-.727-1.688a1 1 0 0 0-1 1v1.376a1 1 0 0 0 1 1h1.376a1 1 0 0 0 1-1v-1.375a1 1 0 0 0-1-1h-1.376z" fill="currentColor"></path><path fill-rule="evenodd" clip-rule="evenodd" d="M39.539 16.25a1.177 1.177 0 0 1-.039.039 1.177 1.177 0 0 1-.039-.039l.039-.039.039.039zm-.727-1.688a1 1 0 0 0-1 1v1.376a1 1 0 0 0 1 1h1.376a1 1 0 0 0 1-1v-1.375a1 1 0 0 0-1-1h-1.376z" fill="currentColor"></path><path fill-rule="evenodd" clip-rule="evenodd" d="M30.539 20.75a1.177 1.177 0 0 1-.039.039 1.177 1.177 0 0 1-.039-.039l.039-.039.039.039zm-.727-1.688a1 1 0 0 0-1 1v1.375a1 1 0 0 0 1 1h1.375a1 1 0 0 0 1-1v-1.375a1 1 0 0 0-1-1h-1.375z" fill="currentColor"></path><path fill-rule="evenodd" clip-rule="evenodd" d="M35.039 20.75a1.177 1.177 0 0 1-.039.039 1.177 1.177 0 0 1-.039-.039l.039-.039.039.039zm-.727-1.688a1 1 0 0 0-1 1v1.375a1 1 0 0 0 1 1h1.376a1 1 0 0 0 1-1v-1.375a1 1 0 0 0-1-1h-1.376z" fill="currentColor"></path><path fill-rule="evenodd" clip-rule="evenodd" d="M39.539 20.75a1.177 1.177 0 0 1-.039.039 1.177 1.177 0 0 1-.039-.039l.039-.039.039.039zm-.727-1.688a1 1 0 0 0-1 1v1.375a1 1 0 0 0 1 1h1.376a1 1 0 0 0 1-1v-1.375a1 1 0 0 0-1-1h-1.376z" fill="currentColor"></path><path fill-rule="evenodd" clip-rule="evenodd" d="M42 9.25H28v14h14v-14zm-14-2a2 2 0 0 0-2 2v14a2 2 0 0 0 2 2h14a2 2 0 0 0 2-2v-14a2 2 0 0 0-2-2H28z" fill="currentColor"></path><path d="M26 9.25a2 2 0 0 1 2-2h14a2 2 0 0 1 2 2v2.188a2 2 0 0 1-2 2H28a2 2 0 0 1-2-2V9.25z" fill="currentColor"></path><path fill-rule="evenodd" clip-rule="evenodd" d="M42 9.25H28v2.188h14V9.25zm-14-2a2 2 0 0 0-2 2v2.188a2 2 0 0 0 2 2h14a2 2 0 0 0 2-2V9.25a2 2 0 0 0-2-2H28z" fill="currentColor"></path><path fill-rule="evenodd" clip-rule="evenodd" d="M43.438 13.438H26.561v-2h16.875v2z" fill="currentColor"></path></g></svg>