<svg width="48" height="48" xmlns="http://www.w3.org/2000/svg" viewBox="0 0 48 48"><g fill="none" class="nc-icon-wrapper"><path fill-rule="evenodd" clip-rule="evenodd" d="M19.81 30.793A7.232 7.232 0 0 0 17 36.546c0 .816.161 2.04.573 3.022.425 1.015.95 1.432 1.538 1.432.654 0 1.222-.548 1.222-1.273 0-.32-.123-.632-.36-1.177l-.02-.045c-.21-.48-.509-1.162-.509-1.96 0-.88.398-1.792.838-2.507.45-.73 1.045-1.42 1.628-1.846l1.18 1.616c-.32.233-.753.706-1.105 1.278-.362.588-.54 1.12-.54 1.46 0 .341.126.668.36 1.204.01.02.019.041.028.063.206.471.5 1.142.5 1.914 0 1.787-1.421 3.273-3.222 3.273-1.825 0-2.856-1.401-3.383-2.659-.54-1.29-.728-2.793-.728-3.795a9.232 9.232 0 0 1 3.59-7.339l1.22 1.586zM31 36.546a7.232 7.232 0 0 0-2.81-5.753l1.22-1.586A9.232 9.232 0 0 1 33 36.546c0 .926-.21 2.424-.753 3.724-.518 1.24-1.54 2.73-3.358 2.73-1.8 0-3.222-1.486-3.222-3.273 0-.756.292-1.43.496-1.902l.03-.069c.235-.544.363-.878.363-1.21 0-.34-.18-.872-.541-1.46-.352-.572-.784-1.044-1.105-1.278l1.18-1.616c.583.426 1.179 1.116 1.628 1.846.44.715.838 1.626.838 2.508 0 .786-.298 1.474-.507 1.957l-.02.046c-.24.556-.362.871-.362 1.178 0 .725.568 1.273 1.222 1.273.527 0 1.061-.422 1.512-1.5.426-1.02.599-2.249.599-2.954z" fill="currentColor"></path><path fill-rule="evenodd" clip-rule="evenodd" d="M24 15a4 4 0 1 0 0-8 4 4 0 0 0 0 8zm0 2a6 6 0 1 0 0-12 6 6 0 0 0 0 12z" fill="currentColor"></path><path fill-rule="evenodd" clip-rule="evenodd" d="M14.3 17.125l.012.024c1.314 2.814 2.809 4.288 4.485 5.017l1.203.523V29c0 .119.068.518.373.992.285.44.735.88 1.412 1.168.19.082.405.184.586.27l.104.05c.222.104.428.2.633.283.435.176.72.237.892.237.171 0 .456-.06.892-.237.205-.084.411-.179.633-.284l.104-.049c.181-.086.396-.188.586-.27a3.098 3.098 0 0 0 1.411-1.168c.306-.474.374-.873.374-.992v-6.311l1.203-.523c1.676-.729 3.171-2.203 4.485-5.017l.011-.024.012-.024c.035-.071.122-.323.115-.604a.797.797 0 0 0-.24-.588c-.15-.15-.266-.22-.339-.253a.525.525 0 0 0-.195-.05c-.137-.009-.357.03-.665.181.01-.004.015-.007.016-.006.003.004-.144.118-.542.593l-.256.31a23.61 23.61 0 0 1-1.296 1.484c-1.334 1.372-3.318 2.827-6.31 2.827-2.99 0-4.974-1.455-6.308-2.827a23.647 23.647 0 0 1-1.296-1.484l-.256-.31c-.398-.475-.545-.589-.542-.593 0 0 .004 0 .01.004-.305-.15-.522-.188-.66-.18a.525.525 0 0 0-.194.05 1.213 1.213 0 0 0-.339.254.796.796 0 0 0-.24.588c-.007.28.08.533.115.604l.012.024zm21.2.87c.333-.667.7-2.3-.5-3.5-1.2-1.2-2.5-.995-3.5-.5-.462.229-.923.79-1.473 1.458-1.235 1.502-2.912 3.542-6.027 3.542s-4.793-2.04-6.028-3.542c-.549-.668-1.01-1.23-1.472-1.458-1-.495-2.3-.7-3.5.5-1.2 1.2-.833 2.833-.5 3.5C13.949 21.1 15.743 23.019 18 24v5c0 1.122.85 3.083 3 4 .15.064.317.143.5.23.702.334 1.619.77 2.5.77s1.798-.436 2.5-.77c.183-.087.35-.166.5-.23 2.15-.917 3-2.878 3-4v-5c2.257-.98 4.051-2.9 5.5-6.005z" fill="currentColor"></path><path fill-rule="evenodd" clip-rule="evenodd" d="M29.5 28h-11v-2h11v2z" fill="currentColor"></path></g></svg>