<svg width="48" height="48" xmlns="http://www.w3.org/2000/svg" viewBox="0 0 48 48"><g fill="none" class="nc-icon-wrapper"><path d="M41 18.103a5.208 5.208 0 1 1-10.416 0 5.208 5.208 0 0 1 10.416 0z" stroke="currentColor"></path><path d="M36.135 30.604l.293.294h2.468a2.104 2.104 0 1 1 0 4.208h-3.057a1.617 1.617 0 0 0-.15-.01h-.014l-.013.001a2.043 2.043 0 0 1-1.517-.618l-.01-.01-.957-.959-.72-.72-.707.733a5.177 5.177 0 0 1-3.72 1.583h-4.634l-.521-10.416h5.477a4.975 4.975 0 0 1 4.247 2.339l.06.097.081.08 3.394 3.398z" stroke="currentColor"></path><path d="M16.516 27.5l.115-.114a2.075 2.075 0 0 1 2.143-.34 2.077 2.077 0 0 1 1.124 1.124 2.076 2.076 0 0 1 0 1.589c-.104.252-.257.48-.45.674l-4.034 4.035-.01.01a2.046 2.046 0 0 1-1.519.619l-.136-.004-.048.013H9.104a2.104 2.104 0 0 1 0-4.209h4.015l.293-.292 3.104-3.104z" stroke="currentColor"></path></g></svg>