<svg width="48" height="48" xmlns="http://www.w3.org/2000/svg" viewBox="0 0 48 48"><g fill="none" class="nc-icon-wrapper"><path fill-rule="evenodd" clip-rule="evenodd" d="M35.792 23.513a4.208 4.208 0 1 0 0-8.416 4.208 4.208 0 0 0 0 8.416zM42 19.305a6.208 6.208 0 1 1-12.416 0 6.208 6.208 0 0 1 12.416 0z" fill="currentColor"></path><path fill-rule="evenodd" clip-rule="evenodd" d="M38.896 31.106V31.1h-2.054l-3.393-3.398a5.97 5.97 0 0 0-5.101-2.81h-6.523l1.646 12.416h4.562a6.185 6.185 0 0 0 4.437-1.883l.958.957a3.045 3.045 0 0 0 2.26.923c.018 0 .035.002.052.004.017.003.034.005.052.005h3.104a3.104 3.104 0 0 0 0-6.208zm-3.678 4.122c.133.055.276.081.42.077h.05c.08 0 .15.004.201.009h3.007a1.104 1.104 0 1 0 0-2.208h-2V33.1h-.883l-4.14-4.146-.121-.194a3.97 3.97 0 0 0-3.392-1.868h-4.252l1.115 8.416h2.808a4.19 4.19 0 0 0 1.63-.333m2.786-2.402l2.405 2.405.01.01c.1.104.222.186.355.24m-2.77-2.655l-1.414 1.461 1.414-1.46zm-1.414 1.461c-.39.403-.856.723-1.372.941l1.372-.941z" fill="currentColor"></path><path fill-rule="evenodd" clip-rule="evenodd" d="M17.313 29.32l-3.78 3.78H9.104a1.104 1.104 0 0 0 0 2.207h4.555c.051-.004.12-.009.2-.009h.025l.024.001a1.052 1.052 0 0 0 .779-.317l.01-.01 4.043-4.046a1.077 1.077 0 0 0-1.427-1.606zm.33-2.213a3.072 3.072 0 0 0-1.839.882l.005.006-3.104 3.104H9.104a3.104 3.104 0 1 0 0 6.208h4.65a.396.396 0 0 0 .054-.004c.017-.002.034-.005.052-.005a3.053 3.053 0 0 0 2.26-.922l4.035-4.036a3.077 3.077 0 0 0-2.513-5.233z" fill="currentColor"></path><path fill-rule="evenodd" clip-rule="evenodd" d="M39.199 8.044l-3.407 1.623 3.407 1.623a.45.45 0 0 0 .644-.407V8.451a.45.45 0 0 0-.644-.407z" fill="currentColor"></path><path fill-rule="evenodd" clip-rule="evenodd" d="M32.385 8.044a.45.45 0 0 0-.644.407v2.432a.45.45 0 0 0 .644.407l3.407-1.623-3.407-1.623z" fill="currentColor"></path></g></svg>