<svg viewBox="0 0 394.335 394.335">
	<path d="M223.869,65.413c-43.776-43.457-114.492-43.199-157.95,0.577S22.72,180.483,66.496,223.94
			c38.871,38.588,99.988,43.294,144.308,11.113c4.633-3.413,9-7.173,13.064-11.248c2.064-2.064,4-4.168,5.888-6.336
			c1.888-2.168,3.656-4.416,5.384-6.768C267.347,166.012,262.583,104.6,223.869,65.413z M222.229,201.293
			c-0.392,0.536-0.8,1.024-1.232,1.544c-2.598,3.401-5.418,6.626-8.44,9.656c-3.486,3.498-7.229,6.728-11.2,9.664
			c-38.321,27.594-90.961,23.511-124.568-9.664c-37.491-37.491-37.491-98.277,0-135.768c37.491-37.491,98.277-37.491,135.768,0
			c7.109,7.224,13.047,15.513,17.6,24.568C246.339,133.503,243.284,172.036,222.229,201.293z" />
	<path d="M382.978,326.355c-0.236-0.242-0.475-0.481-0.717-0.717h0l-84.856-84.864c-3.174-3.001-8.138-3.001-11.312,0l-5.656,5.664
			l-18.512-18.512c46.153-64.963,30.904-155.039-34.059-201.192C162.903-19.419,72.827-4.17,26.674,60.792
			S-4.23,215.831,60.733,261.984c50.091,35.587,117.223,35.547,167.272-0.099l18.496,18.488l-5.656,5.656
			c-3.123,3.124-3.123,8.188,0,11.312l84.848,84.856c15.421,15.819,40.745,16.142,56.564,0.721S398.398,342.173,382.978,326.355z
			 M229.637,240.341c-1.88,1.664-3.792,3.264-5.72,4.8l-0.096,0.072c-50.939,40.123-123.842,35.785-169.664-10.096
			C4.163,185.137,4.151,104.092,54.131,54.098c49.98-49.994,131.025-50.005,181.019-0.025
			c45.891,45.878,50.191,118.838,10.006,169.789c-3.091,3.956-6.425,7.715-9.984,11.256
			C233.37,236.925,231.525,238.667,229.637,240.341z M240.677,251.917c1.976-1.776,3.92-3.616,5.808-5.512s3.736-3.832,5.504-5.808
			l17.128,17.128l-11.312,11.312L240.677,251.917z M375.589,364.205l-78.176-78.176c-3.178-3.07-8.242-2.982-11.312,0.196
			c-2.995,3.1-2.995,8.016,0,11.116l78.088,78.088c-9.138,4.175-19.897,2.38-27.184-4.536l-79.2-79.2l33.952-33.944l79.2,79.2
			C378.183,344.103,380.046,355.066,375.589,364.205z" />
	<path d="M144.949,144.617c-9.295-9.45-24.49-9.575-33.94-0.28c-0.093,0.091-0.185,0.183-0.276,0.276l-22.624,22.624
			c-9.45,9.295-9.575,24.49-0.28,33.94s24.49,9.575,33.94,0.28c0.093-0.091,0.185-0.183,0.276-0.276l22.624-22.624
			C154.118,169.262,154.244,154.067,144.949,144.617z M133.357,167.237l-22.64,22.632c-3.158,3.033-8.146,3.033-11.304,0
			c-3.126-3.122-3.129-8.188-0.006-11.314c0.002-0.002,0.004-0.004,0.006-0.006l22.624-22.624c3.124-3.126,8.19-3.128,11.316-0.004
			S136.48,164.111,133.357,167.237z" />
	<path d="M213.541,123.525h-0.008c-9.496-9.064-24.44-9.064-33.936,0c-9.372,9.373-9.371,24.569,0.003,33.941
			c9.373,9.372,24.569,9.37,33.941-0.003C222.911,148.091,222.911,132.898,213.541,123.525z M202.213,146.149
			c-3.161,3.034-8.151,3.034-11.312,0c-3.178-3.069-3.266-8.134-0.197-11.312c3.069-3.178,8.134-3.266,11.312-0.197
			c0.067,0.064,0.132,0.13,0.197,0.197C205.336,137.961,205.336,143.025,202.213,146.149z" />
	<path d="M140.557,68.493c-4.418,0-8,3.582-8,8v32c0,4.418,3.582,8,8,8s8-3.582,8-8v-32
			C148.557,72.075,144.975,68.493,140.557,68.493z" />
</svg>
