<svg xmlns="http://www.w3.org/2000/svg" height="394" width="394" viewBox="0 0 394.335 394.335">
	<g fill="currentColor" class="nc-icon-wrapper">
		<path d="M223.869 65.413c-43.776-43.457-114.492-43.199-157.95.577s-43.199 114.493.577 157.95c38.871 38.588 99.988 43.294 144.308 11.113 4.633-3.413 9-7.173 13.064-11.248 2.064-2.064 4-4.168 5.888-6.336s3.656-4.416 5.384-6.768c32.207-44.689 27.443-106.101-11.271-145.288zm-1.64 135.88c-.392.536-.8 1.024-1.232 1.544a98.402 98.402 0 0 1-19.64 19.32c-38.321 27.594-90.961 23.511-124.568-9.664-37.491-37.491-37.491-98.277 0-135.768s98.277-37.491 135.768 0a97.42 97.42 0 0 1 17.6 24.568c16.182 32.21 13.127 70.743-7.928 100z">
		</path>
		<path d="M382.978 326.355a40.392 40.392 0 0 0-.717-.717l-84.856-84.864a8.232 8.232 0 0 0-11.312 0l-5.656 5.664-18.512-18.512c46.153-64.963 30.904-155.039-34.059-201.192C162.903-19.419 72.827-4.17 26.674 60.792S-4.23 215.831 60.733 261.984c50.091 35.587 117.223 35.547 167.272-.099l18.496 18.488-5.656 5.656a8 8 0 0 0 0 11.312l84.848 84.856c15.421 15.819 40.745 16.142 56.564.721s16.141-40.745.721-56.563zm-153.341-86.014a144.205 144.205 0 0 1-5.72 4.8l-.096.072c-50.939 40.123-123.842 35.785-169.664-10.096-49.994-49.98-50.006-131.025-.026-181.019s131.025-50.005 181.019-.025c45.891 45.878 50.191 118.838 10.006 169.789a120.756 120.756 0 0 1-9.984 11.256 123.975 123.975 0 0 1-5.535 5.223zm11.04 11.576c1.976-1.776 3.92-3.616 5.808-5.512s3.736-3.832 5.504-5.808l17.128 17.128-11.312 11.312-17.128-17.12zm134.912 112.288l-78.176-78.176a8 8 0 0 0-11.312.196 8 8 0 0 0 0 11.116l78.088 78.088a24.625 24.625 0 0 1-27.184-4.536l-79.2-79.2 33.952-33.944 79.2 79.2a23.722 23.722 0 0 1 4.632 27.256z">
		</path>
		<path d="M144.949 144.617c-9.295-9.45-24.49-9.575-33.94-.28-.093.091-.185.183-.276.276l-22.624 22.624c-9.45 9.295-9.575 24.49-.28 33.94s24.49 9.575 33.94.28c.093-.091.185-.183.276-.276l22.624-22.624c9.449-9.295 9.575-24.49.28-33.94zm-11.592 22.62l-22.64 22.632a8.159 8.159 0 0 1-11.304 0 8 8 0 0 1-.006-11.314l.006-.006 22.624-22.624a8.001 8.001 0 1 1 11.32 11.312z">
		</path>
		<path d="M213.541 123.525h-.008c-9.496-9.064-24.44-9.064-33.936 0-9.372 9.373-9.371 24.569.003 33.941 9.373 9.372 24.569 9.37 33.941-.003 9.37-9.372 9.37-24.565 0-33.938zm-11.328 22.624a8.167 8.167 0 0 1-11.312 0 8 8 0 1 1 11.312-11.312 8 8 0 0 1 0 11.312z">
		</path>
		<path d="M140.557 68.493a8 8 0 0 0-8 8v32a8 8 0 0 0 16 0v-32a8 8 0 0 0-8-8z">
		</path>
	</g>
</svg>
