<svg height="512" width="512" viewBox="0 0 512.005 512.005"><g fill="currentColor" class="nc-icon-wrapper"><path d="M497.697 359.576L152.399 14.278c-19.035-19.035-50.013-19.025-69.058 0L14.283 83.335c-19.044 19.035-19.044 50.023 0 69.058l103.564 103.561.028.031.031.028L255.927 394.03c.023.023.042.048.064.071.023.023.048.042.071.064l103.53 103.527c9.21 9.219 21.476 14.308 34.524 14.308s25.314-5.088 34.524-14.317l69.058-69.058c9.219-9.21 14.308-21.476 14.308-34.524s-5.089-25.315-14.309-34.525zM138.589 249.08l110.493-110.493 124.302 124.309-110.49 110.49L138.589 249.08zM28.093 97.145l69.058-69.058c5.713-5.713 13.214-8.565 20.724-8.565 7.501 0 15.001 2.862 20.714 8.565l96.684 96.689L124.78 235.27l-96.687-96.687c-11.417-11.426-11.417-30.011 0-41.438zm455.785 317.679l-69.058 69.058c-11.065 11.065-30.364 11.065-41.429 0l-96.687-96.687 110.489-110.489 96.684 96.689c5.528 5.528 8.585 12.882 8.585 20.714s-3.056 15.188-8.584 20.715z"></path><path d="M173.123 242.175a9.755 9.755 0 0 0-13.81 0 9.755 9.755 0 0 0 0 13.81l6.905 6.905c1.904 1.904 4.405 2.862 6.905 2.862s5-.957 6.905-2.862a9.755 9.755 0 0 0 0-13.81l-6.905-6.905z"></path><path d="M200.742 269.794a9.766 9.766 0 0 0-13.819 0c-3.809 3.809-3.809 9.991 0 13.81l6.905 6.905a9.78 9.78 0 0 0 6.915 2.862c2.5 0 5-.957 6.905-2.862 3.809-3.809 3.809-9.991 0-13.81l-6.906-6.905z"></path><path d="M235.276 304.328a9.755 9.755 0 0 0-13.81 0 9.755 9.755 0 0 0 0 13.81l6.905 6.905c1.904 1.904 4.405 2.862 6.905 2.862s5-.947 6.905-2.862a9.755 9.755 0 0 0 0-13.81l-6.905-6.905z"></path><path d="M262.895 331.947a9.755 9.755 0 0 0-13.81 0 9.755 9.755 0 0 0 0 13.81l6.905 6.905c1.904 1.904 4.405 2.862 6.905 2.862s5-.947 6.905-2.862a9.755 9.755 0 0 0 0-13.81l-6.905-6.905z"></path><path d="M200.752 214.546c-3.819-3.809-9.991-3.828-13.819-.01-3.809 3.819-3.819 10.001-.01 13.819l6.905 6.915a9.763 9.763 0 0 0 6.915 2.862c2.49 0 4.991-.947 6.905-2.852 3.809-3.819 3.819-10.001.01-13.819l-6.906-6.915z"></path><path d="M228.371 265.751c2.51 0 5-.957 6.905-2.862 3.809-3.819 3.809-10.001-.01-13.81l-6.915-6.905c-3.828-3.809-10.001-3.819-13.81.01-3.809 3.819-3.809 10.001.01 13.81l6.915 6.905a9.786 9.786 0 0 0 6.905 2.852z"></path><path d="M262.895 276.699c-3.819-3.819-9.991-3.809-13.81-.01-3.819 3.819-3.819 9.991-.01 13.819l6.905 6.915c1.914 1.904 4.414 2.862 6.915 2.862s5-.957 6.905-2.852c3.819-3.819 3.819-9.991.01-13.819l-6.915-6.915z"></path><path d="M290.514 304.318c-3.819-3.799-10.001-3.809-13.819.01-3.809 3.828-3.809 10.001.01 13.819l6.915 6.905a9.77 9.77 0 0 0 6.905 2.852c2.5 0 5.01-.947 6.915-2.862 3.809-3.828 3.809-10.001-.01-13.819l-6.916-6.905z"></path><path d="M221.466 207.651a9.764 9.764 0 0 0 6.905 2.852c2.51 0 5.01-.957 6.915-2.862 3.819-3.828 3.809-10.01-.01-13.819l-6.915-6.905c-3.828-3.828-10.02-3.809-13.819.01-3.819 3.828-3.809 10.01.01 13.819l6.914 6.905z"></path><path d="M249.076 235.27a9.78 9.78 0 0 0 6.915 2.862c2.5 0 5-.957 6.895-2.852 3.819-3.809 3.819-9.991.01-13.81l-6.905-6.915c-3.819-3.828-9.991-3.819-13.81-.01-3.819 3.809-3.819 9.991-.01 13.81l6.905 6.915z"></path><path d="M290.514 249.07c-3.819-3.809-10.001-3.819-13.819.01-3.809 3.819-3.809 10.001.01 13.81l6.915 6.915a9.77 9.77 0 0 0 6.905 2.852c2.5 0 5.01-.957 6.915-2.862 3.809-3.828 3.809-10.01-.01-13.819l-6.916-6.906z"></path><path d="M318.163 276.699c-3.819-3.819-10.001-3.809-13.819-.01-3.819 3.819-3.819 9.991-.01 13.819l6.905 6.915a9.763 9.763 0 0 0 6.915 2.862c2.49 0 4.991-.957 6.905-2.852 3.819-3.819 3.819-9.991.01-13.819l-6.906-6.915z"></path><path d="M249.085 180.022a9.742 9.742 0 0 0 6.905 2.862c2.5 0 5-.957 6.905-2.862a9.755 9.755 0 0 0 0-13.81l-6.905-6.905a9.755 9.755 0 0 0-13.81 0 9.755 9.755 0 0 0 0 13.81l6.905 6.905z"></path><path d="M276.705 207.651a9.77 9.77 0 0 0 6.905 2.852c2.5 0 5-.957 6.905-2.852a9.766 9.766 0 0 0 0-13.819l-6.905-6.905c-3.819-3.809-9.991-3.819-13.81 0a9.766 9.766 0 0 0 0 13.819l6.905 6.905z"></path><path d="M311.248 242.175a9.742 9.742 0 0 0 6.905 2.862c2.49 0 4.991-.957 6.905-2.862a9.755 9.755 0 0 0 0-13.81l-6.905-6.905a9.755 9.755 0 0 0-13.81 0 9.755 9.755 0 0 0 0 13.81l6.905 6.905z"></path><path d="M352.677 255.985l-6.905-6.905c-3.819-3.819-9.991-3.819-13.81 0s-3.819 9.991 0 13.81l6.905 6.905c1.904 1.904 4.405 2.862 6.905 2.862s4.991-.957 6.905-2.862a9.755 9.755 0 0 0 0-13.81z"></path></g></svg>