<svg viewBox="0 0 512.005 512.005">
		<path d="M497.697,359.576L152.399,14.278c-19.035-19.035-50.013-19.025-69.058,0L14.283,83.335
				c-19.044,19.035-19.044,50.023,0,69.058l103.564,103.561c0.01,0.01,0.018,0.021,0.028,0.031s0.021,0.018,0.031,0.028
				l138.021,138.017c0.023,0.023,0.042,0.048,0.064,0.071c0.023,0.023,0.048,0.042,0.071,0.064l103.53,103.527
				c9.21,9.219,21.476,14.308,34.524,14.308s25.314-5.088,34.524-14.317l69.058-69.058c9.219-9.21,14.308-21.476,14.308-34.524
				S506.917,368.786,497.697,359.576z M138.589,249.08l110.493-110.493l124.302,124.309l-110.49,110.49L138.589,249.08z
				 M28.093,97.145l69.058-69.058c5.713-5.713,13.214-8.565,20.724-8.565c7.501,0,15.001,2.862,20.714,8.565l96.684,96.689
				L124.78,235.27l-96.687-96.687C16.676,127.157,16.676,108.572,28.093,97.145z M483.878,414.824l-69.058,69.058
				c-11.065,11.065-30.364,11.065-41.429,0l-96.687-96.687l110.489-110.489l96.684,96.689c5.528,5.528,8.585,12.882,8.585,20.714
				S489.406,409.297,483.878,414.824z" />
		<path d="M173.123,242.175c-3.819-3.819-9.991-3.819-13.81,0c-3.819,3.819-3.819,9.991,0,13.81l6.905,6.905
				c1.904,1.904,4.405,2.862,6.905,2.862s5-0.957,6.905-2.862c3.819-3.819,3.819-9.991,0-13.81L173.123,242.175z" />
		<path d="M200.742,269.794c-3.819-3.819-10.001-3.819-13.819,0c-3.809,3.809-3.809,9.991,0,13.81l6.905,6.905
				c1.914,1.904,4.414,2.862,6.915,2.862c2.5,0,5-0.957,6.905-2.862c3.809-3.809,3.809-9.991,0-13.81L200.742,269.794z" />
		<path d="M235.276,304.328c-3.819-3.819-9.991-3.819-13.81,0c-3.819,3.819-3.819,9.991,0,13.81l6.905,6.905
				c1.904,1.904,4.405,2.862,6.905,2.862s5-0.947,6.905-2.862c3.819-3.819,3.819-9.991,0-13.81L235.276,304.328z" />
		<path d="M262.895,331.947c-3.819-3.819-9.991-3.819-13.81,0c-3.819,3.819-3.819,9.991,0,13.81l6.905,6.905
				c1.904,1.904,4.405,2.862,6.905,2.862s5-0.947,6.905-2.862c3.819-3.819,3.819-9.991,0-13.81L262.895,331.947z" />
		<path d="M200.752,214.546c-3.819-3.809-9.991-3.828-13.819-0.01c-3.809,3.819-3.819,10.001-0.01,13.819l6.905,6.915
				c1.904,1.904,4.414,2.862,6.915,2.862c2.49,0,4.991-0.947,6.905-2.852c3.809-3.819,3.819-10.001,0.01-13.819L200.752,214.546z" />
		<path d="M228.371,265.751c2.51,0,5-0.957,6.905-2.862c3.809-3.819,3.809-10.001-0.01-13.81l-6.915-6.905
				c-3.828-3.809-10.001-3.819-13.81,0.01c-3.809,3.819-3.809,10.001,0.01,13.81l6.915,6.905
				C223.38,264.794,225.871,265.751,228.371,265.751z" />
		<path d="M262.895,276.699c-3.819-3.819-9.991-3.809-13.81-0.01c-3.819,3.819-3.819,9.991-0.01,13.819l6.905,6.915
				c1.914,1.904,4.414,2.862,6.915,2.862s5-0.957,6.905-2.852c3.819-3.819,3.819-9.991,0.01-13.819L262.895,276.699z" />
		<path d="M290.514,304.318c-3.819-3.799-10.001-3.809-13.819,0.01c-3.809,3.828-3.809,10.001,0.01,13.819l6.915,6.905
				c1.904,1.895,4.405,2.852,6.905,2.852s5.01-0.947,6.915-2.862c3.809-3.828,3.809-10.001-0.01-13.819L290.514,304.318z" />
		<path d="M221.466,207.651c1.914,1.904,4.414,2.852,6.905,2.852c2.51,0,5.01-0.957,6.915-2.862
				c3.819-3.828,3.809-10.01-0.01-13.819l-6.915-6.905c-3.828-3.828-10.02-3.809-13.819,0.01c-3.819,3.828-3.809,10.01,0.01,13.819
				L221.466,207.651z" />
		<path d="M249.076,235.27c1.914,1.904,4.414,2.862,6.915,2.862c2.5,0,5-0.957,6.895-2.852c3.819-3.809,3.819-9.991,0.01-13.81
				l-6.905-6.915c-3.819-3.828-9.991-3.819-13.81-0.01c-3.819,3.809-3.819,9.991-0.01,13.81L249.076,235.27z" />
		<path d="M290.514,249.07c-3.819-3.809-10.001-3.819-13.819,0.01c-3.809,3.819-3.809,10.001,0.01,13.81l6.915,6.915
				c1.904,1.895,4.405,2.852,6.905,2.852s5.01-0.957,6.915-2.862c3.809-3.828,3.809-10.01-0.01-13.819L290.514,249.07z" />
		<path d="M318.163,276.699c-3.819-3.819-10.001-3.809-13.819-0.01c-3.819,3.819-3.819,9.991-0.01,13.819l6.905,6.915
				c1.904,1.904,4.414,2.862,6.915,2.862c2.49,0,4.991-0.957,6.905-2.852c3.819-3.819,3.819-9.991,0.01-13.819L318.163,276.699z" />
		<path d="M249.085,180.022c1.904,1.904,4.405,2.862,6.905,2.862c2.5,0,5-0.957,6.905-2.862c3.819-3.819,3.819-9.991,0-13.81
				l-6.905-6.905c-3.819-3.819-9.991-3.819-13.81,0c-3.819,3.819-3.819,9.991,0,13.81L249.085,180.022z" />
		<path d="M276.705,207.651c1.904,1.895,4.405,2.852,6.905,2.852s5-0.957,6.905-2.852c3.819-3.819,3.819-10.001,0-13.819
				l-6.905-6.905c-3.819-3.809-9.991-3.819-13.81,0c-3.819,3.819-3.819,10.001,0,13.819L276.705,207.651z" />
		<path d="M311.248,242.175c1.904,1.904,4.405,2.862,6.905,2.862c2.49,0,4.991-0.957,6.905-2.862c3.819-3.819,3.819-9.991,0-13.81
				l-6.905-6.905c-3.819-3.819-9.991-3.819-13.81,0c-3.819,3.819-3.819,9.991,0,13.81L311.248,242.175z" />
		<path d="M352.677,255.985l-6.905-6.905c-3.819-3.819-9.991-3.819-13.81,0s-3.819,9.991,0,13.81l6.905,6.905
				c1.904,1.904,4.405,2.862,6.905,2.862s4.991-0.957,6.905-2.862C356.496,265.976,356.496,259.803,352.677,255.985z" />
</svg>
