<svg width="48" height="48" xmlns="http://www.w3.org/2000/svg" viewBox="0 0 48 48"><g fill="none" class="nc-icon-wrapper"><path fill-rule="evenodd" clip-rule="evenodd" d="M38.5 36.5a5.5 5.5 0 1 1 0-11 5.5 5.5 0 0 1 0 11zm0 2a7.5 7.5 0 1 1 0-15 7.5 7.5 0 0 1 0 15z" fill="currentColor"></path><path fill-rule="evenodd" clip-rule="evenodd" d="M29.41 8.586A1 1 0 0 0 28.5 8h-5.25a1 1 0 1 0 0 2h4.606l9.734 21.414a1 1 0 0 0 1.82-.828l-10-22z" fill="currentColor"></path><path fill-rule="evenodd" clip-rule="evenodd" d="M9.5 36.5a5.5 5.5 0 1 1 0-11 5.5 5.5 0 0 1 0 11zm0 2a7.5 7.5 0 1 1 0-15 7.5 7.5 0 0 1 0 15z" fill="currentColor"></path><path fill-rule="evenodd" clip-rule="evenodd" d="M33.644 20.735a1 1 0 0 0-1.409.12L24.535 30H9.5a1 1 0 1 0 0 2H25a1 1 0 0 0 .765-.356l8-9.5a1 1 0 0 0-.12-1.409z" fill="currentColor"></path><path fill-rule="evenodd" clip-rule="evenodd" d="M31 14h-5.246a9 9 0 0 0-8.607 6.37l-.103.338A1 1 0 0 0 18 22h15.5v-2H19.43a7 7 0 0 1 6.324-4H31v-2z" fill="currentColor"></path><path fill-rule="evenodd" clip-rule="evenodd" d="M13.164 16.253A1 1 0 0 0 12.5 16h-6a1 1 0 0 0-1 1v4a1 1 0 0 0 1 1H17a1 1 0 0 0 .664-1.747l-4.5-4zM12.12 18l2.25 2H7.5v-2h4.62z" fill="currentColor"></path><path fill-rule="evenodd" clip-rule="evenodd" d="M38.496 12.132a1 1 0 0 0-.855-.065l-6.5 2.5.718 1.866 5.356-2.06.571 3.429-5.134-.79-.304 1.976 6.5 1a1 1 0 0 0 1.138-1.152l-1-6a1 1 0 0 0-.49-.704z" fill="currentColor"></path><path fill-rule="evenodd" clip-rule="evenodd" d="M23.757 30.669l-4.5-5 1.486-1.338 4.5 5-1.486 1.338z" fill="currentColor"></path><path fill-rule="evenodd" clip-rule="evenodd" d="M27.5 20h-9a3 3 0 1 0 0 6h6a3 3 0 0 0 3-3v-3zm-2 2v1a1 1 0 0 1-1 1h-6a1 1 0 1 1 0-2h7z" fill="currentColor"></path></g></svg>