<svg width="48" height="48" xmlns="http://www.w3.org/2000/svg" viewBox="0 0 48 48"><g fill="none" class="nc-icon-wrapper"><path fill-rule="evenodd" clip-rule="evenodd" d="M12 36a6 6 0 1 0 0-12 6 6 0 0 0 0 12zm0 2a8 8 0 1 0 0-16 8 8 0 0 0 0 16z" fill="currentColor"></path><path fill-rule="evenodd" clip-rule="evenodd" d="M36 36a6 6 0 1 0 0-12 6 6 0 0 0 0 12zm0 2a8 8 0 1 0 0-16 8 8 0 0 0 0 16z" fill="currentColor"></path><path fill-rule="evenodd" clip-rule="evenodd" d="M31.194 15.78a1 1 0 0 1 .207 1.154l-6.5 13.5A1 1 0 0 1 24 31H12a1 1 0 1 1 0-2h11.372l4.913-10.204-6.82 3.589a1 1 0 1 1-.93-1.77l9.5-5a1 1 0 0 1 1.16.165z" fill="currentColor"></path><path fill-rule="evenodd" clip-rule="evenodd" d="M35.745 12.17L30.82 13.65l6.115 15.994a1 1 0 0 1-1.868.714l-6.5-17a1 1 0 0 1 .647-1.315l5.957-1.787.575 1.915z" fill="currentColor"></path><path fill-rule="evenodd" clip-rule="evenodd" d="M15 14a1 1 0 0 1 1-1h4.5a1 1 0 1 1 0 2h-.938l4.88 13.664a1 1 0 1 1-1.884.672l-5-14A.998.998 0 0 1 17.5 15H16a1 1 0 0 1-1-1z" fill="currentColor"></path></g></svg>