<svg width="48" height="48" xmlns="http://www.w3.org/2000/svg" viewBox="0 0 48 48"><g fill="none" class="nc-icon-wrapper"><path fill-rule="evenodd" clip-rule="evenodd" d="M10.49 29.349v5.2a2 2 0 0 0 2 2h30a2 2 0 0 0 2-2v-16a2 2 0 0 0-2-2h-6.856v2h3.856a3.001 3.001 0 0 0 3 2.996v10.004a3 3 0 0 0-2.983 3H15.485a3.002 3.002 0 0 0-2.996-2.963V29.35h-2z" fill="currentColor"></path><path fill-rule="evenodd" clip-rule="evenodd" d="M20.51 23.451a2 2 0 1 0 0-4 2 2 0 0 0 0 4zm0 2a4 4 0 1 0 0-8 4 4 0 0 0 0 8z" fill="currentColor"></path><path fill-rule="evenodd" clip-rule="evenodd" d="M5.51 11.451a2 2 0 0 0-2 2v16a2 2 0 0 0 2 2h30a2 2 0 0 0 2-2v-16a2 2 0 0 0-2-2h-30zm2.999 2h24.003a3 3 0 0 0 2.999 2.996v10.004a3.002 3.002 0 0 0-2.983 3H8.506a3 3 0 0 0-2.995-2.962V16.45a3.002 3.002 0 0 0 2.998-3z" fill="currentColor"></path></g></svg>