<svg width="48" height="48" xmlns="http://www.w3.org/2000/svg" viewBox="0 0 48 48"><g fill="none" class="nc-icon-wrapper"><path d="M24.6 42.806c.331 0 .6.267.6.597 0 .33-.269.597-.6.597a.598.598 0 0 1-.6-.597c0-.33.269-.597.6-.597z" fill="currentColor"></path><path d="M24.6 39.82a.598.598 0 0 1 0 1.194.598.598 0 0 1-.6-.596c0-.33.269-.597.6-.597z" fill="currentColor"></path><path d="M24.6 36.836c.331 0 .6.267.6.597 0 .33-.269.597-.6.597a.598.598 0 0 1-.6-.597c0-.33.269-.597.6-.597z" fill="currentColor"></path><path d="M24.6 33.85a.598.598 0 0 1 0 1.194.598.598 0 0 1-.6-.596c0-.33.269-.597.6-.597z" fill="currentColor"></path><path d="M24.6 30.866c.331 0 .6.267.6.597 0 .33-.269.597-.6.597a.598.598 0 0 1-.6-.597c0-.33.269-.598.6-.598z" fill="currentColor"></path><path d="M24.6 27.88a.598.598 0 0 1 0 1.194.598.598 0 0 1-.6-.596c0-.33.269-.597.6-.597z" fill="currentColor"></path><path d="M24.6 24.896c.331 0 .6.267.6.597 0 .33-.269.597-.6.597a.598.598 0 0 1-.6-.597c0-.33.269-.597.6-.597z" fill="currentColor"></path><path d="M24.6 21.91a.598.598 0 0 1 0 1.194.598.598 0 0 1-.6-.596c0-.33.269-.598.6-.598z" fill="currentColor"></path><path d="M24.6 18.925c.331 0 .6.268.6.597 0 .33-.269.597-.6.597a.598.598 0 0 1-.6-.597c0-.33.269-.597.6-.597z" fill="currentColor"></path><path d="M24.6 15.94c.331 0 .6.268.6.597 0 .33-.269.597-.6.597a.598.598 0 0 1-.6-.597c0-.33.269-.597.6-.597z" fill="currentColor"></path><path d="M24.6 12.955c.331 0 .6.267.6.597 0 .33-.269.597-.6.597a.598.598 0 0 1-.6-.597c0-.33.269-.597.6-.597z" fill="currentColor"></path><path d="M24.6 9.97c.331 0 .6.267.6.597 0 .33-.269.597-.6.597a.599.599 0 0 1-.6-.597c0-.33.269-.597.6-.597z" fill="currentColor"></path><path d="M24.6 6.985c.331 0 .6.267.6.597 0 .33-.269.597-.6.597a.599.599 0 0 1-.6-.597c0-.33.269-.597.6-.597z" fill="currentColor"></path><path d="M24.6 4c.331 0 .6.267.6.597 0 .33-.269.597-.6.597a.598.598 0 0 1-.6-.597c0-.33.269-.597.6-.597z" fill="currentColor"></path><path d="M20 8.677c0 .824-.672 1.492-1.5 1.492S17 9.501 17 8.677c0-.825.672-1.493 1.5-1.493s1.5.668 1.5 1.493z" fill="currentColor"></path><path d="M20 13.652c0 .824-.672 1.492-1.5 1.492s-1.5-.668-1.5-1.492c0-.825.672-1.493 1.5-1.493s1.5.668 1.5 1.493z" fill="currentColor"></path><path d="M20 18.627c0 .824-.672 1.492-1.5 1.492s-1.5-.668-1.5-1.492c0-.825.672-1.493 1.5-1.493s1.5.668 1.5 1.493z" fill="currentColor"></path><path d="M20 23.602c0 .824-.672 1.492-1.5 1.492s-1.5-.668-1.5-1.492.672-1.493 1.5-1.493 1.5.669 1.5 1.493z" fill="currentColor"></path><path d="M20 28.577c0 .824-.672 1.493-1.5 1.493S17 29.4 17 28.577c0-.824.672-1.493 1.5-1.493s1.5.669 1.5 1.493z" fill="currentColor"></path><path d="M20 33.552c0 .824-.672 1.493-1.5 1.493s-1.5-.669-1.5-1.493c0-.824.672-1.492 1.5-1.492s1.5.668 1.5 1.492z" fill="currentColor"></path><path d="M20 38.528c0 .824-.672 1.492-1.5 1.492s-1.5-.668-1.5-1.492c0-.825.672-1.493 1.5-1.493s1.5.668 1.5 1.493z" fill="currentColor"></path><path d="M32 8.677c0 .824-.672 1.492-1.5 1.492S29 9.501 29 8.677c0-.825.672-1.493 1.5-1.493s1.5.668 1.5 1.493z" fill="currentColor"></path><path d="M32 13.652c0 .824-.672 1.492-1.5 1.492s-1.5-.668-1.5-1.492c0-.825.672-1.493 1.5-1.493s1.5.668 1.5 1.493z" fill="currentColor"></path><path d="M32 18.627c0 .824-.672 1.492-1.5 1.492s-1.5-.668-1.5-1.492c0-.825.672-1.493 1.5-1.493s1.5.668 1.5 1.493z" fill="currentColor"></path><path d="M32 23.602c0 .824-.672 1.492-1.5 1.492s-1.5-.668-1.5-1.492.672-1.493 1.5-1.493 1.5.669 1.5 1.493z" fill="currentColor"></path><path d="M32 28.577c0 .824-.672 1.493-1.5 1.493S29 29.4 29 28.577c0-.824.672-1.493 1.5-1.493s1.5.669 1.5 1.493z" fill="currentColor"></path><path d="M32 33.552c0 .824-.672 1.493-1.5 1.493s-1.5-.669-1.5-1.493c0-.824.672-1.492 1.5-1.492s1.5.668 1.5 1.492z" fill="currentColor"></path><path d="M32 38.528c0 .824-.672 1.492-1.5 1.492s-1.5-.668-1.5-1.492c0-.825.672-1.493 1.5-1.493s1.5.668 1.5 1.493z" fill="currentColor"></path><path fill-rule="evenodd" clip-rule="evenodd" d="M32 6H16a2 2 0 0 0-2 2v32a2 2 0 0 0 2 2h16a2 2 0 0 0 2-2V8a2 2 0 0 0-2-2zM16 4a4 4 0 0 0-4 4v32a4 4 0 0 0 4 4h16a4 4 0 0 0 4-4V8a4 4 0 0 0-4-4H16z" fill="currentColor"></path></g></svg>