<svg width="48" height="48" xmlns="http://www.w3.org/2000/svg" viewBox="0 0 48 48"><g fill="none" class="nc-icon-wrapper"><path fill-rule="evenodd" clip-rule="evenodd" d="M32 6H16a2 2 0 0 0-2 2v32a2 2 0 0 0 2 2h16a2 2 0 0 0 2-2V8a2 2 0 0 0-2-2zM16 4a4 4 0 0 0-4 4v32a4 4 0 0 0 4 4h16a4 4 0 0 0 4-4V8a4 4 0 0 0-4-4H16z" fill="currentColor"></path><path d="M17.507 8.836a1.182 1.182 0 1 1 1.672 1.671l-1.672 1.672a1.182 1.182 0 0 1-1.671-1.672l1.671-1.671z" fill="currentColor"></path><path d="M21.84 8.836a1.182 1.182 0 1 1 1.672 1.671l-1.671 1.672a1.182 1.182 0 0 1-1.672-1.672l1.672-1.671z" fill="currentColor"></path><path d="M26.174 8.836a1.182 1.182 0 0 1 1.672 1.671l-1.672 1.672a1.182 1.182 0 1 1-1.671-1.672l1.671-1.671z" fill="currentColor"></path><path d="M30.507 8.836a1.182 1.182 0 1 1 1.672 1.671l-1.672 1.672a1.182 1.182 0 0 1-1.671-1.672l1.671-1.671z" fill="currentColor"></path><path d="M17.507 14.836a1.182 1.182 0 1 1 1.672 1.671l-1.672 1.672a1.182 1.182 0 0 1-1.671-1.672l1.671-1.671z" fill="currentColor"></path><path d="M21.84 14.836a1.182 1.182 0 1 1 1.672 1.671l-1.671 1.672a1.182 1.182 0 0 1-1.672-1.672l1.672-1.671z" fill="currentColor"></path><path d="M26.174 14.836a1.182 1.182 0 1 1 1.672 1.671l-1.672 1.672a1.182 1.182 0 1 1-1.671-1.672l1.671-1.671z" fill="currentColor"></path><path d="M30.507 14.836a1.182 1.182 0 1 1 1.672 1.671l-1.672 1.672a1.182 1.182 0 0 1-1.671-1.672l1.671-1.671z" fill="currentColor"></path><path d="M17.507 29.836a1.182 1.182 0 1 1 1.672 1.671l-1.672 1.672a1.182 1.182 0 0 1-1.671-1.672l1.671-1.671z" fill="currentColor"></path><path d="M21.84 29.836a1.182 1.182 0 1 1 1.672 1.671l-1.671 1.672a1.182 1.182 0 0 1-1.672-1.672l1.672-1.671z" fill="currentColor"></path><path d="M26.174 29.836a1.182 1.182 0 1 1 1.672 1.671l-1.672 1.672a1.182 1.182 0 1 1-1.671-1.672l1.671-1.671z" fill="currentColor"></path><path d="M30.507 29.836a1.182 1.182 0 1 1 1.672 1.671l-1.672 1.672a1.182 1.182 0 0 1-1.671-1.672l1.671-1.671z" fill="currentColor"></path><path d="M17.507 35.836a1.182 1.182 0 1 1 1.672 1.671l-1.672 1.672a1.182 1.182 0 0 1-1.671-1.672l1.671-1.671z" fill="currentColor"></path><path d="M21.84 35.836a1.182 1.182 0 1 1 1.672 1.671l-1.671 1.672a1.182 1.182 0 0 1-1.672-1.672l1.672-1.671z" fill="currentColor"></path><path d="M26.174 35.836a1.182 1.182 0 1 1 1.672 1.671l-1.672 1.672a1.182 1.182 0 1 1-1.671-1.672l1.671-1.671z" fill="currentColor"></path><path d="M30.507 35.836a1.182 1.182 0 1 1 1.672 1.671l-1.672 1.672a1.182 1.182 0 0 1-1.671-1.672l1.671-1.671z" fill="currentColor"></path><path d="M15 24a1 1 0 1 1-2 0 1 1 0 0 1 2 0z" fill="currentColor"></path><path d="M19 24a1 1 0 1 1-2 0 1 1 0 0 1 2 0z" fill="currentColor"></path><path d="M23 24a1 1 0 1 1-2 0 1 1 0 0 1 2 0z" fill="currentColor"></path><path d="M27 24a1 1 0 1 1-2 0 1 1 0 0 1 2 0z" fill="currentColor"></path><path d="M31 24a1 1 0 1 1-2 0 1 1 0 0 1 2 0z" fill="currentColor"></path><path d="M35 24a1 1 0 1 1-2 0 1 1 0 0 1 2 0z" fill="currentColor"></path></g></svg>