<svg width="48" height="48" xmlns="http://www.w3.org/2000/svg" viewBox="0 0 48 48"><g fill="none" class="nc-icon-wrapper"><path fill-rule="evenodd" clip-rule="evenodd" d="M32 6H16a2 2 0 0 0-2 2v32a2 2 0 0 0 2 2h16a2 2 0 0 0 2-2V8a2 2 0 0 0-2-2zM16 4a4 4 0 0 0-4 4v32a4 4 0 0 0 4 4h16a4 4 0 0 0 4-4V8a4 4 0 0 0-4-4H16z" fill="currentColor"></path><path d="M24.6 42.806c.331 0 .6.267.6.597 0 .33-.269.597-.6.597a.598.598 0 0 1-.6-.597c0-.33.269-.597.6-.597z" fill="currentColor"></path><path d="M24.6 39.82a.598.598 0 0 1 0 1.194.598.598 0 0 1-.6-.596c0-.33.269-.597.6-.597z" fill="currentColor"></path><path d="M24.6 36.836c.331 0 .6.267.6.597 0 .33-.269.597-.6.597a.598.598 0 0 1-.6-.597c0-.33.269-.597.6-.597z" fill="currentColor"></path><path d="M24.6 33.85a.598.598 0 0 1 0 1.194.598.598 0 0 1-.6-.596c0-.33.269-.597.6-.597z" fill="currentColor"></path><path d="M24.6 30.866c.331 0 .6.267.6.597 0 .33-.269.597-.6.597a.598.598 0 0 1-.6-.597c0-.33.269-.597.6-.597z" fill="currentColor"></path><path d="M24.6 27.88a.598.598 0 0 1 0 1.194.598.598 0 0 1-.6-.596c0-.33.269-.597.6-.597z" fill="currentColor"></path><path d="M24.6 24.896c.331 0 .6.267.6.597 0 .33-.269.597-.6.597a.598.598 0 0 1-.6-.597c0-.33.269-.597.6-.597z" fill="currentColor"></path><path d="M24.6 21.91a.598.598 0 0 1 0 1.194.598.598 0 0 1-.6-.596c0-.33.269-.598.6-.598z" fill="currentColor"></path><path d="M24.6 18.925c.331 0 .6.268.6.597 0 .33-.269.597-.6.597a.598.598 0 0 1-.6-.597c0-.33.269-.597.6-.597z" fill="currentColor"></path><path d="M24.6 15.94c.331 0 .6.268.6.597 0 .33-.269.597-.6.597a.598.598 0 0 1-.6-.597c0-.33.269-.597.6-.597z" fill="currentColor"></path><path d="M24.6 12.955c.331 0 .6.267.6.597 0 .33-.269.597-.6.597a.598.598 0 0 1-.6-.597c0-.33.269-.597.6-.597z" fill="currentColor"></path><path d="M24.6 9.97c.331 0 .6.268.6.597 0 .33-.269.597-.6.597a.598.598 0 0 1-.6-.597c0-.33.269-.597.6-.597z" fill="currentColor"></path><path d="M24.6 6.985c.331 0 .6.267.6.597 0 .33-.269.597-.6.597a.598.598 0 0 1-.6-.597c0-.33.269-.597.6-.597z" fill="currentColor"></path><path d="M24.6 4c.331 0 .6.267.6.597 0 .33-.269.597-.6.597a.598.598 0 0 1-.6-.597c0-.33.269-.597.6-.597z" fill="currentColor"></path><path d="M17.84 6.836a1.182 1.182 0 1 1 1.672 1.671l-1.671 1.672a1.182 1.182 0 0 1-1.672-1.672l1.672-1.671z" fill="currentColor"></path><path d="M17.84 11.836a1.182 1.182 0 1 1 1.672 1.671l-1.671 1.672a1.182 1.182 0 0 1-1.672-1.672l1.672-1.671z" fill="currentColor"></path><path d="M17.84 16.836a1.182 1.182 0 1 1 1.672 1.671l-1.671 1.672a1.182 1.182 0 0 1-1.672-1.672l1.672-1.671z" fill="currentColor"></path><path d="M17.84 21.836a1.182 1.182 0 1 1 1.672 1.671l-1.671 1.672a1.182 1.182 0 0 1-1.672-1.672l1.672-1.671z" fill="currentColor"></path><path d="M17.84 26.836a1.182 1.182 0 1 1 1.672 1.671l-1.671 1.672a1.182 1.182 0 0 1-1.672-1.672l1.672-1.671z" fill="currentColor"></path><path d="M17.84 31.836a1.182 1.182 0 1 1 1.672 1.671l-1.671 1.672a1.182 1.182 0 0 1-1.672-1.672l1.672-1.671z" fill="currentColor"></path><path d="M17.84 36.836a1.182 1.182 0 1 1 1.672 1.671l-1.671 1.672a1.182 1.182 0 0 1-1.672-1.672l1.672-1.671z" fill="currentColor"></path><path d="M29.84 6.836a1.182 1.182 0 1 1 1.672 1.671l-1.671 1.672a1.182 1.182 0 0 1-1.672-1.672l1.672-1.671z" fill="currentColor"></path><path d="M29.84 11.836a1.182 1.182 0 1 1 1.672 1.671l-1.671 1.672a1.182 1.182 0 0 1-1.672-1.672l1.672-1.671z" fill="currentColor"></path><path d="M29.84 16.836a1.182 1.182 0 1 1 1.672 1.671l-1.671 1.672a1.182 1.182 0 0 1-1.672-1.672l1.672-1.671z" fill="currentColor"></path><path d="M29.84 21.836a1.182 1.182 0 1 1 1.672 1.671l-1.671 1.672a1.182 1.182 0 0 1-1.672-1.672l1.672-1.671z" fill="currentColor"></path><path d="M29.84 26.836a1.182 1.182 0 1 1 1.672 1.671l-1.671 1.672a1.182 1.182 0 0 1-1.672-1.672l1.672-1.671z" fill="currentColor"></path><path d="M29.84 31.836a1.182 1.182 0 1 1 1.672 1.671l-1.671 1.672a1.182 1.182 0 0 1-1.672-1.672l1.672-1.671z" fill="currentColor"></path><path d="M29.84 36.836a1.182 1.182 0 1 1 1.672 1.671l-1.671 1.672a1.182 1.182 0 0 1-1.672-1.672l1.672-1.671z" fill="currentColor"></path></g></svg>