<svg width="48" height="48" xmlns="http://www.w3.org/2000/svg" viewBox="0 0 48 48"><g fill="none" class="nc-icon-wrapper"><path fill-rule="evenodd" clip-rule="evenodd" d="M32 6H16a2 2 0 0 0-2 2v32a2 2 0 0 0 2 2h16a2 2 0 0 0 2-2V8a2 2 0 0 0-2-2zM16 4a4 4 0 0 0-4 4v32a4 4 0 0 0 4 4h16a4 4 0 0 0 4-4V8a4 4 0 0 0-4-4H16z" fill="currentColor"></path><path d="M19.243 11.414a2 2 0 0 1 2.828 2.829l-2.828 2.828a2 2 0 0 1-2.829-2.828l2.829-2.829z" fill="currentColor"></path><path d="M28.243 11.414a2 2 0 0 1 2.828 2.829l-2.828 2.828a2 2 0 0 1-2.829-2.828l2.829-2.829z" fill="currentColor"></path><path d="M19.243 30.414a2 2 0 0 1 2.828 2.829l-2.828 2.828a2 2 0 0 1-2.829-2.828l2.829-2.829z" fill="currentColor"></path><path d="M28.243 30.414a2 2 0 0 1 2.828 2.829l-2.828 2.828a2 2 0 0 1-2.829-2.828l2.829-2.829z" fill="currentColor"></path><path d="M15 24a1 1 0 1 1-2 0 1 1 0 0 1 2 0z" fill="currentColor"></path><path d="M19 24a1 1 0 1 1-2 0 1 1 0 0 1 2 0z" fill="currentColor"></path><path d="M23 24a1 1 0 1 1-2 0 1 1 0 0 1 2 0z" fill="currentColor"></path><path d="M27 24a1 1 0 1 1-2 0 1 1 0 0 1 2 0z" fill="currentColor"></path><path d="M31 24a1 1 0 1 1-2 0 1 1 0 0 1 2 0z" fill="currentColor"></path><path d="M35 24a1 1 0 1 1-2 0 1 1 0 0 1 2 0z" fill="currentColor"></path></g></svg>