<svg viewBox="0 0 480 480">
	<path d="M292,152V32H100v120c0.044,39.746,32.254,71.956,72,72h48C259.746,223.956,291.956,191.746,292,152z M116,152V96h24V80
				h-24v-8h64V56h-64v-8h160v104c-0.04,30.911-25.089,55.96-56,56h-48C141.089,207.96,116.04,182.911,116,152z" />
	<path d="M396,288v-12c-2.341-22.091-22.148-38.102-44.239-35.761C332.901,242.238,317.999,257.14,316,276v145.6
				c-0.04,23.4-19,42.36-42.4,42.4h-27.2c-23.4-0.04-42.36-19-42.4-42.4V304c13.255,0,24-10.745,24-24v-24.408
				c54.119-4.21,95.913-49.309,96-103.592V0H68v152c0.087,54.283,41.881,99.382,96,103.592V280c0,13.255,10.745,24,24,24v117.6
				c0.048,32.233,26.167,58.352,58.4,58.4h27.2c32.233-0.048,58.352-26.167,58.4-58.4V276c2.43-13.255,15.145-22.03,28.4-19.6
				c9.97,1.828,17.772,9.63,19.6,19.6v12h-16v80h16v64h16v-64h16v-80H396z M84,152V16h224v136c-0.057,48.577-39.423,87.943-88,88
				h-48C123.423,239.943,84.057,200.577,84,152z M180,280v-24h32v24c0,4.418-3.582,8-8,8h-16C183.582,288,180,284.418,180,280z
				 M396,352h-16v-48h16V352z" />
	<path d="M201.688,114.4L196,108.624l-5.688,5.752C185.92,118.816,164,141.816,164,158.4c-0.412,18.103,13.898,33.129,32,33.6
				c18.102-0.471,32.412-15.497,32-33.6C228,141.816,206.08,118.816,201.688,114.4z M197.52,175.92
				c-8.837,0.839-16.68-5.644-17.52-14.48c-0.096-1.011-0.096-2.028,0-3.039c0-5.888,8.224-17.6,16-26.584
				c7.776,8.992,16,20.696,16,26.584C212.839,167.237,206.356,175.08,197.52,175.92z" />
	<rect x="196" y="56" width="32" height="16" />
	<rect x="156" y="80" width="72" height="16" />
</svg>
