<svg width="48" height="48" xmlns="http://www.w3.org/2000/svg" viewBox="0 0 48 48"><g fill="none" class="nc-icon-wrapper"><path fill-rule="evenodd" clip-rule="evenodd" d="M36.923 18a1 1 0 0 1 1 1c0 1.323.02 2.692.039 4.047.022 1.546.044 3.072.036 4.489-.015 2.719-.136 5.306-.578 7.546-.44 2.234-1.221 4.231-2.64 5.672C33.33 42.224 31.33 43 28.702 43c-4.393 0-6.876-1.637-8.23-3.422a7.709 7.709 0 0 1-1.225-2.392 6.851 6.851 0 0 1-.233-1.047 2.87 2.87 0 0 1-.008-.073l-.003-.024v-.014l.996-.08-.997.079-.08-.997 1.994-.16.08.992v.002a2.843 2.843 0 0 0 .025.17c.023.13.065.326.138.566.148.482.418 1.126.906 1.77.942 1.24 2.81 2.63 6.637 2.63 2.207 0 3.653-.636 4.652-1.65 1.028-1.044 1.698-2.603 2.103-4.656.404-2.047.525-4.479.54-7.17.009-1.453-.013-2.908-.035-4.402a273.94 273.94 0 0 1-.04-4.122 1 1 0 0 1 1-1z" fill="currentColor"></path><path fill-rule="evenodd" clip-rule="evenodd" d="M23.003 11.47l-.002.01a.03.03 0 0 1 .002-.01zm-.01.03c-.02-.048-.081-.153-.248-.314-.313-.303-.871-.668-1.724-1.017C19.325 9.475 16.843 9 14 9c-2.844 0-5.325.475-7.02 1.17-.854.348-1.412.713-1.725 1.016-.167.161-.228.266-.248.314.02.048.081.153.248.314.313.303.871.668 1.724 1.017C8.675 13.525 11.156 14 14 14c2.843 0 5.325-.475 7.02-1.17.854-.348 1.412-.713 1.725-1.016.167-.161.228-.266.248-.314zm-17.996-.03l.002.01-.002-.01zm0 .06l.002-.01a.03.03 0 0 1-.002.01zM23 11.52l.002.01a.03.03 0 0 1-.002-.01zM14 16c6.075 0 11-2.015 11-4.5S20.075 7 14 7 3 9.015 3 11.5 7.925 16 14 16z" fill="currentColor"></path><path d="M4 14l9 2.316V36l-9-2.316V14z" fill="currentColor"></path><path fill-rule="evenodd" clip-rule="evenodd" d="M25 12s-.694.514-2 1.116C21.15 13.97 18.072 15 14 15c-4.156 0-7.185-1.004-9-1.85C3.678 12.532 3 12 3 12v22s3.474 3 11 3 11-3 11-3v-2.062a8.069 8.069 0 0 1-2 0v1.005c-.349.204-.829.455-1.444.71C19.98 34.306 17.49 35 14 35s-5.98-.694-7.556-1.347A11.88 11.88 0 0 1 5 32.943V15.331l.056.023C7.119 16.189 10.124 17 14 17c3.766 0 6.767-.814 8.846-1.642l.154-.062v.766a8.069 8.069 0 0 1 2 0V12z" fill="currentColor"></path><path fill-rule="evenodd" clip-rule="evenodd" d="M24 30a6 6 0 1 0 0-12 6 6 0 0 0 0 12zm0 2a8 8 0 1 0 0-16 8 8 0 0 0 0 16z" fill="currentColor"></path><path d="M26 24a2 2 0 1 1-4 0 2 2 0 0 1 4 0z" fill="currentColor"></path><path d="M23 20a1 1 0 1 1 2 0v3a1 1 0 1 1-2 0v-3z" fill="currentColor"></path><path fill-rule="evenodd" clip-rule="evenodd" d="M37.01 17.924c2.377-2.177 4.177-3.832 5.397-5.357 1.2-1.5 1.63-2.623 1.59-3.708v-.001c-.032-.933-.513-1.814-1.237-2.31l-.006-.004c-1.395-.964-3.2-.57-4.229.645L37 8.989l-1.526-1.8c-1.025-1.21-2.832-1.605-4.233-.642h-.001c-.724.497-1.205 1.377-1.238 2.31-.036 1.086.396 2.211 1.594 3.707 1.221 1.527 3.027 3.184 5.414 5.36zm-9.007-9.136c-.117 3.518 2.97 6.338 7.692 10.644l.1.09a1.786 1.786 0 0 0 2.42.01l.09-.082.054-.05c4.692-4.296 7.763-7.108 7.637-10.612-.054-1.542-.836-3.02-2.105-3.89-1.812-1.252-3.95-1.1-5.564-.128A5.38 5.38 0 0 0 37 5.896a5.362 5.362 0 0 0-1.323-1.122c-1.615-.972-3.755-1.122-5.569.124-1.268.87-2.05 2.348-2.105 3.89z" fill="currentColor"></path></g></svg>