<svg width="48" height="48" xmlns="http://www.w3.org/2000/svg" viewBox="0 0 48 48"><g fill="none" class="nc-icon-wrapper"><path fill-rule="evenodd" clip-rule="evenodd" d="M28 8.114a2 2 0 0 1-1.434-.606l-1.132-1.164 1.122-1.09-1.122 1.09a2 2 0 0 0-2.868 0l-1.132 1.164A2 2 0 0 1 20 8.114h-6a2 2 0 0 0-2 2V34a2 2 0 0 0 2 2h20a2 2 0 0 0 2-2V10.114a2 2 0 0 0-2-2h-6zm10 2V34a4 4 0 0 1-4 4H14a4 4 0 0 1-4-4V10.114a4 4 0 0 1 4-4h6l1.132-1.164a4 4 0 0 1 5.736 0L28 6.114h6a4 4 0 0 1 4 4z" fill="currentColor"></path><path fill-rule="evenodd" clip-rule="evenodd" d="M20 10a1 1 0 0 1 .923.615l5 12a1 1 0 0 1-1.846.77L20 13.6l-4.077 9.785a1 1 0 0 1-1.846-.77l5-12A1 1 0 0 1 20 10z" fill="currentColor"></path><path fill-rule="evenodd" clip-rule="evenodd" d="M16 19h8v2h-8v-2z" fill="currentColor"></path><path fill-rule="evenodd" clip-rule="evenodd" d="M30 13a1 1 0 0 1 1 1v6a1 1 0 1 1-2 0v-6a1 1 0 0 1 1-1z" fill="currentColor"></path><path fill-rule="evenodd" clip-rule="evenodd" d="M26 17a1 1 0 0 1 1-1h6a1 1 0 1 1 0 2h-6a1 1 0 0 1-1-1z" fill="currentColor"></path><path fill-rule="evenodd" clip-rule="evenodd" d="M23 44v-8h2v8h-2z" fill="currentColor"></path><path fill-rule="evenodd" clip-rule="evenodd" d="M30 40H18v-2h12v2z" fill="currentColor"></path><path fill-rule="evenodd" clip-rule="evenodd" d="M34.069 28.642c-1.294-.753-3.155-1.2-5.56.22-2.958 1.744-5.743 2.197-8.585 2.257-1.234.026-2.495-.021-3.771-.07l-.526-.02c-1.468-.054-2.977-.097-4.585-.03l-.084-1.998c1.692-.07 3.268-.025 4.742.03l.53.02c1.284.048 2.48.094 3.652.069 2.627-.056 5.042-.466 7.61-1.981 3.118-1.84 5.758-1.287 7.583-.226a8.996 8.996 0 0 1 2.027 1.634 8.745 8.745 0 0 1 .673.816l.04.057.012.018.005.007.002.003L37 30l-.834.552-.001-.002a6.772 6.772 0 0 0-.525-.639 7 7 0 0 0-1.571-1.269z" fill="currentColor"></path></g></svg>