<svg height="480" width="480" viewBox="0 0 480 480"><g fill="currentColor" class="nc-icon-wrapper"><path d="M424 368V216h16v-64h-16V48h16V0H40v48h16v104H40v64h16v152H24v112h432V368h-32zM312 16h112v16H312V16zm16 72V48h80v40h-80zm80 16v48h-80v-48h80zM184 16h112v16H184V16zm128 32v104h-16V48h16zm-112 72V48h80v72h-80zm80 16v16h-48v-16h48zm-64 0v16h-16v-16h16zM56 16h112v16H56V16zm128 32v104h-16V48h16zm-95.888 71.936L88 152H72V48h80v104h-48l.112-32-16-.064zM56 168h368v32H56v-32zm352 48v176c0 22.091-17.909 40-40 40s-40-17.909-40-40V216h80zm-96 0v152h-16V216h16zm-79.952 0H280v176c0 22.091-17.909 40-40 40s-40-17.909-40-40V216h16.048l.992 160.048 16-.096L232.048 216zM184 216v152h-16V216h16zm-80 0h48v176c0 22.091-17.909 40-40 40s-40-17.909-40-40V216h16l.136 160h16L104 216zm336 248H40v-80h16v8c0 30.928 25.072 56 56 56s56-25.072 56-56v-8h16v8c0 30.928 25.072 56 56 56s56-25.072 56-56v-8h16v8c0 30.928 25.072 56 56 56s56-25.072 56-56v-8h16v80z"></path><path d="M88 88h16v16H88z"></path></g></svg>