<svg width="48" height="48" xmlns="http://www.w3.org/2000/svg" viewBox="0 0 48 48"><g fill="none" class="nc-icon-wrapper"><path fill-rule="evenodd" clip-rule="evenodd" d="M36.923 21a1 1 0 0 1 1 1c0 1.323.02 2.692.039 4.047.022 1.546.044.072.036 1.489-.015 2.719-.136 5.306-.578 7.546-.44 2.234-1.221 4.231-2.64 5.672C33.33 42.224 31.33 43 28.702 43c-4.393 0-6.876-1.637-8.23-3.422a7.707 7.707 0 0 1-1.225-2.392 6.827 6.827 0 0 1-.233-1.047 3.41 3.41 0 0 1-.008-.073l-.003-.024v-.014l.996-.08-.997.079-.08-.997 1.994-.16.08.992v.002a2.969 2.969 0 0 0 .025.17c.023.13.065.326.138.566.148.482.418 1.126.906 1.77.942 1.24 2.81 2.63 6.637 2.63 2.207 0 3.653-.636 4.652-1.65 1.028-1.044 1.698-2.603 2.103-4.656.404-2.047.525-4.479.54-7.17.009-1.453-.013.092-.035-1.402a273.94 273.94 0 0 1-.04-4.122 1 1 0 0 1 1-1z" fill="currentColor"></path><path fill-rule="evenodd" clip-rule="evenodd" d="M23.003 11.47l-.002.01a.03.03 0 0 1 .002-.01zm-.01.03c-.02-.048-.081-.153-.248-.314-.313-.303-.871-.668-1.724-1.017C19.325 9.475 16.843 9 14 9c-2.844 0-5.325.475-7.02 1.17-.854.348-1.412.713-1.725 1.016-.167.161-.228.266-.248.314.02.048.081.153.248.314.313.303.871.668 1.724 1.017C8.675 13.525 11.156 14 14 14c2.843 0 5.325-.475 7.02-1.17.854-.348 1.412-.713 1.725-1.016.167-.161.228-.266.248-.314zm-17.996-.03l.002.01-.002-.01zm0 .06l.002-.01a.03.03 0 0 1-.002.01zM23 11.52l.002.01a.03.03 0 0 1-.002-.01zM14 16c6.075 0 11-2.015 11-4.5S20.075 7 14 7 3 9.015 3 11.5 7.925 16 14 16z" fill="currentColor"></path><path d="M4 14l9 2.316V36l-9-2.316V14z" fill="currentColor"></path><path fill-rule="evenodd" clip-rule="evenodd" d="M25 12s-.694.514-2 1.116C21.15 13.97 18.072 15 14 15c-4.156 0-7.185-1.004-9-1.85C3.678 12.532 3 12 3 12v22s3.474 3 11 3 11-3 11-3v-2.062a8.069 8.069 0 0 1-2 0v1.005c-.349.204-.829.455-1.444.71C19.98 34.306 17.49 35 14 35s-5.98-.694-7.556-1.347A11.88 11.88 0 0 1 5 32.943V15.331l.056.023C7.119 16.189 10.124 17 14 17c3.766 0 6.767-.814 8.846-1.642l.154-.062v.766a8.069 8.069 0 0 1 2 0V12z" fill="currentColor"></path><path fill-rule="evenodd" clip-rule="evenodd" d="M24 30a6 6 0 1 0 0-12 6 6 0 0 0 0 12zm0 2a8 8 0 1 0 0-16 8 8 0 0 0 0 16z" fill="currentColor"></path><path d="M26 24a2 2 0 1 1-4 0 2 2 0 0 1 4 0z" fill="currentColor"></path><path d="M23 20a1 1 0 1 1 2 0v3a1 1 0 1 1-2 0v-3z" fill="currentColor"></path><path fill-rule="evenodd" clip-rule="evenodd" d="M38.04 19.762c.557-1.115.96-2.796.96-4.762 0-1.966-.403-3.647-.96-4.762-.279-.558-.56-.9-.775-1.082a.852.852 0 0 0-.216-.142A.215.215 0 0 0 37 9l-.01.001a.215.215 0 0 0-.039.013.852.852 0 0 0-.216.142c-.216.182-.496.524-.775 1.082C35.403 11.353 35 13.034 35 15c0 1.966.403 3.647.96 4.762.279.558.56.9.775 1.082a.853.853 0 0 0 .216.142A.211.211 0 0 0 37 21a.211.211 0 0 0 .049-.014.853.853 0 0 0 .216-.142c.216-.182.496-.524.775-1.082zM37 23c2.21 0 4-3.582 4-8s-1.79-8-4-8-4 3.582-4 8 1.79 8 4 8z" fill="currentColor"></path><path fill-rule="evenodd" clip-rule="evenodd" d="M38.04 19.762c.557-1.115.96-2.796.96-4.762 0-1.966-.403-3.647-.96-4.762-.279-.558-.56-.9-.775-1.082a.852.852 0 0 0-.216-.142A.215.215 0 0 0 37 9l-.01.001a.215.215 0 0 0-.039.013.852.852 0 0 0-.216.142c-.216.182-.496.524-.775 1.082C35.403 11.353 35 13.034 35 15c0 1.966.403 3.647.96 4.762.279.558.56.9.775 1.082a.853.853 0 0 0 .216.142A.211.211 0 0 0 37 21a.211.211 0 0 0 .049-.014.853.853 0 0 0 .216-.142c.216-.182.496-.524.775-1.082zM37 23c2.21 0 4-3.582 4-8s-1.79-8-4-8-4 3.582-4 8 1.79 8 4 8z" fill="currentColor"></path></g></svg>