<svg xmlns="http://www.w3.org/2000/svg" height="480" width="480" viewBox="0 0 480 480">
	<g fill="currentColor" class="nc-icon-wrapper">
		<path d="M292 152V32H100v120c.044 39.746 32.254 71.956 72 72h48c39.746-.044 71.956-32.254 72-72zm-176 0V96h24V80h-24v-8h64V56h-64v-8h160v104c-.04 30.911-25.089 55.96-56 56h-48c-30.911-.04-55.96-25.089-56-56z">
		</path>
		<path d="M396 288v-12c-2.341-22.091-22.148-38.102-44.239-35.761C332.901 242.238 317.999 257.14 316 276v145.6c-.04 23.4-19 42.36-42.4 42.4h-27.2c-23.4-.04-42.36-19-42.4-42.4V304c13.255 0 24-10.745 24-24v-24.408c54.119-4.21 95.913-49.309 96-103.592V0H68v152c.087 54.283 41.881 99.382 96 103.592V280c0 13.255 10.745 24 24 24v117.6c.048 32.233 26.167 58.352 58.4 58.4h27.2c32.233-.048 58.352-26.167 58.4-58.4V276c2.43-13.255 15.145-22.03 28.4-19.6A24.401 24.401 0 0 1 380 276v12h-16v80h16v64h16v-64h16v-80h-16zM84 152V16h224v136c-.057 48.577-39.423 87.943-88 88h-48c-48.577-.057-87.943-39.423-88-88zm96 128v-24h32v24a8 8 0 0 1-8 8h-16a8 8 0 0 1-8-8zm216 72h-16v-48h16v48z">
		</path>
		<path d="M201.688 114.4L196 108.624l-5.688 5.752C185.92 118.816 164 141.816 164 158.4c-.412 18.103 13.898 33.129 32 33.6 18.102-.471 32.412-15.497 32-33.6 0-16.584-21.92-39.584-26.312-44zm-4.168 61.52c-8.837.839-16.68-5.644-17.52-14.48a16.07 16.07 0 0 1 0-3.039c0-5.888 8.224-17.6 16-26.584 7.776 8.992 16 20.696 16 26.584.839 8.836-5.644 16.679-14.48 17.519z">
		</path>
		<path d="M196 56h32v16h-32z">
		</path>
		<path d="M156 80h72v16h-72z">
		</path>
	</g>
</svg>
