<svg width="48" height="48" xmlns="http://www.w3.org/2000/svg" viewBox="0 0 48 48"><g fill="none" class="nc-icon-wrapper"><path fill-rule="evenodd" clip-rule="evenodd" d="M14.77 7c2.924 0 5.753 1.154 7.851 3.047.351.317.681.654.989 1.01l.39.454.39-.453a11.3 11.3 0 0 1 .989-1.01C27.477 8.153 30.306 7 33.231 7 39.266 7 44 11.678 44 17.64c0 2.33-.672 4.538-1.94 6.778a10.559 10.559 0 0 0-1.407-1.604C41.563 21.034 42 19.35 42 17.64 42 12.805 38.184 9 33.23 9c-2.817 0-5.553 1.308-7.325 3.363l-.39.454L24 14.573l-1.515-1.758-.39-.453C20.323 10.308 17.587 9 14.769 9 9.816 9 6 12.805 6 17.64c0 3 1.342 5.92 4.232 9.412 2.919 3.525 7.14 7.314 12.473 12.092l.003.003.032.028.002.003 1.264 1.137 1.288-1.15.002-.001.002-.002.05-.045 1.017-.914c.498.461 1.04.875 1.62 1.234l-1.3 1.168h-.001l-.053.048-.002.001L24.001 43l-2.63-2.366c-5.293-4.742-9.645-8.641-12.68-12.307C5.664 24.67 4 21.304 4 17.64 4 11.678 8.735 7 14.77 7z" fill="currentColor"></path><path fill-rule="evenodd" clip-rule="evenodd" d="M33.5 39a8.5 8.5 0 1 0 0-17 8.5 8.5 0 0 0 0 17zm0 2C39.299 41 44 36.299 44 30.5S39.299 20 33.5 20 23 24.701 23 30.5 27.701 41 33.5 41z" fill="currentColor"></path><path d="M36 30.5a2.5 2.5 0 1 1-5 0 2.5 2.5 0 0 1 5 0z" fill="currentColor"></path><path d="M28.322 26.943a1.006 1.006 0 0 1 1.422-1.422l4.235 4.235a1.006 1.006 0 0 1-1.422 1.422l-4.235-4.235z" fill="currentColor"></path></g></svg>