<svg xmlns="http://www.w3.org/2000/svg" height="480" width="480" viewBox="0 0 480.16 480.16">
	<g fill="currentColor" class="nc-icon-wrapper">
		<path d="M313.984 143.616a58.19 58.19 0 0 0-6.008-7.032l-19.896-19.896V8a8 8 0 0 0-8-8h-80a8 8 0 0 0-8 8v108.688l-19.92 19.896a58.835 58.835 0 0 0-6.064 7.104c-15.909 22.243-13.377 52.734 5.984 72.048 18.037 18.047 45.984 21.64 68 8.744a55.199 55.199 0 0 0 28.32 7.68 56 56 0 0 0 39.656-16.424c19.377-19.342 21.886-49.874 5.928-72.12zm-45.56 72.568a39.135 39.135 0 0 1-23.544-7.704 7.998 7.998 0 0 0-4.8-1.6 7.999 7.999 0 0 0-4.776 1.576 39.135 39.135 0 0 1-23.544 7.704 40 40 0 0 1-23.154-7.37c-18.021-12.778-22.272-37.745-9.494-55.766a42.765 42.765 0 0 1 4.384-5.128l22.24-22.24A8 8 0 0 0 208.08 120V16h64v104a8 8 0 0 0 2.368 5.688l22.24 22.24a42.041 42.041 0 0 1 4.328 5.056 39.994 39.994 0 0 1 7.415 23.207c-.004 22.092-17.916 39.997-40.007 39.993z">
		</path>
		<path d="M308.08 264.424c-18.037-18.047-45.984-21.64-68-8.744a55.199 55.199 0 0 0-28.32-7.68 56 56 0 0 0-39.656 16.424c-19.377 19.342-21.886 49.874-5.928 72.12a58.526 58.526 0 0 0 6.008 7.032l19.896 19.896V472.16a8 8 0 0 0 8 8h80a8 8 0 0 0 8-8V363.472l19.912-19.888a59.314 59.314 0 0 0 6.072-7.112c15.909-22.243 13.377-52.734-5.984-72.048zm-7.024 62.704a44.506 44.506 0 0 1-4.392 5.136l-22.24 22.24a8 8 0 0 0-2.344 5.656v104h-64v-104a8 8 0 0 0-2.344-5.664l-22.224-22.224a43.822 43.822 0 0 1-4.344-5.072 39.997 39.997 0 0 1-7.415-23.207c.004-22.091 17.916-39.997 40.007-39.993a39.135 39.135 0 0 1 23.544 7.704 8.001 8.001 0 0 0 9.552 0A39.135 39.135 0 0 1 268.4 264a40 40 0 0 1 23.148 7.364c18.024 12.773 22.281 37.74 9.508 55.764z">
		</path>
	</g>
</svg>
