<svg width="48" height="48" xmlns="http://www.w3.org/2000/svg" viewBox="0 0 48 48"><g fill="none" class="nc-icon-wrapper"><path fill-rule="evenodd" clip-rule="evenodd" d="M24 12.25a2.5 2.5 0 1 0 0 5 2.5 2.5 0 0 0 0-5zm-4.5 2.5a4.5 4.5 0 1 1 6.564 4H27a2.5 2.5 0 0 1 2.08 1.113l4 6a2.5 2.5 0 0 1-3.58 3.388v5.999a2.5 2.5 0 0 1-5 0v-4h-1v4a2.5 2.5 0 0 1-5 0v-6a2.501 2.501 0 0 1-3.58-3.387l4-6A2.5 2.5 0 0 1 21 18.75h.936a4.5 4.5 0 0 1-2.436-4zm1.5 6a.5.5 0 0 0-.416.223l-4 6a.5.5 0 1 0 .832.554l3.084-4.626V35.25a.5.5 0 0 0 1 0v-6h5v6a.5.5 0 0 0 1 0V22.901l3.084 4.626a.5.5 0 1 0 .832-.554l-4-6A.5.5 0 0 0 27 20.75h-6z" fill="currentColor"></path></g></svg>