<svg xmlns="http://www.w3.org/2000/svg" height="480" width="480" viewBox="0 0 480.125 480.125">
	<g fill="currentColor" class="nc-icon-wrapper">
		<path d="M480.064 240.053a103.936 103.936 0 0 0-48.088-87.552c0-.16.088-.288.088-.448 0-82.4-73.272-152-160-152a39.854 39.854 0 0 0-32 16.248 39.854 39.854 0 0 0-32-16.248c-86.728 0-160 69.6-160 152 0 .16.08.288.088.448A103.933 103.933 0 0 0 .064 240.053a103.775 103.775 0 0 0 44 88.504c-13.083 37.41 6.638 78.343 44.048 91.426a71.764 71.764 0 0 0 17.712 3.774c8.622 38.769 47.04 63.207 85.809 54.585a71.912 71.912 0 0 0 48.431-37.489c18.084 35.36 61.409 49.364 96.769 31.28a71.913 71.913 0 0 0 37.455-48.424c39.494-3.301 68.835-37.993 65.534-77.488a71.755 71.755 0 0 0-3.774-17.712 103.776 103.776 0 0 0 44.016-88.456zm-248 168c-.035 30.913-25.087 55.965-56 56-30.928.012-56.01-25.05-56.022-55.978a56 56 0 0 1 28.918-49.038 8.001 8.001 0 1 0-7.752-14 72.064 72.064 0 0 0-37.104 62.4c-30.588-4.571-51.679-33.074-47.108-63.662 4.081-27.308 27.457-47.565 55.068-47.722a39.755 39.755 0 0 0 22.024-6.664l16.32 16.32a8 8 0 0 0 11.312-11.312l-16.32-16.32a39.755 39.755 0 0 0 6.664-22.024 8 8 0 0 0-16 0c0 13.255-10.745 24-24 24a71.944 71.944 0 0 0-61.024 33.968 88.664 88.664 0 0 1-34.976-73.968c.057-48.577 39.423-87.943 88-88a8 8 0 0 0 0-16 103.382 103.382 0 0 0-39.528 7.848c4.816-68.976 69.72-127.848 143.528-127.848 13.255 0 24 10.745 24 24v368zm197.024-94.032a71.944 71.944 0 0 0-61.024-33.968 8 8 0 0 0 0 16c30.927.21 55.828 25.452 55.618 56.38-.187 27.546-20.381 50.866-47.618 54.988a72.062 72.062 0 0 0-37.104-62.4 8.001 8.001 0 1 0-7.752 14c27.052 14.991 36.829 49.074 21.838 76.126-14.991 27.052-49.074 36.829-76.126 21.838a56 56 0 0 1-28.856-48.931v-224a47.806 47.806 0 0 0 32.232-12.528l18.168 18.128a8 8 0 0 0 11.312-11.312l-19.472-19.472a47.72 47.72 0 0 0 5.76-22.816 8 8 0 0 0-16 0c0 17.673-14.327 32-32 32v-128c0-13.255 10.745-24 24-24 73.808 0 138.712 58.872 143.528 127.848a103.382 103.382 0 0 0-39.528-7.848 8 8 0 0 0 0 16c48.577.057 87.943 39.423 88 88a88.666 88.666 0 0 1-34.976 73.967z">
		</path>
		<path d="M288.064 24.053c-17.673 0-32 14.327-32 32a8 8 0 0 0 16 0c0-8.837 7.163-16 16-16a8 8 0 0 0 0-16z">
		</path>
		<path d="M336.064 64.053a8 8 0 0 0 0 16c13.255 0 24 10.745 24 24a8 8 0 0 0 16 0c-.027-22.08-17.92-39.974-40-40z">
		</path>
		<path d="M320.064 304.053c-13.255 0-24-10.745-24-24a8 8 0 0 0-16 0 39.755 39.755 0 0 0 6.664 22.024l-16.32 16.32a8 8 0 0 0-.196 11.312 8 8 0 0 0 11.508 0l16.32-16.32a39.755 39.755 0 0 0 22.024 6.664 8 8 0 0 0 0-16z">
		</path>
		<path d="M304.064 432.053c-13.255 0-24-10.745-24-24a8 8 0 0 0-16 0c.026 22.08 17.92 39.974 40 40a8 8 0 0 0 0-16z">
		</path>
		<path d="M397.72 242.397l-20.32-20.32a39.755 39.755 0 0 0 6.664-22.024 8 8 0 0 0-16 0c0 13.255-10.745 24-24 24a8 8 0 0 0 0 16 39.755 39.755 0 0 0 22.024-6.664l20.32 20.32a8 8 0 0 0 11.312-11.312z">
		</path>
		<path d="M192.064 24.053a8 8 0 0 0 0 16c8.837 0 16 7.163 16 16a8 8 0 0 0 16 0c0-17.673-14.327-32-32-32z">
		</path>
		<path d="M97.228 249.217a7.244 7.244 0 0 0-.196-.196c-9.369-9.372-9.369-24.564 0-33.936a8 8 0 0 0 0-11.312 8 8 0 0 0-11.312 0 39.711 39.711 0 0 0-10.904 20.28H48.064a8 8 0 0 0 0 16h26.752a39.711 39.711 0 0 0 10.904 20.28 8 8 0 0 0 11.508-11.116z">
		</path>
		<path d="M144.064 64.053c-22.08.026-39.974 17.92-40 40a8 8 0 0 0 16 0c0-13.255 10.745-24 24-24a8 8 0 0 0 0-16z">
		</path>
		<path d="M176.064 376.053a8 8 0 0 0 0 16c13.255 0 24 10.745 24 24a8 8 0 0 0 16 0c-.027-22.08-17.92-39.974-40-40z">
		</path>
		<path d="M200.064 184.053c-17.673 0-32-14.327-32-32a8 8 0 0 0-16 0 47.726 47.726 0 0 0 5.784 22.832l-19.472 19.472a8 8 0 0 0-.704 11.292 8 8 0 0 0 11.993.004l18.144-18.144a47.807 47.807 0 0 0 32.256 12.544 8 8 0 1 0-.001-16z">
		</path>
	</g>
</svg>
