<svg width="49" height="48" xmlns="http://www.w3.org/2000/svg" viewBox="0 0 49 48"><g fill="none" class="nc-icon-wrapper"><path fill-rule="evenodd" clip-rule="evenodd" d="M29.488 32.284c4.71-1.1 7.35-5.286 6.451-9.027-.898-3.74-5.162-6.313-9.872-5.212-4.71 1.1-7.35 5.286-6.45 9.027.898 3.74 5.161 6.313 9.871 5.212zm.467 1.945c5.583-1.305 9.134-6.42 7.932-11.427-1.203-5.006-6.704-8.006-12.287-6.701-5.583 1.304-9.134 6.42-7.931 11.426 1.202 5.006 6.703 8.006 12.286 6.702z" fill="currentColor"></path><path fill-rule="evenodd" clip-rule="evenodd" d="M32.028 27.822c.225 0 .36-.173.36-.329 0-.155-.135-.328-.36-.328-.226 0-.361.173-.361.328 0 .156.135.33.36.33zm0 2c1.304 0 2.36-1.043 2.36-2.329 0-1.286-1.056-2.328-2.36-2.328-1.304 0-2.361 1.042-2.361 2.328 0 1.287 1.057 2.33 2.36 2.33z" fill="currentColor"></path><path fill-rule="evenodd" clip-rule="evenodd" d="M12.358 14.607a4.006 4.006 0 0 1 3.743-2.552c1.1 0 2.1.44 2.825 1.154a3.862 3.862 0 0 1 1.296-.222c2.104 0 3.834 1.686 3.834 3.794v.165l-.053.155c-.35 1.033-.93 1.89-1.753 2.529-.765 1.075-2.205 2.312-4.575 2.092-.235-.022-.384.02-.487.074a.954.954 0 0 0-.348.346c-.255.396-.435 1.047-.507 1.89-.07.82-.028 1.716.075 2.514.08.619.192 1.135.298 1.486a3.947 3.947 0 0 1 1.683 3.23c0 .744-.208 1.44-.568 2.035.364.613.568 1.344.568 2.114 0 .62-.132 1.213-.371 1.739.236.456.37.974.37 1.522 0 1.851-1.517 3.329-3.36 3.329-1.844 0-3.361-1.478-3.361-3.33 0-.547.134-1.065.371-1.521a4.196 4.196 0 0 1-.371-1.739c0-.384.05-.757.146-1.11a3.939 3.939 0 0 1-1.4-3.557c-1.519-.56-2.61-2.005-2.61-3.717 0-.516.1-1.01.282-1.463a3.93 3.93 0 0 1-1.14-2.77c0-1.4.73-2.62 1.823-3.325a3.932 3.932 0 0 1-.106-.91c0-2.098 1.639-3.796 3.696-3.952zm3.743-.552c-1.028 0-1.861.754-1.988 1.706l-.134 1.008-1.005-.151a2.072 2.072 0 0 0-.307-.023c-1.12 0-2.005.892-2.005 1.964 0 .338.086.654.238.93l.588 1.067-1.16.37a1.97 1.97 0 0 0-1.384 1.867c0 .696.37 1.313.94 1.664l.917.565-.631.873c-.232.32-.367.71-.367 1.132 0 1.042.836 1.914 1.911 1.962l1.516.068-.66 1.366a1.918 1.918 0 0 0-.191.839c0 .758.44 1.426 1.1 1.753l.927.46-.49.91c-.154.286-.25.637-.25 1.026 0 .477.144.896.36 1.206l.438.628-.49.587a1.3 1.3 0 0 0-.307.84c0 .72.596 1.329 1.36 1.329.766 0 1.362-.608 1.362-1.33a1.3 1.3 0 0 0-.306-.84l-.492-.586.438-.627c.217-.31.36-.73.36-1.207 0-.6-.226-1.102-.534-1.416l-.677-.692.67-.7c.338-.353.54-.824.54-1.341 0-.722-.397-1.36-1.003-1.703l-.302-.17-.131-.32c-.224-.548-.412-1.377-.527-2.267a14.172 14.172 0 0 1-.085-2.94c.083-.97.304-2.004.82-2.803a2.94 2.94 0 0 1 1.098-1.034 2.833 2.833 0 0 1 1.602-.295c1.507.14 2.344-.632 2.827-1.357l.1-.15.148-.106c.489-.353.863-.837 1.114-1.491-.08-.908-.856-1.64-1.827-1.64-.38 0-.729.113-1.02.303l-.85.56-.544-.861a2.013 2.013 0 0 0-1.707-.933z" fill="currentColor"></path><path fill-rule="evenodd" clip-rule="evenodd" d="M31.71 17.3l.001-.007a4.2 4.2 0 0 1 .053-.225 12.856 12.856 0 0 1 1.083-2.828c.86-1.619 2.164-3.116 4.084-3.469.547-.1.91-.619.809-1.158-.1-.54-.625-.895-1.172-.795-2.827.52-4.536 2.682-5.504 4.504a14.825 14.825 0 0 0-1.31 3.508l-.014.065-.004.02-.001.006v.002l.987.19-.988-.189a.99.99 0 0 0 .794 1.164 1.01 1.01 0 0 0 1.182-.787m0 0z" fill="currentColor"></path><path fill-rule="evenodd" clip-rule="evenodd" d="M6.645 6.065a1 1 0 0 1 1.29.58c.545 1.435 1.797 2.15 3.138 2.15 1.35 0 2.768-.733 3.535-2.247a1 1 0 0 1 1.737-.083c1.057 1.668 2.312 2.33 3.405 2.33s2.348-.662 3.405-2.33a1 1 0 0 1 1.737.083c.8 1.578 2.018 2.247 3.18 2.247 1.184 0 2.546-.694 3.583-2.33a1 1 0 0 1 1.69 0c1.057 1.668 2.312 2.33 3.405 2.33s2.348-.662 3.405-2.33a1 1 0 0 1 1.69 1.07c-1.304 2.058-3.119 3.26-5.095 3.26-1.582 0-3.06-.77-4.256-2.133-1.242 1.379-2.812 2.132-4.421 2.132-1.576 0-3.047-.723-4.134-2.056-1.184 1.315-2.637 2.056-4.189 2.056-1.559 0-3.017-.747-4.204-2.073a5.908 5.908 0 0 1-4.473 2.073c-2.083 0-4.137-1.148-5.008-3.439a1 1 0 0 1 .58-1.29z" fill="currentColor"></path></g></svg>