<svg width="48" height="48" xmlns="http://www.w3.org/2000/svg" viewBox="0 0 48 48"><g fill="none" class="nc-icon-wrapper"><path fill-rule="evenodd" clip-rule="evenodd" d="M41 22h-2v15.333l1 1.334 1-1.334V22zm2 16l-3 4-3-4V20h6v18z" fill="currentColor"></path><path fill-rule="evenodd" clip-rule="evenodd" d="M41 15h-2v2h2v-2zm-2-2h2a2 2 0 0 1 2 2v4h-6v-4a2 2 0 0 1 2-2z" fill="currentColor"></path><path fill-rule="evenodd" clip-rule="evenodd" d="M30 9H10a2 2 0 0 0-2 2v28a2 2 0 0 0 2 2h20a2 2 0 0 0 2-2V11a2 2 0 0 0-2-2zM10 7a4 4 0 0 0-4 4v28a4 4 0 0 0 4 4h20a4 4 0 0 0 4-4V11a4 4 0 0 0-4-4H10z" fill="currentColor"></path><path fill-rule="evenodd" clip-rule="evenodd" d="M17.02 14.965l2.118 7.41 2.59-3.33h5.49a1 1 0 1 1 0 2h-4.511l-4.41 5.668-1.883-6.59-1.612 2.866H7.293a1 1 0 1 1 0-2h6.34l3.388-6.024z" fill="currentColor"></path><path fill-rule="evenodd" clip-rule="evenodd" d="M11 31a1 1 0 0 1 1-1h16a1 1 0 1 1 0 2H12a1 1 0 0 1-1-1z" fill="currentColor"></path><path fill-rule="evenodd" clip-rule="evenodd" d="M14 36a1 1 0 0 1 1-1h10a1 1 0 1 1 0 2H15a1 1 0 0 1-1-1z" fill="currentColor"></path></g></svg>