<svg height="480" width="480" viewBox="0 0 480.073 480.073"><g fill="currentColor" class="nc-icon-wrapper"><path d="M430.105 239.799l-30.344-106.2a8 8 0 0 0-15.376 0l-30.344 106.2h-33.968a8 8 0 0 0-7.2 4.424c-29.84 59.68-51.44 103.947-64.8 132.8V63.799a8 8 0 0 0-15.336-3.2l-77.912 179.2h-43.392c-4.418-30.611-32.815-51.844-63.426-47.426S-3.837 225.188.581 255.799s32.815 51.844 63.426 47.426c24.574-3.547 43.879-22.852 47.426-47.426h48.64a8 8 0 0 0 7.336-4.8l64.664-148.736v313.672a8.008 8.008 0 0 0 16 .68c2.96-10.816 47.688-102.168 76.968-160.8h35.032a8 8 0 0 0 7.688-5.8l24.312-85.096 24.312 85.08a8 8 0 0 0 7.688 5.8h56v-16h-49.968zm-374.032 48c-22.091 0-40-17.909-40-40s17.909-40 40-40 40 17.909 40 40c-.027 22.081-17.92 39.974-40 40z"></path></g></svg>