<svg width="48" height="48" xmlns="http://www.w3.org/2000/svg" viewBox="0 0 48 48"><g fill="none" class="nc-icon-wrapper"><path fill-rule="evenodd" clip-rule="evenodd" d="M34 9H14a2 2 0 0 0-2 2v28a2 2 0 0 0 2 2h20a2 2 0 0 0 2-2V11a2 2 0 0 0-2-2zM14 7a4 4 0 0 0-4 4v28a4 4 0 0 0 4 4h20a4 4 0 0 0 4-4V11a4 4 0 0 0-4-4H14z" fill="#333"></path><path d="M18 7a2 2 0 0 1 2-2h8a2 2 0 0 1 2 2v2a2 2 0 0 1-2 2h-8a2 2 0 0 1-2-2V7z" fill="#fff"></path><path fill-rule="evenodd" clip-rule="evenodd" d="M17 7a3 3 0 0 1 3-3h8a3 3 0 0 1 3 3v2a3 3 0 0 1-3 3h-8a3 3 0 0 1-3-3V7zm3-1a1 1 0 0 0-1 1v2a1 1 0 0 0 1 1h8a1 1 0 0 0 1-1V7a1 1 0 0 0-1-1h-8z" fill="#333"></path><path fill-rule="evenodd" clip-rule="evenodd" d="M21.02 14.965l2.118 7.41 2.59-3.33h5.49a1 1 0 1 1 0 2h-4.511l-4.41 5.668-1.883-6.59-1.612 2.866h-7.509a1 1 0 1 1 0-2h6.34l3.388-6.024z" fill="#333"></path><path fill-rule="evenodd" clip-rule="evenodd" d="M15 31a1 1 0 0 1 1-1h16a1 1 0 1 1 0 2H16a1 1 0 0 1-1-1z" fill="#333"></path><path fill-rule="evenodd" clip-rule="evenodd" d="M18 36a1 1 0 0 1 1-1h10a1 1 0 1 1 0 2H19a1 1 0 0 1-1-1z" fill="#333"></path></g></svg>