<svg xmlns="http://www.w3.org/2000/svg" height="480" width="480" viewBox="0 0 480.562 480.562">
	<g fill="currentColor" class="nc-icon-wrapper">
		<path d="M443.701.562h-7.664c-15.317.009-27.734 12.419-27.752 27.736l-.064 188.384a23.87 23.87 0 0 1-7.048 16.976l-48.928 48.872-10.992-11.016a8 8 0 0 1 0-11.312l36-35.952.025-.025c14.511-14.525 14.5-38.064-.025-52.575a23.792 23.792 0 0 0-16.968-7.048 23.841 23.841 0 0 0-17 7.016l-72.2 72.112c-9.624 9.56-22.8 22.664-22.8 37.96v190.872a8 8 0 0 0 8 8h96a8 8 0 0 0 8-8l-.064-97.504a23.47 23.47 0 0 1 7.016-16.8l88.656-87.888a28.65 28.65 0 0 0 8.392-20.128l.136-228.936v-.008C464.425 9.85 455.149.566 443.701.562zm4.584 249.656a12.538 12.538 0 0 1-3.664 8.8l-88.64 87.88a39.866 39.866 0 0 0-11.752 28.144l.056 89.52h-80V281.698c.008-8.648 10.456-19.04 18.08-26.624l72.208-72.12a8 8 0 0 1 11.312 0c8.268 8.285 8.268 21.699 0 29.984l-36 35.944-.003.003c-9.372 9.373-9.371 24.569.003 33.941l16.688 16.672a8 8 0 0 0 11.312 0l54.56-54.52a39.792 39.792 0 0 0 11.728-28.28l.112-188.384c.009-6.487 5.265-11.743 11.752-11.752h7.656a4.728 4.728 0 0 1 4.728 4.728l-.136 228.928z">
		</path>
		<path d="M209.485 243.762l-72.24-72.136a23.8 23.8 0 0 0-16.96-7.024 23.815 23.815 0 0 0-16.92 7c-14.501 14.538-14.501 38.07 0 52.608l36 36a8 8 0 0 1 0 11.304l-10.992 11.016-48.936-48.888a24.141 24.141 0 0 1-7.04-16.96l-.112-188.384C72.245 12.98 59.826.579 44.509.562h-7.648c-11.438.044-20.694 9.314-20.72 20.752l.144 228.92a28.528 28.528 0 0 0 8.4 20.136l88.648 87.864a23.47 23.47 0 0 1 7.016 16.8l-.064 97.528a8 8 0 0 0 8 8h96a8 8 0 0 0 8-8V281.706c-.008-15.28-13.2-28.344-22.8-37.944zm6.8 220.8h-80l.064-89.528a39.866 39.866 0 0 0-11.752-28.136l-88.656-87.872a12.43 12.43 0 0 1-3.656-8.8l-.144-228.92a4.752 4.752 0 0 1 4.736-4.744h7.64c6.489.009 11.75 5.263 11.768 11.752l.112 188.384a40.25 40.25 0 0 0 11.728 28.264l54.608 54.536a8 8 0 0 0 11.312 0l16.632-16.656c9.369-9.372 9.369-24.564 0-33.936l-36-35.952c-8.269-8.288-8.269-21.704 0-29.992a7.92 7.92 0 0 1 5.648-2.352 7.91 7.91 0 0 1 5.648 2.352l72.232 72.112c7.624 7.584 18.08 17.976 18.08 26.608v182.88z">
		</path>
		<path d="M342.901 18.746c-24.994-24.994-65.518-24.994-90.512 0L241.085 30.05l-11.304-11.304c-24.994-24.994-65.518-24.994-90.512 0s-24.994 65.518 0 90.512l96.16 96.16a8 8 0 0 0 11.312 0l96.16-96.16c24.994-24.995 24.994-65.518 0-90.512zm-11.312 79.2l-90.504 90.504-90.504-90.504a48.002 48.002 0 0 1-14.062-33.95c.003-26.51 21.496-47.997 48.006-47.994a47.66 47.66 0 0 1 33.944 14.064l16.96 16.952a8 8 0 0 0 11.312 0l16.936-16.936c18.74-18.753 49.135-18.764 67.888-.024 18.753 18.74 18.764 49.134.024 67.888z">
		</path>
	</g>
</svg>
