<svg viewBox="0 0 480.562 480.562">
	<path d="M443.701,0.562h-7.664c-15.317,0.009-27.734,12.419-27.752,27.736l-0.064,188.384c0.011,6.373-2.527,12.485-7.048,16.976
			l-48.928,48.872l-10.992-11.016c-3.123-3.124-3.123-8.188,0-11.312l36-35.952c0.008-0.008,0.017-0.017,0.025-0.025
			c14.511-14.525,14.5-38.064-0.025-52.575c-4.484-4.527-10.596-7.065-16.968-7.048c-6.377-0.029-12.5,2.498-17,7.016l-72.2,72.112
			c-9.624,9.56-22.8,22.664-22.8,37.96v190.872c0,4.418,3.582,8,8,8h96c4.418,0,8-3.582,8-8l-0.064-97.504
			c-0.017-6.316,2.512-12.372,7.016-16.8l88.656-87.888c5.341-5.341,8.358-12.575,8.392-20.128l0.136-228.936
			c0-0.003,0-0.005,0-0.008C464.425,9.85,455.149,0.566,443.701,0.562z M448.285,250.218c-0.015,3.301-1.332,6.464-3.664,8.8
			l-88.64,87.88c-7.493,7.453-11.72,17.576-11.752,28.144l0.056,89.52h-80V281.698c0.008-8.648,10.456-19.04,18.08-26.624
			l72.208-72.12c3.124-3.123,8.188-3.123,11.312,0c8.268,8.285,8.268,21.699,0,29.984l-36,35.944
			c-0.001,0.001-0.002,0.002-0.003,0.003c-9.372,9.373-9.371,24.569,0.003,33.941l16.688,16.672c1.5,1.5,3.534,2.344,5.656,2.344
			c2.122,0,4.156-0.844,5.656-2.344l54.56-54.52c7.524-7.485,11.747-17.667,11.728-28.28l0.112-188.384
			c0.009-6.487,5.265-11.743,11.752-11.752h7.656c2.611,0,4.728,2.117,4.728,4.728L448.285,250.218z" />
	<path d="M209.485,243.762l-72.24-72.136c-4.487-4.515-10.595-7.045-16.96-7.024c-6.347-0.015-12.438,2.505-16.92,7
			c-14.501,14.538-14.501,38.07,0,52.608l36,36c3.118,3.123,3.118,8.181,0,11.304l-10.992,11.016l-48.936-48.888
			c-4.489-4.505-7.019-10.6-7.04-16.96L72.285,28.298C72.245,12.98,59.826,0.579,44.509,0.562h-7.648
			c-11.438,0.044-20.694,9.314-20.72,20.752l0.144,228.92c0.021,7.56,3.043,14.802,8.4,20.136l88.648,87.864
			c4.504,4.428,7.033,10.484,7.016,16.8l-0.064,97.528c0,4.418,3.582,8,8,8h96c4.418,0,8-3.582,8-8V281.706
			C232.277,266.426,219.085,253.362,209.485,243.762z M216.285,464.562h-80l0.064-89.528c-0.034-10.565-4.261-20.685-11.752-28.136
			l-88.656-87.872c-2.339-2.331-3.655-5.497-3.656-8.8l-0.144-228.92c0.004-2.615,2.121-4.735,4.736-4.744h7.64
			c6.489,0.009,11.75,5.263,11.768,11.752l0.112,188.384c0.036,10.598,4.25,20.754,11.728,28.264l54.608,54.536
			c1.5,1.5,3.534,2.344,5.656,2.344c2.122,0,4.156-0.844,5.656-2.344l16.632-16.656c9.369-9.372,9.369-24.564,0-33.936l-36-35.952
			c-8.269-8.288-8.269-21.704,0-29.992c1.492-1.509,3.526-2.356,5.648-2.352c2.122-0.005,4.157,0.842,5.648,2.352l72.232,72.112
			c7.624,7.584,18.08,17.976,18.08,26.608V464.562z" />
	<path d="M342.901,18.746c-24.994-24.994-65.518-24.994-90.512,0L241.085,30.05l-11.304-11.304
			c-24.994-24.994-65.518-24.994-90.512,0c-24.994,24.994-24.994,65.518,0,90.512l96.16,96.16c1.5,1.5,3.534,2.344,5.656,2.344
			c2.122,0,4.156-0.844,5.656-2.344l96.16-96.16C367.895,84.263,367.895,43.74,342.901,18.746z M331.589,97.946l-90.504,90.504
			l-90.504-90.504c-9.005-9.003-14.063-21.216-14.062-33.95c0.003-26.51,21.496-47.997,48.006-47.994
			c12.74-0.037,24.964,5.028,33.944,14.064l16.96,16.952c3.124,3.123,8.188,3.123,11.312,0l16.936-16.936
			c18.74-18.753,49.135-18.764,67.888-0.024C350.318,48.798,350.329,79.192,331.589,97.946z" />
</svg>
