<svg xmlns="http://www.w3.org/2000/svg" height="480" width="480" viewBox="0 0 480.192 480.192">
	<g fill="currentColor" class="nc-icon-wrapper">
		<path d="M479.615 327.199c-2.89-12.936-15.719-21.08-28.655-18.191-117.888 26.536-197.304 43.072-208.944 43.52l-61.168-24 8.304-22.192 67.504 25.296a.014.014 0 0 0 .006.002c12.417 4.639 26.243-1.666 30.882-14.082l10.232-27.36a8 8 0 0 0-4.688-10.296l-110.48-41.352c-12.704-4.808-30.104-11.4-43.8-5.136l-55.76 23.024-74.808-.464h-.048a8 8 0 0 0-8 8L0 367.32a8.05 8.05 0 0 0 2.4 5.72 8.45 8.45 0 0 0 5.752 2.296c51.88-.872 110.728-.912 117.352.624l111.856 39.96a6 6 0 0 0 2.488.392c7.48 0 39.424-5.48 221.504-45.344 11.041-2.356 18.91-12.142 18.84-23.432v-15.104c0-1.76-.193-3.515-.577-5.233zm-15.423 20.361a7.92 7.92 0 0 1-6.256 7.816c-120.56 26.392-204.448 43.856-216.384 45.056l-110.528-39.48a383.013 383.013 0 0 0-57.752-2.24v-.008c-19.144 0-39.912.232-57.224.528l.144-87.2 68.408.4a7.053 7.053 0 0 0 3.104-.608l57.504-23.752c7.896-3.6 21.704 1.624 31.784 5.432l102.976 38.56-7.432 19.872a8 8 0 0 1-10.296 4.68l-67.512-25.264c-8.275-3.091-17.49 1.11-20.584 9.384l-8.304 22.184c-3.026 8.182 1.034 17.282 9.144 20.496l62.4 24.512c3.456 1.304 9.208 3.496 217.088-43.312a7.712 7.712 0 0 1 6.712 1.544 8 8 0 0 1 3.008 6.272v15.128z">
		</path>
		<path d="M331.336 269.288a8 8 0 0 0 11.312 0l96.16-96.16c24.994-24.994 24.994-65.518 0-90.512s-65.518-24.994-90.512 0L336.992 93.92l-11.304-11.304c-24.994-24.994-65.518-24.994-90.512 0s-24.994 65.518 0 90.512l96.16 96.16zM280.432 79.872a47.66 47.66 0 0 1 33.944 14.064l16.96 16.952a8 8 0 0 0 11.312 0l16.936-16.936c18.74-18.753 49.135-18.764 67.888-.024 18.753 18.74 18.764 49.135.024 67.888l-90.504 90.504-90.504-90.504a48.002 48.002 0 0 1-14.062-33.95c.003-26.509 21.496-47.997 48.006-47.994z">
		</path>
	</g>
</svg>
