<svg width="48" height="48" xmlns="http://www.w3.org/2000/svg" viewBox="0 0 48 48"><g fill="none" class="nc-icon-wrapper"><path fill-rule="evenodd" clip-rule="evenodd" d="M34.522 5.158a.5.5 0 0 0-.5.5V7h1V5.658a.5.5 0 0 0-.5-.5zm.5 3.842h-1v2l-.399.3a1.5 1.5 0 1 0 1.799 0l-.4-.3V9zm-3-3.342a2.5 2.5 0 0 1 5 0v4.392a3.5 3.5 0 1 1-5 0V5.658zM21.425 9a3 3 0 1 1 6 0 3 3 0 0 1-6 0zm3-5a5 5 0 0 0-2.182 9.5h-.162a5 5 0 0 0-4.609 3.06l-2.429 5.768a3.072 3.072 0 0 0 3.108 4.251V41.365h1-1A2.64 2.64 0 0 0 20.785 44a2.64 2.64 0 0 0 2.635-2.635V31.192h2.01v10.173A2.64 2.64 0 0 0 28.064 44a2.64 2.64 0 0 0 2.635-2.635h-1 1V26.591a3.087 3.087 0 0 0 3.103-4.273l-2.425-5.76a5 5 0 0 0-4.608-3.06h-.162A5 5 0 0 0 24.425 4zm5.274 37.365h-1a.64.64 0 0 1-.635.635.64.64 0 0 1-.634-.635V29.192h-6.01v12.173a.64.64 0 0 1-.635.635.64.64 0 0 1-.634-.635h-1 1V25.859l4.16-1.89 4.388 1.926V41.365h1zm7.265-22.412a6.43 6.43 0 0 1 0 9.094l1.414 1.414a8.43 8.43 0 0 0 0-11.922l-1.414 1.414zm-25.082 9.09a6.425 6.425 0 0 1 0-9.086l-1.414-1.414a8.425 8.425 0 0 0 0 11.914l1.414-1.414zm2.107-6.98a3.445 3.445 0 0 0 0 4.873l-1.414 1.414a5.445 5.445 0 0 1 0-7.7l1.414 1.414zm20.864 0a3.445 3.445 0 0 1 0 4.873l1.414 1.414a5.445 5.445 0 0 0 0-7.7l-1.415 1.414zM22.08 15.5a3 3 0 0 0-2.764 1.836l-2.43 5.768a1.071 1.071 0 0 0 1.432 1.392l7.694-3.498a1.002 1.002 0 1 0-.835-1.821l-4.833 2.23-.838-1.815 4.833-2.231a3.002 3.002 0 1 1 2.5 5.458l-.084.038 3.766 1.654a1.086 1.086 0 0 0 1.438-1.416l-2.425-5.76a3 3 0 0 0-2.765-1.835H22.08z" fill="currentColor"></path></g></svg>