<svg width="48" height="48" xmlns="http://www.w3.org/2000/svg" viewBox="0 0 48 48"><g fill="none" class="nc-icon-wrapper"><path fill-rule="evenodd" clip-rule="evenodd" d="M30 9.405c0-.297.34-.493.636-.365L34 10.5l-3.364 1.46c-.295.128-.636-.068-.636-.366V9.405zm4 1.095l3.365-1.46c.295-.128.635.068.635.365v2.19c0 .297-.34.493-.635.365L34 10.5zm0 3.75a2.5 2.5 0 1 0 0 5 2.5 2.5 0 0 0 0-5zm-4.5 2.5a4.5 4.5 0 1 1 6.564 4h.436a2.5 2.5 0 0 1 2.08 1.113l4 6a2.5 2.5 0 0 1-2.616 3.829l.93 1.86.724 1.448H39v2.25a2.5 2.5 0 0 1-5 0 2.5 2.5 0 0 1-5 0V35H26.382l.724-1.447.93-1.861a2.5 2.5 0 0 1-2.616-3.829l4-6a2.5 2.5 0 0 1 2.08-1.113h.437a4.5 4.5 0 0 1-2.437-4zM29.618 33H31v4.25a.5.5 0 1 0 1 0V33h4v4.25a.5.5 0 1 0 1 0V33H38.382l-1.276-2.553-.106-.21V24.9l1.832 2.748 1.252 1.878a.5.5 0 1 0 .832-.554l-4-6a.5.5 0 0 0-.416-.223h-5a.5.5 0 0 0-.416.223l-4 6a.5.5 0 0 0 .832.554l1.252-1.878L31 24.901v5.335l-.105.211L29.618 33zM12 16.778a2.5 2.5 0 1 1 5 0 2.5 2.5 0 0 1-5 0zm2.5-4.5a4.5 4.5 0 0 0-2.063 8.5H11.5a2.5 2.5 0 0 0-2.08 1.114l-4 6A2.5 2.5 0 0 0 9 31.279v6a2.5 2.5 0 0 0 5 0v-4h1v4a2.5 2.5 0 0 0 5 0v-6a2.5 2.5 0 0 0 3.58-3.387l-4-6a2.5 2.5 0 0 0-2.08-1.114h-.936a4.5 4.5 0 0 0-2.064-8.5zm-3.416 10.723a.5.5 0 0 1 .416-.223h6a.5.5 0 0 1 .416.223l4 6a.5.5 0 1 1-.832.555l-1.252-1.878L18 24.93V37.278a.5.5 0 1 1-1 0v-6h-5v6a.5.5 0 1 1-1 0V24.93l-1.832 2.748-1.252 1.878A.5.5 0 0 1 7.084 29l4-6z" fill="currentColor"></path></g></svg>