<svg width="48" height="48" xmlns="http://www.w3.org/2000/svg" viewBox="0 0 48 48"><g fill="none" class="nc-icon-wrapper"><g clip-path="url(#clip0)"><path d="M20.34 15.158l-.01.01-1.562 1.615a4 4 0 0 1-2.876 1.22H13.673a1.35 1.35 0 1 1 0-2.7h2.3a1 1 0 0 0 .708-.295l1.744-1.753a1.35 1.35 0 0 1 1.909-.006l.705-.709-.705.71a1.35 1.35 0 0 1 .005 1.908z" stroke="#333" stroke-width="2" stroke-linecap="round" stroke-linejoin="round"></path><path d="M34.72 7a3 3 0 1 1-6 0 3 3 0 0 1 6 0z" stroke="#333" stroke-width="2"></path><path d="M31.242 15.253l-.294-.3-2.32-2.368a3 3 0 0 0-2.143-.9h-3.17l.316 6.313h1.79c.42 0 .836-.086 1.223-.25l4.598-2.495zm0 0h.42m-.42 0h.42m0 0h1.74a1.371 1.371 0 0 1 .002 2.742l-2.739.003h-.002a1.165 1.165 0 0 0-.116-.006h-.013m1.129-2.74l-1.129 2.74m-2.154-1.686l.72.72.64.643.01.01c.1.102.22.183.353.237l-1.723-1.61zm0 0l-.707.733m.707-.733l-.707.733m0 0a3.137 3.137 0 0 1-1.03.708l1.03-.708zm2.861.953h-.013m.013 0h-.013m0 0a1.038 1.038 0 0 1-.418-.076l.418.076z" stroke="#333" stroke-width="2"></path><path d="M22.018 44.112h1v1h-1v-1zm0-5v-1h1v1h-1zm-11 5v1h-1v-1h1zm0-5h-1v-1h1v1zm.472 0l.818-.575 1.105 1.575H11.49v-1zm-1.894-2.218l.725-.689-.725.69zM7.09 33.743l.862-.507-.862.507zm-.598-.981l.85-.528-.85.528zm-1.454-3.186l.993-.113-.993.113zm.169-10.439l-.946-.325.946.325zm3.607.812l-.957.293.957-.293zm.648 4.57l-.997.076.997-.075zm.606 3.674l.87-.494-.87.494zm3.173 4.611l.892-.452-1.697 1.045.805-.593zm-2.088-4.116l.873-.488.01.018.009.018-.892.452zM11 27.037l-.989-.153.989.153zm3.646.892l.723-.69.03.032.028.034-.781.624zm3.655 4.573l.78-.625.012.014.01.015-.802.596zm1.223 2.484l-.999.037 1-.037zm.443 4.126v1h-.886l-.107-.88.993-.12zm1.05 5v-5h2v5h-2zm-10-1h11v2h-11v-2zm1-4v5h-2v-5h2zm-.528 1h-.472v-2h.472v2zm-.819-.426c-.555-.791-1.148-1.417-1.8-2.103l1.45-1.378c.643.677 1.335 1.403 1.987 2.333l-1.637 1.148zm-1.8-2.103c-.852-.897-1.786-1.875-2.644-3.333l1.724-1.014c.73 1.24 1.518 2.073 2.37 2.97l-1.45 1.377zM6.227 34.25a46.31 46.31 0 0 0-.586-.96l1.7-1.056c.195.315.403.65.61 1.002L6.227 34.25zm-.586-.96c-.67-1.08-1.45-2.297-1.598-3.602l1.987-.224c.087.763.563 1.568 1.31 2.77L5.641 33.29zm-1.598-3.602c-.082-.728-.141-3.097-.132-5.381.005-1.156.027-2.316.075-3.27.024-.475.055-.91.094-1.27.037-.335.089-.69.18-.955l1.892.65-.01.037a5.924 5.924 0 0 0-.073.485c-.034.307-.063.698-.085 1.154-.046.91-.068 2.037-.073 3.177-.01 2.305.052 4.556.12 5.148l-1.988.225zm.217-10.876c.366-1.064 1.494-1.75 2.62-1.724 1.273.03 2.383.915 2.889 2.569l-1.913.585c-.314-1.028-.802-1.15-1.024-1.155-.37-.008-.634.24-.68.375l-1.892-.65zm5.509.845c.444 1.452.576 3.277.69 4.788l-1.995.15c-.119-1.578-.242-3.158-.608-4.353l1.913-.585zm.69 4.788c.06.802.114 1.518.197 2.116.089.63.193.983.28 1.138l-1.738.988c-.293-.515-.432-1.206-.522-1.848-.095-.675-.153-1.461-.212-2.244l1.994-.15zm.478 3.254c.347.61 1.11 1.722 1.815 2.718a135.619 135.619 0 0 0 1.19 1.653l.077.105.02.027.005.007.001.002-.805.593-.805.593-.002-.002-.005-.008-.021-.028-.08-.108a120.651 120.651 0 0 1-1.207-1.678c-.694-.979-1.517-2.173-1.922-2.886l1.739-.988zm1.412 5.558L10.26 29.14l1.784-.905 2.088 4.116-1.784.905zm-1.197-4.569c-.873.488-.873.488-.874.487l-.001-.003-.002-.003a.567.567 0 0 1-.015-.029 2.177 2.177 0 0 1-.088-.197 3.046 3.046 0 0 1-.137-.468 4.416 4.416 0 0 1-.023-1.591l1.977.306c-.065.416-.032.707.003.871.017.083.036.137.045.16l.005.012-.005-.01-.005-.01a.272.272 0 0 1-.004-.006l-.001-.003-.001-.002c-.001-.001-.001-.002-.874.486zm-1.14-1.804c.12-.774.594-1.633 1.176-2.148.284-.253.753-.562 1.34-.533.685.035 1.14.495 1.39.999l-1.795.884c-.027-.054-.026-.029.031.016a.495.495 0 0 0 .274.099c.18.009.212-.08.086.031-.1.09-.225.245-.334.443a1.68 1.68 0 0 0-.191.515l-1.977-.306zm3.905-1.682c.252.512.611 1.02.923 1.415a11.082 11.082 0 0 0 .497.586l.027.03.006.006-.723.69a343.821 343.821 0 0 1-.724.69l-.002-.001-.003-.004-.012-.013a13.251 13.251 0 0 1-.635-.744c-.354-.447-.808-1.081-1.148-1.771l1.794-.884zm1.511 2.103l3.655 4.573-1.562 1.248-3.655-4.572 1.562-1.249zm2.874 5.197l.803-.596.002.003.003.005.013.017a10.037 10.037 0 0 1 .191.271c.12.177.283.424.448.703.164.277.34.602.48.931.13.311.268.71.283 1.113l-1.999.074c-.001-.037-.026-.169-.126-.406a6.116 6.116 0 0 0-.36-.695 10.83 10.83 0 0 0-.541-.825l.803-.595zm2.223 2.447c.02.571.28 2.763.435 4.042l-1.985.242c-.149-1.22-.424-3.53-.449-4.21l1.999-.074zm1.493 5.163h-2.05v-2h2.05v2z" fill="#333"></path><path d="M25.982 44.112h-1v1h1v-1zm0-5v-1h-1v1h1zm11 5v1h1v-1h-1zm0-5h1v-1h-1v1zm-.472 0l-.818-.575-1.105 1.575h1.923v-1zm1.894-2.218l-.725-.689.725.69zm2.507-3.151l-.862-.507.862.507zm.598-.981l-.85-.528.85.528zm1.454-3.186l-.994-.113.994.113zm-.169-10.439l.946-.325-.946.325zm-3.607.812l.957.293-.957-.293zm-.648 4.57l.997.076-.997-.075zm-.606 3.674l-.87-.494.87.494zm-3.173 4.611l-.892-.452 1.697 1.045-.805-.593zm2.088-4.116l-.873-.488-.01.018-.009.018.892.452zM37 27.037l.988-.153-.988.153zm-3.646.892l-.723-.69-.03.032-.028.034.781.624zm-3.655 4.573l-.78-.625-.012.014-.01.015.802.596zm-1.223 2.484l.999.037-1-.037zm-.443 4.126v1h.886l.107-.88-.993-.12zm-1.05 5v-5h-2v5h2zm10-1h-11v2h11v-2zm-1-4v5h2v-5h-2zm.528 1h.472v-2h-.472v2zm.819-.426c.556-.791 1.148-1.417 1.8-2.103l-1.45-1.378c-.643.677-1.335 1.403-1.987 2.333l1.637 1.148zm1.8-2.103c.852-.897 1.786-1.875 2.644-3.333l-1.724-1.014c-.73 1.24-1.518 2.073-2.37 2.97l1.45 1.377zm2.644-3.333c.192-.327.388-.643.585-.96l-1.698-1.056c-.196.315-.404.65-.611 1.002l1.724 1.014zm.585-.96c.671-1.08 1.451-2.297 1.599-3.602l-1.988-.224c-.086.763-.562 1.568-1.31 2.77l1.7 1.056zm1.599-3.602c.082-.728.142-3.097.132-5.381a74.364 74.364 0 0 0-.075-3.27c-.024-.475-.055-.91-.094-1.27-.037-.335-.089-.69-.18-.955l-1.892.65a1.981 1.981 0 0 1 .032.15c.018.095.035.219.052.372.033.307.062.698.084 1.154.046.91.068 2.037.073 3.177.01 2.305-.053 4.556-.12 5.148l1.988.225zm-.217-10.876c-.366-1.064-1.494-1.75-2.62-1.724-1.273.03-2.383.915-2.889 2.569l1.913.585c.314-1.028.802-1.15 1.023-1.155.37-.008.635.24.681.375l1.892-.65zm-5.509.845c-.444 1.452-.576 3.277-.69 4.788l1.995.15c.118-1.578.242-3.158.608-4.353l-1.913-.585zm-.69 4.788c-.06.802-.114 1.518-.197 2.116-.089.63-.193.983-.28 1.138l1.738.988c.293-.515.432-1.206.522-1.848.095-.675.153-1.461.212-2.244l-1.994-.15zm-.478 3.254c-.347.61-1.11 1.722-1.815 2.718a135.619 135.619 0 0 1-1.19 1.653l-.077.105-.02.027-.005.007-.001.002.805.593.805.593.002-.002.005-.008.021-.028.08-.108a120.651 120.651 0 0 0 1.207-1.678c.694-.979 1.517-2.173 1.922-2.886l-1.739-.988zm-1.412 5.558l2.089-4.116-1.784-.905-2.088 4.116 1.783.905zm1.197-4.569c.873.488.873.488.874.487l.001-.003.002-.003a.567.567 0 0 0 .015-.029l.025-.05c.019-.04.04-.088.063-.146.045-.118.096-.274.137-.47.083-.39.125-.925.022-1.59l-1.976.306c.065.416.032.707-.003.871a1.063 1.063 0 0 1-.045.16l-.005.012.005-.01.005-.01a.272.272 0 0 0 .004-.006l.001-.003.001-.002c.001-.001.001-.002.874.486zm1.14-1.804c-.12-.774-.594-1.633-1.176-2.148-.284-.253-.753-.562-1.34-.533-.685.035-1.14.495-1.39.999l1.795.884c.027-.054.026-.029-.031.016a.495.495 0 0 1-.274.099c-.18.009-.212-.08-.087.031.101.09.226.245.335.443.108.198.17.384.191.515l1.976-.306zm-3.905-1.682c-.252.512-.611 1.02-.923 1.415a11.082 11.082 0 0 1-.497.586l-.027.03-.006.006.723.69c.723.691.724.69.724.69l.002-.001.003-.004.012-.013.04-.043a13.251 13.251 0 0 0 .595-.7c.354-.448.808-1.082 1.148-1.772l-1.794-.884zm-1.511 2.103l-3.655 4.573 1.562 1.248 3.655-4.572-1.562-1.249zm-2.874 5.197l-.803-.596-.002.003-.003.005-.013.017a10.037 10.037 0 0 0-.191.271c-.12.177-.283.424-.448.703a8.087 8.087 0 0 0-.48.931c-.13.311-.268.71-.283 1.113l1.999.074c.001-.037.026-.169.126-.406.093-.219.221-.46.36-.695a10.83 10.83 0 0 1 .541-.825l-.803-.595zm-2.223 2.447c-.02.571-.28 2.763-.435 4.042l1.985.242c.149-1.22.424-3.53.449-4.21l-1.999-.074zm-1.493 5.163h2.05v-2h-2.05v2z" fill="#333"></path></g><defs><clipPath id="clip0"><path fill="#fff" d="M0 0h48v48H0z"></path></clipPath></defs></g></svg>