<svg width="48" height="48" xmlns="http://www.w3.org/2000/svg" viewBox="0 0 48 48"><g fill="none" class="nc-icon-wrapper"><path fill-rule="evenodd" clip-rule="evenodd" d="M37.264 26.076l-.165-.353c-.715-1.524-.923-3.138-.987-4.57a37.976 37.976 0 0 1-.02-2.09c0-.09.002-.18.003-.267.006-.565.012-1.08 0-1.574a10.153 10.153 0 0 0-1.772-5.473 12.078 12.078 0 0 0-4.803-3.58l-.033-.014-.033-.015a19.632 19.632 0 0 0-8.159-1.755h-.002a13.477 13.477 0 0 0-9.435 3.842 12.906 12.906 0 0 0-3.884 9.214c.002 2.045.597 4.376 1.63 6.533 1.036 2.161 2.44 3.996 3.917 5.133l.78.6.007 8.915c.325.402.957.898 1.904 1.328 1.159.526 2.323.74 2.997.683l.081-.006h.082c1.956-.002 2.871-.555 3.265-.892a1.97 1.97 0 0 0 .308-.327l-.004-5.536 2.497.644h.004l.012.004.08.018a17.328 17.328 0 0 0 1.613.276c1.076.132 2.45.202 3.776.006 1.337-.197 2.451-.637 3.217-1.371.714-.684 1.341-1.829 1.34-3.925l-.002-1.71 1.681-.266h.002l.008-.002.026-.004.04-.008c.063-.013.16-.033.282-.064a6.08 6.08 0 0 0 .877-.287c.322-.136.553-.277.69-.398a.763.763 0 0 0 .06-.058 1.285 1.285 0 0 0-.094-.342c-.11-.278-.297-.6-.536-.932a8.603 8.603 0 0 0-.936-1.086l-.021-.02-.009-.008v-.001l-.284-.262zM24.944 38.453s.802.207 2 .351c3.541.427 10.543.311 10.537-7.282 0 0 3.302-.522 3.635-2.41.333-1.888-2.205-4.238-2.205-4.238-.864-1.843-.84-4.013-.816-6.05.007-.564.014-1.117.001-1.65a12.154 12.154 0 0 0-2.166-6.619 14.076 14.076 0 0 0-5.647-4.235 21.633 21.633 0 0 0-8.99-1.935A15.477 15.477 0 0 0 10.456 8.8a14.906 14.906 0 0 0-4.482 10.643c.004 4.8 2.758 10.502 6.328 13.249l.007 8.494c1.014 2.122 4.834 3.625 7.065 3.44 4.738-.003 5.572-2.74 5.572-2.74l-.003-3.433z" fill="currentColor"></path><path fill-rule="evenodd" clip-rule="evenodd" d="M27.853 17.568l1.103.72c.239.155.514.256.802.293l1.731-.614c.228-.247.38-.544.447-.86.083-.4.023-.82-.175-1.188a1.91 1.91 0 0 0-.946-.852l-.946-.398-.227-1a1.72 1.72 0 0 0-.43-.798l-1.726-.587-.98.001-.598-.848a1.876 1.876 0 0 0-.97-.7l-3.816-.256a1.9 1.9 0 0 0-1.004.47l-.773.7-1.017-.232a1.933 1.933 0 0 0-1.491.243 1.782 1.782 0 0 0-.67.762l-.23.503-2.108 1.456c-.136.25-.205.525-.204.802v.032c-.002.135.016.27.055.4l.294.994-.643.813c-.238.301-.36.663-.357 1.027v.015c0 .428.167.85.485 1.176l.502.517.057.717c.025.31.137.613.33.874.193.262.46.475.78.608l.14.058.13.08c.999.608 1.85 1.43 2.488 2.408.318.488.543.991.706 1.486h.504l-.002-1.978 2-.002m-6.737-.207a5.825 5.825 0 0 1 1.853 1.793c.472.724.667 1.543.772 2.395l4.116-.003-.002-2m-6.739-2.185a3.852 3.852 0 0 1-1.62-1.267 3.703 3.703 0 0 1-.712-1.9 3.685 3.685 0 0 1-.263-4.852 3.348 3.348 0 0 1-.137-.994 3.685 3.685 0 0 1 .751-2.235l1.97-1.36a3.782 3.782 0 0 1 1.419-1.621 3.933 3.933 0 0 1 3.008-.505 3.907 3.907 0 0 1 2.308-.995l4.19.28a3.885 3.885 0 0 1 2.272 1.53h.272l2.421.822a3.74 3.74 0 0 1 1.356 2.118 3.91 3.91 0 0 1 1.931 1.749c.42.781.55 1.679.37 2.542a3.828 3.828 0 0 1-1.356 2.202l-2.479.88a3.932 3.932 0 0 1-2.194-.634c-.234.155-.35.285-.44.386-.155.174-.236.265-.726.266a3.917 3.917 0 0 1-2.167-.65 4.356 4.356 0 0 1-1.607 1.05m3.445-2.428l.009-.007c.113-.095.238-.19.378-.282l1.097-.73" fill="currentColor"></path><path d="M14.782 19.411l6.115-.957-3.97-4.396-2.145 5.353z" fill="currentColor"></path><path d="M22.086 11.473l-1.81 3.364 3.427 1.777 1.81-3.364-3.427-1.777z" fill="currentColor"></path><path d="M33.978 23.963a1.5 1.5 0 1 1-3 .003 1.5 1.5 0 0 1 3-.003z" fill="currentColor"></path><path fill-rule="evenodd" clip-rule="evenodd" d="M20.985 32.474l-4 .003-.002-2 4-.003.002 2z" fill="currentColor"></path><path fill-rule="evenodd" clip-rule="evenodd" d="M20.988 36.474l-4 .003-.001-2 4-.003.001 2z" fill="currentColor"></path><path fill-rule="evenodd" clip-rule="evenodd" d="M20.992 40.474l-4 .003-.002-2 4-.003.002 2z" fill="currentColor"></path></g></svg>