<svg width="48" height="48" xmlns="http://www.w3.org/2000/svg" viewBox="0 0 48 48"><g fill="none" class="nc-icon-wrapper"><path fill-rule="evenodd" clip-rule="evenodd" d="M21 9a3 3 0 1 1 6 0 3 3 0 0 1-6 0zm3-5a5 5 0 0 0-2.182 9.5h-.162a5 5 0 0 0-4.608 3.06l-2.43 5.768a3.072 3.072 0 0 0 3.108 4.251V41.365h1-1A2.64 2.64 0 0 0 20.36 44a2.64 2.64 0 0 0 2.635-2.635V31.192h2.01v10.173A2.64 2.64 0 0 0 27.64 44a2.64 2.64 0 0 0 2.634-2.635h-1 1V26.591a3.086 3.086 0 0 0 3.103-4.273l-2.425-5.76a5 5 0 0 0-4.608-3.059h-.162A5 5 0 0 0 24 4zm4.274 21.895V41.365h1-1a.64.64 0 0 1-.634.635.64.64 0 0 1-.635-.635V29.192h-6.01v12.173a.64.64 0 0 1-.635.635.64.64 0 0 1-.634-.635h-1 1V25.858l4.16-1.89 4.388 1.926zm8.265-6.942a6.43 6.43 0 0 1 0 9.094l1.414 1.414a8.43 8.43 0 0 0 0-11.922l-1.414 1.414zm-25.082 9.09a6.425 6.425 0 0 1 0-9.086l-1.414-1.414a8.425 8.425 0 0 0 0 11.914l1.414-1.414zm2.107-6.979a3.445 3.445 0 0 0 0 4.872L12.15 27.35a5.445 5.445 0 0 1 0-7.7l1.414 1.414zm20.864 0a3.445 3.445 0 0 1 0 4.872l1.414 1.414a5.445 5.445 0 0 0 0-7.7l-1.414 1.414zM21.656 15.5a3 3 0 0 0-2.765 1.836l-2.429 5.768a1.072 1.072 0 0 0 1.431 1.392l7.694-3.498a1.002 1.002 0 1 0-.834-1.821l-4.834 2.231-.838-1.816 4.834-2.23a3.002 3.002 0 1 1 2.5 5.457l-.085.039 3.767 1.653a1.086 1.086 0 0 0 1.437-1.416l-2.425-5.76a3 3 0 0 0-2.765-1.835h-4.688z" fill="currentColor"></path></g></svg>