<svg width="48" height="48" xmlns="http://www.w3.org/2000/svg" viewBox="0 0 48 48"><g fill="none" class="nc-icon-wrapper"><path fill-rule="evenodd" clip-rule="evenodd" d="M18 4H4V2h14c5.185 0 9.449 3.947 9.95 9H30v6H18v-6h2a1 1 0 0 0-1-1H4V8h15a3 3 0 0 1 3 3h3.938A8.001 8.001 0 0 0 18 4zm10 9h-8v2h8v-2zm-4 6s-10 7-10 16a10 10 0 0 0 20 0c0-9-10-16-10-16zm.267 2.758a28.889 28.889 0 0 0-.267-.224 30.518 30.518 0 0 0-3.49 3.404C18.123 27.68 16 31.22 16 35a8 8 0 0 0 16 0c0-3.78-2.124-7.32-4.51-10.063a30.518 30.518 0 0 0-3.223-3.179zM29 30a1 1 0 1 1-2 0 1 1 0 0 1 2 0zm-6-3a1 1 0 1 0 0-2 1 1 0 0 0 0 2zm4 12a1 1 0 1 1-2 0 1 1 0 0 1 2 0zm-7-7a1 1 0 1 0 2 0 1 1 0 0 1 1-1 1 1 0 1 0 0-2 3 3 0 0 0-3 3zm5.517 2.327a1 1 0 0 1 .707-1.225 3 3 0 0 1 3.674 2.121 1 1 0 0 1-1.932.518 1 1 0 0 0-1.225-.707 1 1 0 0 1-1.224-.707zM22 39a1 1 0 1 0 0-2 1 1 0 0 1-1-1 1 1 0 1 0-2 0 3 3 0 0 0 3 3z" fill="currentColor"></path></g></svg>