<svg width="48" height="48" xmlns="http://www.w3.org/2000/svg" viewBox="0 0 48 48"><g fill="none" class="nc-icon-wrapper"><path fill-rule="evenodd" clip-rule="evenodd" d="M23.448 13.166a1 1 0 0 1 1.104 0l6.8 4.5a1 1 0 0 1 .448.834v4.3l9.466 2.611a1 1 0 0 1 .734.964V42h-2V27.137l-9.466-2.61a1 1 0 0 1-.734-.965v-4.525L24 15.2l-5.8 3.838v4.526a1 1 0 0 1-.64.932L8 28.185V42H6V27.5a1 1 0 0 1 .64-.933l9.56-3.69V18.5a1 1 0 0 1 .448-.834l6.8-4.5z" fill="currentColor"></path><path fill-rule="evenodd" clip-rule="evenodd" d="M18 27v15h-2V27h2z" fill="currentColor"></path><path fill-rule="evenodd" clip-rule="evenodd" d="M32 27v15h-2V27h2z" fill="currentColor"></path><path d="M21 32a3 3 0 1 1 6 0v10h-6V32z" fill="currentColor"></path><path fill-rule="evenodd" clip-rule="evenodd" d="M23 14V6h2v8h-2z" fill="currentColor"></path><path fill-rule="evenodd" clip-rule="evenodd" d="M28 11h-8V9h8v2z" fill="currentColor"></path></g></svg>