<svg width="48" height="48" xmlns="http://www.w3.org/2000/svg" viewBox="0 0 48 48"><g fill="none" class="nc-icon-wrapper"><path fill-rule="evenodd" clip-rule="evenodd" d="M30.743 28.087l.702.165c.92.215 1.904.445 2.866.713 1.401.39 2.598.82 3.332 1.303C39.296 31.353 40 32.454 40 33.5V40H26.876l3.867-11.913zM24.773 40l4.257-13.115.032-.065a1.48 1.48 0 0 1 1.675-.792c.341.084.717.172 1.114.265.938.219 1.993.466 2.996.745 1.413.394 2.877.89 3.894 1.558C40.614 29.826 42 31.453 42 33.5V42H6v-8.5c0-2.047 1.387-3.675 3.26-4.904 1.016-.668 2.48-1.164 3.893-1.558 1.002-.279 2.058-.526 2.996-.745.397-.093.773-.181 1.114-.264a1.48 1.48 0 0 1 1.675.791l.027.054L23.582 40h1.191zm-3.31 0L17.27 28.084l-.715.168c-.92.215-1.904.445-2.866.713-1.402.39-2.598.82-3.332 1.303C8.704 31.353 8 32.454 8 33.5V40h13.462z" fill="currentColor"></path><path d="M21 26h6l-1 3h-4l-1-3z" fill="currentColor"></path><path d="M22 36l1-9h2l1 9v5h-4v-5z" fill="currentColor"></path><path fill-rule="evenodd" clip-rule="evenodd" d="M24 8a7 7 0 1 0 0 14 7 7 0 0 0 0-14zm-9 7a9 9 0 1 1 18 0 9 9 0 0 1-18 0z" fill="currentColor"></path></g></svg>