<svg width="48" height="48" xmlns="http://www.w3.org/2000/svg" viewBox="0 0 48 48"><g fill="none" class="nc-icon-wrapper"><path fill-rule="evenodd" clip-rule="evenodd" d="M9 18a1 1 0 0 0-1 1v23H6V19a3 3 0 0 1 3-3h12a3 3 0 0 1 3 3v23h-2V19a1 1 0 0 0-1-1H9z" fill="currentColor"></path><path fill-rule="evenodd" clip-rule="evenodd" d="M39 20h-7v-2h7a3 3 0 0 1 3 3v21h-2V21a1 1 0 0 0-1-1z" fill="currentColor"></path><path fill-rule="evenodd" clip-rule="evenodd" d="M18 6a1 1 0 0 0-1 1v10h-2V7a3 3 0 0 1 3-3h12a3 3 0 0 1 3 3v35h-2V7a1 1 0 0 0-1-1H18z" fill="currentColor"></path><path fill-rule="evenodd" clip-rule="evenodd" d="M44 44H4v-2h40v2z" fill="currentColor"></path><path fill-rule="evenodd" clip-rule="evenodd" d="M20 8a1 1 0 0 0-1 1v2a1 1 0 0 0 1 1h2a1 1 0 0 0 1-1V9a1 1 0 0 0-1-1h-2z" fill="currentColor"></path><path fill-rule="evenodd" clip-rule="evenodd" d="M11 20a1 1 0 0 0-1 1v2a1 1 0 0 0 1 1h2a1 1 0 0 0 1-1v-2a1 1 0 0 0-1-1h-2z" fill="currentColor"></path><path fill-rule="evenodd" clip-rule="evenodd" d="M17 20a1 1 0 0 0-1 1v2a1 1 0 0 0 1 1h2a1 1 0 0 0 1-1v-2a1 1 0 0 0-1-1h-2z" fill="currentColor"></path><path fill-rule="evenodd" clip-rule="evenodd" d="M20 14a1 1 0 0 0-1 1v2a1 1 0 0 0 1 1h2a1 1 0 0 0 1-1v-2a1 1 0 0 0-1-1h-2z" fill="currentColor"></path><path fill-rule="evenodd" clip-rule="evenodd" d="M11 26a1 1 0 0 0-1 1v2a1 1 0 0 0 1 1h2a1 1 0 0 0 1-1v-2a1 1 0 0 0-1-1h-2z" fill="currentColor"></path><path fill-rule="evenodd" clip-rule="evenodd" d="M11 32a1 1 0 0 0-1 1v2a1 1 0 0 0 1 1h2a1 1 0 0 0 1-1v-2a1 1 0 0 0-1-1h-2z" fill="currentColor"></path><path fill-rule="evenodd" clip-rule="evenodd" d="M17 26a1 1 0 0 0-1 1v2a1 1 0 0 0 1 1h2a1 1 0 0 0 1-1v-2a1 1 0 0 0-1-1h-2z" fill="currentColor"></path><path fill-rule="evenodd" clip-rule="evenodd" d="M17 32a1 1 0 0 0-1 1v2a1 1 0 0 0 1 1h2a1 1 0 0 0 1-1v-2a1 1 0 0 0-1-1h-2z" fill="currentColor"></path><path fill-rule="evenodd" clip-rule="evenodd" d="M26 8a1 1 0 0 0-1 1v2a1 1 0 0 0 1 1h2a1 1 0 0 0 1-1V9a1 1 0 0 0-1-1h-2z" fill="currentColor"></path><path fill-rule="evenodd" clip-rule="evenodd" d="M26 14a1 1 0 0 0-1 1v2a1 1 0 0 0 1 1h2a1 1 0 0 0 1-1v-2a1 1 0 0 0-1-1h-2z" fill="currentColor"></path><path fill-rule="evenodd" clip-rule="evenodd" d="M26 20a1 1 0 0 0-1 1v2a1 1 0 0 0 1 1h2a1 1 0 0 0 1-1v-2a1 1 0 0 0-1-1h-2z" fill="currentColor"></path><path fill-rule="evenodd" clip-rule="evenodd" d="M26 26a1 1 0 0 0-1 1v2a1 1 0 0 0 1 1h2a1 1 0 0 0 1-1v-2a1 1 0 0 0-1-1h-2z" fill="currentColor"></path><path fill-rule="evenodd" clip-rule="evenodd" d="M35 22a1 1 0 0 0-1 1v2a1 1 0 0 0 1 1h2a1 1 0 0 0 1-1v-2a1 1 0 0 0-1-1h-2z" fill="currentColor"></path><path fill-rule="evenodd" clip-rule="evenodd" d="M35 28a1 1 0 0 0-1 1v2a1 1 0 0 0 1 1h2a1 1 0 0 0 1-1v-2a1 1 0 0 0-1-1h-2z" fill="currentColor"></path><path fill-rule="evenodd" clip-rule="evenodd" d="M35 34a1 1 0 0 0-1 1v2a1 1 0 0 0 1 1h2a1 1 0 0 0 1-1v-2a1 1 0 0 0-1-1h-2z" fill="currentColor"></path><path fill-rule="evenodd" clip-rule="evenodd" d="M26 32a1 1 0 0 0-1 1v2a1 1 0 0 0 1 1h2a1 1 0 0 0 1-1v-2a1 1 0 0 0-1-1h-2z" fill="currentColor"></path></g></svg>