<svg width="48" height="48" xmlns="http://www.w3.org/2000/svg" viewBox="0 0 48 48"><g fill="none" class="nc-icon-wrapper"><path fill-rule="evenodd" clip-rule="evenodd" d="M19 18l-3-1 3-1 1-4 1 4 3 1-3 1-1 4-1-4z" fill="currentColor"></path><path fill-rule="evenodd" clip-rule="evenodd" d="M30.673 12.9l-2.2 1.1 2.162 1.082.865 2.593.865-2.593L34.528 14l-2.201-1.1-.827-2.812-.827 2.812zM29 11.5L24 14l5 2.5 2.5 7.5 2.5-7.5 5-2.5-5-2.5L31.5 3 29 11.5z" fill="currentColor"></path><path fill-rule="evenodd" clip-rule="evenodd" d="M5 26a1 1 0 0 1 1-1h6a1 1 0 0 1 1 1v.355c1.222-.436 2.447-.884 2.867-1.072.414-.185.894-.248 1.3-.271a9.696 9.696 0 0 1 1.253.021 15.548 15.548 0 0 1 1.398.173l.025.005h.007l.004.001-.18.984.18-.984a.816.816 0 0 1 .035.008l7.016 1.544a.987.987 0 0 1 .084.022l.002.001.01.003.05.015.201.057c.176.048.429.112.73.177.611.13 1.384.253 2.107.253.638 0 1.297.231 1.653.87.309.556.238 1.168.12 1.595-.156.574-.496 1.18-.923 1.674a61.325 61.325 0 0 0 1.943-.758l.064-.025c1.718-.692 3.746-1.508 5.533-1.798 2.023-.329 3.49.388 4.158 1.668.6 1.149.457 2.654-.438 3.554-.223.225-.566.462-.914.684-.37.236-.828.503-1.337.786a91.232 91.232 0 0 1-3.549 1.85c-2.512 1.25-5.14 2.464-5.972 2.763-1.417.51-3.067.346-4.599.194l-.134-.013c-.456-.045-.913-.09-1.38-.125-2.03-.15-3.586-.636-5.029-1.086l-.024-.008c-1.552-.484-2.976-.924-4.889-1-.255-.01-.768-.003-1.372.013v1.37a1 1 0 0 1-1 1H6a1 1 0 0 1-1-1V26zm17.086 5.933l-.176.984a1 1 0 0 1 .188-1.984l5.664.067h.013a1.513 1.513 0 0 0 .266-.045c.225-.057.588-.19 1.035-.503.16-.111.348-.302.52-.546.151-.217.26-.436.32-.616-.864-.017-1.718-.16-2.353-.296a15.898 15.898 0 0 1-1.127-.285l-6.957-1.532h-.004a10.468 10.468 0 0 0-.335-.053c-.226-.032-.536-.07-.871-.096a7.718 7.718 0 0 0-.99-.02c-.325.019-.515.065-.595.101-.675.302-2.885 1.088-4.353 1.603A1 1 0 0 1 11 27.77V27H7v11.5h4v-1.34a1 1 0 0 1 .966-.999c.956-.033 2.01-.061 2.485-.042 2.19.086 3.832.598 5.379 1.08l.027.01c1.448.451 2.815.875 4.605 1.008.494.036.972.084 1.423.128h.005c1.712.17 2.915.268 3.86-.072.703-.253 3.227-1.411 5.758-2.671a89.218 89.218 0 0 0 3.467-1.807c.492-.274.912-.52 1.236-.726.348-.221.519-.356.57-.407.202-.203.333-.739.083-1.218-.181-.347-.688-.844-2.064-.62-1.544.25-3.376.982-5.17 1.705l-.022.008c-.889.358-1.77.713-2.55.97-.755.25-1.555.457-2.234.417-.99-.059-2.74-.316-4.197-.549a167.76 167.76 0 0 1-2.499-.42l-.161-.028-.056-.01.175-.984z" fill="currentColor"></path></g></svg>