<svg width="48" height="48" xmlns="http://www.w3.org/2000/svg" viewBox="0 0 48 48"><g fill="none" class="nc-icon-wrapper"><path fill-rule="evenodd" clip-rule="evenodd" d="M22 9v2.688a1.5 1.5 0 0 1-1 1.414V39a3 3 0 1 0 6 0V13.102a1.5 1.5 0 0 1-1-1.415V9h2v2.273a1.5 1.5 0 0 1 1 1.415V39a5 5 0 0 1-10 0V12.687a1.5 1.5 0 0 1 1-1.414V9h2z" fill="currentColor"></path><path fill-rule="evenodd" clip-rule="evenodd" d="M20 6v2h8V6h-8zm-1-2a1 1 0 0 0-1 1v4a1 1 0 0 0 1 1h10a1 1 0 0 0 1-1V5a1 1 0 0 0-1-1H19z" fill="currentColor"></path><path fill-rule="evenodd" clip-rule="evenodd" d="M28 20h-8v-2h8v2z" fill="currentColor"></path></g></svg>