<svg width="48" height="48" xmlns="http://www.w3.org/2000/svg" viewBox="0 0 48 48"><g fill="none" class="nc-icon-wrapper"><path fill-rule="evenodd" clip-rule="evenodd" d="M17 7a3 3 0 0 1 3-3h8a3 3 0 0 1 3 3v2a3 3 0 0 1-3 3h-8a3 3 0 0 1-3-3V7zm3-1a1 1 0 0 0-1 1v2a1 1 0 0 0 1 1h8a1 1 0 0 0 1-1V7a1 1 0 0 0-1-1h-8z" fill="currentColor"></path><path fill-rule="evenodd" clip-rule="evenodd" d="M13 9a1 1 0 0 0-1 1v31a1 1 0 0 0 1 1h22a1 1 0 0 0 1-1V10a1 1 0 0 0-1-1h-5V7h5a3 3 0 0 1 3 3v31a3 3 0 0 1-3 3H13a3 3 0 0 1-3-3V10a3 3 0 0 1 3-3h5v2h-5z" fill="currentColor"></path><path fill-rule="evenodd" clip-rule="evenodd" d="M19 23v-8h2v8h-2z" fill="currentColor"></path><path fill-rule="evenodd" clip-rule="evenodd" d="M24 20h-8v-2h8v2z" fill="currentColor"></path><path fill-rule="evenodd" clip-rule="evenodd" d="M16 27a1 1 0 0 1 1-1h14a1 1 0 1 1 0 2H17a1 1 0 0 1-1-1z" fill="currentColor"></path><path fill-rule="evenodd" clip-rule="evenodd" d="M16 32a1 1 0 0 1 1-1h14a1 1 0 1 1 0 2H17a1 1 0 0 1-1-1z" fill="currentColor"></path><path fill-rule="evenodd" clip-rule="evenodd" d="M16 37a1 1 0 0 1 1-1h14a1 1 0 1 1 0 2H17a1 1 0 0 1-1-1z" fill="currentColor"></path></g></svg>