<svg width="48" height="48" xmlns="http://www.w3.org/2000/svg" viewBox="0 0 48 48"><g fill="none" class="nc-icon-wrapper"><path fill-rule="evenodd" clip-rule="evenodd" d="M41 22h-2v15.333l1 1.334 1-1.334V22zm2 16l-3 4-3-4V20h6v18z" fill="currentColor"></path><path fill-rule="evenodd" clip-rule="evenodd" d="M41 15h-2v2h2v-2zm-2-2h2a2 2 0 0 1 2 2v4h-6v-4a2 2 0 0 1 2-2z" fill="currentColor"></path><path d="M13 26a1 1 0 1 0 0 2h14a1 1 0 1 0 0-2H13z" fill="currentColor"></path><path d="M12 32a1 1 0 0 1 1-1h14a1 1 0 1 1 0 2H13a1 1 0 0 1-1-1z" fill="currentColor"></path><path d="M13 36a1 1 0 1 0 0 2h10a1 1 0 1 0 0-2H13z" fill="currentColor"></path><path d="M16 15a1 1 0 0 1 1 1v2h2a1 1 0 1 1 0 2h-2v2a1 1 0 0 1-2 0v-2h-2a1 1 0 1 1 0-2h2v-2a1 1 0 0 1 1-1z" fill="currentColor"></path><path fill-rule="evenodd" clip-rule="evenodd" d="M13 7a3 3 0 0 1 3-3h8a3 3 0 0 1 3 3h3a4 4 0 0 1 4 4v28a4 4 0 0 1-4 4H10a4 4 0 0 1-4-4V11a4 4 0 0 1 4-4h3zm11 5a3 3 0 0 0 3-3h3a2 2 0 0 1 2 2v28a2 2 0 0 1-2 2H10a2 2 0 0 1-2-2V11a2 2 0 0 1 2-2h3a3 3 0 0 0 3 3h8zm-8-6a1 1 0 0 0-1 1v2a1 1 0 0 0 1 1h8a1 1 0 0 0 1-1V7a1 1 0 0 0-1-1h-8z" fill="currentColor"></path></g></svg>