<svg width="48" height="48" xmlns="http://www.w3.org/2000/svg" viewBox="0 0 48 48"><g fill="none" class="nc-icon-wrapper"><path fill-rule="evenodd" clip-rule="evenodd" d="M20 40c6.627 0 12-5.373 12-12s-5.373-12-12-12S8 21.373 8 28s5.373 12 12 12zm0 4c8.837 0 16-7.163 16-16s-7.163-16-16-16S4 19.163 4 28s7.163 16 16 16z" fill="currentColor"></path><path fill-rule="evenodd" clip-rule="evenodd" d="M35.971 28.97A11.97 11.97 0 0 0 40 20c0-6.627-5.373-12-12-12a11.97 11.97 0 0 0-8.97 4.029c-1.992.12-3.886.603-5.616 1.385C15.924 7.863 21.511 4 28 4c8.837 0 16 7.163 16 16 0 6.489-3.863 12.075-9.414 14.586a15.913 15.913 0 0 0 1.385-5.616z" fill="currentColor"></path><path d="M18.289 20h3.422v1.6h3.423v3.2h-6.845l-.154.013a.87.87 0 0 0-.505.274.77.77 0 0 0-.199.513c0 .187.07.369.2.513a.87.87 0 0 0 .504.274l.154.013h3.422l.28.008a4.401 4.401 0 0 1 2.898 1.303 3.851 3.851 0 0 1 1.109 2.82 3.886 3.886 0 0 1-1.305 2.747 4.44 4.44 0 0 1-2.982 1.122V36H18.29v-1.6h-3.423v-3.2h6.845l.154-.013a.87.87 0 0 0 .505-.274.77.77 0 0 0 .199-.513.77.77 0 0 0-.2-.513.87.87 0 0 0-.504-.274l-.154-.013H18.29l-.28-.008a4.401 4.401 0 0 1-2.898-1.303 3.851 3.851 0 0 1-1.109-2.82 3.886 3.886 0 0 1 1.305-2.747 4.44 4.44 0 0 1 2.982-1.122V20z" fill="currentColor"></path></g></svg>