<svg width="48" height="48" xmlns="http://www.w3.org/2000/svg" viewBox="0 0 48 48"><g fill="none" class="nc-icon-wrapper"><path fill-rule="evenodd" clip-rule="evenodd" d="M24.03 29.431a2 2 0 0 1-.741 1.854 6 6 0 1 0 7.422 0 2 2 0 0 1-.741-1.854c.02-.14.03-.284.03-.431V9a3 3 0 1 0-6 0v20c0 .148.01.291.03.431zM22 9a5 5 0 0 1 10 0v20c0 .242-.017.481-.05.714a8 8 0 1 1-9.899 0A5.055 5.055 0 0 1 22 29V9z" fill="currentColor"></path><path d="M27 11a1 1 0 0 1 1-1h2v2h-2a1 1 0 0 1-1-1z" fill="currentColor"></path><path d="M27 15a1 1 0 0 1 1-1h2v2h-2a1 1 0 0 1-1-1z" fill="currentColor"></path><path d="M27 19a1 1 0 0 1 1-1h2v2h-2a1 1 0 0 1-1-1z" fill="currentColor"></path><path fill-rule="evenodd" clip-rule="evenodd" d="M22.308 30.293l10 10 1.414-1.414-10-10-1.414 1.414z" fill="currentColor"></path><path fill-rule="evenodd" clip-rule="evenodd" d="M22.308 26.293l11 11 1.414-1.414-11-11-1.414 1.414z" fill="currentColor"></path><path fill-rule="evenodd" clip-rule="evenodd" d="M23.722 23.707l6.5 6.5 1.414-1.414-6.5-6.5-1.414 1.414z" fill="currentColor"></path><path fill-rule="evenodd" clip-rule="evenodd" d="M27.722 23.707l2.5 2.5 1.414-1.414-2.5-2.5-1.414 1.414z" fill="currentColor"></path><path fill-rule="evenodd" clip-rule="evenodd" d="M23 22h8v2h-8v-2z" fill="currentColor"></path><path fill-rule="evenodd" clip-rule="evenodd" d="M21.015 33l10 10 1.414-1.414-10-10L21.015 33z" fill="currentColor"></path><path fill-rule="evenodd" clip-rule="evenodd" d="M19.722 35.707l8 8 1.414-1.414-8-8-1.414 1.414z" fill="currentColor"></path><path fill-rule="evenodd" clip-rule="evenodd" d="M11.123 12.219a1.219 1.219 0 0 1 2.437 0v3.17l2.746-1.585a1.219 1.219 0 0 1 1.219 2.11L14.779 17.5l2.746 1.585a1.219 1.219 0 1 1-1.22 2.11l-2.745-1.584v3.17a1.219 1.219 0 1 1-2.437 0v-3.17l-2.746 1.585a1.219 1.219 0 1 1-1.219-2.111L9.904 17.5l-2.746-1.585a1.219 1.219 0 0 1 1.22-2.111l2.745 1.585v-3.17z" fill="currentColor"></path></g></svg>