<svg xmlns="http://www.w3.org/2000/svg" height="480" width="480" viewBox="0 0 480 480">
	<g fill="currentColor" class="nc-icon-wrapper">
		<path d="M312 168a8 8 0 0 0-8 8v248a8 8 0 0 0 16 0V176a8 8 0 0 0-8-8z">
		</path>
		<path d="M248 72a8 8 0 0 0 0 16c30.913.035 55.965 25.087 56 56a8 8 0 0 0 16 0c-.044-39.746-32.254-71.956-72-72z">
		</path>
		<path d="M352 432V152c.037-45.126-29.055-85.118-72-98.976V40c0-22.091-17.909-40-40-40s-40 17.909-40 40v13.024c-42.945 13.858-72.037 53.85-72 98.976v280c-13.224.074-23.926 10.776-24 24 0 13.255 10.745 24 24 24h224c13.224-.074 23.926-10.776 24-24 0-13.255-10.745-24-24-24zm5.552 29.696A7.656 7.656 0 0 1 352 464H128a8 8 0 0 1-8-8 7.798 7.798 0 0 1 2.456-5.696A7.613 7.613 0 0 1 128 448h8a8 8 0 0 0 8-8V152c-.042-40.14 27.118-75.208 65.992-85.208A8 8 0 0 0 216 59.04V40c0-13.255 10.745-24 24-24s24 10.745 24 24v19.04a8 8 0 0 0 6.008 7.752c38.874 10 66.034 45.068 65.992 85.208v288a8 8 0 0 0 8 8h8a8 8 0 0 1 8 8 7.823 7.823 0 0 1-2.448 5.696z">
		</path>
	</g>
</svg>
