<svg width="48" height="48" xmlns="http://www.w3.org/2000/svg" viewBox="0 0 48 48"><g fill="none" class="nc-icon-wrapper"><path fill-rule="evenodd" clip-rule="evenodd" d="M19 10a4 4 0 0 0-4 4h-2a6 6 0 0 1 6-6h10a1 1 0 0 1 1 1v1h1V8h3v6h-3v-2h-1v1a1 1 0 0 1-1 1h-2v7.586l.707.707.293.293V39a3 3 0 0 1-3 3h-1a3 3 0 0 1-3-3V22.586l.293-.293.707-.707V14h-1a2 2 0 0 1-2-2v-2zm9 0h-7v2h7v-2zm-4 12v-8h1v8.414l.293.293.707.707V39a1 1 0 0 1-1 1h-1a1 1 0 0 1-1-1V23.414l.707-.707.293-.293V22z" fill="currentColor"></path></g></svg>