<svg width="48" height="48" xmlns="http://www.w3.org/2000/svg" viewBox="0 0 48 48"><g fill="none" class="nc-icon-wrapper"><path fill-rule="evenodd" clip-rule="evenodd" d="M18.445 10.168a1 1 0 0 1 1.387.277l1.301 1.952a2 2 0 0 1-.962 2.982l-4.224 1.584A3 3 0 0 0 14 19.772V38a3 3 0 0 0 3 3h14a3 3 0 0 0 3-3V19.772a3 3 0 0 0-1.947-2.809l-4.224-1.584a2 2 0 0 1-.962-2.982l1.3-1.952a1 1 0 0 1 1.665 1.11l-1.3 1.951 4.224 1.584A5 5 0 0 1 36 19.772V38a5 5 0 0 1-5 5H17a5 5 0 0 1-5-5V19.772a5 5 0 0 1 3.244-4.682l4.225-1.584-1.301-1.951a1 1 0 0 1 .277-1.387z" fill="currentColor"></path><path fill-rule="evenodd" clip-rule="evenodd" d="M24 35a7 7 0 1 0 0-14 7 7 0 0 0 0 14zm0 2a9 9 0 1 0 0-18 9 9 0 0 0 0 18z" fill="currentColor"></path><path fill-rule="evenodd" clip-rule="evenodd" d="M28.293 33.707l-10-10 1.414-1.414 10 10-1.414 1.414z" fill="currentColor"></path><path fill-rule="evenodd" clip-rule="evenodd" d="M26.12 27.998c.049-.184.062-.386.031-.6l-.028-.195c.604.06 1.292-.188 1.825-.721.839-.839.974-2.063.304-2.733-.671-.671-1.895-.535-2.734.303-.743.744-.934 1.79-.5 2.485l.06.42 1.042 1.041zm-4.033.21a1.436 1.436 0 0 0-.186 1.161l.11.442a.32.32 0 0 1-.508.33c-.967-.76-2.357.097-2.11 1.302l.097.475.98-.2-.098-.475a.32.32 0 0 1 .512-.316c.99.778 2.403-.137 2.098-1.359l-.111-.442a.495.495 0 0 1-.015-.148l-.77-.77z" fill="currentColor"></path><path fill-rule="evenodd" clip-rule="evenodd" d="M30 10V7.334L26.973 6.14A2 2 0 0 0 26.24 6h-4.478a2 2 0 0 0-.734.14L18 7.334V10h12zM17.266 5.474A2 2 0 0 0 16 7.334V12h16V7.334a2 2 0 0 0-1.266-1.86L27.708 4.28A4 4 0 0 0 26.239 4h-4.478a4 4 0 0 0-1.469.28l-3.026 1.194z" fill="currentColor"></path><path fill-rule="evenodd" clip-rule="evenodd" d="M20 11V8h2v3h-2z" fill="currentColor"></path><path fill-rule="evenodd" clip-rule="evenodd" d="M23 11V8h2v3h-2z" fill="currentColor"></path><path fill-rule="evenodd" clip-rule="evenodd" d="M26 11V8h2v3h-2z" fill="currentColor"></path></g></svg>