<svg width="48" height="48" xmlns="http://www.w3.org/2000/svg" viewBox="0 0 48 48"><g fill="none" class="nc-icon-wrapper"><path fill-rule="evenodd" clip-rule="evenodd" d="M4.701 27.382c.722-1.357 2.057-2.396 3.56-2.84l.568 1.917c-1.03.305-1.912 1.016-2.362 1.862-.43.809-.48 1.749.132 2.7.645 1.004 2.101 2.137 4.949 3.016 2.832.874 6.937 1.463 12.705 1.463 5.774 0 9.818-.559 12.567-1.394 2.765-.841 4.093-1.922 4.645-2.862.522-.889.45-1.823-.026-2.708-.491-.912-1.388-1.702-2.34-2.12l.803-1.832c1.327.582 2.578 1.667 3.298 3.005.735 1.365.936 3.056-.01 4.667-.916 1.56-2.798 2.854-5.789 3.763-3.008.915-7.267 1.481-13.148 1.481-5.885 0-10.206-.599-13.295-1.552-3.074-.95-5.039-2.285-6.041-3.845-1.035-1.61-.958-3.327-.216-4.721z" fill="currentColor"></path><path fill-rule="evenodd" clip-rule="evenodd" d="M10.101 25.571c-.027 1.83.425 3.068 1.02 3.628A1.1 1.1 0 1 1 9.614 30.8c-1.265-1.19-1.743-3.201-1.713-5.263.032-2.117.598-4.54 1.71-6.83C11.842 14.11 16.364 9.9 23.394 9.9c6.941 0 11.816 3.615 14.434 7.97 1.304 2.17 2.059 4.536 2.233 6.755.173 2.207-.225 4.352-1.334 5.991a1.1 1.1 0 0 1-1.822-1.232c.751-1.111 1.11-2.716.963-4.587-.146-1.859-.787-3.899-1.925-5.793-2.267-3.769-6.464-6.904-12.549-6.904-5.996 0-9.848 3.54-11.804 7.568-.982 2.022-1.462 4.13-1.489 5.903z" fill="currentColor"></path><path fill-rule="evenodd" clip-rule="evenodd" d="M17.667 20.231c-.805.936-1.266 1.98-1.31 2.74a1.5 1.5 0 0 1-2.995-.176c.096-1.624.956-3.27 2.031-4.52 1.072-1.245 2.59-2.365 4.267-2.617a1.5 1.5 0 0 1 .447 2.966c-.706.107-1.63.666-2.44 1.607z" fill="currentColor"></path></g></svg>