<svg width="48" height="48" xmlns="http://www.w3.org/2000/svg" viewBox="0 0 48 48"><g fill="none" class="nc-icon-wrapper"><path fill-rule="evenodd" clip-rule="evenodd" d="M36 6H12a6 6 0 0 0-6 6v24a6 6 0 0 0 6 6h24a6 6 0 0 0 6-6V12a6 6 0 0 0-6-6zM12 4a8 8 0 0 0-8 8v24a8 8 0 0 0 8 8h24a8 8 0 0 0 8-8V12a8 8 0 0 0-8-8H12z" fill="currentColor"></path><path fill-rule="evenodd" clip-rule="evenodd" d="M31 15H17a2 2 0 0 0-2 2v14a2 2 0 0 0 2 2h14a2 2 0 0 0 2-2V17a2 2 0 0 0-2-2zm-14-2a4 4 0 0 0-4 4v14a4 4 0 0 0 4 4h14a4 4 0 0 0 4-4V17a4 4 0 0 0-4-4H17z" fill="currentColor"></path><path d="M21 18a1 1 0 1 1-2 0 1 1 0 0 1 2 0z" fill="currentColor"></path><path d="M23 21a1 1 0 1 1-2 0 1 1 0 0 1 2 0z" fill="currentColor"></path><path d="M19 21a1 1 0 1 1-2 0 1 1 0 0 1 2 0z" fill="currentColor"></path><path d="M21 24a1 1 0 1 1-2 0 1 1 0 0 1 2 0z" fill="currentColor"></path><path d="M23 27a1 1 0 1 1-2 0 1 1 0 0 1 2 0z" fill="currentColor"></path><path d="M19 27a1 1 0 1 1-2 0 1 1 0 0 1 2 0z" fill="currentColor"></path><path d="M21 30a1 1 0 1 1-2 0 1 1 0 0 1 2 0z" fill="currentColor"></path><path d="M25 18a1 1 0 1 1-2 0 1 1 0 0 1 2 0z" fill="currentColor"></path><path d="M27 21a1 1 0 1 1-2 0 1 1 0 0 1 2 0z" fill="currentColor"></path><path d="M25 24a1 1 0 1 1-2 0 1 1 0 0 1 2 0z" fill="currentColor"></path><path d="M27 27a1 1 0 1 1-2 0 1 1 0 0 1 2 0z" fill="currentColor"></path><path d="M25 30a1 1 0 1 1-2 0 1 1 0 0 1 2 0z" fill="currentColor"></path><path d="M29 18a1 1 0 1 1-2 0 1 1 0 0 1 2 0z" fill="currentColor"></path><path d="M31 21a1 1 0 1 1-2 0 1 1 0 0 1 2 0z" fill="currentColor"></path><path d="M29 24a1 1 0 1 1-2 0 1 1 0 0 1 2 0z" fill="currentColor"></path><path d="M31 27a1 1 0 1 1-2 0 1 1 0 0 1 2 0z" fill="currentColor"></path><path d="M29 30a1 1 0 1 1-2 0 1 1 0 0 1 2 0z" fill="currentColor"></path></g></svg>