<svg width="48" height="48" xmlns="http://www.w3.org/2000/svg" viewBox="0 0 48 48"><g fill="none" class="nc-icon-wrapper"><path fill-rule="evenodd" clip-rule="evenodd" d="M36.001 37.416A17.933 17.933 0 0 1 24 42c-9.941 0-18-8.059-18-18 0-4.61 1.734-8.817 4.585-12.001L36 37.415zM37.416 36L11.998 10.585A17.933 17.933 0 0 1 24 6c9.941 0 18 8.059 18 18 0 4.61-1.734 8.817-4.584 12.001zM44 24c0 11.046-8.954 20-20 20S4 35.046 4 24 12.954 4 24 4s20 8.954 20 20z" fill="currentColor"></path><path fill-rule="evenodd" clip-rule="evenodd" d="M28.375 14.813c1.758-1.759 4.324-2.044 5.731-.637s1.122 3.973-.637 5.731c-1.056 1.057-2.404 1.581-3.616 1.527l.272 2.285a2.929 2.929 0 0 1-1.026 2.637l-1.429-1.43a.98.98 0 0 0 .47-.97l-.408-3.418c-1.4-1.408-1.114-3.97.643-5.725zm-8.387 8.089c-.626.668-.958 1.625-.709 2.706l.68 2.954c.21.908-.827 1.583-1.573 1.025l-.485-.363c-2.184-1.634-5.239.258-4.749 2.94l.26 1.42 1.967-.36-.26-1.419c-.163-.894.856-1.525 1.584-.98l.485.363c2.238 1.675 5.349-.352 4.72-3.076l-.68-2.953a.972.972 0 0 1 .18-.837l-1.42-1.42z" fill="currentColor"></path></g></svg>