<svg width="48" height="48" xmlns="http://www.w3.org/2000/svg" viewBox="0 0 48 48"><g fill="none" class="nc-icon-wrapper"><path fill-rule="evenodd" clip-rule="evenodd" d="M26 33h3.5C36.404 33 42 27.404 42 20.5S36.404 8 29.5 8h-11C11.596 8 6 13.596 6 20.5c0 7.915 5.217 12.754 10.924 15.726 2.835 1.477 5.69 2.43 7.849 3.015.442.12.853.224 1.227.313V33zm2 9s-.756-.11-2-.392C20.236 40.3 4 35.305 4 20.5 4 12.492 10.492 6 18.5 6h11C37.508 6 44 12.492 44 20.5S37.508 35 29.5 35H28v7z" fill="currentColor"></path><path fill-rule="evenodd" clip-rule="evenodd" d="M25.407 12.05c-1.322-.042-2.706.205-3.86.764-1.153.56-2.17 1.486-2.516 2.833a1 1 0 1 0 1.938.497c.151-.591.626-1.13 1.452-1.53.815-.396 1.869-.599 2.922-.565 1.06.034 2.019.302 2.681.743.284.188.546.425.728.742.19.328.248.662.248.966 0 .49-.142.843-.352 1.12-.222.29-.553.542-.984.75-.877.424-1.974.582-2.73.632A1 1 0 0 0 24 20v1.5a1 1 0 0 0 1.993.12 1 1 0 0 1 .78-.86 7.994 7.994 0 0 0 1.763-.59C29.8 19.558 31 18.423 31 16.5c0-1.514-.778-2.648-1.868-3.373-1.056-.703-2.409-1.035-3.725-1.077zm-4.732-1.035c1.49-.724 3.206-1.015 4.795-.964 1.574.05 3.32.446 4.77 1.41C31.783 12.489 33 14.202 33 16.5c0 2.963-1.923 4.662-3.593 5.47-.533.259-1.08.45-1.602.595A3 3 0 0 1 22 21.5V20a3 3 0 0 1 2.8-2.993c.672-.045 1.464-.181 1.993-.437.068-.033.12-.063.16-.088a1.158 1.158 0 0 0-.037-.025c-.27-.18-.836-.384-1.636-.409-.785-.025-1.508.133-1.986.365-.267.13-.368.231-.4.27a3 3 0 0 1-5.8-1.533c.54-2.101 2.098-3.416 3.581-4.135zm2.209 5.685s0-.003.004-.008a.029.029 0 0 1-.005.008zm4.171-.29l.12.09-.12-.09zM25 27a1 1 0 1 0 0 2 1 1 0 0 0 0-2zm-3 1a3 3 0 1 1 6 0 3 3 0 0 1-6 0z" fill="currentColor"></path></g></svg>