<svg width="48" height="48" xmlns="http://www.w3.org/2000/svg" viewBox="0 0 48 48"><g fill="none" class="nc-icon-wrapper"><path fill-rule="evenodd" clip-rule="evenodd" d="M24 39a2 2 0 1 0 0-4 2 2 0 0 0 0 4zm0 3a5 5 0 1 0 0-10 5 5 0 0 0 0 10z" fill="currentColor"></path><path fill-rule="evenodd" clip-rule="evenodd" d="M28 6h-8l-2 4h4v7.992l4-2.48V10h4l-2-4zm4.236 4l-2-4H32l2 4h-1.764zM40 6h-5.764l2 4H40a2 2 0 1 0 0-4zM16 6h1.764l-2 4H14l2-4zm6 16.992v-2.647l4-2.48v2.646l-4 2.48zm0 7.353V32a2 2 0 1 0 4 0v-4.135l-4 2.48zm4-4.834v-2.646l-4 2.48v2.647l4-2.48zM13.764 6H8a2 2 0 1 0 0 4h3.764l2-4z" fill="currentColor"></path></g></svg>