<svg width="48" height="48" xmlns="http://www.w3.org/2000/svg" viewBox="0 0 48 48"><g fill="none" class="nc-icon-wrapper"><path d="M27.296 19.656a1.216 1.216 0 0 0 1.2-1.216 1.217 1.217 0 0 0-2.416 0 1.232 1.232 0 0 0 1.216 1.216z" fill="currentColor"></path><path d="M33.072 16.312a1.216 1.216 0 0 0-1.2 1.216 1.2 1.2 0 0 0 1.2 1.2 1.216 1.216 0 0 0 1.216-1.2 1.231 1.231 0 0 0-1.216-1.216z" fill="currentColor"></path><path d="M39.344 13.08a1.216 1.216 0 0 0 1.2-1.28 1.186 1.186 0 0 0-1.2-1.2 1.216 1.216 0 1 0 0 2.416v.064z" fill="currentColor"></path><path d="M40.096 16.76a1.217 1.217 0 1 0-2.433-.031 1.217 1.217 0 0 0 2.433.031z" fill="currentColor"></path><path d="M44.304 8.344a1.2 1.2 0 1 0-.621 2.318 1.2 1.2 0 0 0 .621-2.318z" fill="currentColor"></path><path d="M31.248 20.216a1.185 1.185 0 0 0-1.472.848 1.2 1.2 0 0 0 .848 1.472 1.216 1.216 0 0 0 1.488-.848 1.2 1.2 0 0 0-.864-1.472z" fill="currentColor"></path><path d="M36.672 20.456a1.199 1.199 0 0 0-1.472.848 1.201 1.201 0 1 0 1.472-.848z" fill="currentColor"></path><path d="M43.872 18.584a1.217 1.217 0 1 0 .848 1.488 1.2 1.2 0 0 0-.848-1.488z" fill="currentColor"></path><path d="M40.512 23.512A1.232 1.232 0 0 0 39.648 25a1.216 1.216 0 0 0 1.908.64 1.199 1.199 0 0 0 .428-1.264 1.216 1.216 0 0 0-1.472-.864z" fill="currentColor"></path><path d="M29.568 15.896a1.216 1.216 0 0 0-.624-2.336 1.216 1.216 0 0 0-.659 1.902 1.199 1.199 0 0 0 1.283.434z" fill="currentColor"></path><path d="M19.568 17.896a1.216 1.216 0 0 0-.624-2.336 1.216 1.216 0 0 0-.659 1.902 1.2 1.2 0 0 0 1.283.434z" fill="currentColor"></path><path d="M16.568 19.896a1.216 1.216 0 0 0-.624-2.336 1.216 1.216 0 0 0-.659 1.902 1.2 1.2 0 0 0 1.283.434z" fill="currentColor"></path><path d="M35.648 12.328a1.232 1.232 0 0 0-1.488-.864 1.216 1.216 0 0 0-.64 1.908 1.2 1.2 0 0 0 1.264.428 1.216 1.216 0 0 0 .864-1.472z" fill="currentColor"></path><path d="M35.664 8.6a1.24 1.24 0 1 0-.624-2.4 1.216 1.216 0 0 0-.864 1.472 1.2 1.2 0 0 0 1.488.928z" fill="currentColor"></path><path fill-rule="evenodd" clip-rule="evenodd" d="M23.64 21.881a7.47 7.47 0 0 0-.568-.033h-3.376v-1.04H20.8a2.816 2.816 0 0 0 2.816-2.8v-1.84c0 .076.456.031.674.01.056-.006.097-.01.11-.01a.8.8 0 0 0 .672-.832 2.657 2.657 0 0 0-.233-.74l-.008-.017a2.926 2.926 0 0 0-.047-.09l-.384-.977c-.272-.672-.544-1.344-.8-2.032 0 0-.16-1.6-.304-2.144a7.184 7.184 0 0 0-6.816-5.088 7.104 7.104 0 0 0-4.384 12.704v4.896H9.152a6.864 6.864 0 0 0-6.88 6.688V43.8H30.4V29.576a7.49 7.49 0 0 0-6.76-7.695zm4.76 19.92V29.575l.001-.064a5.488 5.488 0 0 0-5.352-5.664h-3.353a2 2 0 0 1-2-2v-1.04a2 2 0 0 1 2-2H20.8a.816.816 0 0 0 .816-.807v-1.833a2 2 0 0 1 .998-1.731l-.072-.183v-.003c-.27-.665-.55-1.359-.817-2.073a2.001 2.001 0 0 1-.115-.499m-.242-1.808a5.184 5.184 0 0 0-4.898-3.623 5.104 5.104 0 0 0-3.143 9.127 2 2 0 0 1 .769 1.577v4.896a2 2 0 0 1-2 2h-2.95a4.864 4.864 0 0 0-4.874 4.716V41.8H28.4" fill="currentColor"></path><path d="M24.242 40.056a.752.752 0 0 0 .251-.256c.768-1.168.992-4.912.064-8.048-.848-2.848-3.44-5.648-5.232-5.648a.831.831 0 0 0-.672.288c-.464.512-.32 1.6-.32 2.752v.64c-.096-.08-.096.207-.096.576a.932.932 0 0 1-.192-.16 7.585 7.585 0 0 1-1.12-4.688v-1.888a.704.704 0 0 0-.608-.8h-.16a.53.53 0 0 0-.16 0 .72.72 0 0 0-.608.816c.08.335.08.816.08 1.392v.527a7.648 7.648 0 0 1-1.184 4.64l-.08.224c0-.383-.096-.671-.096-.591v-.64c.064-1.152.144-2.24-.32-2.753a.864.864 0 0 0-.672-.288c-1.792 0-4.384 2.8-5.232 5.648-.976 3.2-.784 6.88 0 8a.705.705 0 0 0 .544.352c.302-.01.588-.137.8-.352l.32-.383a7.87 7.87 0 0 1 1.6-.8c1.12-.496 2.192-.928 2.192-2.096v-1.553c.04-.501.12-.999.24-1.487.12-.468.206-.944.256-1.424a2.785 2.785 0 0 0 1.296-.768c.394-.417.704-.906.912-1.44.208.534.518 1.023.912 1.44.357.374.811.64 1.312.768.051.479.131.954.24 1.424.124.488.21.986.256 1.488.02.335.02.672 0 1.007v.544c0 1.164 1.063 1.613 2.194 2.09l.014.006c.563.204 1.1.473 1.6.8l.528.385a1.104 1.104 0 0 0 .8.367.751.751 0 0 0 .341-.11z" fill="currentColor"></path></g></svg>