<svg width="48" height="48" xmlns="http://www.w3.org/2000/svg" viewBox="0 0 48 48"><g fill="none" class="nc-icon-wrapper"><path fill-rule="evenodd" clip-rule="evenodd" d="M38 38a5 5 0 1 1 0-10 5 5 0 0 1 0 10zm0 2a7 7 0 1 1 0-14 7 7 0 0 1 0 14z" fill="currentColor"></path><path fill-rule="evenodd" clip-rule="evenodd" d="M28.91 10.586A1 1 0 0 0 28 10h-5.25a1 1 0 1 0 0 2h4.606l9.734 21.414a1 1 0 0 0 1.82-.828l-10-22z" fill="currentColor"></path><path fill-rule="evenodd" clip-rule="evenodd" d="M9 38a5 5 0 1 1 0-10 5 5 0 0 1 0 10zm0 2a7 7 0 1 1 0-14 7 7 0 0 1 0 14z" fill="currentColor"></path><path fill-rule="evenodd" clip-rule="evenodd" d="M22 33a1 1 0 0 0-1-1H9a1 1 0 1 0 0 2h12a1 1 0 0 0 1-1z" fill="currentColor"></path><path fill-rule="evenodd" clip-rule="evenodd" d="M30.5 16h-8.6a9 9 0 0 0-2.884.474l-4.42 1.495a1 1 0 0 0-.56 1.42l4.333 8.084a1 1 0 0 0 .881.527H28a1 1 0 0 0 .719-.305l5-5.167-1.438-1.39L27.576 26H19.85l-3.493-6.515 3.301-1.116A7 7 0 0 1 21.899 18H30.5v-2z" fill="currentColor"></path><path fill-rule="evenodd" clip-rule="evenodd" d="M5 20h10.083v-2H4a1 1 0 0 0-1 1v3.5a1 1 0 0 0 .89.994l13.5 1.5.22-1.988L5 21.605V20z" fill="currentColor"></path><path fill-rule="evenodd" clip-rule="evenodd" d="M28 26h-7a3 3 0 0 0-3 3v2a3 3 0 0 0 3 3h4a3 3 0 0 0 3-3v-5zm-2 2v3a1 1 0 0 1-1 1h-4a1 1 0 0 1-1-1v-2a1 1 0 0 1 1-1h5z" fill="currentColor"></path><path fill-rule="evenodd" clip-rule="evenodd" d="M36.433 13.41a1 1 0 0 0-.808-.41H29v2h6.117l2.916 4H32v2h8a1 1 0 0 0 .808-1.59l-4.375-6z" fill="currentColor"></path></g></svg>