<svg width="48" height="48" xmlns="http://www.w3.org/2000/svg" viewBox="0 0 48 48"><g fill="none" class="nc-icon-wrapper"><path fill-rule="evenodd" clip-rule="evenodd" d="M12.809 34.533c.094.003.204.005.332.005 1.02 0 1.965.23 2.766.76.802.53 1.296 1.255 1.593 1.963.42 1 .5 2.121.514 2.93.174.048.415.1.738.146 1.306.188 3.133.191 5.24.19 2.106-.002 3.933-.008 5.239-.198.323-.047.564-.1.737-.147.014-.81.091-1.931.51-2.932.296-.709.788-1.434 1.59-1.966.8-.53 1.744-.763 2.765-.764.128 0 .238-.002.332-.006 0-.09 0-.194-.003-.31-.003-.17-.009-.38-.016-.617-.014-.498-.033-1.122-.033-1.78-.002-2.148.787-3.393 1.361-4.3.12-.19.232-.366.325-.532.507-.909 1.18-2.477 1.176-6.736-.003-3.916-1.686-6.77-4.22-8.699-2.59-1.971-6.14-3.016-9.79-3.013-3.649.003-7.198 1.054-9.785 3.029-2.53 1.933-4.208 4.79-4.205 8.706.003 4.259.679 5.826 1.187 6.734.093.166.205.341.326.532.576.905 1.367 2.149 1.368 4.298 0 .658-.017 1.281-.03 1.78-.007.237-.013.445-.015.616-.002.117-.003.22-.002.31zm-1.981-1.037c-.069 2.446-.085 3.044 2.314 3.042 2.872-.002 2.874 2.568 2.875 4.282.002 1.713 3.874 1.71 7.976 1.707 4.103-.004 7.975-.007 7.973-1.72-.001-1.714-.003-4.284 2.868-4.287 2.4-.002 2.382-.6 2.31-3.046-.014-.481-.03-1.034-.031-1.668-.002-1.525.447-2.246.99-3.118.829-1.331 1.876-3.014 1.872-8.45-.015-18.299-32.015-18.273-32 .025.004 5.437 1.055 7.118 1.886 8.448.544.87.994 1.591.995 3.117 0 .634-.015 1.186-.028 1.668z" fill="currentColor"></path><path fill-rule="evenodd" clip-rule="evenodd" d="M17.761 30.104c1.223 0 2.444-1.106 2.442-2.763-.001-1.658-1.224-2.761-2.447-2.76-1.222 0-2.443 1.106-2.442 2.763.002 1.658 1.225 2.761 2.447 2.76zm.002 2c2.454-.002 4.442-2.135 4.44-4.765-.002-2.63-1.994-4.76-4.448-4.758-2.455.001-4.443 2.135-4.44 4.765.002 2.63 1.993 4.76 4.448 4.758z" fill="currentColor"></path><path fill-rule="evenodd" clip-rule="evenodd" d="M30.205 30.093c1.222 0 2.444-1.106 2.442-2.764-.001-1.657-1.224-2.76-2.446-2.76-1.223.001-2.444 1.107-2.443 2.764.002 1.658 1.225 2.761 2.447 2.76zm.002 2c2.454-.002 4.442-2.136 4.44-4.766-.002-2.63-1.993-4.76-4.448-4.758-2.455.003-4.443 2.136-4.44 4.766.001 2.63 1.993 4.76 4.447 4.758z" fill="currentColor"></path><path fill-rule="evenodd" clip-rule="evenodd" d="M23.968 33.535l.018-.008.018.007c.247.11 2.983 1.36 2.985 3.266 0 .83-.579 1.605-1.398 1.713a1.515 1.515 0 0 1-.195.013c-.639 0-1.114-.372-1.407-.9-.292.529-.766.901-1.405.902-.066 0-.131-.004-.195-.013-.82-.106-1.4-.88-1.4-1.71-.002-1.827 2.73-3.153 2.979-3.27zm-1.74 3.142a.06.06 0 0 1-.001.001l.001-.001zm.76.148l-.001.003v-.003zm2.76-.151l.002.001-.001-.001z" fill="currentColor"></path></g></svg>