<svg width="48" height="48" xmlns="http://www.w3.org/2000/svg" viewBox="0 0 48 48"><g fill="none" class="nc-icon-wrapper"><g clip-path="url(#clip0)"><path fill-rule="evenodd" clip-rule="evenodd" d="M16.19 24.457c.102.007.235.012.404.012.827 0 1.627.179 2.322.622a3.685 3.685 0 0 1 1.398 1.66c.288.659.387 1.373.42 1.947.72.093 1.772.098 3.248.096 1.476 0 2.528-.007 3.247-.101.033-.574.131-1.289.417-1.948a3.684 3.684 0 0 1 1.396-1.663c.694-.444 1.494-.625 2.321-.625.17 0 .302-.005.404-.012.039-.304.057-.74.056-1.392-.001-1.754.708-2.82 1.137-3.465.081-.123.153-.23.207-.324.316-.546.806-1.568.803-4.566-.002-2.614-1.155-4.513-2.938-5.82-1.841-1.349-4.403-2.086-7.068-2.084-2.665.003-5.226.744-7.065 2.096-1.78 1.31-2.93 3.21-2.929 5.824.003 2.999.494 4.02.811 4.565.055.094.126.201.208.324.43.644 1.14 1.71 1.142 3.463 0 .652.02 1.088.059 1.391zm-2.059-1.39c.002 2.785.31 3.404 2.464 3.402 2.154-.002 2.156 1.854 2.157 3.092 0 1.238 2.155 1.236 5.232 1.233 3.076-.002 5.23-.004 5.23-1.242-.002-1.237-.003-3.093 2.15-3.095 2.155-.002 2.462-.621 2.46-3.406-.002-1.101.335-1.622.742-2.252.622-.961 1.408-2.176 1.404-6.103-.01-13.215-24.01-13.196-24 .02.004 3.926.791 5.14 1.415 6.1.408.63.745 1.15.746 2.252z" fill="#333"></path><path fill-rule="evenodd" clip-rule="evenodd" d="M19.978 21.105a.5.5 0 1 0-.001-1 .5.5 0 0 0 0 1zm.002 2a2.5 2.5 0 1 0-.005-5 2.5 2.5 0 0 0 .005 5z" fill="#333"></path><path fill-rule="evenodd" clip-rule="evenodd" d="M27.978 21.098a.5.5 0 1 0 0-1 .5.5 0 0 0 0 1zm.002 2a2.5 2.5 0 1 0-.005-5 2.5 2.5 0 0 0 .005 5z" fill="#333"></path><path fill-rule="evenodd" clip-rule="evenodd" d="M20.415 37.345l-11.04-3.539.61-1.904 13.697 4.39 13.69-4.413.614 1.904-11.035 3.557 11.04 3.539-.61 1.904-13.697-4.39-13.69 4.413-.614-1.904 11.035-3.557z" fill="#333"></path></g><defs><clipPath id="clip0"><path fill="#fff" d="M0 0h48v48H0z"></path></clipPath></defs></g></svg>