<svg width="48" height="48" xmlns="http://www.w3.org/2000/svg" viewBox="0 0 48 48"><g fill="none" class="nc-icon-wrapper"><path fill-rule="evenodd" clip-rule="evenodd" d="M33 44a7 7 0 1 0 0-14 7 7 0 0 0 0 14zm0 2a9 9 0 1 0 0-18 9 9 0 0 0 0 18z" fill="currentColor"></path><path fill-rule="evenodd" clip-rule="evenodd" d="M34 6H14a2 2 0 0 0-2 2v30a2 2 0 0 0 2 2h12.674c.356.75.841 1.426 1.427 2H14a4 4 0 0 1-4-4V8a4 4 0 0 1 4-4h20a4 4 0 0 1 4 4v24.101a7.018 7.018 0 0 0-2-1.427V8a2 2 0 0 0-2-2zm-20 6a1 1 0 0 1 1-1h18a1 1 0 1 1 0 2H15a1 1 0 0 1-1-1zm1 3a1 1 0 1 0 0 2h18a1 1 0 1 0 0-2H15zm-1 9a1 1 0 0 1 1-1h18a1 1 0 1 1 0 2H15a1 1 0 0 1-1-1zm1-5a1 1 0 1 0 0 2h18a1 1 0 1 0 0-2H15zm-1 9a1 1 0 0 1 1-1h9a1 1 0 1 1 0 2h-9a1 1 0 0 1-1-1z" fill="currentColor"></path><path fill-rule="evenodd" clip-rule="evenodd" d="M36.997 33.028a1 1 0 0 0-1.414 0l-.79.79 1.413 1.415.791-.791a1 1 0 0 0 0-1.414zM35.5 35.94l-1.414-1.414-5.069 5.069v1.414h1.414l5.07-5.069z" fill="currentColor"></path></g></svg>