<svg width="48" height="48" xmlns="http://www.w3.org/2000/svg" viewBox="0 0 48 48"><g fill="none" class="nc-icon-wrapper"><path fill-rule="evenodd" clip-rule="evenodd" d="M8.057 23.97l-1.193.737a2 2 0 0 0-.107 3.333l16.091 11.412a2 2 0 0 0 2.307.005l16.241-11.411a2 2 0 0 0-.107-3.343l-1.441-.881-1.77 1.262 2.168 1.325-16.24 11.411L7.913 26.41l1.93-1.19-1.787-1.248zm25.385-1.72l-9.437-5.769-9.525 5.877-1.787-1.248 10.262-6.33a2 2 0 0 1 2.093-.005l10.163 6.212-1.77 1.263z" fill="currentColor"></path><path fill-rule="evenodd" clip-rule="evenodd" d="M24.005 9.481L7.914 19.41 24.005 30.82l16.241-11.41L24.005 9.48zM6.864 17.707a2 2 0 0 0-.107 3.333l16.091 11.411a2 2 0 0 0 2.307.005l16.241-11.41a2 2 0 0 0-.107-3.343L25.048 7.775a2 2 0 0 0-2.093.004L6.864 17.707z" fill="currentColor"></path></g></svg>