<svg width="49" height="48" xmlns="http://www.w3.org/2000/svg" viewBox="0 0 49 48"><g fill="none" class="nc-icon-wrapper"><path fill-rule="evenodd" clip-rule="evenodd" d="M33.954 8.196l-18 .015.014 18 18-.015-.014-18zm-8.99 13.674c2.24-.002 4-1.68 3.998-3.812-.002-1.981-4.006-6.854-4.006-6.854s-3.996 4.727-3.994 6.86c.001 2.133 1.763 3.808 4.003 3.806z" fill="currentColor"></path><path fill-rule="evenodd" clip-rule="evenodd" d="M16.982 28.987a1 1 0 0 1 1-1l4-.004a1 1 0 0 1 .001 2l-4 .003a1 1 0 0 1-1-1z" fill="currentColor"></path><path fill-rule="evenodd" clip-rule="evenodd" d="M26.982 28.979a1 1 0 0 1 1-1.001l4-.003a1 1 0 0 1 .001 2l-4 .003a1 1 0 0 1-1-1z" fill="currentColor"></path><path fill-rule="evenodd" clip-rule="evenodd" d="M13.952 6.213l22-.018a1 1 0 0 1 1 .999l.021 25a1 1 0 0 1-.999 1l-6 .005.002 2 6-.004a3 3 0 0 0 2.997-3.003l-.02-25a3 3 0 0 0-3.003-2.997l-22 .018a3 3 0 0 0-2.997 3.002l.02 25a3 3 0 0 0 3.003 2.998l6-.005-.002-2-6 .005a1 1 0 0 1-1-1l-.021-25a1 1 0 0 1 .999-1z" fill="currentColor"></path><path fill-rule="evenodd" clip-rule="evenodd" d="M28.974 33.2l-8 .007.007 9 8-.007-.007-9zM18.972 31.21l.011 13 12-.01-.01-13-12 .01z" fill="currentColor"></path><path d="M26.978 38.202a2 2 0 1 1-4 .003 2 2 0 0 1 4-.003z" fill="currentColor"></path></g></svg>