<svg width="48" height="48" xmlns="http://www.w3.org/2000/svg" viewBox="0 0 48 48"><g fill="none" class="nc-icon-wrapper"><path fill-rule="evenodd" clip-rule="evenodd" d="M36.846 25.417c.256.199.476.439.651.711.313.487.466 1.055.438 1.628l1.322 11.252c.064.337.056.683-.021 1.018-.078.334-.225.65-.431.928-.207.279-.47.514-.772.691a2.682 2.682 0 0 1-.989.343c-.736.067-2.564-.148-3.138-.6a2.72 2.72 0 0 1-1.03-1.814l-1.044-9.895-12.403-2.698a3.081 3.081 0 0 1-1.878-1.21 2.91 2.91 0 0 1-.52-2.128A9.103 9.103 0 0 1 18 20.99s3.673-7.183 7.484-9.612a6.772 6.772 0 0 1 4.81-1.34c.454.001.894.148 1.253.418.358.27.615.646.73 1.071v.134l2.554 5.452 6.003 1.845c.451.169.828.485 1.065.894.236.41.318.886.23 1.348-.087.461-1.432 1.94-1.803 2.24a2.115 2.115 0 0 1-2.062.334l-7.078-2.292a2.066 2.066 0 0 1-.86-.6 1.97 1.97 0 0 1-.431-.89l-.369-1.803c-.37.715-.764 1.42-1.181 2.11l-.007.011v.002a36.97 36.97 0 0 1-1.117 1.736l8.962 2.98c.24.102.462.233.663.39zm-1.388 1.478l-8.868-2.949a2 2 0 0 1-1.02-3.025 35.01 35.01 0 0 0 2.18-3.651 2 2 0 0 1 3.736.518l.368 1.803v.002a.059.059 0 0 0 .01.007l7.017 2.271.08.028a.146.146 0 0 0 .042.01.113.113 0 0 0 .063-.023l.007-.006c.023-.022.1-.095.233-.233a13.024 13.024 0 0 0 .732-.84l-5.795-1.782a2 2 0 0 1-1.223-1.063l-2.554-5.452a2.003 2.003 0 0 1-.153-.47.12.12 0 0 0-.027-.003 1.98 1.98 0 0 1-.2-.01 4.772 4.772 0 0 0-3.387.94 1.978 1.978 0 0 1-.14.098c-1.52.97-3.196 3.053-4.58 5.137a44.509 44.509 0 0 0-2.165 3.634l-.027.052-.007.013-.03.057c-.35.634-.601 1.313-.745 2.014a.912.912 0 0 0 .17.632c.147.204.38.36.661.42l.018.003 12.403 2.697a2 2 0 0 1 1.563 1.744l1.044 9.877a.71.71 0 0 0 .206.408l.063.02c.148.047.357.095.605.136.244.04.493.067.71.081.178.011.301.011.368.009a.675.675 0 0 0 .204-.079.599.599 0 0 0 .179-.158.512.512 0 0 0 .089-.19.472.472 0 0 0 .004-.194 2.046 2.046 0 0 1-.021-.137l-1.322-11.252a2.003 2.003 0 0 1-.011-.328.767.767 0 0 0-.124-.452.89.89 0 0 0-.356-.314zM30.35 12.06z" fill="currentColor"></path><path fill-rule="evenodd" clip-rule="evenodd" d="M15.366 35.075c-.502.028-1.007.056-1.49.07l-.1.002-.097.023c-1.822.42-3.666.749-5.525.985-.33.038-.613.078-.845.123-.206.04-.464.101-.68.214-.099.05-.325.18-.481.444A1.064 1.064 0 0 0 6.138 38c.13.232.315.363.4.42.105.068.213.12.302.158.337.145.85.284 1.419.424a114.1 114.1 0 0 0 1.797.418l.372.084c1.54.35 2.25.781 2.861 1.18.05.031.098.064.148.096.635.417 1.327.87 2.586 1.098 1.306.236 3.25.102 4.623-.188.353-.075.69-.164.986-.27.277-.099.594-.238.848-.444.236-.191.69-.69.46-1.395-.172-.53-.646-.794-.903-.917a1.806 1.806 0 0 1-.118-.061 4.43 4.43 0 0 1 .034-.1c.07-.206.23-.663.144-1.168-.106-.623-.517-1.092-1.08-1.451-1.069-.684-2.25-.86-3.423-.883-.672-.012-1.446.03-2.228.073zm6.434 3.447l.005.005a.039.039 0 0 0-.005-.005zm-10.415-.84a58.15 58.15 0 0 0 2.646-.541c.582-.018 1.099-.048 1.58-.075.698-.04 1.319-.076 1.946-.064 1.014.019 1.764.172 2.383.568.085.054.138.096.17.125a3.82 3.82 0 0 1-.066.208l-.013.037c-.07.202-.24.694-.1 1.222.057.22.155.41.282.577-1.216.254-2.872.346-3.835.172-.853-.154-1.254-.416-1.857-.811l-.141-.092c-.68-.442-1.5-.93-2.995-1.326zm9.866 2.831a.09.09 0 0 0-.022-.015l.022.015zm-1.1-2.771l-.007-.01.006.01z" fill="currentColor"></path><path fill-rule="evenodd" clip-rule="evenodd" d="M19.931 29.93l.005-.01a.645.645 0 0 0-.095-.703.615.615 0 0 0-.198-.15.623.623 0 0 0-.485-.032.644.644 0 0 0-.364.323l-.002.005L17.563 32l-.499 1.071-.003.006a.66.66 0 0 0 .096.705.628.628 0 0 0 .47.217.625.625 0 0 0 .339-.096.65.65 0 0 0 .237-.265l1.729-3.71z" fill="currentColor"></path><path fill-rule="evenodd" clip-rule="evenodd" d="M17.941 27.978a.682.682 0 0 0-.153-.77.727.727 0 0 0-.237-.152.731.731 0 0 0-.81.173.682.682 0 0 0-.145.246l-2.53 5.587a.666.666 0 0 0 .139.77.713.713 0 0 0 .237.152c.095.021.194.021.289 0 .141 0 .28-.039.397-.113a.71.71 0 0 0 .268-.306l2.545-5.587z" fill="currentColor"></path><path fill-rule="evenodd" clip-rule="evenodd" d="M37.5 13a2.5 2.5 0 1 0 0-5 2.5 2.5 0 0 0 0 5zm0 2a4.5 4.5 0 1 0 0-9 4.5 4.5 0 0 0 0 9z" fill="currentColor"></path></g></svg>