<svg viewBox="0 0 480.1 480.1">
	<path d="M416.657,361.14v-0.04l-92.864-92.872V240.1c0-13.255-10.745-24-24-24h-48v-32h64c13.255,0,24-10.745,24-24
			s-10.745-24-24-24h-68.64c-5.688-14.043-16.178-25.61-29.6-32.64c26.207-16.423,34.139-50.982,17.716-77.189
			S184.287-7.868,158.08,8.555c-26.207,16.423-34.139,50.982-17.716,77.189c4.581,7.311,10.79,13.464,18.141,17.98
			c-5.16,2.816-9.918,6.314-14.144,10.4c-13.068,12.677-20.481,30.082-20.568,48.288v61.784
			C57.527,259.492,32.421,341.824,67.717,408.09c20.83,39.107,59.411,65.608,103.388,71.018c5.499,0.654,11.031,0.986,16.568,0.992
			c55.793,0.152,105.981-33.895,126.464-85.792l34.656,34.656c15.62,15.615,40.94,15.615,56.56,0l11.304-11.264
			C432.273,402.08,432.273,376.76,416.657,361.14z M147.793,56.1c0-22.091,17.909-40,40-40s40,17.909,40,40s-17.909,40-40,40
			C165.713,96.073,147.82,78.18,147.793,56.1z M150.006,457.975c-62.902-20.87-96.977-88.781-76.107-151.683
			c8.751-26.377,26.386-48.898,49.894-63.72V264.1c0.035,30.913,25.087,55.965,56,56h60.128l61.768,61.768
			C280.82,444.77,212.909,478.844,150.006,457.975z M405.337,406.332l0.008,0.016l-11.304,11.304
			c-9.493,9.072-24.443,9.072-33.936,0l-111.2-111.2c-1.503-1.507-3.544-2.354-5.672-2.352h-63.44c-22.08-0.026-39.974-17.92-40-40
			V162.412c0.067-13.877,5.722-27.143,15.688-36.8c8.633-8.579,20.286-13.43,32.456-13.512c0.472,0,0.952,0,1.424,0
			c20.633,0.671,38.525,14.46,44.432,34.24c0.996,3.413,4.124,5.76,7.68,5.76h74.32c4.418,0,8,3.582,8,8s-3.582,8-8,8h-72
			c-4.418,0-8,3.582-8,8v48c0,4.418,3.582,8,8,8h56c4.418,0,8,3.582,8,8v31.44c0,2.122,0.844,4.156,2.344,5.656l95.2,95.2
			C414.706,381.768,414.706,396.96,405.337,406.332z" />
</svg>
