<svg xmlns="http://www.w3.org/2000/svg" height="480" width="480" viewBox="0 0 480.1 480.1">
	<g fill="currentColor" class="nc-icon-wrapper">
		<path d="M416.657 361.14v-.04l-92.864-92.872V240.1c0-13.255-10.745-24-24-24h-48v-32h64c13.255 0 24-10.745 24-24s-10.745-24-24-24h-68.64a63.947 63.947 0 0 0-29.6-32.64c26.207-16.423 34.139-50.982 17.716-77.189S184.287-7.868 158.08 8.555c-26.207 16.423-34.139 50.982-17.716 77.189a56 56 0 0 0 18.141 17.98 65.465 65.465 0 0 0-14.144 10.4 67.727 67.727 0 0 0-20.568 48.288v61.784C57.527 259.492 32.421 341.824 67.717 408.09a135.945 135.945 0 0 0 103.388 71.018c5.499.654 11.031.986 16.568.992 55.793.152 105.981-33.895 126.464-85.792l34.656 34.656c15.62 15.615 40.94 15.615 56.56 0l11.304-11.264c15.616-15.62 15.616-40.94 0-56.56zM147.793 56.1c0-22.091 17.909-40 40-40s40 17.909 40 40-17.909 40-40 40c-22.08-.027-39.973-17.92-40-40zm2.213 401.875c-62.902-20.87-96.977-88.781-76.107-151.683a119.998 119.998 0 0 1 49.894-63.72V264.1c.035 30.913 25.087 55.965 56 56h60.128l61.768 61.768c-20.869 62.902-88.78 96.976-151.683 76.107zm255.331-51.643l.008.016-11.304 11.304c-9.493 9.072-24.443 9.072-33.936 0l-111.2-111.2a8 8 0 0 0-5.672-2.352h-63.44c-22.08-.026-39.974-17.92-40-40V162.412a51.59 51.59 0 0 1 15.688-36.8 46.489 46.489 0 0 1 32.456-13.512h1.424c20.633.671 38.525 14.46 44.432 34.24a8 8 0 0 0 7.68 5.76h74.32a8 8 0 0 1 0 16h-72a8 8 0 0 0-8 8v48a8 8 0 0 0 8 8h56a8 8 0 0 1 8 8v31.44a8 8 0 0 0 2.344 5.656l95.2 95.2c9.369 9.372 9.369 24.564 0 33.936z">
		</path>
	</g>
</svg>
