<svg width="48" height="48" xmlns="http://www.w3.org/2000/svg" viewBox="0 0 48 48"><g fill="none" class="nc-icon-wrapper"><path fill-rule="evenodd" clip-rule="evenodd" d="M6 5h16v7h-1v1.293c0 .718-.285 1.406-.793 1.914a.707.707 0 0 0-.207.5v15.586c0 .187.075.367.207.5.508.508.793 1.196.793 1.914V35h1v7H6v-7h1v-1.293c0-.718.285-1.406.793-1.914a.707.707 0 0 0 .207-.5V15.707a.707.707 0 0 0-.207-.5A2.707 2.707 0 0 1 7 13.293V12H6V5zm2 32v3h12v-3h-1v-3.293a.707.707 0 0 0-.207-.5A2.707 2.707 0 0 1 18 31.293V15.707c0-.718.285-1.406.793-1.914a.707.707 0 0 0 .207-.5V10h1V7H8v3h1v3.293c0 .187.075.367.207.5.508.508.793 1.196.793 1.914v15.586c0 .718-.285 1.406-.793 1.914a.707.707 0 0 0-.207.5V37H8zM31 7h7v2h-7V7zm-1 4h-1V7a2 2 0 0 1 2-2h7a2 2 0 0 1 2 2v4h-1v3.343a3 3 0 0 0 .879 2.122l1.657 1.656A5 5 0 0 1 43 21.657V37a5 5 0 0 1-5 5h-7a5 5 0 0 1-5-5V21.657a5 5 0 0 1 1.465-3.536l1.656-1.656A3 3 0 0 0 30 14.343V11zm7 0v3.343a5 5 0 0 0 1.465 3.536l1.656 1.656A3 3 0 0 1 41 21.657V37a3 3 0 0 1-3 3h-7a3 3 0 0 1-3-3V21.657a3 3 0 0 1 .879-2.122l1.656-1.656A5 5 0 0 0 32 14.343V11h5zm-2 10.5a.5.5 0 0 0-1 0v2.728c-.28.264-.523.745-.699 1.366l-.801-.801V23.5a.5.5 0 0 0-.146-.354l-1.5-1.5a.5.5 0 0 0-.707.708l1.353 1.353V25a.5.5 0 0 0 .146.354l.898.897-3.508.606c-.146.693.076 2.059 2.068 2.14l-.881.587a.5.5 0 0 0-.208.537l.415 1.658-1.207.805a.5.5 0 1 0 .554.832l1.5-1a.5.5 0 0 0 .208-.537l-.415-1.658.435-.29a.497.497 0 0 0 .02.227l.935 2.804-1.407 2.814a.5.5 0 1 0 .894.448l1.5-3a.5.5 0 0 0 .027-.382l-.902-2.707.55-.55c.23 1.42.76 2.415 1.378 2.415.617 0 1.148-.994 1.378-2.415l.55.55-.902 2.707a.5.5 0 0 0 .027.382l1.5 3a.5.5 0 1 0 .894-.448l-1.407-2.814.934-2.804a.497.497 0 0 0 .021-.227l.434.29-.414 1.658a.5.5 0 0 0 .208.537l1.5 1a.5.5 0 1 0 .554-.832l-1.206-.805.414-1.658a.5.5 0 0 0-.208-.537l-.881-.588c1.992-.08 2.214-1.446 2.068-2.139l-3.508-.606.898-.897A.5.5 0 0 0 37.5 25v-1.293l1.354-1.353a.5.5 0 0 0-.707-.708l-1.5 1.5a.5.5 0 0 0-.147.354v1.293l-.801.801c-.176-.621-.418-1.102-.699-1.366V21.5zm-1 6.507c0 1.013.157 1.886.376 2.47.042.114.084.209.124.287.04-.078.082-.173.124-.287.22-.584.375-1.457.376-2.47v-.015c0-1.013-.157-1.886-.376-2.47a2.856 2.856 0 0 0-.124-.286c-.04.078-.082.173-.124.287-.22.584-.375 1.456-.376 2.47v.014zM31.292 28c-.731 0-1.018-.197-1.133-.322l2.514-.434c-.017.03-.035.058-.053.086-.24.37-.616.67-1.328.67zm7.549-.322c-.115.125-.402.322-1.133.322-.712 0-1.088-.3-1.328-.67a1.98 1.98 0 0 1-.053-.086l2.514.434zM11 9a1 1 0 0 1 1 1v2h-2v-2a1 1 0 0 1 1-1zm1 28a1 1 0 1 1-2 0v-2h2v2zm2-28a1 1 0 0 1 1 1v2h-2v-2a1 1 0 0 1 1-1zm1 28a1 1 0 1 1-2 0v-2h2v2zm2-28a1 1 0 0 1 1 1v2h-2v-2a1 1 0 0 1 1-1zm1 28a1 1 0 1 1-2 0v-2h2v2z" fill="currentColor"></path></g></svg>