<svg height="480" width="480" viewBox="0 0 480 480"><g fill="currentColor" class="nc-icon-wrapper"><path d="M400 0h-16v40H256a8 8 0 0 0 0 16h128v32H256a8 8 0 0 0 0 16h127.464a137.673 137.673 0 0 1-6.296 32.232A8.153 8.153 0 0 0 376 136H256a8 8 0 0 0 0 16h114.84a138.632 138.632 0 0 1-20.76 32H256a8 8 0 0 0 0 16h77.888a137.861 137.861 0 0 1-88.432 32h-10.912C158.065 231.912 96.088 169.935 96 93.456V0H80v93.456c.105 66.51 42.703 125.512 105.8 146.544-61.862 20.674-104.105 77.936-105.6 143.144-.087.28-.154.566-.2.856 0 .184.088.336.104.512 0 .688-.104 1.344-.104 2.032V480h16v-40h128a8 8 0 0 0 0-16H96v-32h128a8 8 0 0 0 0-16H96.536a137.673 137.673 0 0 1 6.296-32.232c.383.106.773.183 1.168.232h120a8 8 0 0 0 0-16H109.16a138.599 138.599 0 0 1 20.76-32H224a8 8 0 0 0 0-16h-77.888a137.861 137.861 0 0 1 88.432-32h10.912c76.479.088 138.456 62.065 138.544 138.544V480h16v-93.456c-.105-66.51-42.703-125.512-105.8-146.544 61.862-20.674 104.105-77.936 105.6-143.144.087-.28.154-.566.2-.856 0-.184-.088-.336-.104-.512 0-.688.104-1.344.104-2.032V0z"></path><path d="M224 136h-80a8 8 0 0 0 0 16h80a8 8 0 0 0 0-16z"></path><path d="M224 88H120a8 8 0 0 0 0 16h104a8 8 0 0 0 0-16z"></path><path d="M224 184h-40a8 8 0 0 0 0 16h40a8 8 0 0 0 0-16z"></path><path d="M224 40H120a8 8 0 0 0 0 16h104a8 8 0 0 0 0-16z"></path><path d="M336 328h-80a8 8 0 0 0 0 16h80a8 8 0 0 0 0-16z"></path><path d="M360 376H256a8 8 0 0 0 0 16h104a8 8 0 0 0 0-16z"></path><path d="M296 280h-40a8 8 0 0 0 0 16h40a8 8 0 0 0 0-16z"></path><path d="M360 424H256a8 8 0 0 0 0 16h104a8 8 0 0 0 0-16z"></path></g></svg>