<svg viewBox="0 0 480 480">
	<path d="M400,0h-16v40H256c-4.418,0-8,3.582-8,8s3.582,8,8,8h128v32H256c-4.418,0-8,3.582-8,8s3.582,8,8,8h127.464
			c-0.805,10.957-2.919,21.778-6.296,32.232c-0.383-0.106-0.774-0.183-1.168-0.232H256c-4.418,0-8,3.582-8,8s3.582,8,8,8h114.84
			c-5.412,11.572-12.399,22.341-20.76,32H256c-4.418,0-8,3.582-8,8s3.582,8,8,8h77.888c-24.816,20.702-56.115,32.028-88.432,32
			h-10.912C158.065,231.912,96.088,169.935,96,93.456V0H80v93.456c0.105,66.51,42.703,125.512,105.8,146.544
			c-61.862,20.674-104.105,77.936-105.6,143.144c-0.087,0.28-0.154,0.566-0.2,0.856c0,0.184,0.088,0.336,0.104,0.512
			c0,0.688-0.104,1.344-0.104,2.032V480h16v-40h128c4.418,0,8-3.582,8-8s-3.582-8-8-8H96v-32h128c4.418,0,8-3.582,8-8s-3.582-8-8-8
			H96.536c0.805-10.957,2.919-21.778,6.296-32.232c0.383,0.106,0.773,0.183,1.168,0.232h120c4.418,0,8-3.582,8-8s-3.582-8-8-8
			H109.16c5.412-11.572,12.398-22.341,20.76-32H224c4.418,0,8-3.582,8-8s-3.582-8-8-8h-77.888
			c24.816-20.702,56.115-32.028,88.432-32h10.912c76.479,0.088,138.456,62.065,138.544,138.544V480h16v-93.456
			c-0.105-66.51-42.703-125.512-105.8-146.544c61.862-20.674,104.105-77.936,105.6-143.144c0.087-0.28,0.154-0.566,0.2-0.856
			c0-0.184-0.088-0.336-0.104-0.512c0-0.688,0.104-1.344,0.104-2.032V0z" />
	<path d="M224,136h-80c-4.418,0-8,3.582-8,8s3.582,8,8,8h80c4.418,0,8-3.582,8-8S228.418,136,224,136z" />
	<path d="M224,88H120c-4.418,0-8,3.582-8,8s3.582,8,8,8h104c4.418,0,8-3.582,8-8S228.418,88,224,88z" />
	<path d="M224,184h-40c-4.418,0-8,3.582-8,8s3.582,8,8,8h40c4.418,0,8-3.582,8-8S228.418,184,224,184z" />
	<path d="M224,40H120c-4.418,0-8,3.582-8,8s3.582,8,8,8h104c4.418,0,8-3.582,8-8S228.418,40,224,40z" />
	<path d="M336,328h-80c-4.418,0-8,3.582-8,8s3.582,8,8,8h80c4.418,0,8-3.582,8-8S340.418,328,336,328z" />
	<path d="M360,376H256c-4.418,0-8,3.582-8,8s3.582,8,8,8h104c4.418,0,8-3.582,8-8S364.418,376,360,376z" />
	<path d="M296,280h-40c-4.418,0-8,3.582-8,8s3.582,8,8,8h40c4.418,0,8-3.582,8-8S300.418,280,296,280z" />
	<path d="M360,424H256c-4.418,0-8,3.582-8,8s3.582,8,8,8h104c4.418,0,8-3.582,8-8S364.418,424,360,424z" />
</svg>
