<svg width="48" height="48" xmlns="http://www.w3.org/2000/svg" viewBox="0 0 48 48"><g fill="none" class="nc-icon-wrapper"><path fill-rule="evenodd" clip-rule="evenodd" d="M24.133 22.133a7.064 7.064 0 0 0 7.067-7.066A7.064 7.064 0 0 0 24.133 8a7.064 7.064 0 0 0-7.066 7.067 7.064 7.064 0 0 0 7.066 7.066zm9.067-7.066a9.064 9.064 0 0 1-9.067 9.066 9.064 9.064 0 0 1-9.066-9.066A9.064 9.064 0 0 1 24.133 6a9.064 9.064 0 0 1 9.067 9.067z" fill="currentColor"></path><path fill-rule="evenodd" clip-rule="evenodd" d="M18.125 27.628a1.1 1.1 0 0 0-1.246-.597C11.474 28.36 6 31.067 6 35.141V42h36v-6.86c0-4.073-5.474-6.78-10.879-8.109a1.1 1.1 0 0 0-1.246.597h-11.75zm7.686 2h-8.936l-.23-.472c-2.322.627-4.512 1.499-6.129 2.568C8.693 32.931 8 34.1 8 35.141V40h32v-4.86c0-1.04-.693-2.21-2.516-3.416-1.617-1.069-3.807-1.941-6.13-2.568l-.23.472h-5.313z" fill="currentColor"></path><path fill-rule="evenodd" clip-rule="evenodd" d="M16 34.904c.538 0 1-.444 1-1.022 0-.579-.462-1.023-1-1.023s-1 .444-1 1.023c0 .578.462 1.022 1 1.022zm0 2c1.657 0 3-1.353 3-3.022 0-1.67-1.343-3.023-3-3.023s-3 1.353-3 3.023c0 1.669 1.343 3.022 3 3.022z" fill="currentColor"></path><path d="M15.635 28.612c-.217.734-.196 1.638.255 2.749l-1.853.752c-.444-1.092-.608-2.137-.508-3.113.034-.327.097-.646.189-.956l1.917.568z" fill="currentColor"></path><path d="M32.535 31.496l1.941.482c.25-1.01.303-1.96.174-2.838l-2.239-.662c.332.806.427 1.797.124 3.018z" fill="currentColor"></path><path fill-rule="evenodd" clip-rule="evenodd" d="M31.427 31.225a1 1 0 0 1 .632-.225h2.882a1 1 0 0 1 .632.225l2.059 1.679a1 1 0 0 1 .368.775v4.365a1 1 0 0 1-1 1h-2.059v-2H36v-2.89L34.585 33h-2.17L31 34.154v2.89h1.059v2H30a1 1 0 0 1-1-1V33.68a1 1 0 0 1 .368-.775l2.059-1.679z" fill="currentColor"></path></g></svg>