<svg width="48" height="48" xmlns="http://www.w3.org/2000/svg" viewBox="0 0 48 48"><g fill="none" class="nc-icon-wrapper"><path fill-rule="evenodd" clip-rule="evenodd" d="M18.125 28.628a1.1 1.1 0 0 0-1.246-.597C11.474 29.36 6 32.067 6 36.141V43h36v-6.86c0-4.073-5.474-6.78-10.879-8.109a1.1 1.1 0 0 0-1.246.597h-11.75zm7.686 2h-8.936l-.23-.472c-2.322.627-4.512 1.499-6.129 2.568C8.693 33.931 8 35.1 8 36.141V41h32v-4.86c0-1.04-.693-2.21-2.516-3.416-1.617-1.069-3.807-1.941-6.13-2.568l-.23.472h-5.313z" fill="currentColor"></path><path fill-rule="evenodd" clip-rule="evenodd" d="M16 35.904c.538 0 1-.444 1-1.022 0-.579-.462-1.023-1-1.023s-1 .444-1 1.023c0 .578.462 1.022 1 1.022zm0 2c1.657 0 3-1.353 3-3.022 0-1.67-1.343-3.023-3-3.023s-3 1.353-3 3.023c0 1.669 1.343 3.022 3 3.022z" fill="currentColor"></path><path d="M15.635 29.612c-.217.734-.196 1.638.255 2.749l-1.853.752c-.444-1.092-.608-2.137-.508-3.113.034-.327.097-.646.189-.956l1.917.568z" fill="currentColor"></path><path d="M32.535 32.496l1.941.482c.25-1.01.303-1.96.174-2.838l-2.239-.662c.332.806.427 1.797.124 3.018z" fill="currentColor"></path><path fill-rule="evenodd" clip-rule="evenodd" d="M31.427 32.225a1 1 0 0 1 .632-.225h2.882a1 1 0 0 1 .632.225l2.059 1.679a1 1 0 0 1 .368.775v4.365a1 1 0 0 1-1 1h-2.059v-2H36v-2.89L34.585 34h-2.17L31 35.154v2.89h1.059v2H30a1 1 0 0 1-1-1V34.68a1 1 0 0 1 .368-.775l2.059-1.679z" fill="currentColor"></path><path d="M12 20.186C12 24.814 20.353 26 20.353 26s-5.721-8.898-2.86-10.44c2.86-1.543 10.641-4.51 11.213-3.441C33.97 19.712 27.22 26 27.22 26S35 25.288 35 20.186c0-5.101-3.662-11.27-3.662-11.27S28.706 5 23.558 5c-5.15 0-6.98 3.915-6.98 3.915S12 15.56 12 20.186z" stroke="currentColor"></path></g></svg>