<svg width="48" height="48" xmlns="http://www.w3.org/2000/svg" viewBox="0 0 48 48"><g fill="none" class="nc-icon-wrapper"><path fill-rule="evenodd" clip-rule="evenodd" d="M16.614 7.45l.031-.148.055-.256c.104-.474.274-1.166.626-1.837.358-.683.924-1.383 1.831-1.81.906-.426 2.03-.523 3.394-.231.313.067.73.134 1.218.213 1.502.243 3.683.596 5.61 1.38 2.65 1.08 5.178 3.094 5.452 6.98.215 3.04.228 4.701.021 5.868-.177.999-.526 1.648-.902 2.346-.083.155-.168.313-.252.477a1.039 1.039 0 0 1-.739.552 1.04 1.04 0 0 1-.858-.235c-.192-.163-.298-.374-.332-.442l-.002-.004c-.1-.2-.2-.474-.29-.746a40.963 40.963 0 0 1-.617-2.137c-.21-.786-.41-1.585-.56-2.186l-.044-.18-.081.002a15.075 15.075 0 0 1-2.55-.168c-2.065-.306-4.848-1.105-7.869-3.053-.255.07-.594.302-1.007.876-.512.712-.968 1.726-1.351 2.82a29.154 29.154 0 0 0-.855 3 32.1 32.1 0 0 0-.267 1.273l-.013.07-.003.017v.003l-.458 2.66-1.386-2.315.858-.514-.858.513-.001-.001-.002-.003-.004-.007-.013-.021a7.624 7.624 0 0 1-.174-.325 11.703 11.703 0 0 1-1.17-4.013c-.252-2.514.344-5.708 3.562-8.418zm-1.512 8.69a8.765 8.765 0 0 1-.06-.472c-.201-2.005.246-4.544 2.968-6.777.254-.173.364-.412.39-.468l.002-.004c.06-.128.096-.257.118-.343.031-.118.065-.277.096-.427l.038-.176c.095-.436.22-.912.443-1.336.216-.412.503-.736.912-.928.41-.193 1.065-.312 2.124-.086.455.098.977.182 1.545.274 1.475.24 3.254.528 4.947 1.217 2.248.915 4.01 2.422 4.211 5.267.216 3.053.204 4.478.049 5.368l-.093-.343a125.145 125.145 0 0 1-.725-2.872l-.049-.202-.017-.07-.973.23.973-.231-.215-.904-.914.147s.001 0 0 0h-.003l-.027.004a8.126 8.126 0 0 1-.715.048 13.06 13.06 0 0 1-2.21-.147c-1.876-.277-4.484-1.025-7.34-2.928l-.226-.15-.27-.016c-1.326-.077-2.304.821-2.956 1.729-.677.941-1.208 2.166-1.614 3.325-.15.429-.287.857-.41 1.271zm18.453 3.267c.015.029.015.023 0 0z" fill="currentColor"></path><path fill-rule="evenodd" clip-rule="evenodd" d="M18.125 28.628a1.1 1.1 0 0 0-1.246-.597C11.474 29.36 6 32.067 6 36.141V43h36v-6.86c0-4.073-5.474-6.78-10.879-8.109a1.1 1.1 0 0 0-1.246.597h-11.75zm7.686 2h-8.936l-.23-.472c-2.322.627-4.512 1.499-6.129 2.568C8.693 33.931 8 35.1 8 36.141V41h32v-4.86c0-1.04-.693-2.21-2.516-3.416-1.617-1.069-3.807-1.941-6.13-2.568l-.23.472h-5.313z" fill="currentColor"></path><path fill-rule="evenodd" clip-rule="evenodd" d="M16 35.904c.538 0 1-.444 1-1.022 0-.579-.462-1.023-1-1.023s-1 .444-1 1.023c0 .578.462 1.022 1 1.022zm0 2c1.657 0 3-1.353 3-3.022 0-1.67-1.343-3.023-3-3.023s-3 1.353-3 3.023c0 1.669 1.343 3.022 3 3.022z" fill="currentColor"></path><path d="M15.635 29.612c-.217.734-.196 1.638.255 2.749l-1.853.752c-.444-1.092-.608-2.137-.508-3.113.034-.327.097-.646.189-.956l1.917.568z" fill="currentColor"></path><path d="M32.535 32.496l1.941.482c.25-1.01.303-1.96.174-2.838l-2.239-.662c.332.806.427 1.797.124 3.018z" fill="currentColor"></path><path fill-rule="evenodd" clip-rule="evenodd" d="M31.427 32.225a1 1 0 0 1 .632-.225h2.882a1 1 0 0 1 .632.225l2.059 1.679a1 1 0 0 1 .368.775v4.365a1 1 0 0 1-1 1h-2.059v-2H36v-2.89L34.585 34h-2.17L31 35.154v2.89h1.059v2H30a1 1 0 0 1-1-1V34.68a1 1 0 0 1 .368-.775l2.059-1.679z" fill="currentColor"></path></g></svg>