<svg height="480" width="480" viewBox="0 0 480.17 480.17"><g fill="currentColor" class="nc-icon-wrapper"><path d="M285.685 197.482c51.616-25.197 73.032-87.467 47.834-139.082-25.197-51.616-87.467-73.032-139.082-47.834-51.616 25.197-73.032 87.467-47.834 139.082a103.996 103.996 0 0 0 47.834 47.834C104.092 218.776 40.212 299.349 40.085 392.17v80a8 8 0 0 0 8 8h384a8 8 0 0 0 8-8v-80c-.132-92.835-64.036-173.413-154.4-194.688zm-133.6-93.312c0-48.601 39.399-88 88-88s88 39.399 88 88-39.399 88-88 88c-48.577-.057-87.943-39.423-88-88zm272 360h-368v-72c.063-70.2 40.026-134.26 103.048-165.184a111.446 111.446 0 0 0-30.712 70.552c-12.553 4.256-19.279 17.882-15.023 30.435 4.256 12.553 17.882 19.279 30.435 15.023 12.553-4.256 19.279-17.882 15.023-30.435a23.998 23.998 0 0 0-14.435-14.815c3.494-52.842 49.163-92.847 102.005-89.353 47.721 3.155 85.821 40.992 89.307 88.689-18.435 3.955-31.615 20.233-31.648 39.088v32h16v-32c0-13.255 10.745-24 24-24s24 10.745 24 24v32h16v-32c-.05-19.117-13.605-35.534-32.368-39.2a111.467 111.467 0 0 0-30.68-69.952c63.011 30.919 102.972 94.964 103.048 165.152v72zm-280-144a8 8 0 1 1-16 0 8 8 0 0 1 16 0z"></path></g></svg>