<svg width="48" height="48" xmlns="http://www.w3.org/2000/svg" viewBox="0 0 48 48"><g fill="none" class="nc-icon-wrapper"><path fill-rule="evenodd" clip-rule="evenodd" d="M19.299 6c-1.742 0-3.1 1.36-3.1 2.93 0 1.572 1.358 2.932 3.1 2.932s3.099-1.36 3.099-2.931c0-1.57-1.357-2.931-3.1-2.931zm-5.1 2.93C14.2 6.179 16.533 4 19.3 4c2.767 0 5.099 2.178 5.099 4.93 0 2.754-2.332 4.932-5.1 4.932-2.766 0-5.098-2.178-5.098-4.931z" fill="currentColor"></path><path fill-rule="evenodd" clip-rule="evenodd" d="M11.098 17.111c-.848.776-1.556 1.926-1.556 3.5 0 2.287.78 3.834 1.632 4.801.326.37.664.657.976.869v-7.523h2v23.585c0 .49.435.966 1.05.966s1.05-.476 1.05-.966V31.516h6.098v10.827c0 .49.435.966 1.05.966s1.05-.476 1.05-.966V17.758h11.247c.615 0 1.05-.476 1.05-.965 0-.375-.307-.793-1.05-.793H13.15c-.072 0-.347.046-.77.245a5.225 5.225 0 0 0-1.282.866zM12.15 28.53a5.02 5.02 0 0 1-.685-.322 6.97 6.97 0 0 1-1.792-1.473c-1.17-1.328-2.131-3.343-2.131-6.123 0-2.244 1.032-3.9 2.206-4.975a7.225 7.225 0 0 1 1.781-1.201c.547-.257 1.13-.435 1.621-.435h22.545c1.513 0 3.05 1.006 3.05 2.793 0 1.672-1.41 2.965-3.05 2.965h-9.247v22.585c0 1.673-1.41 2.966-3.05 2.966s-3.05-1.293-3.05-2.966v-8.827H18.25v8.827c0 1.673-1.41 2.966-3.05 2.966-1.639 0-3.049-1.293-3.049-2.966V28.53z" fill="currentColor"></path><path d="M16 19h7v11h-7V19z" fill="currentColor"></path><path d="M16 19h2v-4h-2v4z" fill="currentColor"></path><path d="M21 19h2v-4h-2v4z" fill="currentColor"></path><path d="M32 10a1 1 0 1 1 2 0v20a1 1 0 1 1-2 0V10z" fill="currentColor"></path><path fill-rule="evenodd" clip-rule="evenodd" d="M33 32c-.889 0-1.687.386-2.236 1h4.472c-.55-.614-1.347-1-2.236-1zm4.584 1A5.001 5.001 0 0 0 28 35h10c0-.711-.148-1.388-.416-2z" fill="currentColor"></path></g></svg>