<svg width="48" height="48" xmlns="http://www.w3.org/2000/svg" viewBox="0 0 48 48"><g fill="none" class="nc-icon-wrapper"><path fill-rule="evenodd" clip-rule="evenodd" d="M12.115 6.463a1.406 1.406 0 0 0-2.251.226l2.251-.226zm-.766 2.313a11.71 11.71 0 0 0-.041 1.617c.025.625.094 1.227.2 1.711.054.242.113.437.171.583.057.14.097.195.102.202.054.059.113.095.37.25l.008.005a1 1 0 0 1 .13 1.619c-.045.038-.09.073-.118.095l-.002.002-.06.048-3.945 5.761c-.183.268-.22.654-.074.974l.76 1.668c.141.31.398.446.61.446h1.646c.14 0 .294-.056.43-.188l2.208-3.066a1 1 0 0 1 1.753.248l2.644 7.401a1 1 0 0 1 .048.19l.944 6.334a.998.998 0 0 1-.01.355l-.945 4.445a1 1 0 0 1-.296.524h2.556l.005-.024a7.21 7.21 0 0 0 .158-1.77c-.017-.442-.05-.948-.083-1.48-.059-.93-.122-1.939-.12-2.814.002-.71.043-1.421.178-2.043.13-.598.377-1.272.918-1.73a1 1 0 0 1 1.388.095c.986 1.092 1.576 1.36 2.012 1.387.482.031 1.09-.197 2.206-.909a.998.998 0 0 1 .271-.12c-.002 0 .05-.016.166-.093.11-.074.24-.176.395-.308.149-.129.303-.27.47-.423l.015-.014c.169-.154.352-.322.534-.476.18-.153.38-.311.59-.443.2-.127.466-.268.775-.326.338-.065.747-.031 1.119.23.34.239.525.585.632.89.145.418.436.623.949.915l.06.034c.218.123.55.31.805.557.295.286.52.675.543 1.166.361.994.48 1.882.414 2.691a5.351 5.351 0 0 1-.676 2.173c-.268.487-.59.926-.85 1.28l-.139.19c-.307.425-.468.69-.534.915a.99.99 0 0 1-.272.45h2.753l1.883-7.536-2.078-9.236a1 1 0 0 1 1.613-.99l.226.184c.34.277.72.585 1.112.991.476.493.968 1.121 1.547 2.06.084-.02.19-.055.334-.11l.108-.04.108-.043-1.012-1.665c-1.331-2.193-3.523-3.455-5.844-3.455H20.6a1 1 0 0 1-.74-.326l-4.099-4.5c-1.69-.459-2.449-2.08-2.989-3.378-.11-.265-.215-.526-.318-.784-.344-.86-.671-1.675-1.105-2.396zm19.679 29.49c.165-.299.355-.568.525-.802l.165-.227c.259-.355.491-.673.692-1.036.23-.419.392-.859.434-1.372.042-.514-.031-1.159-.355-1.99a1.002 1.002 0 0 1-.067-.321 6.148 6.148 0 0 0-.396-.236l-.006-.004c-.458-.26-1.206-.686-1.661-1.57l-.115.096c-.148.125-.303.267-.476.425l-.024.022c-.16.147-.335.307-.509.456-.291.25-.704.586-1.164.758-1.07.675-2.146 1.227-3.305 1.152-.828-.053-1.57-.412-2.292-1a9.785 9.785 0 0 0-.076 1.3c-.002.829.053 1.69.11 2.558.034.55.07 1.103.091 1.653a9.207 9.207 0 0 1-.375 2.948 5.614 5.614 0 0 1-.084.251l-.006.018-.003.007v.003c-.001 0-.001.001-.936-.355l.935.356a1 1 0 0 1-.935.644H15.5a1 1 0 0 1-1-1c0-.7.124-1.295.402-1.77a2.033 2.033 0 0 1 1.5-1.015l.726-3.423-.903-6.06-1.97-5.515-1.137 1.577a.992.992 0 0 1-.072.089 2.624 2.624 0 0 1-1.94.874H9.459c-1.074 0-1.997-.669-2.43-1.617l-.76-1.668a3.016 3.016 0 0 1 .246-2.933l3.7-5.406c-.352-.445-.542-1.067-.66-1.6a12.14 12.14 0 0 1-.246-2.06 13.38 13.38 0 0 1 .069-2.068c.07-.59.203-1.247.484-1.713l.002-.003m21.164 31.577c-.139.01-.293.035-.452.083a1.9 1.9 0 0 0-1.122.917c-.26.466-.37 1.05-.37 1.734a1 1 0 0 0 1 1H35.9a1 1 0 0 0 .97-.758L39 32.72a1 1 0 0 0 .006-.462l-1.293-5.744.068.11c.227.375.553.65.96.781.38.124.741.096 1.01.044.27-.052.524-.143.712-.214l.18-.069c.114-.044.194-.075.277-.1.11-.034.212-.087.303-.156.816-.613 1.003-1.765.49-2.616l-1.043-1.717c-1.665-2.74-4.478-4.416-7.554-4.416H21.042l-4.017-4.408a1 1 0 0 0-.582-.314c-.723-.115-1.194-.735-1.824-2.25a45.067 45.067 0 0 1-.268-.667c-.504-1.267-1.131-2.848-2.236-4.058m-.02 8.457c-.001 0 0 0 0 0z" fill="currentColor"></path></g></svg>