<svg width="48" height="48" xmlns="http://www.w3.org/2000/svg" viewBox="0 0 48 48"><g fill="none" class="nc-icon-wrapper"><path fill-rule="evenodd" clip-rule="evenodd" d="M10.345 11.988C8.885 13.846 8 16.384 8 19.035c0 5.94 3.965 10.927 8.15 14.516a43.803 43.803 0 0 0 7.837 5.32l.252-.14a47.168 47.168 0 0 0 7.603-5.371C36.044 29.691 40 24.705 40 19.034c0-2.65-.885-5.189-2.344-7.047C36.2 10.137 34.213 9 31.969 9c-3.103 0-5.51 2.02-7.071 5.202L24 16.03l-.898-1.828C21.541 11.02 19.134 9 16.032 9c-2.245 0-4.232 1.136-5.687 2.988zM24 40l-.434.9-.005-.002-.011-.005-.041-.02a28.259 28.259 0 0 1-.711-.368 45.822 45.822 0 0 1-7.949-5.436C10.535 31.371 6 25.875 6 19.034c0-3.075 1.021-6.054 2.772-8.282C10.528 8.518 13.056 7 16.032 7c3.503 0 6.167 1.963 7.968 4.734C25.8 8.964 28.465 7 31.969 7c2.975 0 5.504 1.518 7.26 3.753C40.978 12.98 42 15.96 42 19.035c0 6.582-4.544 12.079-8.842 15.831a49.172 49.172 0 0 1-8.494 5.914l-.151.08-.04.022-.012.005-.003.002h-.001S24.456 40.89 24 40zm0 0l.457.89-.443.227-.448-.216L24 40z" fill="currentColor"></path><path fill-rule="evenodd" clip-rule="evenodd" d="M32 13.844v13.354c0 1.459-.556 2.57-1.494 3.273-.897.673-2.024.885-3.05.84-1.032-.047-2.078-.357-2.894-.87-.604-.378-1.2-.952-1.446-1.706a6.309 6.309 0 0 1-3.573.3c-.897-.19-1.779-.598-2.447-1.285C16.412 27.047 16 26.1 16 24.96c0-1.644.587-2.832 1.636-3.7.97-.803 2.287-1.285 3.619-1.716.312-.1.631-.2.956-.303 2.539-.797 5.424-1.703 8.143-4.003L32 13.844zM18.911 22.8c-.561.464-.911 1.073-.911 2.159 0 .628.213 1.072.53 1.396.33.34.824.596 1.427.724 1.253.265 2.63-.08 3.336-.786L25 24.586V28c0 .127.1.418.625.748.497.311 1.2.532 1.92.564.723.032 1.346-.129 1.761-.44.375-.282.694-.766.694-1.674v-9.196c-2.544 1.696-5.124 2.502-7.203 3.151-.322.1-.631.198-.927.293-1.355.439-2.32.825-2.959 1.354z" fill="currentColor"></path><path fill-rule="evenodd" clip-rule="evenodd" d="M26.004 23.636a1 1 0 0 1 .36 1.368c-1.734 2.971-2.168 4.466-2.187 5.476-.009.494.08.92.23 1.423.045.148.1.318.16.503.13.397.282.867.403 1.352a1 1 0 1 1-1.94.484c-.107-.425-.217-.762-.332-1.114-.067-.205-.136-.415-.206-.65-.18-.602-.329-1.252-.314-2.036.029-1.548.691-3.417 2.458-6.446a1 1 0 0 1 1.368-.36z" fill="currentColor"></path></g></svg>