<svg width="48" height="48" xmlns="http://www.w3.org/2000/svg" viewBox="0 0 48 48"><g fill="none" class="nc-icon-wrapper"><path fill-rule="evenodd" clip-rule="evenodd" d="M11.103 4a1 1 0 0 0-.995 1.093 5.025 5.025 0 0 1 1.99.013A1 1 0 0 0 11.104 4zm2.857 1.92a3 3 0 1 0-5.725-.038 4.997 4.997 0 0 0-2.165 4.12c0 .523.08 1.028.23 1.503h-.625c-.462 0-.974.187-1.418.42-.475.248-.988.612-1.463 1.087-.956.955-1.794 2.4-1.794 4.303 0 2.336.772 4.043 1.73 5.18.473.562.99.983 1.476 1.269.09.053.183.104.277.15l-2.36 10.073-.288 1.228h2.841v7.653a2.64 2.64 0 0 0 2.634 2.635 2.64 2.64 0 0 0 2.634-2.635v-7.652h2.27v7.652a2.64 2.64 0 0 0 2.634 2.635 2.64 2.64 0 0 0 2.635-2.635v-7.653H20.41l-.288-1.228-.902-3.852a1 1 0 0 0 1.883-.468V29a1 1 0 1 1 2 0v14a1 1 0 1 0 2 0V29a3 3 0 0 0-2.546-2.966 2.501 2.501 0 0 0 .827-3.058l-4.222-9.404a3.5 3.5 0 0 0-3.193-2.066h-.129a5 5 0 0 0 .23-1.504 4.996 4.996 0 0 0-2.11-4.083zM11.07 7a3 3 0 0 0-2.597 4.505h.029l.3.368a2.96 2.96 0 0 0 2.301 1.094 2.96 2.96 0 0 0 2.301-1.093l.133-.164A3.001 3.001 0 0 0 11.07 7zm-5.395 6.505h1.826a4.984 4.984 0 0 0 3.57 1.499c1.397 0 2.66-.574 3.567-1.498h1.331a1.5 1.5 0 0 1 1.368.886l4.222 9.403a.5.5 0 1 1-.912.41l-3.252-7.244-1.912.41V22.953l.026.112 2.378 10.149h-2.404v9.653a.64.64 0 0 1-.635.635.64.64 0 0 1-.635-.635v-9.652H7.944v9.652a.64.64 0 0 1-.634.635.64.64 0 0 1-.635-.635v-9.653H4.358l2.284-9.747.279-1.19h.002v-.008l.004-.018h-.004V17.02h-2v4.82a4.092 4.092 0 0 1-.664-.633C3.61 20.434 3 19.183 3 17.315c0-1.273.55-2.232 1.207-2.888.331-.331.68-.575.98-.732.286-.15.453-.183.484-.189l.004-.001zm13.148 11.519a2.496 2.496 0 0 0 1.72 1.413A2.998 2.998 0 0 0 19.104 29v.639l-1.62-6.916v-.684l1.34 2.985z" fill="currentColor"></path><path fill-rule="evenodd" clip-rule="evenodd" d="M30.042 10.002A3.001 3.001 0 1 1 36.044 10a3.001 3.001 0 0 1-6.002.002zm3-5.002a5 5 0 0 0-4.77 6.505h-.597c-.462 0-.974.187-1.418.42-.475.248-.988.612-1.463 1.087-.956.955-1.794 2.4-1.794 4.303 0 2.341.776 4.052 1.736 5.188a5.81 5.81 0 0 0 1.48 1.267c.148.086.302.166.46.234v18.864a2.64 2.64 0 0 0 2.634 2.635h.019a2.64 2.64 0 0 0 2.634-2.635V32.216h2.25v10.652a2.64 2.64 0 0 0 2.635 2.635h.019a2.64 2.64 0 0 0 2.635-2.635V24.133l.24.69a2.5 2.5 0 0 0 2.182 1.671A2.997 2.997 0 0 0 40.574 29v.667a1 1 0 0 0 2 0V29a1 1 0 0 1 2 0v14a1 1 0 0 0 2 0V29a3 3 0 0 0-2.97-3 2.5 2.5 0 0 0 .86-2.824l-3.253-9.323a3.5 3.5 0 0 0-3.305-2.347h-.094A5 5 0 0 0 33.042 5zm-5.367 8.505h1.798a4.984 4.984 0 0 0 3.57 1.499c1.397 0 2.66-.574 3.567-1.498h1.296a1.5 1.5 0 0 1 1.416 1.006l3.253 9.323a.5.5 0 0 1-.944.33l-2.185-6.263-1.944.33v24.636a.64.64 0 0 1-.635.635h-.019a.64.64 0 0 1-.635-.635V30.216h-6.25v12.652a.64.64 0 0 1-.634.635h-.019a.64.64 0 0 1-.635-.635V22.24h-.003V17h-2v4.634a4.271 4.271 0 0 1-.408-.421C25.612 20.44 25 19.188 25 17.315c0-1.273.55-2.232 1.207-2.888.331-.331.68-.575.98-.732.286-.15.453-.183.483-.189l.005-.001z" fill="currentColor"></path></g></svg>