<svg width="48" height="48" xmlns="http://www.w3.org/2000/svg" viewBox="0 0 48 48"><g fill="none" class="nc-icon-wrapper"><path fill-rule="evenodd" clip-rule="evenodd" d="M9.615 19.138A3 3 0 0 1 12.488 17h25.205l6.243 16.649a1 1 0 1 1-1.872.702L37.105 21.13l-4.72 15.733A3 3 0 0 1 29.512 39H7.688a3 3 0 0 1-2.873-3.862l4.8-16zM35.656 19H12.488a1 1 0 0 0-.958.713l-4.8 16A1 1 0 0 0 7.688 37h21.824a1 1 0 0 0 .958-.713L35.656 19z" fill="currentColor"></path><path fill-rule="evenodd" clip-rule="evenodd" d="M16 28a1 1 0 0 1 1-1h8a1 1 0 1 1 0 2h-8a1 1 0 0 1-1-1z" fill="currentColor"></path><path fill-rule="evenodd" clip-rule="evenodd" d="M19.758 32.97a1 1 0 0 1-.728-1.212l2-8a1 1 0 1 1 1.94.485l-2 8a1 1 0 0 1-1.212.727z" fill="currentColor"></path><path fill-rule="evenodd" clip-rule="evenodd" d="M37 19a1 1 0 0 1-1-1v-7a1 1 0 1 1 2 0v7a1 1 0 0 1-1 1z" fill="currentColor"></path><path fill-rule="evenodd" clip-rule="evenodd" d="M36 10h-6v3h6v-3zm-6-2a2 2 0 0 0-2 2v3a2 2 0 0 0 2 2h6a2 2 0 0 0 2-2v-3a2 2 0 0 0-2-2h-6z" fill="currentColor"></path></g></svg>