<svg width="48" height="48" xmlns="http://www.w3.org/2000/svg" viewBox="0 0 48 48"><g fill="none" class="nc-icon-wrapper"><path fill-rule="evenodd" clip-rule="evenodd" d="M32.32 39.966A17.923 17.923 0 0 1 24 42c-9.941 0-18-8.059-18-18S14.059 6 24 6s18 8.059 18 18c0 2.39-.466 4.671-1.312 6.758l1.976.444A19.952 19.952 0 0 0 44 24c0-11.046-8.954-20-20-20S4 12.954 4 24s8.954 20 20 20c3.274 0 6.364-.786 9.091-2.18l-.772-1.854z" fill="currentColor"></path><path fill-rule="evenodd" clip-rule="evenodd" d="M33 33a1 1 0 1 1-2 0 1 1 0 0 1 2 0zm11 2a1 1 0 1 0 0-2 1 1 0 0 0 0 2zm-2 3a1 1 0 1 0 0-2 1 1 0 0 0 0 2zm-1 2a1 1 0 1 1-2 0 1 1 0 0 1 2 0zm-2 4a1 1 0 1 1-2 0 1 1 0 0 1 2 0zm6-3a1 1 0 1 1-2 0 1 1 0 0 1 2 0zm-11-3a1 1 0 1 0 0-2 1 1 0 0 0 0 2zm3-5a1 1 0 1 1-2 0 1 1 0 0 1 2 0zm3 2a1 1 0 1 0 0-2 1 1 0 0 0 0 2zm-1 2a1 1 0 1 1-2 0 1 1 0 0 1 2 0zm-3 5a1 1 0 1 0 0-2 1 1 0 0 0 0 2z" fill="currentColor"></path><path fill-rule="evenodd" clip-rule="evenodd" d="M12.105 18.553a1 1 0 0 1 1.342-.448l4 2a1 1 0 0 1 0 1.79l-4 2a1 1 0 1 1-.894-1.79L14.763 21l-2.21-1.106a1 1 0 0 1-.448-1.341z" fill="currentColor"></path><path fill-rule="evenodd" clip-rule="evenodd" d="M35.895 18.553a1 1 0 0 0-1.342-.448l-4 2a1 1 0 0 0 0 1.79l4 2a1 1 0 1 0 .894-1.79L33.237 21l2.21-1.106a1 1 0 0 0 .447-1.341z" fill="currentColor"></path><path d="M28 31c0 2.21-1.567 4-3.5 4S21 33.21 21 31s1.567-4 3.5-4 3.5 1.79 3.5 4z" fill="currentColor"></path></g></svg>