<svg width="48" height="48" xmlns="http://www.w3.org/2000/svg" viewBox="0 0 48 48"><g fill="none" class="nc-icon-wrapper"><path fill-rule="evenodd" clip-rule="evenodd" d="M12.778 30.628c-.203-.468-.661-.72-1.108-.597C6.866 31.36 2 34.067 2 38.141V45h32v-6.86c0-4.073-4.866-6.78-9.67-8.109-.447-.123-.905.13-1.108.597H12.778zm6.832 2h-8.145l-.173-.4c-1.927.61-3.725 1.436-5.064 2.433C4.67 35.819 4 36.99 4 38.14V43h28v-4.86c0-1.149-.67-2.32-2.228-3.48-1.339-.996-3.137-1.821-5.064-2.431l-.173.4H19.61z" fill="currentColor"></path><path d="M11 36a1 1 0 1 1 2 0v7a1 1 0 1 1-2 0v-7z" fill="currentColor"></path><path d="M23 36a1 1 0 1 1 2 0v7a1 1 0 1 1-2 0v-7z" fill="currentColor"></path><path fill-rule="evenodd" clip-rule="evenodd" d="M11.634 12.647c-1.184 1.55-1.42 3.25-1.121 4.118a1 1 0 1 1-1.891.652c-.583-1.69-.03-4.082 1.422-5.984 1.503-1.967 4.036-3.524 7.61-3.524 3.63 0 6.35 1.417 8.026 3.317 1.638 1.856 2.336 4.265 1.69 6.184a1 1 0 0 1-1.896-.638c.353-1.048.024-2.73-1.293-4.223-1.28-1.45-3.444-2.64-6.528-2.64-2.934 0-4.885 1.254-6.02 2.738z" fill="currentColor"></path><path fill-rule="evenodd" clip-rule="evenodd" d="M13.262 9.818a1 1 0 0 1 1 1v3.455a1 1 0 1 1-2 0v-3.455a1 1 0 0 1 1-1z" fill="currentColor"></path><path fill-rule="evenodd" clip-rule="evenodd" d="M18.044 8a1 1 0 0 1 1 1v3.454a1 1 0 1 1-2 0V9a1 1 0 0 1 1-1z" fill="currentColor"></path><path fill-rule="evenodd" clip-rule="evenodd" d="M22.825 9.818a1 1 0 0 1 1 1v3.455a1 1 0 1 1-2 0v-3.455a1 1 0 0 1 1-1z" fill="currentColor"></path><path fill-rule="evenodd" clip-rule="evenodd" d="M7.026 18.715c-.18-1.22.578-2.33 1.722-3.297l1.29 1.528c-1.007.851-1.055 1.33-1.034 1.476.025.166.223.53 1.093.95 1.675.809 4.718 1.264 7.903 1.264 3.185 0 6.228-.455 7.903-1.264.87-.42 1.068-.784 1.093-.95.021-.145-.027-.625-1.035-1.476l1.291-1.528c1.144.966 1.903 2.078 1.722 3.297-.177 1.197-1.189 1.97-2.201 2.458-2.09 1.01-5.503 1.463-8.773 1.463-3.27 0-6.682-.453-8.773-1.463-1.012-.489-2.024-1.26-2.201-2.458z" fill="currentColor"></path><path fill-rule="evenodd" clip-rule="evenodd" d="M11.35 20.727C11.35 24.145 14.279 27 18 27c3.721 0 6.65-2.855 6.65-6.273h2C26.65 25.343 22.73 29 18 29s-8.65-3.657-8.65-8.273h2z" fill="currentColor"></path><path fill-rule="evenodd" clip-rule="evenodd" d="M31 5a1 1 0 0 1 1-1h3a1 1 0 0 1 1 1v4.92l3.375-2.7A1 1 0 0 1 41 8v1.92l3.375-2.7A1 1 0 0 1 46 8v11a1 1 0 0 1-1 1H32a1 1 0 0 1-1-1V5zm2 1v12h11v-7.92l-3.375 2.7A1 1 0 0 1 39 12v-1.92l-3.375 2.7A1 1 0 0 1 34 12V6h-1z" fill="currentColor"></path><path d="M35 14.4c0-.22.18-.4.4-.4h1.2c.22 0 .4.18.4.4v1.2a.4.4 0 0 1-.4.4h-1.2a.4.4 0 0 1-.4-.4v-1.2z" fill="currentColor"></path><path d="M40 14.4c0-.22.18-.4.4-.4h1.2c.22 0 .4.18.4.4v1.2a.4.4 0 0 1-.4.4h-1.2a.4.4 0 0 1-.4-.4v-1.2z" fill="currentColor"></path></g></svg>