<svg width="48" height="48" xmlns="http://www.w3.org/2000/svg" viewBox="0 0 48 48"><g fill="none" class="nc-icon-wrapper"><path fill-rule="evenodd" clip-rule="evenodd" d="M9 4a3 3 0 0 0-3 3v8a3 3 0 0 0 3 3h18a3 3 0 0 0 3-3V7a3 3 0 0 0-3-3H9zM8 7a1 1 0 0 1 1-1h18a1 1 0 0 1 1 1v8a1 1 0 0 1-1 1H9a1 1 0 0 1-1-1V7zm8 3a1 1 0 1 0 0-2 1 1 0 0 0 0 2zm-3-1a1 1 0 1 1-2 0 1 1 0 0 1 2 0zm3 5a1 1 0 1 0 0-2 1 1 0 0 0 0 2zm-3-1a1 1 0 1 1-2 0 1 1 0 0 1 2 0zm7-3a1 1 0 1 0 0-2 1 1 0 0 0 0 2zm1 3a1 1 0 1 1-2 0 1 1 0 0 1 2 0zm3-3a1 1 0 1 0 0-2 1 1 0 0 0 0 2zm1 3a1 1 0 1 1-2 0 1 1 0 0 1 2 0zm8.002 7.534l.998-.578V18a1 1 0 1 1 2 0v1.956l.999.578A3.998 3.998 0 0 1 39 24v18h-8V24c0-1.478.8-2.771 2.002-3.466zM29 42V24c0-2.22 1.207-4.16 3-5.197V18a3 3 0 1 1 6 0v.803A5.998 5.998 0 0 1 41 24v18h1a1 1 0 1 1 0 2H28a1 1 0 1 1 0-2h1zM14.253 23.27a2 2 0 0 0-2.274-1.046L4.758 24.03l.485 1.94 7.221-1.805.956 1.91c-.822.222-1.42.9-1.42 1.703v12.444c0 .982.895 1.778 2 1.778v2h2v-2c1.105 0 2-.796 2-1.778V27.778c0-.803-.598-1.481-1.42-1.702l.956-1.911 7.221 1.805.485-1.94-7.221-1.806a2 2 0 0 0-2.274 1.046L15 24.764l-.747-1.494zM16 27.778v12.444h-2V27.778h2z" fill="currentColor"></path></g></svg>