<svg width="48" height="48" xmlns="http://www.w3.org/2000/svg" viewBox="0 0 48 48"><g fill="none" class="nc-icon-wrapper"><path fill-rule="evenodd" clip-rule="evenodd" d="M26 11a4 4 0 0 1 4-4h4a4 4 0 0 1 4 4h-2a2 2 0 0 0-2-2h-4a2 2 0 1 0 0 4h4a4 4 0 0 1 0 8h-4a4 4 0 0 1-4-4h2a2 2 0 0 0 2 2h4a2 2 0 1 0 0-4h-4a4 4 0 0 1-4-4z" fill="currentColor"></path><path fill-rule="evenodd" clip-rule="evenodd" d="M31 23V5h2v18h-2z" fill="currentColor"></path><path fill-rule="evenodd" clip-rule="evenodd" d="M20 36a3 3 0 0 1 3-3h18a3 3 0 0 1 3 3v5H20v-5zm3-1a1 1 0 0 0-1 1v3h20v-3a1 1 0 0 0-1-1H23z" fill="currentColor"></path><path fill-rule="evenodd" clip-rule="evenodd" d="M20 44v-4h2v4h-2z" fill="currentColor"></path><path fill-rule="evenodd" clip-rule="evenodd" d="M42 44v-4h2v4h-2z" fill="currentColor"></path><path fill-rule="evenodd" clip-rule="evenodd" d="M39 33v-6h2v6h-2z" fill="currentColor"></path><path fill-rule="evenodd" clip-rule="evenodd" d="M28 33v-4h2v4h-2z" fill="currentColor"></path><path fill-rule="evenodd" clip-rule="evenodd" d="M34 33v-4h2v4h-2z" fill="currentColor"></path><path fill-rule="evenodd" clip-rule="evenodd" d="M23 33v-6h2v6h-2z" fill="currentColor"></path><path fill-rule="evenodd" clip-rule="evenodd" d="M40 30H24v-2h16v2z" fill="currentColor"></path><path fill-rule="evenodd" clip-rule="evenodd" d="M13 9a2 2 0 1 1-4 0 2 2 0 0 1 4 0zm2 0a4 4 0 1 1-8 0 4 4 0 0 1 8 0zm.459 21h-2.3l-1 12H9.84l-1-12H6.541a1 1 0 0 1-.986-1.164l2-12A1 1 0 0 1 8.54 16h4.918a1 1 0 0 1 .986.836l2 12A1 1 0 0 1 15.459 30zM6.54 32H7l.847 10.166A2 2 0 0 0 9.84 44h2.32a2 2 0 0 0 1.993-1.834L15 32h.459a3 3 0 0 0 2.959-3.493l-2-12A3 3 0 0 0 13.458 14H8.542a3 3 0 0 0-2.959 2.507l-2 12A3 3 0 0 0 6.542 32z" fill="currentColor"></path></g></svg>