<svg width="48" height="48" xmlns="http://www.w3.org/2000/svg" viewBox="0 0 48 48"><g fill="none" class="nc-icon-wrapper"><path d="M35.175 27.716v2.356h-3.44a1.147 1.147 0 1 0 0 2.294h3.44v3.44a1.147 1.147 0 0 0 2.294 0v-3.44h3.44a1.147 1.147 0 0 0 0-2.295h-3.44v-2.355h-2.294z" fill="currentColor"></path><path fill-rule="evenodd" clip-rule="evenodd" d="M36.5 26a6.5 6.5 0 1 0 0-13 6.5 6.5 0 0 0 0 13zm0 2a8.5 8.5 0 1 0 0-17 8.5 8.5 0 0 0 0 17z" fill="currentColor"></path><path fill-rule="evenodd" clip-rule="evenodd" d="M25 40H7a1 1 0 1 0 0 2h18a1 1 0 1 0 0-2zM7 38a3 3 0 1 0 0 6h18a3 3 0 1 0 0-6H7z" fill="currentColor"></path><path fill-rule="evenodd" clip-rule="evenodd" d="M9.818 32.342V38h12.364v-5.658c0-.727.314-1.414.474-1.754.16-.343.366-.727.547-1.065l.122-.228c.226-.424.41-.786.538-1.101.1-.246.127-.373.134-.409a2.381 2.381 0 0 0-.134-.408 12.405 12.405 0 0 0-.538-1.102l-.122-.227c-.18-.339-.386-.722-.547-1.065-.16-.34-.474-1.027-.474-1.755v-.455c0-.77.344-1.445.518-1.773.17-.32.389-.672.57-.965l.116-.188c.225-.366.393-.657.507-.91.068-.15.093-.237.103-.273a2.45 2.45 0 0 0-.133-.401 12.392 12.392 0 0 0-.538-1.101l-.122-.228c-.18-.338-.386-.722-.547-1.065-.16-.34-.474-1.027-.474-1.754v-1.367c0-2-.768-3.375-1.845-4.281C19.217 7.523 17.647 7 16 7c-1.648 0-3.216.523-4.337 1.467-1.077.906-1.845 2.28-1.845 4.28v1.368c0 .727-.314 1.414-.473 1.754a23.64 23.64 0 0 1-.548 1.065l-.122.228c-.226.424-.41.786-.538 1.101a2.448 2.448 0 0 0-.133.401c.01.036.035.123.103.274.114.252.282.543.507.909l.116.188c.181.293.4.645.57.965.174.328.518 1.002.518 1.773v.455c0 .728-.314 1.415-.473 1.755-.161.343-.367.726-.548 1.064l-.122.228c-.226.425-.41.786-.538 1.102-.1.245-.127.373-.134.408.007.036.035.163.134.409.128.315.312.677.538 1.101l.122.228c.18.338.387.722.548 1.065.16.34.473 1.026.473 1.754zm14.364 0c0-.41.367-1.095.772-1.85.495-.925 1.046-1.954 1.046-2.707 0-.752-.551-1.781-1.046-2.706-.405-.755-.772-1.441-.772-1.85v-.456c0-.41.367-1.004.772-1.657.495-.801 1.046-1.692 1.046-2.444 0-.753-.551-1.782-1.046-2.707-.405-.755-.772-1.44-.772-1.85v-1.367c0-10.33-16.364-10.33-16.364 0v1.367c0 .41-.367 1.095-.772 1.85C6.551 16.89 6 17.92 6 18.672c0 .752.551 1.643 1.046 2.444.405.653.772 1.247.772 1.657v.455c0 .41-.367 1.096-.772 1.851C6.551 26.004 6 27.033 6 27.785c0 .753.551 1.782 1.046 2.706.405.756.772 1.441.772 1.851V40h16.364v-7.658z" fill="currentColor"></path><path fill-rule="evenodd" clip-rule="evenodd" d="M16 10a3 3 0 0 0-3 3 1 1 0 1 1-2 0 5 5 0 0 1 5-5 1 1 0 1 1 0 2z" fill="currentColor"></path></g></svg>