<svg width="48" height="48" xmlns="http://www.w3.org/2000/svg" viewBox="0 0 48 48"><g fill="none" class="nc-icon-wrapper"><g clip-path="url(#clip0)"><path fill-rule="evenodd" clip-rule="evenodd" d="M36.728 36.728c-7.03 7.03-18.427 7.03-25.456 0-5.997-5.997-6.878-15.173-2.642-22.104l5.256-1.69c2.492-.8 4.353 2.32 2.464 4.132-2.948 2.827-.87 7.802 3.213 7.691l1.034-.028a2.868 2.868 0 0 1 2.854 2.148l.13.5a2.994 2.994 0 0 0-1.016.077l-5.657 1.414a3 3 0 1 0 1.456 5.82l2.746-.686.687 2.746a3 3 0 0 0 3.241 2.255c7.82-.87 11.406-6.41 12.378-9a3 3 0 0 0-3.04-4.044l-2.07.159-.8-3.2a3 3 0 0 0-5.82 1.456l1.414 5.657c.183.731.623 1.34 1.207 1.742-.41.24-.86.46-1.352.65l-1.568-6.049a4.868 4.868 0 0 0-4.844-3.644l-1.034.028c-2.255.06-3.403-2.687-1.775-4.249 3.42-3.28.052-8.929-4.46-7.479l-2.557.822c.18-.196.365-.39.555-.58 7.03-7.03 18.427-7.03 25.456 0 7.03 7.03 7.03 18.427 0 25.456zm1.414 1.414c-7.81 7.81-20.474 7.81-28.284 0-7.81-7.81-7.81-20.474 0-28.284 7.81-7.81 20.474-7.81 28.284 0 7.81 7.81 7.81 20.474 0 28.284zm0-15.556a2 2 0 1 1-2.828-2.829 2 2 0 0 1 2.828 2.829zM39.556 24a4 4 0 1 1-5.656-5.657A4 4 0 0 1 39.556 24zm-4.15 4.35a1 1 0 0 0-.876-.397l-2.912.224a1 1 0 0 1-1.047-.755l-1.005-4.018a1 1 0 0 0-1.94.485l1.414 5.657a1 1 0 0 0 1.047.755l.47-.037a1 1 0 0 1 .767 1.72c-1.149 1.098-2.745 2.14-4.876 2.701a1 1 0 0 1-1.225-.724l-.96-3.84a1 1 0 0 0-1.213-.727l-5.657 1.414a1 1 0 1 0 .486 1.94l3.716-.929a1 1 0 0 1 1.213.728l.929 3.717a1 1 0 0 0 1.08.75c6.847-.76 9.93-5.59 10.726-7.713a1 1 0 0 0-.137-.952z" fill="#333"></path></g><defs><clipPath id="clip0"><path fill="#fff" d="M0 0h48v48H0z"></path></clipPath></defs></g></svg>