<svg width="48" height="48" xmlns="http://www.w3.org/2000/svg" viewBox="0 0 48 48"><g fill="none" class="nc-icon-wrapper"><path fill-rule="evenodd" clip-rule="evenodd" d="M41 22.316l-.727.6a2.836 2.836 0 0 0-1.05 2.195c0 1.553 1.3 2.889 3 2.889 1.699 0 3-1.335 3-2.889 0-.98-.508-1.862-1.318-2.392L43 22.127V11a1 1 0 1 0-2 0v11.316zM39 11a3 3 0 0 1 6 0v10.046c1.34.877 2.222 2.37 2.222 4.065 0 2.7-2.238 4.889-5 4.889-2.761 0-5-2.189-5-4.889 0-1.5.69-2.841 1.778-3.738V11z" fill="currentColor"></path><path d="M40.481 14.519h3.26V28.37h-3.26V14.52z" fill="currentColor"></path><path d="M46.037 25.037a4 4 0 1 1-8 0 4 4 0 0 1 8 0z" fill="currentColor"></path><path fill-rule="evenodd" clip-rule="evenodd" d="M16.925 34.38a1 1 0 0 1-1.854-.751L16 34c-.928-.371-.928-.372-.928-.373v-.001l.002-.003.003-.007.008-.02a2.688 2.688 0 0 1 .107-.225c.072-.14.178-.33.326-.55a7.498 7.498 0 0 1 1.442-1.59C18.344 30.079 20.572 29 24 29s5.656 1.078 7.04 2.232a7.5 7.5 0 0 1 1.442 1.588 5.702 5.702 0 0 1 .41.722l.023.055.008.019.003.007.001.003.001.001c0 .001 0 .002-.928.373l.928-.371a1 1 0 0 1-1.853.75l-.005-.011a3.716 3.716 0 0 0-.252-.438 5.502 5.502 0 0 0-1.058-1.162C28.744 31.922 26.972 31 24 31s-4.744.922-5.76 1.768c-.515.43-.853.855-1.058 1.162a3.695 3.695 0 0 0-.252.438l-.005.012z" fill="currentColor"></path><path fill-rule="evenodd" clip-rule="evenodd" d="M41.016 29.885C38.578 36.936 31.88 42 24 42c-9.941 0-18-8.059-18-18S14.059 6 24 6c6.26 0 11.775 3.197 15 8.047V11c0-.074.003-.147.008-.22A19.952 19.952 0 0 0 24 4C12.954 4 4 12.954 4 24s8.954 20 20 20c8.99 0 16.595-5.932 19.114-14.096a5.248 5.248 0 0 1-2.098-.02z" fill="currentColor"></path><path fill-rule="evenodd" clip-rule="evenodd" d="M18.832 18.445a1 1 0 0 1-.277 1.387c-1.564 1.043-2.644 1.585-4.239 2.117a1 1 0 0 1-.632-1.898c1.405-.468 2.325-.925 3.761-1.883a1 1 0 0 1 1.387.277z" fill="currentColor"></path><path fill-rule="evenodd" clip-rule="evenodd" d="M29.168 18.445a1 1 0 0 0 .277 1.387c1.564 1.043 2.644 1.585 4.239 2.117a1 1 0 0 0 .632-1.898c-1.405-.468-2.325-.925-3.761-1.883a1 1 0 0 0-1.387.277z" fill="currentColor"></path><path fill-rule="evenodd" clip-rule="evenodd" d="M37.293 5.293a1 1 0 0 1 1.414 0l1 1a1 1 0 0 1-1.414 1.414l-1-1a1 1 0 0 1 0-1.414z" fill="currentColor"></path><path fill-rule="evenodd" clip-rule="evenodd" d="M42 3a1 1 0 0 1 1 1v2a1 1 0 1 1-2 0V4a1 1 0 0 1 1-1z" fill="currentColor"></path><path fill-rule="evenodd" clip-rule="evenodd" d="M46.707 5.293a1 1 0 0 0-1.414 0l-1 1a1 1 0 0 0 1.414 1.414l1-1a1 1 0 0 0 0-1.414z" fill="currentColor"></path><path fill-rule="evenodd" clip-rule="evenodd" d="M11.406 26.086l9 4-.812 1.828-9-4 .812-1.828z" fill="currentColor"></path><path d="M13.073 26.998a2 2 0 1 1-3.997.153 2 2 0 0 1 3.997-.153z" fill="currentColor"></path></g></svg>