<svg xmlns="http://www.w3.org/2000/svg" height="480" width="480" viewBox="0 0 480.005 480.005">
	<g fill="currentColor" class="nc-icon-wrapper">
		<path d="M406.856 247.957a176 176 0 0 0-110.853-110.853V64h48V0h-208v64h48v73.104C91.852 168.032 42.221 267.807 73.149 359.957c30.928 92.151 130.703 141.781 222.853 110.853 92.151-30.927 141.782-130.702 110.854-222.853zM152.002 48V16h176v32h-176zm241.536 301.561C373.356 417.503 310.879 464.071 240.002 464c-88.365.088-160.071-71.475-160.159-159.841-.071-70.876 46.497-133.353 114.439-153.535a8 8 0 0 0 5.72-7.664V64h80v78.96a8 8 0 0 0 5.72 7.664C370.43 175.786 418.7 264.853 393.538 349.561z">
		</path>
		<path d="M367.05 236.216a6.91 6.91 0 0 0-.696-.84 7.035 7.035 0 0 0-1.056-1.272 7.45 7.45 0 0 0-1.264-.856 7.777 7.777 0 0 0-1.328-.704 8.206 8.206 0 0 0-1.656-.336 7.77 7.77 0 0 0-1.048-.208h-240a7.77 7.77 0 0 0-1.048.208 8.423 8.423 0 0 0-1.664.336 7.77 7.77 0 0 0-1.304.696c-.458.242-.89.532-1.288.864a7.934 7.934 0 0 0-1.048 1.264 7.746 7.746 0 0 0-.696.848c-37.437 70.167-10.904 157.396 59.263 194.833 70.167 37.437 157.396 10.904 194.833-59.263a143.998 143.998 0 0 0 0-135.57zM264.009 429.73a127.99 127.99 0 0 1-24.006 2.27c-70.658-.084-127.916-57.342-128-128a126.123 126.123 0 0 1 13.024-56h229.952a128.431 128.431 0 0 1 6.576 16h-97.552a8 8 0 0 0 0 16h101.736c13.254 69.439-32.292 136.475-101.73 149.73z">
		</path>
		<path d="M280.003 200h-144a8 8 0 0 0 0 16h144a8 8 0 0 0 0-16z">
		</path>
		<path d="M232.002 264h-32a8 8 0 0 0 0 16h32a8 8 0 0 0 0-16z">
		</path>
		<path d="M152.002 264c-13.255 0-24 10.745-24 24s10.745 24 24 24 24-10.745 24-24-10.745-24-24-24zm0 32a8 8 0 1 1 0-16 8 8 0 0 1 0 16z">
		</path>
		<path d="M208.002 296c-13.255 0-24 10.745-24 24s10.745 24 24 24 24-10.745 24-24-10.745-24-24-24zm0 32a8 8 0 1 1 0-16 8 8 0 0 1 0 16z">
		</path>
	</g>
</svg>
