<svg viewBox="0 0 480.005 480.005">
	<path d="M406.856,247.957c-17.545-52.276-58.577-93.308-110.853-110.853V64h48V0h-208v64h48v73.104
			C91.852,168.032,42.221,267.807,73.149,359.957c30.928,92.151,130.703,141.781,222.853,110.853
			C388.153,439.883,437.784,340.108,406.856,247.957z M152.002,48V16h176v32H152.002z M393.538,349.561
			C373.356,417.503,310.879,464.071,240.002,464c-88.365,0.088-160.071-71.475-160.159-159.841
			c-0.071-70.876,46.497-133.353,114.439-153.535c3.392-1.008,5.718-4.125,5.72-7.664V64h80v78.96
			c0.002,3.539,2.328,6.656,5.72,7.664C370.43,175.786,418.7,264.853,393.538,349.561z" />
	<path d="M367.05,236.216L367.05,236.216c-0.21-0.298-0.442-0.579-0.696-0.84c-0.301-0.464-0.655-0.891-1.056-1.272
			c-0.391-0.328-0.815-0.615-1.264-0.856c-0.419-0.277-0.864-0.513-1.328-0.704c-0.539-0.169-1.094-0.281-1.656-0.336
			c-0.344-0.093-0.694-0.163-1.048-0.208h-240c-0.354,0.045-0.704,0.115-1.048,0.208c-0.565,0.056-1.122,0.168-1.664,0.336
			c-0.456,0.19-0.892,0.423-1.304,0.696c-0.458,0.242-0.89,0.532-1.288,0.864c-0.392,0.384-0.743,0.807-1.048,1.264
			c-0.252,0.266-0.484,0.549-0.696,0.848c-37.437,70.167-10.904,157.396,59.263,194.833
			c70.167,37.437,157.396,10.904,194.833-59.263C389.653,329.422,389.653,278.58,367.05,236.216z M264.009,429.73
			c-7.913,1.51-15.951,2.271-24.006,2.27c-70.658-0.084-127.916-57.342-128-128c-0.028-19.42,4.429-38.585,13.024-56h229.952
			c2.549,5.179,4.746,10.525,6.576,16h-97.552c-4.418,0-8,3.582-8,8s3.582,8,8,8h101.736
			C378.993,349.439,333.447,416.475,264.009,429.73z" />
	<path d="M280.003,200h-144c-4.418,0-8,3.582-8,8s3.582,8,8,8h144c4.418,0,8-3.582,8-8S284.421,200,280.003,200z" />
	<path d="M232.002,264h-32c-4.418,0-8,3.582-8,8s3.582,8,8,8h32c4.418,0,8-3.582,8-8S236.421,264,232.002,264z" />
	<path d="M152.002,264c-13.255,0-24,10.745-24,24s10.745,24,24,24s24-10.745,24-24S165.257,264,152.002,264z M152.002,296
			c-4.418,0-8-3.582-8-8s3.582-8,8-8s8,3.582,8,8S156.421,296,152.002,296z" />
	<path d="M208.002,296c-13.255,0-24,10.745-24,24s10.745,24,24,24s24-10.745,24-24S221.257,296,208.002,296z M208.002,328
			c-4.418,0-8-3.582-8-8s3.582-8,8-8s8,3.582,8,8S212.421,328,208.002,328z" />
</svg>
