<svg width="48" height="48" xmlns="http://www.w3.org/2000/svg" viewBox="0 0 48 48"><g fill="none" class="nc-icon-wrapper"><path fill-rule="evenodd" clip-rule="evenodd" d="M19.764 25.285C21.109 23.492 22 20.923 22 18s-.891-5.492-2.236-7.285C18.419 8.922 16.714 8 15 8c-1.715 0-3.42.922-4.764 2.715C8.891 12.508 8 15.077 8 18s.891 5.492 2.236 7.285C11.581 27.078 13.286 28 15 28c1.715 0 3.42-.922 4.764-2.715zM15 30c4.97 0 9-5.373 9-12S19.97 6 15 6s-9 5.373-9 12 4.03 12 9 12z" fill="currentColor"></path><path fill-rule="evenodd" clip-rule="evenodd" d="M35.45 20.103l.385-1.673a2.909 2.909 0 1 0-5.67 0l.385 1.673-1.595.635a2.092 2.092 0 0 0-1.233 2.54l.476 1.605-1.495.751a1.273 1.273 0 0 0 .57 2.412h11.454a1.273 1.273 0 0 0 .57-2.412l-1.495-.751.476-1.604a2.092 2.092 0 0 0-1.233-2.54l-1.595-.636zm4.745 3.744a3.273 3.273 0 0 1-1.468 6.199H27.273a3.273 3.273 0 0 1-1.468-6.199 4.092 4.092 0 0 1 2.411-4.968 4.909 4.909 0 1 1 9.568 0 4.092 4.092 0 0 1 2.411 4.968z" fill="currentColor"></path><path fill-rule="evenodd" clip-rule="evenodd" d="M14 37V24.5h2V37h-2z" fill="currentColor"></path><path fill-rule="evenodd" clip-rule="evenodd" d="M14 37V24.5h2V37h-2z" fill="currentColor"></path><path fill-rule="evenodd" clip-rule="evenodd" d="M32 37V25.5h2V37h-2z" fill="currentColor"></path><path fill-rule="evenodd" clip-rule="evenodd" d="M6 39.5A2.5 2.5 0 0 1 8.5 37h31a2.5 2.5 0 0 1 0 5h-31A2.5 2.5 0 0 1 6 39.5zm2.5-.5a.5.5 0 0 0 0 1h31a.5.5 0 0 0 0-1h-31z" fill="currentColor"></path></g></svg>