<svg width="48" height="48" xmlns="http://www.w3.org/2000/svg" viewBox="0 0 48 48"><g fill="none" class="nc-icon-wrapper"><path fill-rule="evenodd" clip-rule="evenodd" d="M6 39.5A2.5 2.5 0 0 1 8.5 37h31a2.5 2.5 0 0 1 0 5h-31A2.5 2.5 0 0 1 6 39.5zm2.5-.5a.5.5 0 0 0 0 1h31a.5.5 0 0 0 0-1h-31z" fill="currentColor"></path><path fill-rule="evenodd" clip-rule="evenodd" d="M18.513 14.576l.385-1.673a4 4 0 1 0-7.796 0l.385 1.673-1.595.635a3.002 3.002 0 0 0-1.769 3.644L8.6 20.46l-1.495.752A2 2 0 0 0 8 25h14a2 2 0 0 0 .896-3.79l-1.495-.75.476-1.605a3.002 3.002 0 0 0-1.769-3.645l-1.595-.634zm5.281 4.848A4 4 0 0 1 22 27H8a4 4 0 0 1-1.794-7.576 5.002 5.002 0 0 1 2.947-6.072 6 6 0 1 1 11.694 0 5.002 5.002 0 0 1 2.947 6.072z" fill="currentColor"></path><path fill-rule="evenodd" clip-rule="evenodd" d="M14 37V21h2v16h-2z" fill="currentColor"></path><path d="M29.434 23.219l3.613-2.521a2.447 2.447 0 0 1 1.494-.448 3.205 3.205 0 0 1 1.807.609c.523.38.91.91 1.11 1.514.223.68.427 1.14.612 1.379a5.96 5.96 0 0 0 2.118 1.716c.834.405 1.185.615 2.686.615s1.501 2.333 0 2.333c-1.5 0-2.467-.265-3.589-.779a8.367 8.367 0 0 1-2.902-2.192l-.838 4.613 2.477 2.019L40.5 38.5H38l-2.017-5.038-4.074-3.319a2.338 2.338 0 0 1-.74-.997 2.27 2.27 0 0 1-.117-1.224l.612-3.365-.814.574s-1.527 2.098-2.556 3.415c-1.028 1.318-3.123.123-1.944-1.372 1.18-1.494 2.645-3.553 2.645-3.553l.439-.402zm6.831-3.553a2.44 2.44 0 0 1-1.7-.683 2.3 2.3 0 0 1-.703-1.65 2.3 2.3 0 0 1 .704-1.65 2.44 2.44 0 0 1 1.7-.683 2.44 2.44 0 0 1 1.699.683 2.3 2.3 0 0 1 .703 1.65 2.3 2.3 0 0 1-.703 1.65 2.44 2.44 0 0 1-1.7.683zm-3.571 15.377L29 39l-2.65-.085 4.217-5.04.896-2.543 2.152 1.75-.921 1.961z" fill="currentColor"></path></g></svg>