<svg width="48" height="48" xmlns="http://www.w3.org/2000/svg" viewBox="0 0 48 48"><g fill="none" class="nc-icon-wrapper"><path fill-rule="evenodd" clip-rule="evenodd" d="M9.242 26.42a.5.5 0 0 1 .117.517l-.311.887c-.34.97-.72 1.845-1.1 2.615 1.177-.315 2.327-.785 3.195-1.463l.685-.535a.5.5 0 0 1 .496-.069l.805.328c2.02.823 4.36 1.3 6.871 1.3 4.027 0 7.596-1.227 10.114-3.115C32.63 24.998 34 22.543 34 20s-1.37-4.998-3.886-6.885C27.596 11.227 24.027 10 20 10c-4.027 0-7.597 1.227-10.114 3.115C7.37 15.002 6 17.457 6 20c0 2.068.9 4.06 2.58 5.752l.662.667zm-2.605 6.338c-.592.094-1.124.152-1.552.187-.426.035-.677-.463-.434-.815.224-.324.492-.736.78-1.227a21.674 21.674 0 0 0 1.73-3.741C5.174 25.162 4 22.684 4 20c0-6.627 7.163-12 16-12s16 5.373 16 12-7.163 12-16 12c-2.761 0-5.359-.525-7.626-1.448-1.684 1.316-3.977 1.924-5.737 2.206z" fill="currentColor"></path><path fill-rule="evenodd" clip-rule="evenodd" d="M22.299 30.872a20.497 20.497 0 0 1-2.479.127c2.127 3.09 6.425 5.201 11.38 5.201 2.209 0 4.287-.42 6.1-1.158 1.184.924 2.742 1.412 4.057 1.67.586.114 1.123.183 1.558.225.426.04.68-.457.442-.812a16.24 16.24 0 0 1-.745-1.235 17.38 17.38 0 0 1-1.14-2.56C43.06 30.73 44 28.747 44 26.6c0-4.43-4.002-8.16-9.444-9.267.236.695.382 1.415.428 2.155 1.572.42 2.956 1.09 4.067 1.924C40.989 22.865 42 24.72 42 26.6c0 1.532-.664 3.028-1.947 4.32l-.663.667a.5.5 0 0 0-.117.518l.312.887c.162.462.335.898.512 1.305-.588-.217-1.13-.491-1.565-.832l-.685-.534a.5.5 0 0 0-.496-.07l-.805.329c-1.567.638-3.388 1.01-5.346 1.01-3.144 0-5.913-.958-7.851-2.412a9.126 9.126 0 0 1-1.05-.916z" fill="currentColor"></path></g></svg>