<svg width="48" height="48" xmlns="http://www.w3.org/2000/svg" viewBox="0 0 48 48"><g fill="none" class="nc-icon-wrapper"><path fill-rule="evenodd" clip-rule="evenodd" d="M20.636 9.04c-.295-.128-.636.068-.636.365v2.19c0 .297.34.493.636.365L24 10.5l3.364 1.46c.295.128.636-.068.636-.366V9.405c0-.297-.34-.493-.636-.365L24 10.5l-3.364-1.46zm.864 7.71a2.5 2.5 0 1 1 5 0 2.5 2.5 0 0 1-5 0zm2.5-4.5a4.5 4.5 0 0 0-2.064 8.5H21.5a2.5 2.5 0 0 0-2.08 1.113l-4 6a2.5 2.5 0 0 0 2.616 3.829l-.93 1.86L16.382 35H19v2.25a2.5 2.5 0 0 0 5 0 2.5 2.5 0 0 0 5 0V35H31.618l-.723-1.447-.93-1.861a2.5 2.5 0 0 0 2.616-3.829l-4-6a2.5 2.5 0 0 0-2.08-1.113h-.437A4.5 4.5 0 0 0 24 12.25zM20 33h-.382l1.277-2.553.105-.21V24.9l-1.832 2.748-1.252 1.878a.5.5 0 1 1-.832-.554l4-6a.5.5 0 0 1 .416-.223h5a.5.5 0 0 1 .416.223l4 6a.5.5 0 0 1-.832.554l-1.252-1.878L27 24.901v5.335l.106.211L28.382 33H27v4.25a.5.5 0 1 1-1 0V33h-4v4.25a.5.5 0 1 1-1 0V33h-1z" fill="currentColor"></path></g></svg>