<svg xmlns="http://www.w3.org/2000/svg" height="480" width="480" viewBox="0 0 480 480">
	<g fill="currentColor" class="nc-icon-wrapper">
		<path d="M440 75.952h-40a8 8 0 0 0 0 16h40c13.255 0 24 10.745 24 24v192h-24.408c-4.342-48.38-47.081-84.08-95.461-79.739-42.364 3.802-75.937 37.375-79.739 79.739h-48.8c-4.341-48.38-47.081-84.08-95.461-79.739-42.364 3.802-75.937 37.375-79.739 79.739H16v-192c0-13.255 10.745-24 24-24h40a8 8 0 0 0 0-16H40c-22.08.026-39.974 17.92-40 40v200a8 8 0 0 0 8 8h32.408c4.341 48.38 47.081 84.081 95.461 79.739 42.364-3.802 75.937-37.375 79.739-79.739h48.8c4.342 48.38 47.081 84.08 95.461 79.739 42.364-3.802 75.937-37.375 79.739-79.739H472a8 8 0 0 0 8-8v-200c-.026-22.081-17.92-39.974-40-40zm-312 312c-39.765 0-72-32.236-72-72 0-39.765 32.235-72 72-72s72 32.235 72 72c-.044 39.746-32.254 71.956-72 72zm224 0c-39.764 0-72-32.236-72-72 0-39.765 32.236-72 72-72 39.765 0 72 32.235 72 72-.044 39.746-32.254 71.956-72 72z">
		</path>
	</g>
</svg>
