<svg width="48" height="48" xmlns="http://www.w3.org/2000/svg" viewBox="0 0 48 48"><g fill="none" class="nc-icon-wrapper"><path fill-rule="evenodd" clip-rule="evenodd" d="M13 30c1.658 0 3-1.342 3-3s-1.342-3-3-3-3 1.342-3 3 1.342 3 3 3zm0 2c2.762 0 5-2.238 5-5s-2.238-5-5-5-5 2.238-5 5 2.238 5 5 5z" fill="currentColor"></path><path fill-rule="evenodd" clip-rule="evenodd" d="M5.496 38.429c-.417.41-.496.704-.496.904V40h16v-.667c0-.2-.079-.493-.496-.904-.435-.428-1.127-.864-2.038-1.253C16.634 36.393 14.4 36 13 36c-1.401 0-3.634.393-5.466 1.176-.911.39-1.603.825-2.038 1.253zM13 34c-3.338 0-10 1.787-10 5.333V42h20v-2.667C23 35.787 16.337 34 13 34z" fill="currentColor"></path><path fill-rule="evenodd" clip-rule="evenodd" d="M35 30c1.658 0 3-1.342 3-3s-1.342-3-3-3-3 1.342-3 3 1.342 3 3 3zm0 2c2.763 0 5-2.238 5-5s-2.237-5-5-5-5 2.238-5 5 2.237 5 5 5z" fill="currentColor"></path><path fill-rule="evenodd" clip-rule="evenodd" d="M27.496 38.429c-.417.41-.496.704-.496.904V40h16v-.667c0-.2-.079-.493-.496-.904-.435-.428-1.127-.864-2.038-1.253C38.633 36.393 36.4 36 35 36c-1.401 0-3.634.393-5.466 1.176-.911.39-1.603.825-2.038 1.253zM35 34c-3.337 0-10 1.787-10 5.333V42h20v-2.667C45 35.787 38.337 34 35 34z" fill="currentColor"></path><path fill-rule="evenodd" clip-rule="evenodd" d="M10.436 17.218c-.476.277-.874.55-1.189.785-.342.256-.858.037-.84-.39a11.14 11.14 0 0 1 .176-1.591c.175-.927.506-1.923 1.123-2.68A6.135 6.135 0 0 1 9 10.5C9 6.358 13.253 3 18.5 3S28 6.358 28 10.5c0 4.142-4.253 7.5-9.5 7.5-2.304 0-4.416-.648-6.061-1.725-.768.282-1.44.615-2.003.943zm1.5-3.921a.5.5 0 0 1-.057.546l-.601.738c.153-.063.31-.124.472-.183l.708-.26a.5.5 0 0 1 .446.051l.63.413C14.836 15.455 16.564 16 18.5 16c4.609 0 7.5-2.877 7.5-5.5S23.109 5 18.5 5 11 7.877 11 10.5c0 .666.165 1.312.481 1.921l.455.876z" fill="currentColor"></path><path fill-rule="evenodd" clip-rule="evenodd" d="M31.5 10c-1.152 0-2.145.24-2.957.627-.71.33-1.31.776-1.749 1.301a5.062 5.062 0 0 0 .059-2.638C28.131 8.482 29.745 8 31.5 8c4.142 0 7.5 2.686 7.5 6 0 .846-.219 1.652-.614 2.382a.577.577 0 0 0-.009.526c.096.196.175.401.241.608.18.566.263 1.15.297 1.631.031.426-.485.65-.835.405a9.48 9.48 0 0 0-1.5-.855.504.504 0 0 0-.474.039C34.835 19.528 33.236 20 31.5 20c-3.57 0-6.557-1.995-7.314-4.668a7.113 7.113 0 0 0 1.857-1.832c-.028.164-.043.33-.043.5 0 1.418 1.014 2.663 2.543 3.373.813.387 1.805.627 2.957.627 3.028 0 5.484-1.779 5.5-3.978V14v-.009c-.004-1.414-1.017-2.655-2.543-3.364C33.645 10.24 32.652 10 31.5 10z" fill="currentColor"></path></g></svg>