<svg width="48" height="48" xmlns="http://www.w3.org/2000/svg" viewBox="0 0 48 48"><g fill="none" class="nc-icon-wrapper"><path fill-rule="evenodd" clip-rule="evenodd" d="M11.04 17.218c-.476.277-.875.55-1.19.785-.341.256-.857.037-.84-.39.019-.453.067-1.008.177-1.591.174-.927.505-1.923 1.123-2.68a6.135 6.135 0 0 1-.707-2.842c0-4.142 4.254-7.5 9.5-7.5 5.247 0 9.5 3.358 9.5 7.5 0 4.142-4.253 7.5-9.5 7.5-2.304 0-4.416-.648-6.06-1.725-.768.282-1.44.615-2.004.943zm1.5-3.921a.5.5 0 0 1-.057.546l-.602.738c.154-.063.311-.124.472-.183l.708-.26a.5.5 0 0 1 .446.051l.63.413c1.303.853 3.03 1.398 4.966 1.398 4.609 0 7.5-2.877 7.5-5.5S23.712 5 19.103 5c-4.608 0-7.5 2.877-7.5 5.5 0 .666.165 1.312.482 1.921l.454.876z" fill="currentColor"></path><path fill-rule="evenodd" clip-rule="evenodd" d="M32.103 10c-1.152 0-2.144.24-2.956.627-.711.33-1.311.776-1.75 1.301a5.062 5.062 0 0 0 .06-2.638C28.733 8.482 30.347 8 32.102 8c4.143 0 7.5 2.686 7.5 6 0 .846-.219 1.652-.614 2.382a.578.578 0 0 0-.008.526c.095.196.175.401.24.608.181.566.263 1.15.298 1.631.03.426-.485.65-.835.405a9.473 9.473 0 0 0-1.5-.855.504.504 0 0 0-.474.039C35.438 19.528 33.84 20 32.102 20c-3.57 0-6.557-1.995-7.314-4.668a7.111 7.111 0 0 0 1.857-1.832c-.028.164-.043.33-.043.5 0 1.418 1.014 2.663 2.544 3.373.812.387 1.804.627 2.956.627 3.028 0 5.484-1.779 5.5-3.978V14v-.009c-.004-1.414-1.017-2.655-2.543-3.364-.812-.387-1.804-.627-2.957-.627z" fill="currentColor"></path><path fill-rule="evenodd" clip-rule="evenodd" d="M13 31c1.658 0 3-1.342 3-3s-1.342-3-3-3-3 1.342-3 3 1.342 3 3 3zm0 2c2.762 0 5-2.238 5-5s-2.238-5-5-5-5 2.238-5 5 2.238 5 5 5z" fill="currentColor"></path><path fill-rule="evenodd" clip-rule="evenodd" d="M5.622 38.789C5.136 39.278 5 39.672 5 40v1h18v-1c0-.328-.136-.722-.622-1.211-.504-.508-1.289-1.01-2.302-1.453C18.039 36.446 15.562 36 14 36c-1.562 0-4.039.446-6.076 1.336-1.013.443-1.798.945-2.302 1.453zM14 34c-3.671 0-11 2.01-11 6v3h22v-3c0-3.99-7.329-6-11-6z" fill="currentColor"></path><path fill-rule="evenodd" clip-rule="evenodd" d="M35 31c1.658 0 3-1.342 3-3s-1.342-3-3-3-3 1.342-3 3 1.342 3 3 3zm0 2c2.763 0 5-2.238 5-5s-2.237-5-5-5-5 2.238-5 5 2.237 5 5 5z" fill="currentColor"></path><path fill-rule="evenodd" clip-rule="evenodd" d="M24 29a1.999 1.999 0 1 0 0-4 1.999 1.999 0 1 0 0 4zm0 2c2.21 0 4-1.79 4-4s-1.79-4-4-4-4 1.79-4 4 1.79 4 4 4z" fill="currentColor"></path><path fill-rule="evenodd" clip-rule="evenodd" d="M25.622 38.789c-.486.489-.622.883-.622 1.211v1h18v-1c0-.328-.136-.722-.621-1.211-.505-.508-1.29-1.01-2.303-1.453C38.039 36.446 35.562 36 34 36c-1.562 0-4.039.446-6.076 1.336-1.013.443-1.798.945-2.302 1.453zM34 34c-3.671 0-11 2.01-11 6v3h22v-3c0-3.99-7.329-6-11-6z" fill="currentColor"></path><path fill-rule="evenodd" clip-rule="evenodd" d="M24 34c-3.31 0-5.628 1.542-6.293 2.207l-1.414-1.414C17.295 33.79 20.109 32 24 32c3.89 0 6.705 1.79 7.707 2.793l-1.414 1.414C29.628 35.542 27.309 34 24 34z" fill="currentColor"></path></g></svg>