<svg width="48" height="48" xmlns="http://www.w3.org/2000/svg" viewBox="0 0 48 48"><g fill="none" class="nc-icon-wrapper"><path fill-rule="evenodd" clip-rule="evenodd" d="M17.555 19.572a1 1 0 0 0-1.11 0l-1.89 1.26a1 1 0 0 1-1.11-1.664l1.89-1.26a3 3 0 0 1 3.33 0l1.89 1.26a1 1 0 1 1-1.11 1.664l-1.89-1.26z" fill="currentColor"></path><path fill-rule="evenodd" clip-rule="evenodd" d="M31.555 19.572a1 1 0 0 0-1.11 0l-1.89 1.26a1 1 0 0 1-1.11-1.664l1.89-1.26a3 3 0 0 1 3.33 0l1.89 1.26a1 1 0 1 1-1.11 1.664l-1.89-1.26z" fill="currentColor"></path><path fill-rule="evenodd" clip-rule="evenodd" d="M14.146 27.48A1 1 0 0 1 15 27h18a1 1 0 0 1 .89 1.457l-.04.077C32.67 30.829 30.013 36 24 36s-8.67-5.171-9.85-7.466l-.04-.077a1 1 0 0 1 .036-.978zM16.674 29c1.332 2.303 3.472 5 7.326 5 3.854 0 5.994-2.697 7.326-5H16.674z" fill="currentColor"></path><path fill-rule="evenodd" clip-rule="evenodd" d="M24 42c9.941 0 18-8.059 18-18S33.941 6 24 6 6 14.059 6 24s8.059 18 18 18zm0 2c11.046 0 20-8.954 20-20S35.046 4 24 4 4 12.954 4 24s8.954 20 20 20z" fill="currentColor"></path></g></svg>