<svg width="48" height="48" xmlns="http://www.w3.org/2000/svg" viewBox="0 0 48 48"><g fill="none" class="nc-icon-wrapper"><path fill-rule="evenodd" clip-rule="evenodd" d="M19 2.236l1 3 1-3h-2zm-4 6l3-1-3-1v2zm3.828-2.171L16 4.65l1.414-1.414 1.414 2.829zm.49.321a2.5 2.5 0 0 1 3.364 3.7l-3.673 3.34 1.616 1.821h.813l.126-.002h7.827c.462 0 .974.187 1.418.42.474.249.988.612 1.463 1.087.956.955 1.794 2.4 1.794 4.304 0 2.34-.777 4.051-1.737 5.188a5.81 5.81 0 0 1-1.48 1.266 4.275 4.275 0 0 1-.458.234V43.13a2.64 2.64 0 0 1-2.635 2.635 2.64 2.64 0 0 1-2.634-2.635V32.956h-2.27V43.13a2.64 2.64 0 0 1-2.634 2.635 2.64 2.64 0 0 1-2.635-2.635V19.354l-3.953-4.459a2.5 2.5 0 0 1 .188-3.508l5.5-5zM21.37 7.9a.5.5 0 0 0-.706-.034l-5.5 5a.5.5 0 0 0-.038.702l4 4.51a.509.509 0 0 0 .073.069l.449.337-.055.559c-.006.066-.01.134-.01.202V43.13a.64.64 0 0 0 .635.635.64.64 0 0 0 .634-.635V30.956h6.27V43.13a.64.64 0 0 0 .634.635.64.64 0 0 0 .635-.635V25.981h.002V19.22h2v6.155c.135-.121.273-.262.408-.422.653-.773 1.265-2.025 1.265-3.897 0-1.273-.55-2.233-1.208-2.89a4.145 4.145 0 0 0-.979-.73c-.286-.15-.453-.183-.484-.19H21.49l-.017.001h-1.748l-.299-.336-2.569-2.898-.655-.739.73-.664 4.404-4.004a.5.5 0 0 0 .034-.706z" fill="currentColor"></path><path fill-rule="evenodd" clip-rule="evenodd" d="M27 11a3 3 0 1 1-5.962-.477c-.194.188-.38.35-.538.477l-1.323 1.323a5 5 0 1 0 2.473-5.737c.37.156.691.438.85.914.095.284.08.593-.011.908A3 3 0 0 1 27 11z" fill="currentColor"></path></g></svg>