<svg width="48" height="48" xmlns="http://www.w3.org/2000/svg" viewBox="0 0 48 48"><g fill="none" class="nc-icon-wrapper"><path fill-rule="evenodd" clip-rule="evenodd" d="M24 23.133c3.854 0 7-3.148 7-7.066C31 12.148 27.854 9 24 9s-7 3.148-7 7.067c0 3.918 3.146 7.066 7 7.066zm9-7.066c0 5.009-4.027 9.066-9 9.066s-9-4.057-9-9.066C15 11.057 19.027 7 24 7s9 4.057 9 9.067z" fill="currentColor"></path><path fill-rule="evenodd" clip-rule="evenodd" d="M18.125 28.954a1.1 1.1 0 0 0-1.246-.597C11.474 29.685 6 32.393 6 36.467V43h36v-6.534c0-4.073-5.474-6.781-10.879-8.11a1.1 1.1 0 0 0-1.246.598l-4.064 3h-3.622l-4.064-3zm13.096 1.492l-4.752 3.508H21.53l-4.752-3.508c-2.371.63-4.615 1.514-6.263 2.604C8.693 34.256 8 35.425 8 36.466V41h32v-4.534c0-1.04-.693-2.21-2.516-3.416-1.648-1.09-3.892-1.975-6.264-2.604z" fill="currentColor"></path><path fill-rule="evenodd" clip-rule="evenodd" d="M33 32h-2v3h-3v2h3v3h2v-3h3v-2h-3v-3z" fill="currentColor"></path></g></svg>