<svg width="48" height="48" xmlns="http://www.w3.org/2000/svg" viewBox="0 0 48 48"><g fill="none" class="nc-icon-wrapper"><path fill-rule="evenodd" clip-rule="evenodd" d="M18 7h-4a4 4 0 0 0-4 4v28a4 4 0 0 0 4 4h20a4 4 0 0 0 4-4V11a4 4 0 0 0-4-4h-4v2h4a2 2 0 0 1 2 2v28a2 2 0 0 1-2 2H14a2 2 0 0 1-2-2V11a2 2 0 0 1 2-2h4V7z" fill="currentColor"></path><path fill-rule="evenodd" clip-rule="evenodd" d="M17 7a3 3 0 0 1 3-3h8a3 3 0 0 1 3 3v2a3 3 0 0 1-3 3h-8a3 3 0 0 1-3-3V7zm3-1a1 1 0 0 0-1 1v2a1 1 0 0 0 1 1h8a1 1 0 0 0 1-1V7a1 1 0 0 0-1-1h-8z" fill="currentColor"></path><path fill-rule="evenodd" clip-rule="evenodd" d="M15 21a1 1 0 0 1 1-1h7a1 1 0 1 1 0 2h-7a1 1 0 0 1-1-1z" fill="currentColor"></path><path fill-rule="evenodd" clip-rule="evenodd" d="M15 16a1 1 0 0 1 1-1h15.5a1 1 0 1 1 0 2H16a1 1 0 0 1-1-1z" fill="currentColor"></path><path d="M27.696 22c-.919 0-1.67.738-1.67 1.641s.751 1.641 1.67 1.641c.92 0 1.671-.738 1.671-1.641 0-.902-.752-1.641-1.671-1.641z" fill="currentColor"></path><path d="M25.59 27.657h-4.755a.83.83 0 0 1-.835-.821.83.83 0 0 1 .835-.82h13.33c.459 0 .835.369.835.82a.83.83 0 0 1-.836.82H29.41l2.885 9.847a.83.83 0 0 1-.836.82c-1.294 0-2.165-3.973-2.566-4.923h-2.786c-.401.95-1.272 4.923-2.566 4.923a.83.83 0 0 1-.836-.82l2.885-9.846z" fill="currentColor"></path><path fill-rule="evenodd" clip-rule="evenodd" d="M17 32v2h2v-2h-2zm-1-2a1 1 0 0 0-1 1v4a1 1 0 0 0 1 1h4a1 1 0 0 0 1-1v-4a1 1 0 0 0-1-1h-4z" fill="currentColor"></path></g></svg>