<svg width="48" height="48" xmlns="http://www.w3.org/2000/svg" viewBox="0 0 48 48"><g fill="none" class="nc-icon-wrapper"><path fill-rule="evenodd" clip-rule="evenodd" d="M42.12 16.174l1.807 4.45-1.853.752-1.665-4.1-10.325.868-.168-1.993 10.389-.873 1.74-5.576 1.91.596-1.835 5.876z" fill="currentColor"></path><path fill-rule="evenodd" clip-rule="evenodd" d="M8.933 30.723a8.531 8.531 0 0 1-.205-1.448c-.068-1.219.097-2.819 1.008-4.412 1.748-3.056 6.531-6.536 19.258-6.71-.044 3.704-.366 6.798-1.625 9.022a6.615 6.615 0 0 1-2.933 2.767c-1.35.661-3.161 1.058-5.61 1.058-5.092 0-7.735-.103-9.095-.204-.35-.026-.608-.05-.798-.073zm-.794.864l-.647.762a1 1 0 0 1-.29-.415l.937-.347zM8 23.87c2.336-4.085 8.278-7.724 22-7.724a1 1 0 0 1 1 1c0 4.1-.226 8.073-1.89 11.014a8.613 8.613 0 0 1-3.793 3.577c-1.702.835-3.838 1.263-6.49 1.263-5.11 0-7.81-.103-9.243-.21-.715-.052-1.137-.107-1.395-.156a2.44 2.44 0 0 1-.33-.082 1.257 1.257 0 0 1-.254-.12 1.033 1.033 0 0 1-.083-.058l-.015-.012-.007-.006c-.004-.003-.008-.007.64-.769-.938.347-.939.346-.94.346v-.002l-.002-.006-.005-.014a3.569 3.569 0 0 1-.063-.192 8.167 8.167 0 0 1-.14-.523 10.52 10.52 0 0 1-.259-1.81c-.083-1.488.116-3.499 1.269-5.516z" fill="currentColor"></path><path d="M4 11a1 1 0 0 1 1-1h33.005a1 1 0 1 1 0 2H5a1 1 0 0 1-1-1z" fill="currentColor"></path><path fill-rule="evenodd" clip-rule="evenodd" d="M4.375 34.22a1 1 0 0 1 1.406.155c.22.276.783.6 1.758.88.924.265 2.037.44 3.135.554a38.517 38.517 0 0 0 4.083.192h.082l.01-.001H30.5a1 1 0 0 1 0 2H14.847l-.073.001-.271.001a40.496 40.496 0 0 1-4.034-.204c-1.152-.119-2.396-.31-3.481-.62-1.034-.297-2.133-.758-2.769-1.553a1 1 0 0 1 .156-1.406z" fill="currentColor"></path><path fill-rule="evenodd" clip-rule="evenodd" d="M22 13a1 1 0 0 1 1 1h-2a1 1 0 0 1 1-1zM9 27v-1h10.515c.061-.14.134-.335.213-.59.225-.727.444-1.744.637-2.848.388-2.22.635-4.588.635-5.312V14h2v3.25c0 .901-.273 3.408-.665 5.656-.197 1.131-.433 2.247-.696 3.095-.13.417-.28.821-.462 1.14-.09.159-.213.344-.383.501-.17.157-.466.358-.874.358H9v-1zm0 0v-1a1 1 0 1 0 0 2v-1z" fill="currentColor"></path></g></svg>