<svg width="48" height="48" xmlns="http://www.w3.org/2000/svg" viewBox="0 0 48 48"><g fill="none" class="nc-icon-wrapper"><path fill-rule="evenodd" clip-rule="evenodd" d="M35.482 26.621L21.519 27.91a1.614 1.614 0 0 0-.973.598l-1.638 2.43c-.183 1.213-.053 1.696.665 2.48l2.633 1.284c.364.15.77.16 1.141.032l12.716-5.872c1.891-.657 1.385-2.617-.581-2.24zm-12.664 6.154l8.054-3.72-8.832.815-1.202 1.782c-.005.081-.005.13-.003.155l1.983.968zm-1.998-.994l.004.008a.042.042 0 0 1-.004-.008zm15.14-3.208h0zm-.456-1.644l.003-.002-.003.002z" fill="currentColor"></path><path fill-rule="evenodd" clip-rule="evenodd" d="M24 6C14.058 6 6 14.055 6 23.99c0 4.936 1.988 9.406 5.21 12.658l-1.42 1.407A19.923 19.923 0 0 1 4 23.99C4 12.95 12.955 4 24 4s20 8.949 20 19.99a19.928 19.928 0 0 1-6.085 14.357l-1.391-1.437A17.928 17.928 0 0 0 42 23.99C42 14.054 33.942 6 24 6z" fill="currentColor"></path><path fill-rule="evenodd" clip-rule="evenodd" d="M23 11V6h2v5h-2z" fill="currentColor"></path><path fill-rule="evenodd" clip-rule="evenodd" d="M36.707 37.068l-3.648-3.647 1.415-1.414 3.647 3.647-1.414 1.414z" fill="currentColor"></path><path fill-rule="evenodd" clip-rule="evenodd" d="M14.121 14.536L10.586 11 12 9.586l3.536 3.535-1.415 1.415z" fill="currentColor"></path><path fill-rule="evenodd" clip-rule="evenodd" d="M37.684 22h5v2h-5v-2z" fill="currentColor"></path><path fill-rule="evenodd" clip-rule="evenodd" d="M5.053 22h5v2h-5v-2z" fill="currentColor"></path><path fill-rule="evenodd" clip-rule="evenodd" d="M32.586 13l3.647-3.647 1.414 1.414L34 14.414 32.586 13z" fill="currentColor"></path><path fill-rule="evenodd" clip-rule="evenodd" d="M14.197 33.623l-3.647 3.648-1.415-1.415 3.648-3.647 1.414 1.414z" fill="currentColor"></path></g></svg>