<svg width="48" height="48" xmlns="http://www.w3.org/2000/svg" viewBox="0 0 48 48"><g fill="none" class="nc-icon-wrapper"><path fill-rule="evenodd" clip-rule="evenodd" d="M29.591 4.675C28.79 4.217 27.891 4 26.924 4h-5.248c-1.824 0-3.669.85-4.778 2.387a6.068 6.068 0 0 0-.11.141l-2.336 3.03-.811 1.081-.002.002a9.414 9.414 0 0 0 .002 11.339l.006.008 5.072 6.43 4.705 5.972 7.844 10 7.564-5.73-9.043-11.57-4.792-6.059-6.516-8.416-.005-.006c-.568-.711-.866-1.661-.866-2.542 0-.815.256-1.632.773-2.331l.115-.15.011-.014C19.21 6.59 20.433 6 21.676 6h5.248c.66 0 1.21.145 1.675.411.582.333 1.072.699 1.402 1.16l1.627-1.162c-.575-.804-1.352-1.343-2.037-1.734zm-13.874 6.53a6.06 6.06 0 0 0 1.192 2.646l6.516 8.417 4.792 6.057.004.005 7.785 9.962-4.378 3.317-6.632-8.455-4.706-5.973-5.06-6.416a7.415 7.415 0 0 1 .005-8.918l.003-.004.48-.639z" fill="currentColor"></path><path fill-rule="evenodd" clip-rule="evenodd" d="M12.413 38.292l7.79-9.967-1.577-1.232L9.587 38.66l7.564 5.73 7.845-10.002-1.573-1.234-6.631 8.455-4.379-3.317z" fill="currentColor"></path><path fill-rule="evenodd" clip-rule="evenodd" d="M31.627 6.433a5.929 5.929 0 0 0-.122-.158L29.932 7.51l.1.13a4.032 4.032 0 0 1-.089 4.878l-.005.006-6.52 8.42L25 22.17l6.51-8.408a5.951 5.951 0 0 0 1.199-2.638l.475.633a7.415 7.415 0 0 1 .003 8.921l-4.973 6.42 1.581 1.225 4.983-6.433a9.414 9.414 0 0 0 .002-11.339l-.822-1.095-2.331-3.022z" fill="currentColor"></path><path fill-rule="evenodd" clip-rule="evenodd" d="M21.586 13.51c-1.04 0-2.04.372-2.731 1.064l-1.415-1.415c1.118-1.117 2.652-1.65 4.146-1.65h5.247c1.538 0 3.038.652 4.107 1.614l-1.338 1.487c-.74-.666-1.773-1.1-2.769-1.1h-5.247z" fill="currentColor"></path><path d="M44 26h-8a1 1 0 1 0 0 2h8a1 1 0 1 0 0-2z" fill="currentColor"></path></g></svg>