<svg width="48" height="48" xmlns="http://www.w3.org/2000/svg" viewBox="0 0 48 48"><g fill="none" class="nc-icon-wrapper"><path fill-rule="evenodd" clip-rule="evenodd" d="M43 44H5v-2h38v2z" fill="currentColor"></path><path fill-rule="evenodd" clip-rule="evenodd" d="M24 7a1 1 0 0 1 1 1v6a1 1 0 1 1-2 0V8a1 1 0 0 1 1-1z" fill="currentColor"></path><path fill-rule="evenodd" clip-rule="evenodd" d="M20 11a1 1 0 0 1 1-1h6a1 1 0 1 1 0 2h-6a1 1 0 0 1-1-1z" fill="currentColor"></path><path fill-rule="evenodd" clip-rule="evenodd" d="M28 6h-8a1 1 0 0 0-1 1v8a1 1 0 0 0 1 1h8a1 1 0 0 0 1-1V7a1 1 0 0 0-1-1zm-8-2h8a3 3 0 0 1 3 3v8a3 3 0 0 1-3 3h-8a3 3 0 0 1-3-3V7a3 3 0 0 1 3-3z" fill="currentColor"></path><path fill-rule="evenodd" clip-rule="evenodd" d="M9 17a3 3 0 0 1 3-3h5.26v2H12a1 1 0 0 0-1 1v25H9V17z" fill="currentColor"></path><path fill-rule="evenodd" clip-rule="evenodd" d="M39 17a3 3 0 0 0-3-3h-5.26v2H36a1 1 0 0 1 1 1v25h2V17z" fill="currentColor"></path><path fill-rule="evenodd" clip-rule="evenodd" d="M24 34a2 2 0 0 0-2 2v7h-2v-7a4 4 0 0 1 8 0v7h-2v-7a2 2 0 0 0-2-2z" fill="currentColor"></path><path fill-rule="evenodd" clip-rule="evenodd" d="M18 24v-4h-4v4h4z" fill="currentColor"></path><path fill-rule="evenodd" clip-rule="evenodd" d="M18 30v-4h-4v4h4z" fill="currentColor"></path><path fill-rule="evenodd" clip-rule="evenodd" d="M26 24v-4h-4v4h4z" fill="currentColor"></path><path fill-rule="evenodd" clip-rule="evenodd" d="M26 30v-4h-4v4h4z" fill="currentColor"></path><path fill-rule="evenodd" clip-rule="evenodd" d="M34 24v-4h-4v4h4z" fill="currentColor"></path><path fill-rule="evenodd" clip-rule="evenodd" d="M34 30v-4h-4v4h4z" fill="currentColor"></path></g></svg>