<svg width="48" height="48" xmlns="http://www.w3.org/2000/svg" viewBox="0 0 48 48"><g fill="none" class="nc-icon-wrapper"><path fill-rule="evenodd" clip-rule="evenodd" d="M28 7V4h2v3a1 1 0 0 0 1 1h8a1 1 0 0 0 1-1V4h2v3a3 3 0 0 1-3 3h-3v16a1 1 0 1 1-2 0V10h-3a3 3 0 0 1-3-3z" fill="currentColor"></path><path fill-rule="evenodd" clip-rule="evenodd" d="M29 14v4h2v-4h-2zm-1-2a1 1 0 0 0-1 1v6a1 1 0 0 0 1 1h4a1 1 0 0 0 1-1v-6a1 1 0 0 0-1-1h-4z" fill="currentColor"></path><path fill-rule="evenodd" clip-rule="evenodd" d="M29 12.5V9h2v3.5h-2z" fill="currentColor"></path><path fill-rule="evenodd" clip-rule="evenodd" d="M39.066 27.066H18.11a2.307 2.307 0 0 1-1.636-.68l1.418-1.41c.058.058.137.09.218.09h20.956c2.173 0 3.934 1.776 3.934 3.967C43 31.223 41.239 33 39.066 33H15.072c-.299 0-.585-.12-.797-.333l-8.108-8.163a4.034 4.034 0 0 1 0-5.676 3.954 3.954 0 0 1 5.62 0l6.105 6.148-1.418 1.41-6.106-6.148a1.953 1.953 0 0 0-2.782 0 2.034 2.034 0 0 0 0 2.857L15.438 31h23.628C40.12 31 41 30.135 41 29.033s-.882-1.967-1.934-1.967z" fill="currentColor"></path><path d="M7 25l2 1.182V38H7V25z" fill="currentColor"></path><path d="M38 32.523h2V38.2h-2v-5.676z" fill="currentColor"></path><path fill-rule="evenodd" clip-rule="evenodd" d="M44 38H4v-2h40v2z" fill="currentColor"></path><path fill-rule="evenodd" clip-rule="evenodd" d="M8.5 42a1.5 1.5 0 1 0 0-3 1.5 1.5 0 0 0 0 3zm0 2a3.5 3.5 0 1 0 0-7 3.5 3.5 0 0 0 0 7z" fill="currentColor"></path><path fill-rule="evenodd" clip-rule="evenodd" d="M39.5 42a1.5 1.5 0 1 0 0-3 1.5 1.5 0 0 0 0 3zm0 2a3.5 3.5 0 1 0 0-7 3.5 3.5 0 0 0 0 7z" fill="currentColor"></path><path fill-rule="evenodd" clip-rule="evenodd" d="M10.763 17.103a3.771 3.771 0 0 1 5.333.002l1.8 1.801-.707.707.707-.707a3.77 3.77 0 0 1-.002 5.333l-1.47 1.468-1.413-1.414 1.47-1.47a1.77 1.77 0 0 0 0-2.503l-1.8-1.8a1.771 1.771 0 0 0-2.504-.002l-1.47 1.469-1.414-1.415 1.47-1.469z" fill="currentColor"></path></g></svg>