<svg viewBox="0 0 479.876 479.876">
	<path d="M423.938,431.876h-16v-248c0-4.418-3.582-8-8-8h-88v-96c0-1.961-0.72-3.855-2.024-5.32l-64-72
				c-3.152-3.3-8.384-3.42-11.684-0.268c-0.091,0.087-0.181,0.177-0.268,0.268l-64,72c-1.304,1.465-2.024,3.359-2.024,5.32v96h-88
				c-4.418,0-8,3.582-8,8v248h-16c-4.418,0-8,3.582-8,8v32c0,4.418,3.582,8,8,8h368c4.418,0,8-3.582,8-8v-32
				C431.938,435.458,428.356,431.876,423.938,431.876z M311.938,191.876h80v240h-80V191.876z M183.938,82.916l56-63l56,63v348.96
				h-112V82.916z M87.938,191.876h80v240h-80V191.876z M415.938,463.876h-352v-16h352V463.876z" />
	<polygon points="271.938,119.876 247.938,119.876 247.938,95.876 231.938,95.876 231.938,119.876 207.938,119.876 
				207.938,135.876 231.938,135.876 231.938,159.876 247.938,159.876 247.938,135.876 271.938,135.876 			" />
	<rect x="199.938" y="223.876" width="16" height="16" />
	<rect x="231.938" y="223.876" width="16" height="16" />
	<rect x="263.938" y="223.876" width="16" height="16" />
	<rect x="199.938" y="255.876" width="16" height="16" />
	<rect x="231.938" y="255.876" width="16" height="16" />
	<rect x="263.938" y="255.876" width="16" height="16" />
	<rect x="199.938" y="287.876" width="16" height="16" />
	<rect x="231.938" y="287.876" width="16" height="16" />
	<rect x="263.938" y="287.876" width="16" height="16" />
	<rect x="199.938" y="319.876" width="16" height="16" />
	<rect x="231.938" y="319.876" width="16" height="16" />
	<rect x="263.938" y="319.876" width="16" height="16" />
	<rect x="199.938" y="351.876" width="16" height="16" />
	<rect x="231.938" y="351.876" width="16" height="16" />
	<rect x="263.938" y="351.876" width="16" height="16" />
	<rect x="231.938" y="383.876" width="16" height="16" />
	<rect x="263.938" y="383.876" width="16" height="16" />
	<rect x="199.938" y="383.876" width="16" height="16" />
	<rect x="103.938" y="223.876" width="16" height="16" />
	<rect x="135.938" y="223.876" width="16" height="16" />
	<rect x="103.938" y="255.876" width="16" height="16" />
	<rect x="135.938" y="255.876" width="16" height="16" />
	<rect x="103.938" y="287.876" width="16" height="16" />
	<rect x="135.938" y="287.876" width="16" height="16" />
	<rect x="103.938" y="319.876" width="16" height="16" />
	<rect x="135.938" y="319.876" width="16" height="16" />
	<rect x="103.938" y="351.876" width="16" height="16" />
	<rect x="135.938" y="351.876" width="16" height="16" />
	<rect x="103.938" y="383.876" width="16" height="16" />
	<rect x="135.938" y="383.876" width="16" height="16" />
	<rect x="327.938" y="223.876" width="16" height="16" />
	<rect x="359.938" y="223.876" width="16" height="16" />
	<rect x="327.938" y="255.876" width="16" height="16" />
	<rect x="359.938" y="255.876" width="16" height="16" />
	<rect x="327.938" y="287.876" width="16" height="16" />
	<rect x="359.938" y="287.876" width="16" height="16" />
	<rect x="327.938" y="319.876" width="16" height="16" />
	<rect x="359.938" y="319.876" width="16" height="16" />
	<rect x="327.938" y="351.876" width="16" height="16" />
	<rect x="359.938" y="351.876" width="16" height="16" />
	<rect x="327.938" y="383.876" width="16" height="16" />
	<rect x="359.938" y="383.876" width="16" height="16" />
</svg>
