<svg width="48" height="48" xmlns="http://www.w3.org/2000/svg" viewBox="0 0 48 48"><g fill="none" class="nc-icon-wrapper"><path fill-rule="evenodd" clip-rule="evenodd" d="M16.49 12.103a1 1 0 0 1 .37 1.365c-.1.175-.27.53-.395.955-.129.432-.19.854-.148 1.194.025.196.073.3.115.37.053.087.12.163.273.321l.016.018c.138.142.348.361.525.652.195.322.332.699.389 1.164.088.72-.047 1.44-.215 2.007a6.804 6.804 0 0 1-.578 1.381 1 1 0 0 1-1.734-.996c.1-.174.268-.53.395-.955.128-.431.189-.854.147-1.194a.881.881 0 0 0-.114-.37c-.053-.087-.12-.162-.273-.32a3.694 3.694 0 0 1-.541-.67 2.87 2.87 0 0 1-.39-1.164c-.088-.72.047-1.44.216-2.008.17-.575.4-1.074.577-1.381a1 1 0 0 1 1.366-.37z" fill="currentColor"></path><path fill-rule="evenodd" clip-rule="evenodd" d="M24.49 12.103a1 1 0 0 1 .37 1.365c-.1.175-.27.53-.395.955-.129.432-.19.854-.148 1.194.025.196.073.3.115.37.053.087.12.163.273.321l.016.018c.138.142.348.361.525.652.195.322.332.699.389 1.164.088.72-.047 1.44-.215 2.007a6.804 6.804 0 0 1-.578 1.381 1 1 0 0 1-1.734-.996c.1-.174.268-.53.395-.955.128-.431.189-.854.147-1.194a.881.881 0 0 0-.114-.37c-.053-.087-.12-.162-.273-.32a3.694 3.694 0 0 1-.541-.67 2.87 2.87 0 0 1-.39-1.164c-.088-.72.047-1.44.216-2.008.17-.575.4-1.074.577-1.381a1 1 0 0 1 1.366-.37z" fill="currentColor"></path><path fill-rule="evenodd" clip-rule="evenodd" d="M32.49 12.103a1 1 0 0 1 .37 1.365c-.1.175-.27.53-.395.955-.129.432-.19.854-.148 1.194.025.196.073.3.115.37.052.087.12.163.273.321l.016.018c.138.142.348.361.525.652.195.322.332.699.389 1.164.088.72-.046 1.44-.215 2.007a6.804 6.804 0 0 1-.578 1.381 1 1 0 0 1-1.734-.996c.1-.174.268-.53.395-.955.128-.431.189-.854.147-1.194a.881.881 0 0 0-.114-.37c-.053-.087-.12-.162-.273-.32a3.694 3.694 0 0 1-.541-.67 2.87 2.87 0 0 1-.39-1.164c-.088-.72.047-1.44.216-2.008.17-.575.4-1.074.577-1.381a1 1 0 0 1 1.366-.37z" fill="currentColor"></path><path fill-rule="evenodd" clip-rule="evenodd" d="M38 28H10a6 6 0 0 0 6 6h16a6 6 0 0 0 6-6zM8 26v2a8 8 0 0 0 8 8h16a8 8 0 0 0 8-8v-2H8z" fill="currentColor"></path><path fill-rule="evenodd" clip-rule="evenodd" d="M4 27a1 1 0 0 1 1-1h38a1 1 0 1 1 0 2H5a1 1 0 0 1-1-1z" fill="currentColor"></path></g></svg>