<svg width="48" height="48" xmlns="http://www.w3.org/2000/svg" viewBox="0 0 48 48"><g fill="none" class="nc-icon-wrapper"><path fill-rule="evenodd" clip-rule="evenodd" d="M15 6a3 3 0 0 0-3 3v26a3 3 0 0 0 3 3h10v2H15a5 5 0 0 1-5-5V9a5 5 0 0 1 5-5h18a5 5 0 0 1 5 5v26a5 5 0 0 1-5 5h-2v-2h2a3 3 0 0 0 3-3V9a3 3 0 0 0-3-3H15z" fill="currentColor"></path><path fill-rule="evenodd" clip-rule="evenodd" d="M18 11a1 1 0 0 1 1-1h10a1 1 0 1 1 0 2H19a1 1 0 0 1-1-1z" fill="currentColor"></path><path fill-rule="evenodd" clip-rule="evenodd" d="M14 17a1 1 0 0 1 1-1h18a1 1 0 1 1 0 2H15a1 1 0 0 1-1-1z" fill="currentColor"></path><path fill-rule="evenodd" clip-rule="evenodd" d="M14 21a1 1 0 0 1 1-1h18a1 1 0 1 1 0 2H15a1 1 0 0 1-1-1z" fill="currentColor"></path><path fill-rule="evenodd" clip-rule="evenodd" d="M14 25a1 1 0 0 1 1-1h18a1 1 0 1 1 0 2H15a1 1 0 0 1-1-1z" fill="currentColor"></path><path fill-rule="evenodd" clip-rule="evenodd" d="M28 36a2 2 0 1 0 0-4 2 2 0 0 0 0 4zm0 2a4 4 0 1 0 0-8 4 4 0 0 0 0 8z" fill="currentColor"></path><path fill-rule="evenodd" clip-rule="evenodd" d="M28 40.478l1 .444V38h-2v2.922l1-.444zM25 44v-8h6v8l-3-1.333L25 44z" fill="currentColor"></path></g></svg>