<svg width="48" height="48" xmlns="http://www.w3.org/2000/svg" viewBox="0 0 48 48"><g fill="none" class="nc-icon-wrapper"><path fill-rule="evenodd" clip-rule="evenodd" d="M30 15a1 1 0 0 1-1-1V6H16a2 2 0 0 0-2 2v28a2 2 0 0 0 2 2h20a2 2 0 0 0 2-2V15h-8zm10-1v22a4 4 0 0 1-4 4H16a4 4 0 0 1-4-4V8a4 4 0 0 1 4-4h14l10 10zm-9-6.172L36.172 13H31V7.828z" fill="currentColor"></path><path fill-rule="evenodd" clip-rule="evenodd" d="M9 8a1 1 0 0 1 1 1v29a4 4 0 0 0 4 4h21a1 1 0 1 1 0 2H14a6 6 0 0 1-6-6V9a1 1 0 0 1 1-1z" fill="currentColor"></path><path fill-rule="evenodd" clip-rule="evenodd" d="M21.293 20.293a1 1 0 0 1 1.414 0L26 23.586l3.293-3.293a1 1 0 0 1 1.414 1.414L27.414 25l3.293 3.293a1 1 0 0 1-1.414 1.414L26 26.414l-3.293 3.293a1 1 0 0 1-1.414-1.414L24.586 25l-3.293-3.293a1 1 0 0 1 0-1.414z" fill="currentColor"></path></g></svg>