<svg width="48" height="48" xmlns="http://www.w3.org/2000/svg" viewBox="0 0 48 48"><g fill="none" class="nc-icon-wrapper"><path fill-rule="evenodd" clip-rule="evenodd" d="M8 42h24a2 2 0 0 0 2-2V8a2 2 0 0 0-2-2H8a2 2 0 0 0-2 2v32a2 2 0 0 0 2 2zm24 2H8a4 4 0 0 1-4-4V8a4 4 0 0 1 4-4h24a4 4 0 0 1 4 4v32a4 4 0 0 1-4 4z" fill="currentColor"></path><path fill-rule="evenodd" clip-rule="evenodd" d="M18 13a1 1 0 0 1 1-1h12a1 1 0 1 1 0 2H19a1 1 0 0 1-1-1z" fill="currentColor"></path><path fill-rule="evenodd" clip-rule="evenodd" d="M18 17a1 1 0 0 1 1-1h12a1 1 0 1 1 0 2H19a1 1 0 0 1-1-1z" fill="currentColor"></path><path fill-rule="evenodd" clip-rule="evenodd" d="M18 25a1 1 0 0 1 1-1h12a1 1 0 1 1 0 2H19a1 1 0 0 1-1-1z" fill="currentColor"></path><path fill-rule="evenodd" clip-rule="evenodd" d="M18 29a1 1 0 0 1 1-1h12a1 1 0 1 1 0 2H19a1 1 0 0 1-1-1z" fill="currentColor"></path><path fill-rule="evenodd" clip-rule="evenodd" d="M10 26v3h3v-3h-3zm-1-2h5a1 1 0 0 1 1 1v5a1 1 0 0 1-1 1H9a1 1 0 0 1-1-1v-5a1 1 0 0 1 1-1z" fill="currentColor"></path><path fill-rule="evenodd" clip-rule="evenodd" d="M15.707 12.293a1 1 0 0 1 0 1.414L11 18.414l-2.707-2.707a1 1 0 1 1 1.414-1.414L11 15.586l3.293-3.293a1 1 0 0 1 1.414 0z" fill="currentColor"></path><path fill-rule="evenodd" clip-rule="evenodd" d="M42 24h-2v15.333l1 1.334 1-1.334V24zm2 16l-3 4-3-4V22h6v18z" fill="currentColor"></path><path fill-rule="evenodd" clip-rule="evenodd" d="M42 17h-2v2h2v-2zm-2-2h2a2 2 0 0 1 2 2v4h-6v-4a2 2 0 0 1 2-2z" fill="currentColor"></path></g></svg>