<svg width="48" height="48" xmlns="http://www.w3.org/2000/svg" viewBox="0 0 48 48"><g fill="none" class="nc-icon-wrapper"><path fill-rule="evenodd" clip-rule="evenodd" d="M28 17a1 1 0 0 1-1-1V8H14a2 2 0 0 0-2 2v28a2 2 0 0 0 2 2h20a2 2 0 0 0 2-2V17h-8zm10-1v22a4 4 0 0 1-4 4H14a4 4 0 0 1-4-4V10a4 4 0 0 1 4-4h14l10 10zm-9-6.172L34.172 15H29V9.828z" fill="currentColor"></path><path fill-rule="evenodd" clip-rule="evenodd" d="M14 33a1 1 0 0 1 1-1h18a1 1 0 1 1 0 2H15a1 1 0 0 1-1-1z" fill="currentColor"></path><path fill-rule="evenodd" clip-rule="evenodd" d="M14 37a1 1 0 0 1 1-1h12a1 1 0 1 1 0 2H15a1 1 0 0 1-1-1z" fill="currentColor"></path><path fill-rule="evenodd" clip-rule="evenodd" d="M20 16a1 1 0 0 1 .923.615l5 12a1 1 0 0 1-1.846.77L20 19.6l-4.077 9.785a1 1 0 0 1-1.846-.77l5-12A1 1 0 0 1 20 16z" fill="currentColor"></path><path fill-rule="evenodd" clip-rule="evenodd" d="M16 25h8v2h-8v-2z" fill="currentColor"></path><path fill-rule="evenodd" clip-rule="evenodd" d="M30 22a1 1 0 0 1 1 1v6a1 1 0 1 1-2 0v-6a1 1 0 0 1 1-1z" fill="currentColor"></path><path fill-rule="evenodd" clip-rule="evenodd" d="M26 26a1 1 0 0 1 1-1h6a1 1 0 1 1 0 2h-6a1 1 0 0 1-1-1z" fill="currentColor"></path></g></svg>