<svg width="48" height="48" xmlns="http://www.w3.org/2000/svg" viewBox="0 0 48 48"><g fill="none" class="nc-icon-wrapper"><path fill-rule="evenodd" clip-rule="evenodd" d="M13 21c1.658 0 3-1.342 3-3s-1.342-3-3-3-3 1.342-3 3 1.342 3 3 3zm0 2c2.762 0 5-2.238 5-5s-2.238-5-5-5-5 2.238-5 5 2.238 5 5 5z" fill="currentColor"></path><path fill-rule="evenodd" clip-rule="evenodd" d="M5.622 28.789C5.136 29.278 5 29.672 5 30v3h18v-3c0-.328-.136-.722-.622-1.211-.504-.508-1.289-1.01-2.302-1.453C18.039 26.446 15.562 26 14 26c-1.562 0-4.039.446-6.076 1.336-1.013.443-1.798.945-2.302 1.453zM14 24c-3.671 0-11 2.01-11 6v5h22v-5c0-3.99-7.329-6-11-6z" fill="currentColor"></path><path fill-rule="evenodd" clip-rule="evenodd" d="M35 21c1.658 0 3-1.342 3-3s-1.342-3-3-3-3 1.342-3 3 1.342 3 3 3zm0 2c2.763 0 5-2.238 5-5s-2.237-5-5-5-5 2.238-5 5 2.237 5 5 5z" fill="currentColor"></path><path fill-rule="evenodd" clip-rule="evenodd" d="M24 19a1.999 1.999 0 1 0 0-4 1.999 1.999 0 1 0 0 4zm0 2c2.21 0 4-1.79 4-4s-1.79-4-4-4-4 1.79-4 4 1.79 4 4 4z" fill="currentColor"></path><path fill-rule="evenodd" clip-rule="evenodd" d="M25.622 28.789c-.486.489-.622.883-.622 1.211v3h18v-3c0-.328-.136-.722-.621-1.211-.505-.508-1.29-1.01-2.303-1.453C38.039 26.446 35.562 26 34 26c-1.562 0-4.039.446-6.076 1.336-1.013.443-1.798.945-2.302 1.453zM34 24c-3.671 0-11 2.01-11 6v5h22v-5c0-3.99-7.329-6-11-6z" fill="currentColor"></path><path fill-rule="evenodd" clip-rule="evenodd" d="M24 24c-3.31 0-5.628 1.543-6.293 2.207l-1.414-1.414C17.295 23.79 20.109 22 24 22c3.89 0 6.705 1.79 7.707 2.793l-1.414 1.414C29.628 25.542 27.309 24 24 24z" fill="currentColor"></path></g></svg>