<svg width="48" height="48" xmlns="http://www.w3.org/2000/svg" viewBox="0 0 48 48"><g fill="none" class="nc-icon-wrapper"><path d="M12 5a1 1 0 1 1 2 0v6a1 1 0 1 1-2 0V5z" fill="currentColor"></path><path d="M28 5a1 1 0 1 1 2 0v6a1 1 0 1 1-2 0V5z" fill="currentColor"></path><path fill-rule="evenodd" clip-rule="evenodd" d="M14 23h-2v2h2v-2zm-2-2a2 2 0 0 0-2 2v2a2 2 0 0 0 2 2h2a2 2 0 0 0 2-2v-2a2 2 0 0 0-2-2h-2z" fill="currentColor"></path><path fill-rule="evenodd" clip-rule="evenodd" d="M22 23h-2v2h2v-2zm-2-2a2 2 0 0 0-2 2v2a2 2 0 0 0 2 2h2a2 2 0 0 0 2-2v-2a2 2 0 0 0-2-2h-2z" fill="currentColor"></path><path fill-rule="evenodd" clip-rule="evenodd" d="M30 23h-2v2h2v-2zm-2-2a2 2 0 0 0-2 2v2a2 2 0 0 0 2 2h2a2 2 0 0 0 2-2v-2a2 2 0 0 0-2-2h-2z" fill="currentColor"></path><path fill-rule="evenodd" clip-rule="evenodd" d="M14 31h-2v2h2v-2zm-2-2a2 2 0 0 0-2 2v2a2 2 0 0 0 2 2h2a2 2 0 0 0 2-2v-2a2 2 0 0 0-2-2h-2z" fill="currentColor"></path><path fill-rule="evenodd" clip-rule="evenodd" d="M22 31h-2v2h2v-2zm-2-2a2 2 0 0 0-2 2v2a2 2 0 0 0 2 2h2a2 2 0 0 0 2-2v-2a2 2 0 0 0-2-2h-2z" fill="currentColor"></path><path fill-rule="evenodd" clip-rule="evenodd" d="M9 10h24a2 2 0 0 1 2 2v16c.69 0 1.36.087 2 .252V12a4 4 0 0 0-4-4H9a4 4 0 0 0-4 4v24a4 4 0 0 0 4 4h19.07a7.954 7.954 0 0 1-.818-2H9a2 2 0 0 1-2-2V12a2 2 0 0 1 2-2z" fill="currentColor"></path><path fill-rule="evenodd" clip-rule="evenodd" d="M36 19H6v-2h30v2z" fill="currentColor"></path><path fill-rule="evenodd" clip-rule="evenodd" d="M35 42a6 6 0 1 0 0-12 6 6 0 0 0 0 12zm0 2a8 8 0 1 0 0-16 8 8 0 0 0 0 16z" fill="currentColor"></path><path fill-rule="evenodd" clip-rule="evenodd" d="M35 31.179a1 1 0 0 1 1 1v4.298l2.452 1.702a1 1 0 1 1-1.141 1.642L34 37.523V32.18a1 1 0 0 1 1-1z" fill="currentColor"></path></g></svg>