<svg width="48" height="48" xmlns="http://www.w3.org/2000/svg" viewBox="0 0 48 48"><g fill="none" class="nc-icon-wrapper"><path fill-rule="evenodd" clip-rule="evenodd" d="M36 12a2 2 0 1 0 0 4 2 2 0 0 0 0-4zm-4 2a4 4 0 1 1 8 0 4 4 0 0 1-8 0z" fill="currentColor"></path><path fill-rule="evenodd" clip-rule="evenodd" d="M29.657 19.126A3 3 0 0 1 32 18h6c.078 0 .154.003.23.009h2.66c.462 0 .975.186 1.419.42.474.248.988.612 1.463 1.087.956.955 1.794 2.4 1.794 4.303 0 2.341-.777 4.052-1.737 5.188a5.807 5.807 0 0 1-1.48 1.267 4.275 4.275 0 0 1-.458.234v11.385a2.64 2.64 0 0 1-2.635 2.634 2.64 2.64 0 0 1-2.635-2.634V34.72h-1.269v7.173a2.64 2.64 0 0 1-2.634 2.634 2.64 2.64 0 0 1-2.635-2.634V28.159A3 3 0 0 1 28 29h-6a3 3 0 1 1 0-6h4.558l3.1-3.874zM32 20a1 1 0 0 0-.78.375L27.52 25H22a1 1 0 1 0 0 2h6a1 1 0 0 0 .78-.375l3.303-4.128v19.396a.64.64 0 0 0 .635.634.64.64 0 0 0 .634-.634V32.72h5.27v9.173a.64.64 0 0 0 .634.634.64.64 0 0 0 .635-.634V28.744h1c-.006 0-.005 0 .005-.003.037-.008.19-.045.443-.193.287-.168.631-.44.962-.831.653-.773 1.265-2.025 1.265-3.898 0-1.273-.55-2.232-1.208-2.889a4.147 4.147 0 0 0-.978-.73c-.287-.15-.454-.184-.485-.19-.005 0-.006-.001-.004-.001h-2.749l-.047-.005A1.03 1.03 0 0 0 38 20h-6z" fill="currentColor"></path><path fill-rule="evenodd" clip-rule="evenodd" d="M4 4h33v5.16h-2V6H6v24h23v2H4V4z" fill="currentColor"></path><path fill-rule="evenodd" clip-rule="evenodd" d="M39.886 29.625v-7.607h2v7.607h-2z" fill="currentColor"></path></g></svg>