<svg viewBox="0 0 480.125 480.125">
	<path d="M480.064,240.053c-0.036-35.479-18.166-68.488-48.088-87.552c0-0.16,0.088-0.288,0.088-0.448c0-82.4-73.272-152-160-152
			c-12.64,0.035-24.513,6.064-32,16.248c-7.487-10.184-19.36-16.213-32-16.248c-86.728,0-160,69.6-160,152
			c0,0.16,0.08,0.288,0.088,0.448C18.23,171.565,0.099,204.574,0.064,240.053c-1.226,35.04,15.324,68.33,44,88.504
			c-13.083,37.41,6.638,78.343,44.048,91.426c5.721,2.001,11.673,3.269,17.712,3.774c8.622,38.769,47.04,63.207,85.809,54.585
			c20.924-4.654,38.682-18.399,48.431-37.489c18.084,35.36,61.409,49.364,96.769,31.28c19.075-9.756,32.807-27.509,37.455-48.424
			c39.494-3.301,68.835-37.993,65.534-77.488c-0.505-6.04-1.773-11.991-3.774-17.712
			C464.715,308.348,481.27,275.079,480.064,240.053z M232.064,408.053c-0.035,30.913-25.087,55.965-56,56
			c-30.928,0.012-56.01-25.05-56.022-55.978c-0.008-20.392,11.069-39.176,28.918-49.038c3.866-2.141,5.265-7.01,3.124-10.876
			c-2.141-3.866-7.01-5.265-10.876-3.124c-22.707,12.596-36.881,36.434-37.104,62.4c-30.588-4.571-51.679-33.074-47.108-63.662
			c4.081-27.308,27.457-47.565,55.068-47.722c7.838-0.002,15.5-2.32,22.024-6.664l16.32,16.32c3.178,3.069,8.242,2.982,11.312-0.196
			c2.994-3.1,2.994-8.015,0-11.116l-16.32-16.32c4.344-6.524,6.662-14.186,6.664-22.024c0-4.418-3.582-8-8-8s-8,3.582-8,8
			c0,13.255-10.745,24-24,24c-24.842,0.028-47.911,12.869-61.024,33.968c-23.018-17.481-36.071-45.085-34.976-73.968
			c0.057-48.577,39.423-87.943,88-88c4.418,0,8-3.582,8-8s-3.582-8-8-8c-13.563-0.002-26.994,2.664-39.528,7.848
			c4.816-68.976,69.72-127.848,143.528-127.848c13.255,0,24,10.745,24,24V408.053z M429.088,314.021
			c-13.113-21.099-36.182-33.94-61.024-33.968c-4.418,0-8,3.582-8,8s3.582,8,8,8c30.927,0.21,55.828,25.452,55.618,56.38
			c-0.187,27.546-20.381,50.866-47.618,54.988c-0.222-25.966-14.397-49.804-37.104-62.4c-3.866-2.141-8.735-0.742-10.876,3.124
			c-2.141,3.866-0.742,8.735,3.124,10.876c27.052,14.991,36.829,49.074,21.838,76.126c-14.991,27.052-49.074,36.829-76.126,21.838
			c-17.791-9.859-28.838-28.591-28.856-48.931v-224c11.931-0.008,23.428-4.476,32.232-12.528l18.168,18.128
			c3.178,3.07,8.242,2.982,11.312-0.196c2.994-3.1,2.994-8.015,0-11.116l-19.472-19.472c3.794-7.005,5.775-14.849,5.76-22.816
			c0-4.418-3.582-8-8-8s-8,3.582-8,8c0,17.673-14.327,32-32,32v-128c0-13.255,10.745-24,24-24
			c73.808,0,138.712,58.872,143.528,127.848c-12.534-5.184-25.965-7.85-39.528-7.848c-4.418,0-8,3.582-8,8s3.582,8,8,8
			c48.577,0.057,87.943,39.423,88,88C465.158,268.936,452.106,296.54,429.088,314.021z" />
	<path d="M288.064,24.053c-17.673,0-32,14.327-32,32c0,4.418,3.582,8,8,8s8-3.582,8-8c0-8.837,7.163-16,16-16c4.418,0,8-3.582,8-8
			S292.482,24.053,288.064,24.053z" />
	<path d="M336.064,64.053c-4.418,0-8,3.582-8,8s3.582,8,8,8c13.255,0,24,10.745,24,24c0,4.418,3.582,8,8,8s8-3.582,8-8
			C376.037,81.973,358.144,64.079,336.064,64.053z" />
	<path d="M320.064,304.053c-13.255,0-24-10.745-24-24c0-4.418-3.582-8-8-8s-8,3.582-8,8c0.002,7.838,2.32,15.5,6.664,22.024
			l-16.32,16.32c-3.178,3.07-3.266,8.134-0.196,11.312c3.07,3.178,8.134,3.266,11.312,0.196c0.066-0.064,0.132-0.13,0.196-0.196
			l16.32-16.32c6.524,4.344,14.186,6.662,22.024,6.664c4.418,0,8-3.582,8-8S324.482,304.053,320.064,304.053z" />
	<path d="M304.064,432.053c-13.255,0-24-10.745-24-24c0-4.418-3.582-8-8-8s-8,3.582-8,8c0.026,22.08,17.92,39.974,40,40
			c4.418,0,8-3.582,8-8S308.482,432.053,304.064,432.053z" />
	<path d="M397.72,242.397l-20.32-20.32c4.344-6.524,6.662-14.186,6.664-22.024c0-4.418-3.582-8-8-8s-8,3.582-8,8
			c0,13.255-10.745,24-24,24c-4.418,0-8,3.582-8,8s3.582,8,8,8c7.838-0.002,15.5-2.32,22.024-6.664l20.32,20.32
			c3.178,3.07,8.242,2.982,11.312-0.196C400.714,250.413,400.714,245.497,397.72,242.397z" />
	<path d="M192.064,24.053c-4.418,0-8,3.582-8,8s3.582,8,8,8c8.837,0,16,7.163,16,16c0,4.418,3.582,8,8,8s8-3.582,8-8
			C224.064,38.38,209.737,24.053,192.064,24.053z" />
	<path d="M97.228,249.217c-0.064-0.067-0.13-0.132-0.196-0.196c-9.369-9.372-9.369-24.564,0-33.936
			c3.123-3.124,3.123-8.188,0-11.312c-3.124-3.123-8.188-3.123-11.312,0c-5.558,5.535-9.352,12.592-10.904,20.28H48.064
			c-4.418,0-8,3.582-8,8s3.582,8,8,8h26.752c1.552,7.688,5.346,14.745,10.904,20.28c3.07,3.178,8.134,3.266,11.312,0.196
			C100.21,257.46,100.297,252.395,97.228,249.217z" />
	<path d="M144.064,64.053c-22.08,0.026-39.974,17.92-40,40c0,4.418,3.582,8,8,8s8-3.582,8-8c0-13.255,10.745-24,24-24
			c4.418,0,8-3.582,8-8S148.482,64.053,144.064,64.053z" />
	<path d="M176.064,376.053c-4.418,0-8,3.582-8,8s3.582,8,8,8c13.255,0,24,10.745,24,24c0,4.418,3.582,8,8,8s8-3.582,8-8
			C216.037,393.973,198.144,376.079,176.064,376.053z" />
	<path d="M200.064,184.053c-17.673,0-32-14.327-32-32c0-4.418-3.582-8-8-8s-8,3.582-8,8c-0.01,7.974,1.979,15.824,5.784,22.832
			l-19.472,19.472c-3.313,2.924-3.628,7.979-0.704,11.292c2.924,3.313,7.979,3.628,11.292,0.704c0.248-0.219,0.482-0.453,0.701-0.7
			l18.144-18.144c8.808,8.063,20.315,12.538,32.256,12.544c4.418,0,8-3.582,8-8S204.482,184.053,200.064,184.053z" />
</svg>
