<svg viewBox="0 0 480.16 480.16">
	<path d="M313.984,143.616c-1.813-2.5-3.822-4.851-6.008-7.032l-19.896-19.896V8c0-4.418-3.582-8-8-8h-80c-4.418,0-8,3.582-8,8
			v108.688l-19.92,19.896c-2.206,2.203-4.234,4.579-6.064,7.104c-15.909,22.243-13.377,52.734,5.984,72.048
			c18.037,18.047,45.984,21.64,68,8.744c8.574,5.068,18.36,7.722,28.32,7.68c14.875,0.01,29.143-5.9,39.656-16.424
			C327.433,196.394,329.942,165.862,313.984,143.616z M268.424,216.184c-8.475,0.049-16.737-2.654-23.544-7.704
			c-1.385-1.039-3.069-1.6-4.8-1.6c-1.72-0.002-3.395,0.551-4.776,1.576c-6.807,5.05-15.069,7.753-23.544,7.704
			c-8.295,0.004-16.387-2.572-23.154-7.37c-18.021-12.778-22.272-37.745-9.494-55.766c1.324-1.822,2.79-3.537,4.384-5.128
			l22.24-22.24c1.5-1.5,2.344-3.534,2.344-5.656V16h64v104c-0.002,2.136,0.851,4.184,2.368,5.688l22.24,22.24
			c1.574,1.568,3.021,3.259,4.328,5.056c4.825,6.776,7.417,14.889,7.415,23.207C308.427,198.283,290.515,216.188,268.424,216.184z" />
	<path d="M308.08,264.424c-18.037-18.047-45.984-21.64-68-8.744c-8.574-5.068-18.36-7.722-28.32-7.68
			c-14.875-0.01-29.143,5.9-39.656,16.424c-19.377,19.342-21.886,49.874-5.928,72.12c1.814,2.499,3.823,4.85,6.008,7.032
			l19.896,19.896V472.16c0,4.418,3.582,8,8,8h80c4.418,0,8-3.582,8-8V363.472l19.912-19.888c2.208-2.207,4.238-4.585,6.072-7.112
			C329.973,314.229,327.441,283.738,308.08,264.424z M301.056,327.128c-1.332,1.821-2.8,3.538-4.392,5.136l-22.24,22.24
			c-1.5,1.5-2.344,3.534-2.344,5.656v104h-64v-104c0.002-2.124-0.842-4.162-2.344-5.664l-22.224-22.224
			c-1.575-1.578-3.027-3.273-4.344-5.072c-4.825-6.777-7.417-14.889-7.415-23.207c0.004-22.091,17.916-39.997,40.007-39.993
			c8.475-0.049,16.737,2.654,23.544,7.704c2.835,2.109,6.717,2.109,9.552,0c6.807-5.05,15.069-7.753,23.544-7.704
			c8.293-0.004,16.382,2.569,23.148,7.364C309.572,284.137,313.829,309.104,301.056,327.128z" />
</svg>
