<svg viewBox="0 0 480 480">
	<path d="M424,368V216h16v-64h-16V48h16V0H40v48h16v104H40v64h16v152H24v112h432V368H424z M312,16h112v16H312V16z M328,88V48h80
				v40H328z M408,104v48h-80v-48H408z M184,16h112v16H184V16z M312,48v104h-16V48H312z M200,120V48h80v72H200z M280,136v16h-48v-16
				H280z M216,136v16h-16v-16H216z M56,16h112v16H56V16z M184,48v104h-16V48H184z M88.112,119.936L88,152H72V48h80v104h-48l0.112-32
				L88.112,119.936z M56,168h368v32H56V168z M408,216v176c0,22.091-17.909,40-40,40c-22.091,0-40-17.909-40-40V216H408z M312,216
				v152h-16V216H312z M232.048,216H280v176c0,22.091-17.909,40-40,40c-22.091,0-40-17.909-40-40V216h16.048l0.992,160.048l16-0.096
				L232.048,216z M184,216v152h-16V216H184z M104,216h48v176c0,22.091-17.909,40-40,40s-40-17.909-40-40V216h16l0.136,160h16
				L104,216z M440,464H40v-80h16v8c0,30.928,25.072,56,56,56c30.928,0,56-25.072,56-56v-8h16v8c0,30.928,25.072,56,56,56
				c30.928,0,56-25.072,56-56v-8h16v8c0,30.928,25.072,56,56,56c30.928,0,56-25.072,56-56v-8h16V464z" />
	<rect x="88" y="88" width="16" height="16" />
</svg>
