<svg viewBox="0 0 479.999 479.999">
	<path d="M71.999,104h16c0.04-30.911,25.089-55.96,56-56V32C104.253,32.044,72.044,64.254,71.999,104z" />
	<path d="M439.591,344c-4.21-70.359-64.66-123.983-135.019-119.773c-19.935,1.193-39.312,7.047-56.573,17.093V104
			c0-57.438-46.562-104-104-104s-104,46.562-104,104v272c-0.047,57.389,46.437,103.95,103.826,103.998
			c30.386,0.025,59.261-13.251,79.022-36.334c50.484,49.283,131.361,48.31,180.644-2.174c21.426-21.948,34.24-50.873,36.1-81.49
			h0.408v-16H439.591z M55.999,104c0.057-48.577,39.423-87.943,88-88c48.53-0.071,87.929,39.214,88,87.744c0,0.085,0,0.171,0,0.256
			v128h-176V104z M143.999,464c-48.577-0.057-87.943-39.423-88-88V248h176v4.24c-28.086,22.514-45.367,55.833-47.592,91.76h-0.408
			v16h0.408c1.591,26.166,11.228,51.201,27.592,71.68C195.297,452.068,170.355,463.923,143.999,464z M311.999,464
			c-58.725-0.071-107.451-45.43-111.72-104h223.44C419.451,418.57,370.724,463.929,311.999,464z M200.279,344
			c4.371-61.701,57.933-108.177,119.635-103.805c55.616,3.94,99.865,48.189,103.805,103.805H200.279z" />
	<rect x="71.999" y="120" width="16" height="16" />
</svg>
