<svg width="48" height="48" xmlns="http://www.w3.org/2000/svg" viewBox="0 0 48 48"><g fill="none" class="nc-icon-wrapper"><path fill-rule="evenodd" clip-rule="evenodd" d="M24 42c9.941 0 18-8.059 18-18S33.941 6 24 6 6 14.059 6 24s8.059 18 18 18zm0 2c11.046 0 20-8.954 20-20S35.046 4 24 4 4 12.954 4 24s8.954 20 20 20z" fill="currentColor"></path><path fill-rule="evenodd" clip-rule="evenodd" d="M24 31a7 7 0 1 0 0-14 7 7 0 0 0 0 14zm0 2a9 9 0 1 0 0-18 9 9 0 0 0 0 18z" fill="currentColor"></path><mask id="mask0" mask-type="alpha" maskUnits="userSpaceOnUse" x="19" y="22" width="7" height="7"><path d="M26 25.5a3.5 3.5 0 1 1-7 0 3.5 3.5 0 0 1 7 0z" fill="currentColor"></path></mask><mask id="mask1" mask-type="alpha" maskUnits="userSpaceOnUse" x="19" y="22" width="7" height="7"><path fill-rule="evenodd" clip-rule="evenodd" d="M22.5 28a2.5 2.5 0 1 0 0-5 2.5 2.5 0 0 0 0 5zm0 1a3.5 3.5 0 1 0 0-7 3.5 3.5 0 0 0 0 7z" fill="currentColor"></path></mask><g mask="url(#mask1)"><path fill-rule="evenodd" clip-rule="evenodd" d="M27 22l-7 7-1.414-1.414 7-7L27 22z" fill="currentColor"></path><path fill-rule="evenodd" clip-rule="evenodd" d="M25 20l-7 7-1.414-1.414 7-7L25 20z" fill="currentColor"></path><path fill-rule="evenodd" clip-rule="evenodd" d="M28 25l-7 7-1.414-1.414 7-7L28 25z" fill="currentColor"></path></g><mask id="mask2" mask-type="alpha" maskUnits="userSpaceOnUse" x="11" y="11" width="7" height="7"><path d="M14.5 11a3.5 3.5 0 1 1 0 7 3.5 3.5 0 0 1 0-7z" fill="currentColor"></path></mask><mask id="mask3" mask-type="alpha" maskUnits="userSpaceOnUse" x="11" y="11" width="7" height="7"><path fill-rule="evenodd" clip-rule="evenodd" d="M17 14.5a2.5 2.5 0 1 0-5 0 2.5 2.5 0 0 0 5 0zm1 0a3.5 3.5 0 1 0-7 0 3.5 3.5 0 0 0 7 0z" fill="currentColor"></path></mask><g mask="url(#mask3)"><path fill-rule="evenodd" clip-rule="evenodd" d="M11 10l7 7-1.414 1.414-7-7L11 10z" fill="currentColor"></path><path fill-rule="evenodd" clip-rule="evenodd" d="M9 12l7 7-1.414 1.414-7-7L9 12z" fill="currentColor"></path><path fill-rule="evenodd" clip-rule="evenodd" d="M14 9l7 7-1.414 1.414-7-7L14 9z" fill="currentColor"></path></g><mask id="mask4" mask-type="alpha" maskUnits="userSpaceOnUse" x="32" y="28" width="7" height="7"><path d="M39 31.5a3.5 3.5 0 1 1-7 0 3.5 3.5 0 0 1 7 0z" fill="currentColor"></path></mask><mask id="mask5" mask-type="alpha" maskUnits="userSpaceOnUse" x="32" y="28" width="7" height="7"><path fill-rule="evenodd" clip-rule="evenodd" d="M35.5 34a2.5 2.5 0 1 0 0-5 2.5 2.5 0 0 0 0 5zm0 1a3.5 3.5 0 1 0 0-7 3.5 3.5 0 0 0 0 7z" fill="currentColor"></path></mask><g mask="url(#mask5)"><path fill-rule="evenodd" clip-rule="evenodd" d="M40 28l-7 7-1.414-1.414 7-7L40 28z" fill="currentColor"></path><path fill-rule="evenodd" clip-rule="evenodd" d="M38 26l-7 7-1.414-1.414 7-7L38 26z" fill="currentColor"></path><path fill-rule="evenodd" clip-rule="evenodd" d="M41 31l-7 7-1.414-1.414 7-7L41 31z" fill="currentColor"></path></g><path fill-rule="evenodd" clip-rule="evenodd" d="M31 13a1 1 0 1 0 0-2 1 1 0 0 0 0 2zm0 2a3 3 0 1 0 0-6 3 3 0 0 0 0 6z" fill="currentColor"></path><path fill-rule="evenodd" clip-rule="evenodd" d="M13 33a1 1 0 1 0 0-2 1 1 0 0 0 0 2zm0 2a3 3 0 1 0 0-6 3 3 0 0 0 0 6z" fill="currentColor"></path></g></svg>