<svg width="48" height="48" xmlns="http://www.w3.org/2000/svg" viewBox="0 0 48 48"><g fill="none" class="nc-icon-wrapper"><path fill-rule="evenodd" clip-rule="evenodd" d="M24 42c9.941 0 18-8.059 18-18S33.941 6 24 6 6 14.059 6 24s8.059 18 18 18zm0 2c11.046 0 20-8.954 20-20S35.046 4 24 4 4 12.954 4 24s8.954 20 20 20zm1-22v12a1 1 0 1 1-2 0V22a1 1 0 1 1 2 0zm-1 15a3 3 0 0 1-3-3V22a3 3 0 1 1 6 0v12a3 3 0 0 1-3 3zm0-24a1 1 0 1 0 0 2 1 1 0 0 0 0-2zm-3 1a3 3 0 1 0 6 0 3 3 0 0 0-6 0z" fill="currentColor"></path></g></svg>