<svg width="48" height="48" xmlns="http://www.w3.org/2000/svg" viewBox="0 0 48 48"><g fill="none" class="nc-icon-wrapper"><path fill-rule="evenodd" clip-rule="evenodd" d="M39.066 21.066H18.11a2.307 2.307 0 0 1-1.636-.68l1.418-1.41c.058.058.137.09.218.09h20.956c2.173 0 3.934 1.776 3.934 3.967C43 25.223 41.239 27 39.066 27H15.072c-.299 0-.585-.12-.797-.333l-8.108-8.163a4.034 4.034 0 0 1 0-5.676 3.954 3.954 0 0 1 5.62 0l6.105 6.148-1.418 1.41-6.106-6.148a1.953 1.953 0 0 0-2.782 0 2.034 2.034 0 0 0 0 2.857L15.438 25h23.628C40.12 25 41 24.135 41 23.033s-.882-1.967-1.934-1.967z" fill="currentColor"></path><path d="M7 19l2 1.182V32H7V19z" fill="currentColor"></path><path d="M38 26.523h2V32.2h-2v-5.676z" fill="currentColor"></path><path fill-rule="evenodd" clip-rule="evenodd" d="M44 32H4v-2h40v2z" fill="currentColor"></path><path fill-rule="evenodd" clip-rule="evenodd" d="M8.5 36a1.5 1.5 0 1 0 0-3 1.5 1.5 0 0 0 0 3zm0 2a3.5 3.5 0 1 0 0-7 3.5 3.5 0 0 0 0 7z" fill="currentColor"></path><path fill-rule="evenodd" clip-rule="evenodd" d="M39.5 36a1.5 1.5 0 1 0 0-3 1.5 1.5 0 0 0 0 3zm0 2a3.5 3.5 0 1 0 0-7 3.5 3.5 0 0 0 0 7z" fill="currentColor"></path><path fill-rule="evenodd" clip-rule="evenodd" d="M10.763 11.103a3.771 3.771 0 0 1 5.333.002l1.8 1.801-.707.707.707-.707a3.77 3.77 0 0 1-.002 5.333l-1.47 1.468-1.413-1.414 1.47-1.47a1.77 1.77 0 0 0 0-2.503l-1.8-1.8a1.771 1.771 0 0 0-2.504-.002l-1.47 1.469-1.414-1.415 1.47-1.469z" fill="currentColor"></path></g></svg>