<svg width="48" height="48" xmlns="http://www.w3.org/2000/svg" viewBox="0 0 48 48"><g fill="none" class="nc-icon-wrapper"><path fill-rule="evenodd" clip-rule="evenodd" d="M21.745 5.177c-1.304-1.862-4.125-1.654-5.141.379l-.032.063a3.124 3.124 0 0 0-3.198 5.17l2.339 2.338a5 5 0 0 0 1.678 1.107l1.585.633c-1.988.083-4.327.34-6.444.944-1.144.326-2.027 1.148-2.282 2.193-.271 1.116.239 2.232 1.38 2.86.711.39 1.611.786 2.752 1.175.095.032.19.061.286.087-1.12 1.103-2.725 2.172-4.984 2.925l.632 1.898c3.247-1.082 5.385-2.78 6.728-4.482 1.335.123 2.635.132 3.794-.063 1.268-.214 2.458-.694 3.307-1.611a4.498 4.498 0 0 0 2.256.117 6.362 6.362 0 0 0-.385 1.701c-.154 2.01.821 3.959 3.327 6.143l1.314-1.508c-2.274-1.982-2.733-3.367-2.647-4.482.037-.482.178-.976.41-1.518.119.363.268.728.45 1.087.835 1.637 2.368 3.112 4.926 3.646l.408-1.958c-1.914-.4-2.968-1.452-3.552-2.596a6.04 6.04 0 0 1-.56-1.72A3.5 3.5 0 0 0 34.663 18h5.338v-1.999h-5.035a3.501 3.501 0 0 0-5.798-2.109 4.505 4.505 0 0 0-2.548-1.75l-4.874-6.964zm-3.449 15.368c.806.03 1.55-.002 2.21-.113a5.71 5.71 0 0 0 .93-.232l-1.357-.453c-.292-.097-.648-.062-1.032.144a2.362 2.362 0 0 0-.75.654zm2.973-2.51a4.481 4.481 0 0 1-.256-1.196c-2.105-.032-5.246.13-7.933.895-.582.166-.832.519-.886.743a.415.415 0 0 0 .024.285c.04.086.139.218.376.349.588.323 1.378.675 2.434 1.035.139.047.284.083.432.106.212.033.422.064.63.092.088-.145.17-.288.243-.428A4.381 4.381 0 0 1 18.1 18.13c.749-.403 1.68-.59 2.612-.28l.557.186zm2.942-5.848l-4.105-5.863a1 1 0 0 0-1.713.126l-.176.352 5.49 5.491-.143.144c.207-.1.423-.183.647-.25zm-7.837-4.399l5.744 5.744a4.538 4.538 0 0 0-.265.332l-3.72-1.487a3 3 0 0 1-1.006-.665l-2.338-2.338a1.121 1.121 0 1 1 1.585-1.586zM23 16.5a2.5 2.5 0 1 1 5 0 2.5 2.5 0 0 1-5 0zm7 0a1.5 1.5 0 1 0 3 0 1.5 1.5 0 0 0-3 0zM25 35h3.586L23 40.586l-7.293-7.293-1.414 1.414L21.586 42H12v2h24v-2H24.414L30 36.414V40h2v-7h-7v2z" fill="currentColor"></path></g></svg>