<svg width="48" height="48" xmlns="http://www.w3.org/2000/svg" viewBox="0 0 48 48"><g fill="none" class="nc-icon-wrapper"><path d="M23 8a1 1 0 1 1 2 0v28a1 1 0 0 1-2 0V8z" fill="currentColor"></path><path d="M9.067 7.967a1.067 1.067 0 1 1 0-2.134h13.866a1.067 1.067 0 1 1 0 2.134H9.067z" fill="currentColor"></path><path d="M25.067 7.967a1.067 1.067 0 1 1 0-2.134h13.866a1.067 1.067 0 1 1 0 2.134H25.067z" fill="currentColor"></path><path fill-rule="evenodd" clip-rule="evenodd" d="M24 42a2 2 0 1 0 0-4 2 2 0 0 0 0 4zm0 2a4 4 0 1 0 0-8 4 4 0 0 0 0 8z" fill="currentColor"></path></g></svg>