<svg width="48" height="48" xmlns="http://www.w3.org/2000/svg" viewBox="0 0 48 48"><g fill="none" class="nc-icon-wrapper"><path d="M40.9 19.597l-3.717-8.051a2.643 2.643 0 0 0 .867-1.94 2.615 2.615 0 0 0-4.982-1.102L14.282 13.28a2.6 2.6 0 1 0-3.4 3.936L7.07 25.474l11.08-.042-3.8-8.257c.405-.363.685-.845.799-1.377l6.785-1.72v21.14h-.138l-9.166 2.849a1.458 1.458 0 0 0-1.018 1.376v.096A1.375 1.375 0 0 0 13.057 41h21.87a1.376 1.376 0 0 0 1.444-1.446v-.11a1.458 1.458 0 0 0-1.005-1.376l-9.152-2.85h-.151v-22.02l7.322-1.94.275.289-3.73 8.078c.824 0 10.214-.027 10.97-.027zM9.34 25.474l3.277-7.102 3.23 7.07-6.506.032zm26.15-12.772l3.193 6.881h-6.427l3.234-6.881z" fill="currentColor"></path><path fill-rule="evenodd" clip-rule="evenodd" d="M12.62 30.718a5.502 5.502 0 0 0 5.125-3.5H7.495a5.502 5.502 0 0 0 5.125 3.5zm-7.23-3.5a7.508 7.508 0 0 1-.27-2h15v.003a7.503 7.503 0 0 1-14.73 1.997z" fill="currentColor"></path><path fill-rule="evenodd" clip-rule="evenodd" d="M35.026 25.014a5.502 5.502 0 0 0 5.125-3.5H29.9a5.502 5.502 0 0 0 5.125 3.5zm-7.23-3.5a7.509 7.509 0 0 1-.27-2h15v.002a7.51 7.51 0 0 1-.27 1.998 7.503 7.503 0 0 1-14.46 0z" fill="currentColor"></path></g></svg>