<svg width="48" height="48" xmlns="http://www.w3.org/2000/svg" viewBox="0 0 48 48"><g fill="none" class="nc-icon-wrapper"><path fill-rule="evenodd" clip-rule="evenodd" d="M19.858 11.532c-.875-1.049-2.004-1.658-3.105-1.51-3.29.447-6.671 3.774-8.09 7.926-1.389 4.069-.772 8.567 3.457 11.406.77.517 1.348.684 1.85.64.505-.046 1.131-.322 1.954-1.117.672-.649 1.157-1.916 1.45-3.534.283-1.569.352-3.265.352-4.56 0-1.694.91-2.96 1.673-3.925.117-.148.229-.287.336-.42.267-.33.503-.624.716-.932.287-.418.459-.767.526-1.093.056-.272.023-.709-.175-1.26a5.498 5.498 0 0 0-.944-1.62zm2.826.944c.271.754.407 1.582.252 2.338-.144.702-.481 1.308-.839 1.827-.258.375-.566.757-.85 1.108l-.28.35c-.747.945-1.241 1.734-1.241 2.684 0 1.349-.071 3.178-.385 4.915-.304 1.686-.873 3.504-2.027 4.618-1.003.968-2.035 1.569-3.167 1.67-1.135.1-2.172-.32-3.142-.972-5.182-3.478-5.83-9.04-4.234-13.712 1.567-4.588 5.419-8.679 9.714-9.26 2.046-.278 3.796.875 4.909 2.21a7.497 7.497 0 0 1 1.29 2.224z" fill="currentColor"></path><path fill-rule="evenodd" clip-rule="evenodd" d="M18.911 23.163l.272-.963.272-.962h.003l.005.002.013.004a2.94 2.94 0 0 1 .165.054 6.221 6.221 0 0 1 1.64.875c.91.683 1.897 1.862 1.897 3.68v13.904h-2V25.853c0-.991-.51-1.638-1.098-2.08a4.221 4.221 0 0 0-1.162-.607l-.01-.003c-.001 0-.001 0 0 0h.003z" fill="currentColor"></path><path fill-rule="evenodd" clip-rule="evenodd" d="M28.32 11.532c.875-1.049 2.004-1.658 3.104-1.51 3.29.447 6.672 3.774 8.09 7.926 1.39 4.069.773 8.567-3.456 11.406-.77.517-1.349.684-1.85.64-.505-.046-1.131-.322-1.955-1.117-.672-.649-1.156-1.916-1.449-3.534-.283-1.569-.352-3.265-.352-4.56 0-1.694-.91-2.96-1.673-3.925a55.28 55.28 0 0 0-.336-.42c-.267-.33-.503-.624-.716-.932-.288-.418-.46-.767-.526-1.093-.056-.272-.024-.709.175-1.26.193-.538.518-1.11.944-1.62zm-2.826.944c-.271.754-.407 1.582-.253 2.338.144.702.482 1.308.84 1.827.258.375.566.757.85 1.108l.279.35c.747.945 1.242 1.734 1.242 2.684 0 1.349.07 3.178.384 4.915.305 1.686.874 3.504 2.028 4.618 1.002.968 2.035 1.569 3.167 1.67 1.134.1 2.171-.32 3.141-.972 5.182-3.478 5.83-9.04 4.235-13.712-1.567-4.588-5.42-8.679-9.714-9.26-2.046-.278-3.796.875-4.91 2.21a7.496 7.496 0 0 0-1.29 2.224z" fill="currentColor"></path><path fill-rule="evenodd" clip-rule="evenodd" d="M29.266 23.163l-.271-.963-.272-.962h-.003l-.005.002-.013.004a2.51 2.51 0 0 0-.165.054 6.221 6.221 0 0 0-1.64.875c-.91.683-1.897 1.862-1.897 3.68v13.904h2V25.853c0-.991.51-1.638 1.098-2.08a4.219 4.219 0 0 1 1.161-.607l.011-.003s.001 0 0 0h-.004z" fill="currentColor"></path></g></svg>