<svg width="48" height="48" xmlns="http://www.w3.org/2000/svg" viewBox="0 0 48 48"><g fill="none" class="nc-icon-wrapper"><path d="M29.589 21.534l.164.987-.164-.987zm2.647 1.348l.895-.447-.895.447zm-14.145.568l-.164-.986.164.986zm-2.555 1.888l.895.447-.895-.447zm-3.772 7.544l-.894-.447.894.447zm.202 2.571l-.814.581.814-.58zm5 7l-.814.581.814-.58zm4.068-2.906l.814-.581-.814.581zm-1.79-2.506l-.878-.478-.3.55.365.51.814-.582zm.862-.83l.447.895-.447-.895zm1.681-.84l.447.894 2.16-1.08-2.29-.763-.317.949zM23 31.558h-1v.721l.684.228.316-.948zm4.633 1.545l.95.312.31-.946-.944-.315-.317.949zm0 0l-.95-.312-.311.946.944.314.316-.948zm1.156 1.003l-.895.447.895-.447zm.192.619l.814.581.232-.324-.055-.395-.99.138zm-2.015 2.822l.813.581-.813-.581zm.58 3.488l-.58.813.58-.813zm3.488-.582l.814.581-.814-.58zm5-7l.814.581-.814-.58zm.202-2.57l.895-.448-.895.447zm-6.483-8.362a1.5 1.5 0 0 1 1.589.808l1.788-.894a3.5 3.5 0 0 0-3.705-1.887l.328 1.973zm-11.497 1.916l11.497-1.916-.328-1.973-11.498 1.916.329 1.973zm-1.825 1.348a2.5 2.5 0 0 1 1.825-1.348l-.33-1.973a4.5 4.5 0 0 0-3.284 2.426l1.789.895zm-3.773 7.544l3.773-7.544-1.79-.895-3.771 7.545 1.788.894zm.121 1.543a1.5 1.5 0 0 1-.12-1.543l-1.79-.894a3.5 3.5 0 0 0 .283 3.6l1.627-1.163zm5 7l-5-7-1.627 1.163 5 7 1.627-1.163zm2.093.349a1.5 1.5 0 0 1-2.093-.349l-1.627 1.163a3.5 3.5 0 0 0 4.882.813l-1.162-1.627zm.349-2.093a1.5 1.5 0 0 1-.35 2.093l1.163 1.627a3.5 3.5 0 0 0 .814-4.882l-1.627 1.162zm-1.79-2.505l1.79 2.505 1.627-1.162-1.79-2.506-1.627 1.163zm1.227-2.306a2.991 2.991 0 0 0-1.292 1.246l1.757.957a.991.991 0 0 1 .43-.414l-.895-1.79zm1.682-.84l-1.682.84.895 1.789 1.681-.841-.894-1.789zm-1.289 1.37l1.42.472.632-1.897-1.42-.473-.632 1.897zM18 33a3 3 0 0 0 2.051 2.846l.633-1.897A1 1 0 0 1 20 33h-2zm0-4v4h2v-4h-2zm3-3a3 3 0 0 0-3 3h2a1 1 0 0 1 1-1v-2zm3 3a3 3 0 0 0-3-3v2a1 1 0 0 1 1 1h2zm0 2.558V29h-2v2.558h2zm3.949.596l-4.633-1.544-.632 1.897 4.632 1.544.633-1.897zm.633 1.26l-1.9-.623 1.9.624zm1.101.244a2.994 2.994 0 0 0-1.734-1.504l-.633 1.897a.994.994 0 0 1 .578.502l1.79-.895zm.289.93a3 3 0 0 0-.289-.93l-1.789.895c.051.102.083.206.097.31l1.981-.276zm-2.193 3.54l2.016-2.822-1.627-1.162-2.016 2.822 1.627 1.162zm.35 2.093a1.5 1.5 0 0 1-.35-2.093l-1.627-1.162a3.5 3.5 0 0 0 .814 4.882l1.162-1.627zm2.092-.349a1.5 1.5 0 0 1-2.093.349l-1.162 1.627a3.5 3.5 0 0 0 4.882-.813l-1.627-1.163zm5-7l-5 7 1.627 1.163 5-7-1.627-1.163zm.12-1.543a1.5 1.5 0 0 1-.12 1.543l1.627 1.163a3.5 3.5 0 0 0 .282-3.6l-1.788.894zm-4-8l4 8 1.79-.894-4-8-1.79.894zM29.5 34a4.5 4.5 0 0 0 4.5-4.5h-2a2.5 2.5 0 0 1-2.5 2.5v2zM25 29.5a4.5 4.5 0 0 0 4.5 4.5v-2a2.5 2.5 0 0 1-2.5-2.5h-2zm4.5-4.5a4.5 4.5 0 0 0-4.5 4.5h2a2.5 2.5 0 0 1 2.5-2.5v-2zm4.5 4.5a4.5 4.5 0 0 0-4.5-4.5v2a2.5 2.5 0 0 1 2.5 2.5h2z" fill="currentColor"></path><path fill-rule="evenodd" clip-rule="evenodd" d="M24 6a2 2 0 0 0-1.98 2.284A7.002 7.002 0 0 1 24 8c.688 0 1.352.1 1.98.284A2 2 0 0 0 24 6zm3.834 3.143a4 4 0 1 0-7.669 0 7 7 0 1 0 7.669 0zM19 15a5 5 0 1 1 10 0 5 5 0 0 1-10 0zm10.932 20.11l1.164-1.63-1.627-1.162-1.165 1.63 1.628 1.163zm-14.746-2.029l2.98 4.172 1.627-1.163-2.98-4.171-1.627 1.162z" fill="currentColor"></path></g></svg>