<svg width="48" height="48" xmlns="http://www.w3.org/2000/svg" viewBox="0 0 48 48"><g fill="none" class="nc-icon-wrapper"><circle cx="24" cy="24" r="8" stroke="red" stroke-opacity=".32" stroke-width=".25"></circle><circle cx="24" cy="24" r="16" stroke="red" stroke-opacity=".32" stroke-width=".25"></circle><circle cx="24" cy="24" r="20" stroke="red" stroke-opacity=".32" stroke-width=".25"></circle><path stroke="red" stroke-opacity=".32" stroke-width=".25" d="M4 4h40v40H4z"></path><rect x="10" y="4" width="28" height="40" rx="3" stroke="red" stroke-opacity=".32" stroke-width=".25"></rect><rect x="6" y="6" width="36" height="36" rx="3" stroke="red" stroke-opacity=".32" stroke-width=".25"></rect><rect x="44" y="10" width="28" height="40" rx="3" transform="rotate(90 44 10)" stroke="red" stroke-opacity=".32" stroke-width=".25"></rect><path stroke="red" stroke-opacity=".32" stroke-width=".25" d="M24.125 4v40"></path><path stroke="red" stroke-opacity=".32" stroke-width=".25" d="M44 24.125H4"></path><path stroke="red" stroke-opacity=".32" stroke-width=".25" d="M44.088 4.088l-40 40"></path><path stroke="red" stroke-opacity=".32" stroke-width=".25" d="M43.912 44.088l-40-40"></path><path stroke="red" stroke-opacity=".32" stroke-width=".25" d="M44 32.125H4"></path><path stroke="red" stroke-opacity=".32" stroke-width=".25" d="M44 16.125H4"></path><path stroke="red" stroke-opacity=".32" stroke-width=".25" d="M16.125 4v40"></path><path stroke="red" stroke-opacity=".32" stroke-width=".25" d="M32.125 4v40"></path><path d="M28 12c0 .34-.234.817-.979 1.264-.725.435-1.79.736-3.021.736-1.23 0-2.296-.301-3.021-.736C20.234 12.817 20 12.339 20 12c0-.34.234-.817.979-1.264.725-.435 1.79-.736 3.021-.736 1.23 0 2.296.301 3.021.736.745.447.979.925.979 1.264z" stroke="#333" stroke-width="2"></path><path stroke="#333" stroke-width="2" d="M24 11V6"></path><path d="M20 13.5l-1 3" stroke="#333" stroke-width="2" stroke-linecap="round"></path><path d="M16.555 19.323l-2.11 2.354" stroke="#333" stroke-width="2" stroke-linecap="round"></path><path d="M11 23.5l-2 1v3" stroke="#333" stroke-width="2" stroke-linecap="round"></path><path d="M7 41.5l2-1v-3" stroke="#333" stroke-width="2" stroke-linecap="round"></path><path d="M9 31v3" stroke="#333" stroke-width="2" stroke-linecap="round"></path><path d="M28 13.5l1 3" stroke="#333" stroke-width="2" stroke-linecap="round"></path><path d="M31.445 19.323l2.11 2.354" stroke="#333" stroke-width="2" stroke-linecap="round"></path><path d="M37 23.5l2 1v3" stroke="#333" stroke-width="2" stroke-linecap="round"></path><path d="M41 41.5l-2-1v-3" stroke="#333" stroke-width="2" stroke-linecap="round"></path><path d="M39 31v3" stroke="#333" stroke-width="2" stroke-linecap="round"></path><path d="M17 27v15" stroke="#333" stroke-width="2"></path><path d="M17 37h15v5" stroke="#333" stroke-width="2"></path><path d="M32 33.5H20" stroke="#333" stroke-width="3" stroke-linecap="round"></path></g></svg>