<svg width="48" height="48" xmlns="http://www.w3.org/2000/svg" viewBox="0 0 48 48"><g fill="none" class="nc-icon-wrapper"><path fill-rule="evenodd" clip-rule="evenodd" d="M11.566 29.136l12.927 5.433c.375.116.78.091 1.139-.07l2.589-1.373c.732-.985.845-1.472.58-2.501l-1.72-2.373a1.615 1.615 0 0 0-.991-.565l-13.983-.8c-1.978-.311-2.454 1.657-.541 2.25zm14.07.529l-8.857-.508 8.176 3.437 1.9-1.007c.042-.07.064-.113.075-.136l-1.294-1.786zm1.295 1.816v-.009.01zM12.062 27.19c-.001-.002-.002-.002-.003-.002 0 0 .002 0 .003.002zm-.371 1.665h-.004.004z" fill="currentColor"></path><path fill-rule="evenodd" clip-rule="evenodd" d="M24 6C14.058 6 6 14.055 6 23.99c0 4.936 1.988 9.406 5.21 12.658l-1.42 1.407A19.923 19.923 0 0 1 4 23.99C4 12.95 12.955 4 24 4s20 8.949 20 19.99a19.928 19.928 0 0 1-6.085 14.357l-1.391-1.437A17.928 17.928 0 0 0 42 23.99C42 14.054 33.942 6 24 6z" fill="currentColor"></path><path fill-rule="evenodd" clip-rule="evenodd" d="M23 11V6h2v5h-2z" fill="currentColor"></path><path fill-rule="evenodd" clip-rule="evenodd" d="M36.707 37.068l-3.648-3.647 1.415-1.414 3.647 3.647-1.414 1.414z" fill="currentColor"></path><path fill-rule="evenodd" clip-rule="evenodd" d="M14.121 14.536L10.586 11 12 9.586l3.536 3.535-1.415 1.415z" fill="currentColor"></path><path fill-rule="evenodd" clip-rule="evenodd" d="M37.684 22h5v2h-5v-2z" fill="currentColor"></path><path fill-rule="evenodd" clip-rule="evenodd" d="M5.053 22h5v2h-5v-2z" fill="currentColor"></path><path fill-rule="evenodd" clip-rule="evenodd" d="M32.586 13l3.647-3.647 1.414 1.414L34 14.414 32.586 13z" fill="currentColor"></path><path fill-rule="evenodd" clip-rule="evenodd" d="M14.197 33.623l-3.647 3.648-1.415-1.415 3.648-3.647 1.414 1.414z" fill="currentColor"></path></g></svg>