<svg width="48" height="48" xmlns="http://www.w3.org/2000/svg" viewBox="0 0 48 48"><g fill="none" class="nc-icon-wrapper"><path fill-rule="evenodd" clip-rule="evenodd" d="M18.362 14.428c-.376-.386-.913-.686-1.868-.686-.318 0-.776.135-1.394.655-.624.526-1.297 1.354-1.98 2.487-1.363 2.262-2.565 5.403-3.467 8.725-.9 3.309-1.468 6.67-1.622 9.32-.078 1.333-.047 2.414.07 3.189a3.71 3.71 0 0 0 .208.828c.96.73 2.598 1.02 4.633.624 2.058-.401 4.075-1.432 5.352-2.708.443-.443.84-1.173 1.136-2.262.292-1.077.448-2.362.513-3.762.065-1.393.039-2.832-.007-4.208l-.041-1.128a75.635 75.635 0 0 1-.071-2.617c0-.258.002-.53.004-.816.014-1.647.031-3.69-.415-5.464-.255-1.014-.618-1.731-1.051-2.177zM8.336 39l-.003-.004a.035.035 0 0 1 .003.004zm13.493-16.862c.035-3.528.103-10.4-5.336-10.396-7.45.006-12.751 26.017-9.556 28.668 3.195 2.652 9.58 1.054 12.77-2.133 2.576-2.573 2.348-8.58 2.185-12.893a71.64 71.64 0 0 1-.068-2.5c0-.226.002-.476.005-.746z" fill="currentColor"></path><path fill-rule="evenodd" clip-rule="evenodd" d="M29.579 14.419c.375-.387.912-.688 1.866-.69.318 0 .776.134 1.395.653.626.525 1.3 1.352 1.984 2.484 1.367 2.26 2.574 5.399 3.482 8.72.905 3.307 1.478 6.668 1.637 9.318.08 1.331.05 2.412-.066 3.188a3.712 3.712 0 0 1-.205.828c-.959.731-2.597 1.024-4.632.631-2.059-.397-4.078-1.425-5.357-2.699-.444-.442-.842-1.171-1.139-2.26-.294-1.076-.452-2.36-.52-3.76-.067-1.394-.043-2.833 0-4.209.012-.377.026-.755.04-1.128.034-.947.067-1.857.067-2.617 0-.258-.003-.53-.006-.816-.017-1.647-.038-3.69.406-5.465.253-1.014.615-1.732 1.048-2.178zm10.066 24.555l.003-.004a.026.026 0 0 0-.003.004zm-13.52-16.84c-.041-3.528-.12-10.4 5.318-10.404 7.45-.006 12.794 25.996 9.603 28.652-3.19 2.657-9.578 1.07-12.774-2.112-2.58-2.57-2.362-8.577-2.205-12.89.033-.93.064-1.78.064-2.5 0-.226-.003-.476-.007-.745z" fill="currentColor"></path><path fill-rule="evenodd" clip-rule="evenodd" d="M22.963 5.737h1l1-.001.012 14.5c.002 2.102-.933 3.308-1.993 3.927a4.317 4.317 0 0 1-1.976.575h-.026l-.002-1-.002-1H20.967h.005c.008 0 .025 0 .05-.003a2.322 2.322 0 0 0 .95-.299c.44-.256 1.004-.801 1.003-2.199l-.012-14.5z" fill="currentColor"></path><path fill-rule="evenodd" clip-rule="evenodd" d="M24.963 5.736h-1l-1 .001.012 14.5c.002 2.102.939 3.307 2 3.925a4.318 4.318 0 0 0 1.976.572H26.978v-1-1H26.982a2.178 2.178 0 0 1-.283-.036 2.317 2.317 0 0 1-.718-.265c-.44-.256-1.005-.8-1.006-2.198l-.012-14.5z" fill="currentColor"></path></g></svg>