<svg width="48" height="48" xmlns="http://www.w3.org/2000/svg" viewBox="0 0 48 48"><g fill="none" class="nc-icon-wrapper"><path fill-rule="evenodd" clip-rule="evenodd" d="M29.295 17h1.756l.392 7.064A2.05 2.05 0 0 0 33.49 26h6.561l.278 5H19.057l.253-4.555A10 10 0 0 1 29.295 17zm-11.982 9.334C17.667 19.975 22.926 15 29.295 15h1.756a2 2 0 0 1 1.997 1.89l.392 7.063a.05.05 0 0 0 .05.047h7.034a1.5 1.5 0 0 1 1.498 1.417l.392 7.055a.5.5 0 0 1-.5.528H18a1 1 0 0 1-.998-1.055l.311-5.61z" fill="currentColor"></path><path fill-rule="evenodd" clip-rule="evenodd" d="M27.65 20.996c-2.08.572-3.69 2.099-4.311 4.131l3.578-.864c.308-.098.624-.169.944-.212l-.21-3.055zm-.188 5.193c.371-.125.763-.19 1.158-.19h1.112a.25.25 0 0 0 .25-.266l-.45-6.518a.48.48 0 0 0-.499-.453c-4.266.216-7.694 3.386-7.957 7.734l-.035.579a.5.5 0 0 0 .616.516l5.805-1.402z" fill="currentColor"></path><path fill-rule="evenodd" clip-rule="evenodd" d="M9.98 7.444a1.5 1.5 0 1 0 0 3 1.5 1.5 0 0 0 0-3zm-3.5 1.5a3.5 3.5 0 1 1 7 0 3.5 3.5 0 0 1-7 0z" fill="currentColor"></path><path fill-rule="evenodd" clip-rule="evenodd" d="M12.29 11.572c1.6.49 3.208.99 4.675 1.65 1.502.677 2.785 1.494 3.71 2.572a1.26 1.26 0 0 0 1.633.242 12.954 12.954 0 0 1 2.967-1.402c.767-.249 1.147-1.194.635-1.912-3.075-4.305-8.338-5.429-13.005-6.425l-.176-.038-.692-.148a3.498 3.498 0 0 1 1.41 2.349c4.08.893 7.784 1.905 10.208 4.638-.654.265-1.286.576-1.891.928-1.127-1.142-2.526-1.973-3.977-2.627-1.433-.645-2.97-1.141-4.416-1.587a3.5 3.5 0 0 1-1.082 1.76z" fill="currentColor"></path><path fill-rule="evenodd" clip-rule="evenodd" d="M6.735 10.258l-3.068 13.07a.884.884 0 0 0-.012.062l-.413 2.285a4.875 4.875 0 0 0 3.536 5.575l.175.047a4.875 4.875 0 0 0 5.093-1.694l2.718-3.453c.611-.778-.006-1.91-.991-1.816l-1.723.164-2.498-.527-1.037-.278 3.618-11.99a3.483 3.483 0 0 1-2.051.738L6.653 23.804a1.125 1.125 0 0 0 .786 1.412l1.683.451.023.006.023.005 2.614.552c.111.024.226.03.339.02l.365-.035-1.815 2.306a3.125 3.125 0 0 1-3.265 1.086l-.175-.047a3.125 3.125 0 0 1-2.267-3.574l.412-2.283 2.766-11.781a3.513 3.513 0 0 1-1.407-1.664z" fill="currentColor"></path><path fill-rule="evenodd" clip-rule="evenodd" d="M38.5 36h-19a2.5 2.5 0 0 0 0 5h19a2.5 2.5 0 0 0 0-5zm-19-2a4.5 4.5 0 1 0 0 9h19a4.5 4.5 0 1 0 0-9h-19z" fill="currentColor"></path><path d="M23 38.5a1.5 1.5 0 1 1-3 0 1.5 1.5 0 0 1 3 0z" fill="currentColor"></path><path d="M28 38.5a1.5 1.5 0 1 1-3 0 1.5 1.5 0 0 1 3 0z" fill="currentColor"></path><path d="M33 38.5a1.5 1.5 0 1 1-3 0 1.5 1.5 0 0 1 3 0z" fill="currentColor"></path><path d="M38 38.5a1.5 1.5 0 1 1-3 0 1.5 1.5 0 0 1 3 0z" fill="currentColor"></path></g></svg>