<svg width="48" height="48" xmlns="http://www.w3.org/2000/svg" viewBox="0 0 48 48"><g fill="none" class="nc-icon-wrapper"><path fill-rule="evenodd" clip-rule="evenodd" d="M21 32c7.18 0 13-5.82 13-13S28.18 6 21 6 8 11.82 8 19s5.82 13 13 13zm0 2c8.284 0 15-6.716 15-15 0-8.284-6.716-15-15-15-8.284 0-15 6.716-15 15 0 8.284 6.716 15 15 15z" fill="currentColor"></path><path fill-rule="evenodd" clip-rule="evenodd" d="M32.27 31.512l-1.008.112-.255.923 7.93 9.45 1.25-1.05-7.917-9.435zM28.8 33.027l8.605 10.255a2 2 0 0 0 2.818.247l1.25-1.05a2 2 0 0 0 .247-2.818l-8.605-10.255-3.42.38-.895 3.241z" fill="currentColor"></path><path fill-rule="evenodd" clip-rule="evenodd" d="M39.443 38.938L37 41l-1.29-1.528 2.443-2.062 1.29 1.528z" fill="currentColor"></path><path fill-rule="evenodd" clip-rule="evenodd" d="M20.748 10.816c-1.74.067-3.313.688-4.154 1.53a1 1 0 0 1-1.414-1.415c1.297-1.297 3.409-2.033 5.49-2.114 2.095-.081 4.382.492 5.984 2.094a1 1 0 0 1-1.415 1.414c-1.09-1.09-2.764-1.577-4.491-1.51z" fill="currentColor"></path></g></svg>