<svg width="48" height="48" xmlns="http://www.w3.org/2000/svg" viewBox="0 0 48 48"><g fill="none" class="nc-icon-wrapper"><path fill-rule="evenodd" clip-rule="evenodd" d="M24 42c9.941 0 18-8.059 18-18S33.941 6 24 6 6 14.059 6 24s8.059 18 18 18zm0 2c11.046 0 20-8.954 20-20S35.046 4 24 4 4 12.954 4 24s8.954 20 20 20z" fill="currentColor"></path><path fill-rule="evenodd" clip-rule="evenodd" d="M13.494 20.044c1.03-.206 2.382-.812 3.727-1.85 1.344-1.04 2.272-2.195 2.73-3.14.309-.637.324-.97.312-1.1-.123-.045-.45-.115-1.144.023-1.03.206-2.381.812-3.726 1.85-1.345 1.04-2.272 2.195-2.73 3.14-.31.637-.324.97-.312 1.1.123.045.449.115 1.143-.023zm-2.749 1.265c1.18 1.527 4.627.84 7.699-1.533 3.071-2.374 4.605-5.537 3.425-7.064-1.18-1.527-4.627-.84-7.699 1.533-3.072 2.374-4.605 5.537-3.425 7.064z" fill="currentColor"></path><path fill-rule="evenodd" clip-rule="evenodd" d="M34.436 31.33c-.555-.873-1.594-1.9-3.03-2.768-1.437-.867-2.83-1.308-3.861-1.393-.67-.055-.981.04-1.102.097.006.134.066.453.427 1.02.555.874 1.594 1.901 3.03 2.769 1.437.867 2.83 1.308 3.861 1.393.67.055.98-.04 1.102-.097-.006-.134-.066-.453-.427-1.02zm2.168 2.072c.986-1.634-.878-4.568-4.165-6.552-3.286-1.985-6.75-2.269-7.737-.635-.987 1.634.878 4.567 4.165 6.552 3.286 1.984 6.75 2.269 7.737.635z" fill="currentColor"></path><path fill-rule="evenodd" clip-rule="evenodd" d="M32.638 19.893c.025-1.051-.271-2.503-.992-4.043-.72-1.54-1.645-2.699-2.468-3.353-.556-.442-.878-.529-1.008-.546-.07.11-.21.414-.227 1.123-.025 1.051.272 2.504.992 4.044.72 1.54 1.645 2.698 2.468 3.353.556.442.878.528 1.008.545.07-.11.21-.413.227-1.123zm.633 2.961c1.749-.818 1.833-4.334.187-7.852-1.646-3.518-4.398-5.707-6.147-4.889-1.75.818-1.833 4.334-.187 7.852 1.645 3.518 4.398 5.707 6.147 4.89z" fill="currentColor"></path><path fill-rule="evenodd" clip-rule="evenodd" d="M20.968 34.956c-.004-1.084-.351-2.566-1.135-4.125-.784-1.558-1.766-2.722-2.633-3.372-.627-.47-.973-.533-1.097-.54-.069.103-.225.418-.221 1.203.005 1.083.352 2.566 1.135 4.125.784 1.558 1.767 2.721 2.634 3.372.627.47.973.533 1.096.54.069-.103.225-.419.221-1.203zm.688 3.01c1.764-.888 1.748-4.484-.036-8.033-1.784-3.55-4.66-5.707-6.425-4.82-1.765.887-1.749 4.483.035 8.032 1.785 3.549 4.661 5.707 6.426 4.82z" fill="currentColor"></path></g></svg>