<svg width="48" height="48" xmlns="http://www.w3.org/2000/svg" viewBox="0 0 48 48"><g fill="none" class="nc-icon-wrapper"><path fill-rule="evenodd" clip-rule="evenodd" d="M24.052 41.315c9.941 0 18-8.059 18-18s-8.059-18-18-18c-9.94 0-18 8.059-18 18s8.06 18 18 18zm0 2c11.046 0 20-8.954 20-20s-8.954-20-20-20c-11.045 0-20 8.954-20 20s8.955 20 20 20z" fill="currentColor"></path><path fill-rule="evenodd" clip-rule="evenodd" d="M12.495 20.044c1.03-.206 2.381-.812 3.726-1.85 1.345-1.04 2.272-2.195 2.73-3.14.309-.637.324-.97.312-1.1-.123-.045-.45-.115-1.144.023-1.03.206-2.381.812-3.726 1.85-1.345 1.04-2.272 2.195-2.73 3.14-.31.637-.324.97-.312 1.1.123.045.45.115 1.143-.023zm-2.75 1.265c1.18 1.527 4.627.84 7.699-1.533 3.072-2.374 4.605-5.537 3.425-7.064-1.18-1.527-4.627-.84-7.699 1.533-3.072 2.374-4.605 5.537-3.425 7.064z" fill="currentColor"></path><path fill-rule="evenodd" clip-rule="evenodd" d="M33.436 31.33c-.555-.873-1.594-1.9-3.03-2.768-1.437-.867-2.83-1.308-3.861-1.393-.67-.055-.981.04-1.103.097.007.134.067.453.428 1.02.555.874 1.594 1.901 3.03 2.769 1.437.867 2.83 1.308 3.861 1.393.67.055.98-.04 1.102-.097-.006-.134-.066-.453-.427-1.02zm2.168 2.072c.986-1.634-.878-4.568-4.165-6.552-3.286-1.985-6.75-2.269-7.737-.635-.987 1.634.878 4.567 4.165 6.552 3.286 1.984 6.75 2.269 7.737.635z" fill="currentColor"></path><path fill-rule="evenodd" clip-rule="evenodd" d="M31.638 19.893c.025-1.051-.271-2.503-.992-4.043-.72-1.54-1.645-2.699-2.468-3.353-.556-.442-.878-.529-1.008-.546-.07.11-.21.414-.227 1.123-.025 1.051.272 2.504.992 4.044.72 1.54 1.645 2.698 2.468 3.353.556.442.878.528 1.008.545.07-.11.21-.413.227-1.123zm.633 2.961c1.749-.818 1.833-4.334.187-7.852-1.646-3.518-4.398-5.707-6.147-4.889-1.75.818-1.833 4.334-.187 7.852 1.645 3.518 4.398 5.707 6.147 4.89z" fill="currentColor"></path><path fill-rule="evenodd" clip-rule="evenodd" d="M19.968 34.956c-.004-1.084-.351-2.566-1.135-4.125-.784-1.558-1.766-2.722-2.633-3.372-.627-.47-.973-.533-1.097-.54-.069.103-.225.418-.221 1.203.005 1.083.352 2.566 1.135 4.125.784 1.558 1.767 2.721 2.634 3.372.627.47.973.533 1.096.54.069-.103.225-.419.221-1.203zm.688 3.01c1.764-.888 1.748-4.484-.036-8.033-1.784-3.55-4.66-5.707-6.425-4.82-1.765.887-1.749 4.483.035 8.032 1.785 3.549 4.661 5.707 6.426 4.82z" fill="currentColor"></path><path d="M14.622 18.39a1 1 0 1 1-2 0 1 1 0 0 1 2 0z" fill="currentColor"></path><path d="M16.415 15.984a.5.5 0 1 1-1 0 .5.5 0 0 1 1 0z" fill="currentColor"></path><path d="M16.19 17.39a.5.5 0 1 1-1 0 .5.5 0 0 1 1 0z" fill="currentColor"></path><path d="M18.4 15.077a.7.7 0 1 1-1.4 0 .7.7 0 0 1 1.4 0z" fill="currentColor"></path><path d="M32.47 30.898a1 1 0 1 1-2 0 1 1 0 0 1 2 0z" fill="currentColor"></path><path d="M30.47 29.713a.453.453 0 1 1-.905 0 .453.453 0 0 1 .906 0z" fill="currentColor"></path><path d="M27.326 28.039a.447.447 0 1 1-.894 0 .447.447 0 0 1 .894 0z" fill="currentColor"></path><path d="M29.137 28.944a.768.768 0 1 1-1.537 0 .768.768 0 0 1 1.537 0z" fill="currentColor"></path><path d="M30.353 16.076a1 1 0 1 1-2 0 1 1 0 0 1 2 0z" fill="currentColor"></path><path d="M28.353 14.096a.5.5 0 1 1-1 0 .5.5 0 0 1 1 0z" fill="currentColor"></path><path d="M30.93 18.55a.7.7 0 1 1-1.4 0 .7.7 0 0 1 1.4 0z" fill="currentColor"></path><path d="M18.51 32.02a1 1 0 1 1-2 0 1 1 0 0 1 2 0z" fill="currentColor"></path><path d="M17.878 29.67a.453.453 0 1 1-.906 0 .453.453 0 0 1 .906 0z" fill="currentColor"></path><path d="M16.22 28.627a.5.5 0 1 1-1 0 .5.5 0 0 1 1 0z" fill="currentColor"></path><path d="M19.62 34.136a.7.7 0 1 1-1.4 0 .7.7 0 0 1 1.4 0z" fill="currentColor"></path></g></svg>