<svg width="48" height="48" xmlns="http://www.w3.org/2000/svg" viewBox="0 0 48 48"><g fill="none" class="nc-icon-wrapper"><path fill-rule="evenodd" clip-rule="evenodd" d="M16 20a1 1 0 1 0-2 0v4.59c-.323.404-.607.999-.831 1.73l-1.126-1.136v-1.987a1 1 0 0 0-.29-.704L9.38 20.096a1 1 0 1 0-1.422 1.407l2.085 2.105v1.987a1 1 0 0 0 .29.704l.753.76-7.017 1.225c-.288 1.38.173 4.14 4.317 4.14.077 0 .152-.001.227-.004l-.503.339a1 1 0 0 0-.43.971l.485 3.379-1.854 1.248a1 1 0 0 0 1.117 1.66l2.374-1.6a1 1 0 0 0 .432-.971l-.486-3.379.329-.221c.005.018.01.037.017.056l1.459 4.421-1.765 3.826a1 1 0 0 0 1.816.838l1.93-4.184a1 1 0 0 0 .042-.732l-1.391-4.215.677-.683c.384 2.138 1.197 3.612 2.138 3.612.941 0 1.754-1.474 2.138-3.612l.677.683-1.39 4.215a1 1 0 0 0 .041.732l1.93 4.184a1 1 0 0 0 1.816-.838l-1.765-3.826 1.46-4.421.016-.056.33.221-.487 3.379a1 1 0 0 0 .432.971l2.374 1.6a1 1 0 1 0 1.117-1.66l-1.854-1.248.486-3.379a1 1 0 0 0-.431-.971l-.503-.339c.075.003.15.004.227.004 4.144 0 4.605-2.76 4.317-4.14l-7.017-1.224.754-.761a1 1 0 0 0 .289-.704v-1.987l2.085-2.105a1 1 0 1 0-1.421-1.407l-2.375 2.397a1 1 0 0 0-.289.704v1.987l-1.126 1.137c-.224-.732-.508-1.327-.83-1.731V20zm-.626 10.39c0 1.253-.15 2.358-.374 3.201-.224-.843-.374-1.948-.374-3.2 0-1.253.15-2.357.374-3.2.224.843.374 1.947.374 3.2zm-6.988.034c-1.215 0-1.764-.29-2.015-.511l4.502-.786-.026.041c-.449.698-1.141 1.256-2.461 1.256zm15.243-.511c-.25.22-.8.511-2.015.511-1.32 0-2.012-.558-2.461-1.256-.01-.013-.018-.027-.026-.04l4.502.785z" fill="currentColor"></path><path fill-rule="evenodd" clip-rule="evenodd" d="M34 5a1 1 0 1 0-2 0v4.59c-.323.404-.607.999-.831 1.73l-1.126-1.136V8.197a1 1 0 0 0-.29-.704L27.38 5.096a1 1 0 1 0-1.422 1.407l2.085 2.105v1.987a1 1 0 0 0 .29.704l.754.76-7.018 1.225c-.288 1.38.173 4.14 4.317 4.14.076 0 .152-.001.227-.004l-.503.339a1 1 0 0 0-.43.971l.485 3.379-1.854 1.248a1 1 0 0 0 1.117 1.66l2.374-1.6a1 1 0 0 0 .432-.971l-.486-3.379.329-.221c.005.018.01.037.017.056l1.459 4.421-1.765 3.826a1 1 0 0 0 1.816.838l1.93-4.184a1 1 0 0 0 .042-.732l-1.391-4.215.677-.683c.384 2.138 1.197 3.612 2.138 3.612.941 0 1.754-1.474 2.138-3.612l.677.684-1.39 4.214a1 1 0 0 0 .041.732l1.93 4.184a1 1 0 0 0 1.816-.838l-1.765-3.826 1.46-4.421.016-.056.33.221-.487 3.379a1 1 0 0 0 .432.971l2.374 1.6a1 1 0 1 0 1.117-1.66l-1.854-1.248.486-3.379a1 1 0 0 0-.431-.971l-.503-.339c.075.003.15.004.227.004 4.144 0 4.605-2.76 4.317-4.14l-7.017-1.224.754-.761a1 1 0 0 0 .289-.704V8.608l2.085-2.105a1 1 0 1 0-1.421-1.407l-2.375 2.397a1 1 0 0 0-.289.704v1.987l-1.126 1.137c-.224-.732-.508-1.327-.83-1.731V5zm-.626 10.39c0 1.253-.15 2.358-.374 3.201-.224-.843-.374-1.948-.374-3.2 0-1.253.15-2.357.374-3.2.224.843.374 1.947.374 3.2zm-6.989.034c-1.214 0-1.763-.29-2.014-.511l4.502-.786-.026.041c-.449.699-1.141 1.256-2.462 1.256zm15.244-.511c-.25.22-.8.511-2.014.511-1.32 0-2.013-.557-2.462-1.256-.01-.013-.018-.027-.026-.04l4.502.784z" fill="currentColor"></path></g></svg>