<svg width="48" height="48" xmlns="http://www.w3.org/2000/svg" viewBox="0 0 48 48"><g fill="none" class="nc-icon-wrapper"><g clip-path="url(#clip0)"><path fill-rule="evenodd" clip-rule="evenodd" d="M31.262 9.99l.733-2.85L27.886 6 7.09 18.517 6 22.787l2.734.764L8 26.4l2.734.763-.733 2.85 2.734.764-.733 2.85 2.734.763-.733 2.85 2.734.764-.733 2.85 4.1 1.145 20.788-12.512L42 25.208l-2.733-.764.732-2.85-2.734-.763.733-2.85-2.734-.764.733-2.85-2.734-.763.733-2.85-2.734-.764zm.31 2.163l-2.734-.764.731-2.846-1.389-.386-19.355 11.65-.403 1.58 2.736.765-.732 2.85 2.733.763-.732 2.85 2.733.764-.732 2.85 2.733.763-.732 2.85 2.733.764-.732 2.85 1.383.386 19.348-11.646.411-1.59-2.73-.763.732-2.85-2.733-.763.732-2.85-2.733-.764.732-2.85-2.733-.763.732-2.85z" fill="#333"></path><path fill-rule="evenodd" clip-rule="evenodd" d="M24 31a7 7 0 1 0 0-14 7 7 0 0 0 0 14zm0 2a9 9 0 1 0 0-18 9 9 0 0 0 0 18z" fill="#333"></path><path fill-rule="evenodd" clip-rule="evenodd" d="M24 27a3 3 0 1 0 0-6 3 3 0 0 0 0 6zm0 2a5 5 0 1 0 0-10 5 5 0 0 0 0 10z" fill="#333"></path></g><defs><clipPath id="clip0"><path fill="#fff" d="M0 0h48v48H0z"></path></clipPath></defs></g></svg>