<svg width="48" height="48" xmlns="http://www.w3.org/2000/svg" viewBox="0 0 48 48"><g fill="none" class="nc-icon-wrapper"><path fill-rule="evenodd" clip-rule="evenodd" d="M12 9A2.25 2.25 0 1 0 12 13.501 2.25 2.25 0 0 0 12 9zm-4.25 2.251A4.25 4.25 0 1 1 14.007 15h1.948c1.341 0 2.555.796 3.09 2.026l3.248 7.478a2.5 2.5 0 0 1-4.586 1.992L17 24.87V38.68c0 1.296-1.071 2.32-2.345 2.32-1.274 0-2.345-1.024-2.345-2.32v-8h-.544v8c0 1.296-1.071 2.32-2.345 2.32-1.274 0-2.345-1.024-2.345-2.32V24.615l-.768 1.846a2.5 2.5 0 0 1-4.616-1.922l3.107-7.465A3.369 3.369 0 0 1 7.909 15h2.084a4.25 4.25 0 0 1-2.243-3.749zM36 9a2.25 2.25 0 1 0 .001 4.501A2.25 2.25 0 0 0 36 9zm-4.25 2.251A4.25 4.25 0 1 1 38.007 15h1.78c1.38 0 2.643.776 3.266 2.008l3.178 6.281a2.5 2.5 0 1 1-4.462 2.257l-.771-1.525v.08l2.74 6.357a2.161 2.161 0 0 1-1.985 3.017h-.755v5.14c0 1.299-1.03 2.423-2.371 2.423-1.342 0-2.372-1.124-2.372-2.424v-5.14h-.513v5.14c0 1.3-1.03 2.424-2.37 2.424-1.343 0-2.372-1.124-2.372-2.424v-5.14h-.476a2.161 2.161 0 0 1-2.014-2.944L31 24.125v-.1l-.77 1.521a2.5 2.5 0 0 1-4.46-2.257l3.177-6.28a3.662 3.662 0 0 1 3.267-2.01h1.779a4.251 4.251 0 0 1-2.243-3.748zm1.173 13.447l-2.55 6.557a.161.161 0 0 0 .151.22H32a1 1 0 0 1 1 1v6.14c0 .266.205.423.371.423s.371-.157.371-.424v-6.14a1 1 0 0 1 1-1h2.514a1 1 0 0 1 1 1v6.14c0 .267.204.424.37.424.167 0 .372-.157.372-.424v-6.14a1 1 0 0 1 1-1h1.755a.161.161 0 0 0 .149-.225l-2.793-6.478a.995.995 0 0 1-.111-.459V19.83a1 1 0 0 1 1.892-.451l2.664 5.265a.5.5 0 0 0 .892-.451l-3.177-6.28A1.661 1.661 0 0 0 39.786 17h-7.572c-.626 0-1.2.352-1.482.911l-3.178 6.281a.5.5 0 0 0 .892.451l2.662-5.26a1 1 0 0 1 1.892.451v4.478a.996.996 0 0 1-.077.386zM7.909 17c-.553 0-1.051.332-1.264.843l-3.107 7.465a.5.5 0 1 0 .924.384l2.691-6.467a1 1 0 0 1 1.923.385v19.07c0 .156.14.32.345.32.206 0 .345-.164.345-.32v-9a1 1 0 0 1 1-1h2.544a1 1 0 0 1 1 1v9c0 .156.14.32.345.32.206 0 .345-.164.345-.32V20.058a1 1 0 0 1 1.917-.398l2.624 6.04a.5.5 0 0 0 .918-.398l-3.249-7.478c-.217-.5-.71-.823-1.255-.823H7.909z" fill="currentColor"></path></g></svg>