<svg width="48" height="48" xmlns="http://www.w3.org/2000/svg" viewBox="0 0 48 48"><g fill="none" class="nc-icon-wrapper"><path fill-rule="evenodd" clip-rule="evenodd" d="M26 11a4 4 0 0 1 4-4h4a4 4 0 0 1 4 4h-2a2 2 0 0 0-2-2h-4a2 2 0 1 0 0 4h4a4 4 0 0 1 0 8h-4a4 4 0 0 1-4-4h2a2 2 0 0 0 2 2h4a2 2 0 1 0 0-4h-4a4 4 0 0 1-4-4z" fill="currentColor"></path><path fill-rule="evenodd" clip-rule="evenodd" d="M31 23V5h2v18h-2z" fill="currentColor"></path><path fill-rule="evenodd" clip-rule="evenodd" d="M20 36a3 3 0 0 1 3-3h18a3 3 0 0 1 3 3v5H20v-5zm3-1a1 1 0 0 0-1 1v3h20v-3a1 1 0 0 0-1-1H23z" fill="currentColor"></path><path fill-rule="evenodd" clip-rule="evenodd" d="M20 44v-4h2v4h-2z" fill="currentColor"></path><path fill-rule="evenodd" clip-rule="evenodd" d="M42 44v-4h2v4h-2z" fill="currentColor"></path><path fill-rule="evenodd" clip-rule="evenodd" d="M39 33v-6h2v6h-2z" fill="currentColor"></path><path fill-rule="evenodd" clip-rule="evenodd" d="M28 33v-4h2v4h-2z" fill="currentColor"></path><path fill-rule="evenodd" clip-rule="evenodd" d="M34 33v-4h2v4h-2z" fill="currentColor"></path><path fill-rule="evenodd" clip-rule="evenodd" d="M23 33v-6h2v6h-2z" fill="currentColor"></path><path fill-rule="evenodd" clip-rule="evenodd" d="M40 30H24v-2h16v2z" fill="currentColor"></path><path fill-rule="evenodd" clip-rule="evenodd" d="M11 11a2 2 0 1 0 0-4 2 2 0 0 0 0 4zm0 2a4 4 0 1 0 0-8 4 4 0 0 0 0 8z" fill="currentColor"></path><path fill-rule="evenodd" clip-rule="evenodd" d="M15 9a4 4 0 1 1-8 0 4 4 0 0 1 8 0zm-4 2a2 2 0 1 0 0-4 2 2 0 0 0 0 4z" fill="currentColor"></path><path fill-rule="evenodd" clip-rule="evenodd" d="M13.121 26h2.42a1 1 0 0 0 .99-1.141l-1.143-8a1 1 0 0 0-.99-.859H7.602a1 1 0 0 0-.99.859l-1.143 8A1 1 0 0 0 6.46 26h2.42l1 16h2.242l1-16zM7 28h-.54a3 3 0 0 1-2.97-3.424l1.142-8A3 3 0 0 1 7.602 14h6.796a3 3 0 0 1 2.97 2.576l1.143 8A3 3 0 0 1 15.54 28H15l-.883 14.125A2 2 0 0 1 12.121 44H9.88a2 2 0 0 1-1.996-1.875L7 28z" fill="currentColor"></path><path fill-rule="evenodd" clip-rule="evenodd" d="M12.121 42H9.88l-1-16h-2.42a1 1 0 0 1-.99-1.141l1.143-8a1 1 0 0 1 .99-.859h6.796a1 1 0 0 1 .99.859l1.143 8a1 1 0 0 1-.99 1.141h-2.42l-1 16zM15 28l-.883 14.125A2 2 0 0 1 12.121 44H9.88a2 2 0 0 1-1.996-1.875L7 28h-.54a3 3 0 0 1-2.97-3.424l1.142-8A3 3 0 0 1 7.602 14h6.796a3 3 0 0 1 2.97 2.576l1.143 8A3 3 0 0 1 15.54 28H15z" fill="currentColor"></path></g></svg>