<svg width="48" height="48" xmlns="http://www.w3.org/2000/svg" viewBox="0 0 48 48"><g fill="none" class="nc-icon-wrapper"><path fill-rule="evenodd" clip-rule="evenodd" d="M24 5a3.001 3.001 0 1 0 .002 6.002A3.001 3.001 0 0 0 24 5zm-5 3.002A5 5 0 1 1 24.192 13h4.753c1.586 0 3 .998 3.533 2.492l3.36 9.436a2.75 2.75 0 1 1-5.181 1.846l-.758-2.127v17.705c0 1.476-1.221 2.647-2.68 2.647-1.457 0-2.679-1.171-2.679-2.648V31.605h-1.083v10.747c0 1.476-1.222 2.647-2.68 2.647-1.458 0-2.68-1.171-2.68-2.648V24.535l-.742 2.194a2.75 2.75 0 1 1-5.21-1.762l3.186-9.418A3.75 3.75 0 0 1 18.883 13h4.925A5.001 5.001 0 0 1 19 8.002zM18.883 15a1.75 1.75 0 0 0-1.657 1.19l-3.186 9.417a.75.75 0 0 0 .47.95l-.32.948.32-.947a.75.75 0 0 0 .95-.47l2.69-7.951a1 1 0 0 1 1.948.32v23.895c0 .336.29.647.68.647a.67.67 0 0 0 .679-.648V30.605a1 1 0 0 1 1-1h3.083a1 1 0 0 1 1 1v11.747c0 .336.29.647.68.647a.67.67 0 0 0 .68-.648V18.859a1 1 0 0 1 1.941-.336l2.7 7.58a.75.75 0 1 0 1.413-.503l-3.36-9.436A1.75 1.75 0 0 0 28.944 15h-10.06z" fill="currentColor"></path></g></svg>