<svg width="48" height="48" xmlns="http://www.w3.org/2000/svg" viewBox="0 0 48 48"><g fill="none" class="nc-icon-wrapper"><path fill-rule="evenodd" clip-rule="evenodd" d="M9 18h2v10h26V18h2v10h1.5a.5.5 0 0 1 .5.5v1a.5.5 0 0 1-.5.5h-33a.5.5 0 0 1-.5-.5v-1a.5.5 0 0 1 .5-.5H9V18zm1 15v7h28v-7H10zm-1-2a1 1 0 0 0-1 1v9a1 1 0 0 0 1 1h30a1 1 0 0 0 1-1v-9a1 1 0 0 0-1-1H9z" fill="currentColor"></path><path fill-rule="evenodd" clip-rule="evenodd" d="M10.189 8l-2.145 5.913A.727.727 0 0 0 8 14.16v2.39C8 17.359 8.647 18 9.429 18c.78 0 1.428-.64 1.428-1.449a1 1 0 0 1 2 0c0 .808.648 1.449 1.429 1.449.78 0 1.428-.64 1.428-1.449a1 1 0 1 1 2 0c0 .808.648 1.449 1.429 1.449.78 0 1.428-.64 1.428-1.448a1 1 0 0 1 2 0C22.572 17.36 23.22 18 24 18s1.429-.64 1.429-1.449a1 1 0 1 1 2 0c0 .808.647 1.449 1.428 1.449.78 0 1.428-.64 1.429-1.448a1 1 0 0 1 2 0c0 .808.648 1.448 1.428 1.448.781 0 1.429-.64 1.429-1.449a1 1 0 1 1 2 0c0 .808.647 1.449 1.428 1.449.782 0 1.429-.64 1.429-1.449v-2.39a.729.729 0 0 0-.044-.248L37.811 8H10.19zm27.587-.096l.142-.052-.142.052zm-1.633 11.082A3.405 3.405 0 0 1 33.714 20a3.404 3.404 0 0 1-2.428-1.014A3.404 3.404 0 0 1 28.857 20a3.404 3.404 0 0 1-2.428-1.014A3.404 3.404 0 0 1 24 20a3.404 3.404 0 0 1-2.429-1.014A3.404 3.404 0 0 1 19.143 20c-.951 0-1.81-.389-2.429-1.014A3.404 3.404 0 0 1 14.286 20a3.405 3.405 0 0 1-2.429-1.014A3.404 3.404 0 0 1 9.43 20C7.527 20 6 18.448 6 16.551v-2.39c0-.317.055-.632.163-.93l2.18-6.01A1.85 1.85 0 0 1 10.083 6h27.836a1.85 1.85 0 0 1 1.738 1.222l2.18 6.009c.109.298.164.613.164.93v2.39C42 18.448 40.473 20 38.571 20a3.404 3.404 0 0 1-2.428-1.014z" fill="currentColor"></path><path d="M12 25.5a.5.5 0 0 1 .5-.5h3a.5.5 0 0 1 .5.5v2a.5.5 0 0 1-.5.5h-3a.5.5 0 0 1-.5-.5v-2z" fill="currentColor"></path><path d="M14 26.5a.5.5 0 0 1 .5-.5h3a.5.5 0 0 1 .5.5v1a.5.5 0 0 1-.5.5h-3a.5.5 0 0 1-.5-.5v-1z" fill="currentColor"></path><path d="M22 26.5a1.5 1.5 0 1 1-3 0 1.5 1.5 0 0 1 3 0z" fill="currentColor"></path></g></svg>