<svg width="48" height="48" xmlns="http://www.w3.org/2000/svg" viewBox="0 0 48 48"><g fill="none" class="nc-icon-wrapper"><path d="M18 21l6-1.5 6 1.5" stroke="currentColor" stroke-linecap="round"></path><path d="M9.5 18l-1.913.425a3 3 0 0 0-2.336 3.213l.574 6.02a3 3 0 0 0 1.899 2.512L15 33" stroke="currentColor" stroke-linecap="round"></path><path d="M38.737 18l1.758.427a3 3 0 0 1 2.281 3.176l-.557 6.387a3 3 0 0 1-1.965 2.56L33.5 33" stroke="currentColor" stroke-linecap="round"></path><path d="M10.345 17.508c0-3.848 10.16-3.848 10.16-3.848l.82-1.47a1.82 1.82 0 0 1 1.59-.935h2.33c.66 0 1.268.358 1.59.934l.82 1.471s10 0 10 3.848c0 19.237-13.215 19.237-13.215 19.237h-.88s-13.215 0-13.215-19.237z" stroke="currentColor" stroke-linecap="round" stroke-linejoin="round"></path></g></svg>