<svg width="48" height="48" xmlns="http://www.w3.org/2000/svg" viewBox="0 0 48 48"><g fill="none" class="nc-icon-wrapper"><path fill-rule="evenodd" clip-rule="evenodd" d="M40.778 22.316l-.728.6A2.836 2.836 0 0 0 39 25.11C39 26.664 40.3 28 42 28s3-1.335 3-2.889c0-.98-.507-1.862-1.318-2.392l-.904-.592V11a1 1 0 1 0-2 0v11.316zm-2-11.316a3 3 0 1 1 6 0v10.046c1.34.877 2.222 2.37 2.222 4.065 0 2.7-2.239 4.889-5 4.889s-5-2.189-5-4.889c0-1.5.69-2.841 1.778-3.738V11z" fill="currentColor"></path><path d="M40.26 14.519h3.259V28.37h-3.26V14.52z" fill="currentColor"></path><path d="M45.815 25.037a4 4 0 1 1-8 0 4 4 0 0 1 8 0z" fill="currentColor"></path><path fill-rule="evenodd" clip-rule="evenodd" d="M16.925 34.38a1 1 0 0 1-1.854-.751L16 34c-.928-.371-.928-.372-.928-.373v-.001l.002-.003.003-.007.008-.02a2.688 2.688 0 0 1 .107-.225c.072-.14.178-.33.326-.55a7.498 7.498 0 0 1 1.442-1.59C18.344 30.079 20.572 29 24 29s5.656 1.078 7.04 2.232a7.5 7.5 0 0 1 1.442 1.588 5.702 5.702 0 0 1 .41.722l.023.055.008.019.003.007.001.003.001.001c0 .001 0 .002-.928.373l.928-.371a1 1 0 0 1-1.853.75l-.005-.011a3.716 3.716 0 0 0-.252-.438 5.502 5.502 0 0 0-1.058-1.162C28.744 31.922 26.972 31 24 31s-4.744.922-5.76 1.768c-.515.43-.853.855-1.058 1.162a3.695 3.695 0 0 0-.252.438l-.005.012z" fill="currentColor"></path><path fill-rule="evenodd" clip-rule="evenodd" d="M18.832 18.445a1 1 0 0 1-.277 1.387c-1.564 1.043-2.644 1.585-4.239 2.117a1 1 0 0 1-.632-1.898c1.405-.468 2.325-.925 3.761-1.883a1 1 0 0 1 1.387.277z" fill="currentColor"></path><path fill-rule="evenodd" clip-rule="evenodd" d="M29.168 18.445a1 1 0 0 0 .277 1.387c1.564 1.043 2.644 1.585 4.239 2.117a1 1 0 0 0 .632-1.898c-1.405-.468-2.325-.925-3.761-1.883a1 1 0 0 0-1.387.277z" fill="currentColor"></path><path d="M11 29a1 1 0 1 1-2 0 1 1 0 0 1 2 0z" fill="currentColor"></path><path d="M14 26a1 1 0 1 1-2 0 1 1 0 0 1 2 0z" fill="currentColor"></path><path d="M23 14a1 1 0 1 1-2 0 1 1 0 0 1 2 0z" fill="currentColor"></path><path d="M27 12a1 1 0 1 1-2 0 1 1 0 0 1 2 0z" fill="currentColor"></path><path d="M31 13a1 1 0 1 1-2 0 1 1 0 0 1 2 0z" fill="currentColor"></path><path d="M35 12a1 1 0 1 1-2 0 1 1 0 0 1 2 0z" fill="currentColor"></path><path d="M21 9a1 1 0 1 1-2 0 1 1 0 0 1 2 0z" fill="currentColor"></path><path d="M14 13a1 1 0 1 1-2 0 1 1 0 0 1 2 0z" fill="currentColor"></path><path d="M30 9a1 1 0 1 1-2 0 1 1 0 0 1 2 0z" fill="currentColor"></path><path d="M13 32a1 1 0 1 1-2 0 1 1 0 0 1 2 0z" fill="currentColor"></path><path d="M37 17a1 1 0 1 1-2 0 1 1 0 0 1 2 0z" fill="currentColor"></path><path d="M19 12a1 1 0 1 1-2 0 1 1 0 0 1 2 0z" fill="currentColor"></path><path d="M25 9a1 1 0 1 1-2 0 1 1 0 0 1 2 0z" fill="currentColor"></path><path d="M36 28a1 1 0 1 1-2 0 1 1 0 0 1 2 0z" fill="currentColor"></path><path d="M40 23a1 1 0 1 1-2 0 1 1 0 0 1 2 0z" fill="currentColor"></path><path d="M39 31a1 1 0 1 1-2 0 1 1 0 0 1 2 0z" fill="currentColor"></path><path d="M10 24a1 1 0 1 1-2 0 1 1 0 0 1 2 0z" fill="currentColor"></path><path fill-rule="evenodd" clip-rule="evenodd" d="M37.293 5.293a1 1 0 0 1 1.414 0l1 1a1 1 0 0 1-1.414 1.414l-1-1a1 1 0 0 1 0-1.414z" fill="currentColor"></path><path fill-rule="evenodd" clip-rule="evenodd" d="M42 3a1 1 0 0 1 1 1v2a1 1 0 1 1-2 0V4a1 1 0 0 1 1-1z" fill="currentColor"></path><path fill-rule="evenodd" clip-rule="evenodd" d="M46.707 5.293a1 1 0 0 0-1.414 0l-1 1a1 1 0 0 0 1.414 1.414l1-1a1 1 0 0 0 0-1.414z" fill="currentColor"></path><path fill-rule="evenodd" clip-rule="evenodd" d="M41.01 29.904C38.565 36.945 31.872 42 24 42c-9.941 0-18-8.059-18-18S14.059 6 24 6c6.12 0 11.526 3.054 14.778 7.72V11c0-.15.01-.297.032-.441A19.949 19.949 0 0 0 24 4C12.954 4 4 12.954 4 24s8.954 20 20 20c9 0 16.613-5.946 19.123-14.124a5.123 5.123 0 0 1-2.114.028z" fill="currentColor"></path></g></svg>