<svg viewBox="0 0 480.011 480.011">
	<path d="M445.529,397.832c-9.706-18.363-28.778-29.846-49.548-29.832c-28.142,0.049-51.885,20.955-55.496,48.864
			c-7.463-10.555-19.577-16.841-32.504-16.864h-24V206.8c-0.085-50.6-32.185-95.604-80-112.16V80h48c4.418,0,8-3.582,8-8V22.816
			C259.968,10.221,249.76,0.013,237.165,0h-162.4C62.182,0.031,51.994,10.233,51.981,22.816V72c0,4.418,3.582,8,8,8h48v14.64
			c-47.815,16.556-79.915,61.56-80,112.16V472c0,4.418,3.582,8,8,8h272c18.117-0.072,33.923-12.31,38.528-29.832
			c14.452,27.344,48.334,37.794,75.678,23.342C449.531,459.058,459.981,425.176,445.529,397.832z M67.981,64V22.816
			c0.004-3.763,3.053-6.812,6.816-6.816h162.4c3.75,0.022,6.78,3.066,6.784,6.816V64H67.981z M187.981,80v10.248
			c-7.51-1.481-15.145-2.234-22.8-2.248h-18.4c-7.655,0.014-15.29,0.767-22.8,2.248V80H187.981z M43.981,464v-24h160
			c0.029,8.684,2.914,17.117,8.208,24H43.981z M267.981,464h-24c-13.255,0-24-10.745-24-24s10.745-24,24-24h24V464z M267.981,400
			h-24c-15.886,0.021-30.254,9.44-36.608,24H43.981V256h224V400z M267.981,240h-224v-33.2c0.066-56.747,46.053-102.734,102.8-102.8
			h18.4c56.747,0.066,102.734,46.053,102.8,102.8V240z M307.981,464h-24v-48h24c13.255,0,24,10.745,24,24S321.236,464,307.981,464z
			 M387.981,463.2c-18.611-3.827-31.976-20.199-32-39.2c0.024-19.001,13.389-35.373,32-39.2V463.2z M435.221,431.96
			c-3.196,15.741-15.499,28.044-31.24,31.24v-78.4C425.631,389.196,439.617,410.31,435.221,431.96z" />
	<path d="M75.981,224h16c0.035-30.913,25.087-55.965,56-56v-16C108.237,152.048,76.029,184.256,75.981,224z" />
	<rect x="83.981" y="24" width="16" height="32" />
	<rect x="115.981" y="24" width="16" height="32" />
	<rect x="147.981" y="24" width="16" height="32" />
	<rect x="179.981" y="24" width="16" height="32" />
	<rect x="211.981" y="24" width="16" height="32" />
	<polygon points="171.981,320 171.981,288 139.981,288 139.981,320 107.981,320 107.981,352 139.981,352 139.981,384 171.981,384 
			171.981,352 203.981,352 203.981,320 		" />
</svg>
