<svg width="48" height="48" xmlns="http://www.w3.org/2000/svg" viewBox="0 0 48 48"><g fill="none" class="nc-icon-wrapper"><path fill-rule="evenodd" clip-rule="evenodd" d="M22.892 30.232l-6.062 3.5a4 4 0 0 0 4 6.928l6.062-3.5-4-6.928zM15.83 32a6 6 0 0 0 6 10.392l7.361-4.25a.5.5 0 0 0 .183-.683l-5.5-9.526a.5.5 0 0 0-.683-.183L15.83 32z" fill="currentColor"></path><path fill-rule="evenodd" clip-rule="evenodd" d="M24.874 29.665l6.495-3.75a3.5 3.5 0 0 1 3.5 6.062l-6.495 3.75-3.5-6.062zm5.495-5.482a5.5 5.5 0 1 1 5.5 9.526l-7.794 4.5a.5.5 0 0 1-.683-.183l-5-8.66a.5.5 0 0 1 .183-.683l7.794-4.5z" fill="currentColor"></path><path fill-rule="evenodd" clip-rule="evenodd" d="M29.374 37.46a.5.5 0 0 1-.183.682l-7.361 4.25a6 6 0 0 1-6-10.392l7.361-4.25a.5.5 0 0 1 .683.183l6.495-3.75a5.5 5.5 0 1 1 5.5 9.526l-6.495 3.75zm-4.5-7.795l3.5 6.062 6.495-3.75a3.5 3.5 0 0 0-3.5-6.062l-6.495 3.75zM20.83 40.66a4 4 0 1 1-4-6.928l6.062-3.5 4 6.928-6.062 3.5z" fill="currentColor"></path><path fill-rule="evenodd" clip-rule="evenodd" d="M29.391 17.243a6 6 0 1 0 8.485-8.485 6 6 0 0 0-8.485 8.485zm-1.414 1.414A8 8 0 1 0 39.29 7.343a8 8 0 0 0-11.314 11.314z" fill="currentColor"></path><path fill-rule="evenodd" clip-rule="evenodd" d="M38.053 18.48l-9.9-9.899 1.061-1.06 9.9 9.899-1.06 1.06z" fill="currentColor"></path><path fill-rule="evenodd" clip-rule="evenodd" d="M19.87 22.402l-4.906-11.918-6.59 11.076 11.497.843zM16.815 9.723c-.628-1.524-2.725-1.678-3.568-.261L6.655 20.537a2 2 0 0 0 1.572 3.018l11.497.842a2 2 0 0 0 1.996-2.756L16.814 9.723z" fill="currentColor"></path></g></svg>