<svg height="480" width="480" viewBox="0 0 480.011 480.011"><g fill="currentColor" class="nc-icon-wrapper"><path d="M445.529 397.832A56.001 56.001 0 0 0 395.981 368c-28.142.049-51.885 20.955-55.496 48.864A39.896 39.896 0 0 0 307.981 400h-24V206.8c-.085-50.6-32.185-95.604-80-112.16V80h48a8 8 0 0 0 8-8V22.816C259.968 10.221 249.76.013 237.165 0h-162.4C62.182.031 51.994 10.233 51.981 22.816V72a8 8 0 0 0 8 8h48v14.64c-47.815 16.556-79.915 61.56-80 112.16V472a8 8 0 0 0 8 8h272c18.117-.072 33.923-12.31 38.528-29.832 14.452 27.344 48.334 37.794 75.678 23.342 27.344-14.452 37.794-48.334 23.342-75.678zM67.981 64V22.816A6.823 6.823 0 0 1 74.797 16h162.4a6.824 6.824 0 0 1 6.784 6.816V64h-176zm120 16v10.248a118.965 118.965 0 0 0-22.8-2.248h-18.4c-7.655.014-15.29.767-22.8 2.248V80h64zm-144 384v-24h160a39.583 39.583 0 0 0 8.208 24H43.981zm224 0h-24c-13.255 0-24-10.745-24-24s10.745-24 24-24h24v48zm0-64h-24a39.999 39.999 0 0 0-36.608 24H43.981V256h224v144zm0-160h-224v-33.2c.066-56.747 46.053-102.734 102.8-102.8h18.4c56.747.066 102.734 46.053 102.8 102.8V240zm40 224h-24v-48h24c13.255 0 24 10.745 24 24s-10.745 24-24 24zm80-.8c-18.611-3.827-31.976-20.199-32-39.2.024-19.001 13.389-35.373 32-39.2v78.4zm47.24-31.24a40 40 0 0 1-31.24 31.24v-78.4c21.65 4.396 35.636 25.51 31.24 47.16z"></path><path d="M75.981 224h16c.035-30.913 25.087-55.965 56-56v-16c-39.744.048-71.952 32.256-72 72z"></path><path d="M83.981 24h16v32h-16z"></path><path d="M115.981 24h16v32h-16z"></path><path d="M147.981 24h16v32h-16z"></path><path d="M179.981 24h16v32h-16z"></path><path d="M211.981 24h16v32h-16z"></path><path d="M171.981 320v-32h-32v32h-32v32h32v32h32v-32h32v-32z"></path></g></svg>