<svg width="48" height="48" xmlns="http://www.w3.org/2000/svg" viewBox="0 0 48 48"><g fill="none" class="nc-icon-wrapper"><path fill-rule="evenodd" clip-rule="evenodd" d="M22.996 21.884l-2.37 13.82c-.028.392.088.781.326 1.094l1.922 2.212c1.126.49 1.626.49 2.569 0l1.922-2.212c.238-.313.354-.702.326-1.094L25.31 21.902c-.145-1.997-2.17-2.015-2.314-.018zm2.666 13.825l-1.508-8.743-1.5 8.742 1.411 1.623c.077.026.124.037.149.043l1.448-1.665zm-1.477 1.673l.01-.002a.037.037 0 0 1-.01.002zm.82-15.455l.001-.003v.003zm-1.706.015a.025.025 0 0 1 0 0z" fill="currentColor"></path><path fill-rule="evenodd" clip-rule="evenodd" d="M24 6C14.058 6 6 14.055 6 23.99c0 4.936 1.988 9.406 5.21 12.658l-1.42 1.407A19.923 19.923 0 0 1 4 23.99C4 12.95 12.955 4 24 4s20 8.949 20 19.99a19.928 19.928 0 0 1-6.085 14.357l-1.391-1.437A17.928 17.928 0 0 0 42 23.99C42 14.054 33.942 6 24 6z" fill="currentColor"></path><path fill-rule="evenodd" clip-rule="evenodd" d="M23 11V6h2v5h-2z" fill="currentColor"></path><path fill-rule="evenodd" clip-rule="evenodd" d="M36.707 37.068l-3.648-3.647 1.415-1.414 3.647 3.647-1.414 1.414z" fill="currentColor"></path><path fill-rule="evenodd" clip-rule="evenodd" d="M14.121 14.536L10.586 11 12 9.586l3.536 3.535-1.415 1.415z" fill="currentColor"></path><path fill-rule="evenodd" clip-rule="evenodd" d="M37.684 22h5v2h-5v-2z" fill="currentColor"></path><path fill-rule="evenodd" clip-rule="evenodd" d="M5.053 22h5v2h-5v-2z" fill="currentColor"></path><path fill-rule="evenodd" clip-rule="evenodd" d="M32.586 13l3.647-3.647 1.414 1.414L34 14.414 32.586 13z" fill="currentColor"></path><path fill-rule="evenodd" clip-rule="evenodd" d="M14.197 33.623L10.55 37.27l-1.415-1.414 3.648-3.647 1.414 1.414z" fill="currentColor"></path></g></svg>