<svg height="480" width="480" viewBox="0 0 480 480"><g fill="currentColor" class="nc-icon-wrapper"><path d="M240.065 24c-13.255-.018-24.015 10.713-24.033 23.967A23.998 23.998 0 0 0 219.247 60a23.847 23.847 0 0 0 20.752 12c13.255.018 24.015-10.713 24.033-23.967.019-13.255-10.712-24.015-23.967-24.033zm6.871 27.904a8.224 8.224 0 0 1-13.864 0 7.87 7.87 0 0 1 0-7.92V44a8 8 0 0 1 13.864 0 7.87 7.87 0 0 1 0 7.904z"></path><path d="M408 48h-65.472A24 24 0 0 0 320 32h-21.432A55.888 55.888 0 0 0 248 0h-16a55.888 55.888 0 0 0-50.568 32H160a24 24 0 0 0-22.528 16H72a8 8 0 0 0-8 8v416a8 8 0 0 0 8 8h336a8 8 0 0 0 8-8V56a8 8 0 0 0-8-8zm-256 8a8 8 0 0 1 8-8h26.8a7.999 7.999 0 0 0 7.552-5.376A39.84 39.84 0 0 1 232 16h16a39.84 39.84 0 0 1 37.648 26.624A8 8 0 0 0 293.2 48H320a8 8 0 0 1 8 8v40H152V56zm-8 56h192a8 8 0 0 0 8-8v-8h24v336H112V96h24v8a8 8 0 0 0 8 8zm256 352H80V64h56v16h-32a8 8 0 0 0-8 8v352a8 8 0 0 0 8 8h272a8 8 0 0 0 8-8V88a8 8 0 0 0-8-8h-32V64h56v400z"></path><path d="M216 240h48v-32h32v-48h-32v-32h-48v32h-32v48h32v32zm-16-48v-16h32v-32h16v32h32v16h-32v32h-16v-32h-32z"></path><path d="M184 360h152v16H184z"></path><path d="M184 328h152v16H184z"></path><path d="M184 296h152v16H184z"></path><path d="M144 296h24v16h-24z"></path><path d="M144 360h24v16h-24z"></path><path d="M144 328h24v16h-24z"></path></g></svg>