<svg width="48" height="48" xmlns="http://www.w3.org/2000/svg" viewBox="0 0 48 48"><g fill="none" class="nc-icon-wrapper"><path fill-rule="evenodd" clip-rule="evenodd" d="M32 9a3 3 0 0 1 3-3h4a3 3 0 0 1 3 3v30a3 3 0 0 1-3 3h-4a3 3 0 0 1-3-3V9zm3-1a1 1 0 0 0-1 1v30a1 1 0 0 0 1 1h4a1 1 0 0 0 1-1V9a1 1 0 0 0-1-1h-4z" fill="currentColor"></path><path fill-rule="evenodd" clip-rule="evenodd" d="M19 21a3 3 0 0 1 3-3h4a3 3 0 0 1 3 3v18a3 3 0 0 1-3 3h-4a3 3 0 0 1-3-3V21zm3-1a1 1 0 0 0-1 1v18a1 1 0 0 0 1 1h4a1 1 0 0 0 1-1V21a1 1 0 0 0-1-1h-4z" fill="currentColor"></path><path fill-rule="evenodd" clip-rule="evenodd" d="M6 33a3 3 0 0 1 3-3h4a3 3 0 0 1 3 3v6a3 3 0 0 1-3 3H9a3 3 0 0 1-3-3v-6zm3-1a1 1 0 0 0-1 1v6a1 1 0 0 0 1 1h4a1 1 0 0 0 1-1v-6a1 1 0 0 0-1-1H9z" fill="currentColor"></path><path fill-rule="evenodd" clip-rule="evenodd" d="M14.364 31.636L8 38l-1.414-1.414 6.364-6.364 1.414 1.414z" fill="currentColor"></path><path fill-rule="evenodd" clip-rule="evenodd" d="M15.682 35.318l-5.89 5.89-1.413-1.415 5.889-5.89 1.414 1.415z" fill="currentColor"></path><path fill-rule="evenodd" clip-rule="evenodd" d="M28.425 30.575L21 38l-1.414-1.414 7.424-7.425 1.415 1.414z" fill="currentColor"></path><path fill-rule="evenodd" clip-rule="evenodd" d="M28.425 25.575L21 33l-1.414-1.414 7.424-7.425 1.415 1.414z" fill="currentColor"></path><path fill-rule="evenodd" clip-rule="evenodd" d="M28.425 20.575L21 28l-1.414-1.414 7.424-7.425 1.415 1.414z" fill="currentColor"></path><path fill-rule="evenodd" clip-rule="evenodd" d="M24.535 19.464L21 23l-1.414-1.414 3.535-3.536 1.415 1.414z" fill="currentColor"></path><path fill-rule="evenodd" clip-rule="evenodd" d="M28.682 35.318l-6.193 6.193-1.414-1.414 6.193-6.193 1.414 1.414z" fill="currentColor"></path></g></svg>