<svg xmlns="http://www.w3.org/2000/svg" height="479" width="479" viewBox="0 0 479.999 479.999">
	<g fill="currentColor" class="nc-icon-wrapper">
		<path d="M71.999 104h16c.04-30.911 25.089-55.96 56-56V32c-39.746.044-71.955 32.254-72 72z">
		</path>
		<path d="M439.591 344c-4.21-70.359-64.66-123.983-135.019-119.773a127.623 127.623 0 0 0-56.573 17.093V104c0-57.438-46.562-104-104-104s-104 46.562-104 104v272c-.047 57.389 46.437 103.95 103.826 103.998a103.91 103.91 0 0 0 79.022-36.334c50.484 49.283 131.361 48.31 180.644-2.174a127.746 127.746 0 0 0 36.1-81.49h.408v-16h-.408zM55.999 104c.057-48.577 39.423-87.943 88-88 48.53-.071 87.929 39.214 88 87.744V232h-176V104zm88 360c-48.577-.057-87.943-39.423-88-88V248h176v4.24A127.719 127.719 0 0 0 184.407 344h-.408v16h.408a127.192 127.192 0 0 0 27.592 71.68 88.238 88.238 0 0 1-68 32.32zm168 0c-58.725-.071-107.451-45.43-111.72-104h223.44c-4.268 58.57-52.995 103.929-111.72 104zm-111.72-120c4.371-61.701 57.933-108.177 119.635-103.805 55.616 3.94 99.865 48.189 103.805 103.805h-223.44z">
		</path>
		<path d="M71.999 120h16v16h-16z">
		</path>
	</g>
</svg>
