<svg width="47" height="48" xmlns="http://www.w3.org/2000/svg" viewBox="0 0 47 48"><g fill="none" class="nc-icon-wrapper"><path fill-rule="evenodd" clip-rule="evenodd" d="M37.285 25.615l-.166-.353c-.713-1.524-.92-3.138-.982-4.57a37.926 37.926 0 0 1-.02-2.09l.004-.267c.007-.566.013-1.08.002-1.575a10.153 10.153 0 0 0-1.768-5.474 12.078 12.078 0 0 0-4.8-3.584l-.033-.014-.033-.015a19.633 19.633 0 0 0-8.157-1.762h-.002a13.477 13.477 0 0 0-9.44 3.834A12.906 12.906 0 0 0 8 18.957c0 2.044.593 4.376 1.625 6.533 1.034 2.163 2.436 3.999 3.912 5.137l.78.6v8.915c.324.403.955.9 1.902 1.33 1.158.528 2.323.741 2.997.686l.081-.006h.082c1.956 0 2.871-.553 3.265-.89a1.97 1.97 0 0 0 .309-.326V35.4l2.497.646h.003l.013.004.079.018a17.387 17.387 0 0 0 1.613.277c1.076.133 2.45.204 3.776.01 1.338-.197 2.452-.636 3.219-1.37.714-.683 1.342-1.827 1.342-3.923v-1.71l1.682-.265h.001l.008-.001.026-.005.04-.008a6.075 6.075 0 0 0 1.16-.35c.321-.136.553-.277.69-.397a.803.803 0 0 0 .06-.058 1.291 1.291 0 0 0-.094-.342c-.11-.278-.296-.6-.535-.932a8.617 8.617 0 0 0-.901-1.054l-.034-.033a1.703 1.703 0 0 0-.021-.02l-.008-.008-.002-.001-.282-.263zM24.953 37.983s.802.207 2 .353c3.54.43 10.542.319 10.542-7.274 0 0 3.303-.52 3.638-2.408.334-1.887-2.202-4.24-2.202-4.24-.863-1.843-.836-4.013-.81-6.05.007-.564.014-1.117.002-1.65a12.154 12.154 0 0 0-2.16-6.62 14.075 14.075 0 0 0-5.645-4.24A21.632 21.632 0 0 0 21.33 3.91a15.478 15.478 0 0 0-10.84 4.407A14.906 14.906 0 0 0 6 18.957c0 4.8 2.749 10.505 6.316 13.254v8.494c1.013 2.123 4.832 3.629 7.063 3.447 4.738 0 5.574-2.736 5.574-2.736v-3.433z" fill="currentColor"></path><path fill-rule="evenodd" clip-rule="evenodd" d="M27.88 17.1l1.103.72c.238.156.513.257.802.295l1.731-.613c.229-.246.381-.544.447-.859.084-.401.024-.82-.173-1.19a1.91 1.91 0 0 0-.946-.851l-.945-.4-.227-1a1.72 1.72 0 0 0-.428-.798l-1.727-.588h-.979l-.597-.849a1.876 1.876 0 0 0-.97-.701l-3.816-.259c-.381.055-.732.221-1.005.469l-.773.7-1.017-.233a1.933 1.933 0 0 0-1.491.242 1.783 1.783 0 0 0-.671.762l-.23.502-2.11 1.454c-.135.25-.204.525-.204.802v.032c-.002.135.016.27.055.4l.293.995-.644.812c-.238.3-.36.662-.358 1.027v.015c0 .428.167.85.484 1.176l.502.517.057.718c.025.31.136.612.329.874.192.262.46.475.779.608l.14.059.13.079c.999.61 1.85 1.432 2.486 2.41.318.49.543.992.705 1.487h.504v-1.978h2m-6.737-.212a5.821 5.821 0 0 1 1.851 1.794c.472.725.666 1.544.77 2.396h4.116v-2m-6.737-2.19a3.853 3.853 0 0 1-1.619-1.268 3.703 3.703 0 0 1-.71-1.9 3.685 3.685 0 0 1-.26-4.853 3.346 3.346 0 0 1-.136-.995 3.686 3.686 0 0 1 .753-2.234l1.972-1.359a3.782 3.782 0 0 1 1.42-1.62 3.933 3.933 0 0 1 3.008-.501A3.907 3.907 0 0 1 21.116 8l4.189.284a3.885 3.885 0 0 1 2.27 1.532h.273l2.42.824a3.74 3.74 0 0 1 1.354 2.12 3.91 3.91 0 0 1 1.93 1.75c.42.781.55 1.679.369 2.542-.18.864-.66 1.64-1.359 2.201l-2.48.878a3.933 3.933 0 0 1-2.193-.636c-.234.155-.35.284-.44.385-.155.175-.237.266-.726.266a3.917 3.917 0 0 1-2.166-.651c-.449.462-.998.82-1.608 1.047m3.446-2.424l.009-.007c.114-.096.24-.19.378-.282l1.098-.73" fill="currentColor"></path><path d="M34 23.5a1.5 1.5 0 1 1-3 0 1.5 1.5 0 0 1 3 0z" fill="currentColor"></path><path fill-rule="evenodd" clip-rule="evenodd" d="M21 32h-4v-2h4v2z" fill="currentColor"></path><path fill-rule="evenodd" clip-rule="evenodd" d="M21 36h-4v-2h4v2z" fill="currentColor"></path><path fill-rule="evenodd" clip-rule="evenodd" d="M21 40h-4v-2h4v2z" fill="currentColor"></path></g></svg>