<svg width="48" height="48" xmlns="http://www.w3.org/2000/svg" viewBox="0 0 48 48"><g fill="none" class="nc-icon-wrapper"><path fill-rule="evenodd" clip-rule="evenodd" d="M23.306 40c.59-.98.926-2.123.926-3.346 0-3.606-2.948-6.554-6.616-6.554-3.668 0-6.616 2.948-6.616 6.554 0 1.223.337 2.366.926 3.346h11.38zm1.036 2a8.48 8.48 0 0 0 1.89-5.346c0-4.725-3.857-8.554-8.616-8.554C12.858 28.1 9 31.93 9 36.654A8.48 8.48 0 0 0 10.89 42h13.452z" fill="currentColor"></path><path fill-rule="evenodd" clip-rule="evenodd" d="M28.58 19.275l-4.523-7.777a1.008 1.008 0 0 0-1.37-.367l-4.122 2.363a.993.993 0 0 0-.365 1.361l4.523 7.777c.277.478.891.642 1.37.367l4.122-2.362a.992.992 0 0 0 .365-1.362zm-2.788-8.771a3.023 3.023 0 0 0-4.11-1.102l-4.122 2.363a2.977 2.977 0 0 0-1.095 4.085l4.523 7.777a3.023 3.023 0 0 0 4.11 1.101l4.122-2.362a2.977 2.977 0 0 0 1.095-4.085l-4.523-7.777z" fill="currentColor"></path><path d="M19.86 8.246a1.619 1.619 0 0 1 2.201.59 1.595 1.595 0 0 1-.586 2.188l-2.808 1.61a1.619 1.619 0 0 1-2.202-.59 1.595 1.595 0 0 1 .586-2.188l2.809-1.61z" fill="currentColor"></path><path fill-rule="evenodd" clip-rule="evenodd" d="M18.164 11.77l2.808-1.61a.602.602 0 0 0 .222-.827.611.611 0 0 0-.832-.222l-2.808 1.61a.602.602 0 0 0-.221.825c.168.29.54.39.831.223zm3.897-2.934a1.619 1.619 0 0 0-2.201-.59l-2.809 1.61a1.595 1.595 0 0 0-.586 2.188 1.619 1.619 0 0 0 2.202.59l2.808-1.61a1.595 1.595 0 0 0 .586-2.188z" fill="currentColor"></path><path fill-rule="evenodd" clip-rule="evenodd" d="M17.686 10.723l-1.91-3.421 2.63-1.446 1.909 3.42-2.63 1.447z" fill="currentColor"></path><path fill-rule="evenodd" clip-rule="evenodd" d="M26.375 25.523l-1.212-2.342 2.674-1.362 1.212 2.342-2.674 1.362z" fill="currentColor"></path><path fill-rule="evenodd" clip-rule="evenodd" d="M38.076 27.032l-16.58 9.336-.992-1.736 16.58-9.336.992 1.736z" fill="currentColor"></path><path fill-rule="evenodd" clip-rule="evenodd" d="M20.924 41a1 1 0 0 1 1-1h15.232a1 1 0 1 1 0 2H21.924a1 1 0 0 1-1-1z" fill="currentColor"></path><path fill-rule="evenodd" clip-rule="evenodd" d="M11.001 22.705c1.273-2.527 3.623-4.523 6.677-6.177l.953 1.76c-2.87 1.553-4.827 3.3-5.843 5.317-1 1.984-1.159 4.372-.148 7.384l-1.896.637c-1.142-3.403-1.032-6.361.257-8.921z" fill="currentColor"></path></g></svg>