<svg viewBox="0 0 480 480">
	<path d="M312,432v-40.72c77.038-6.29,136.273-70.786,136-148.08v-86C447.916,83.67,388.33,24.084,314.8,24H184V0H72v96h24v56h8v48
			h48v-48h8V96h24V72h130.8c47.035,0.049,85.151,38.165,85.2,85.2v86c-0.082,54.648-43.673,99.289-98.304,100.672
			C291.25,328.959,274.207,320.056,256,320h-32c-13.463,0.039-26.463,4.913-36.632,13.736C165.579,320.773,152.162,297.353,152,272
			v-8h88v-48H16v48h88v8c0.134,44.442,24.737,85.196,64,106.016V432H0v48h480v-48H312z M136,184h-16v-32h16V184z M144,136h-32V96h32
			V136z M168,80H88V16h80V80z M416,243.2v-86C415.934,101.336,370.664,56.066,314.8,56H184V40h130.8
			c64.697,0.075,117.125,52.503,117.2,117.2v86c0.277,68.494-51.799,125.86-120,132.192c0-0.8-0.152-1.536-0.192-2.312
			c-0.088-1.72-0.184-3.448-0.424-5.144c-0.144-0.976-0.392-1.928-0.584-2.896c-0.304-1.552-0.624-3.104-1.056-4.616
			c-0.088-0.288-0.12-0.592-0.208-0.88C369.765,354.117,415.925,303.673,416,243.2z M32,248v-16h192v16H32z M120,272v-8h16v8
			c0.175,29.997,15.533,57.864,40.8,74.032c-0.408,0.656-0.888,1.288-1.248,1.944c-2.349,4.043-4.182,8.365-5.456,12.864
			C139.083,341.954,120.112,308.31,120,272z M464,464H16v-16h168v-72c0-0.736,0-1.416,0.072-2.4
			c0.338-6.263,2.194-12.35,5.408-17.736c1.375-2.459,3.049-4.737,4.984-6.784c7.581-8.301,18.294-13.045,29.536-13.08h32
			c14.298,0.026,27.497,7.673,34.632,20.064c3.562,6.037,5.417,12.927,5.368,19.936v72h168V464z" />
	<path d="M240,344c-17.673,0-32,14.327-32,32c0,17.673,14.327,32,32,32c17.673,0,32-14.327,32-32C272,358.327,257.673,344,240,344z
			 M240,392c-8.837,0-16-7.163-16-16s7.163-16,16-16s16,7.163,16,16S248.837,392,240,392z" />
</svg>
