<svg xmlns="http://www.w3.org/2000/svg" height="480" width="480" viewBox="0 0 480 480">
	<g fill="currentColor" class="nc-icon-wrapper">
		<path d="M312 432v-40.72c77.038-6.29 136.273-70.786 136-148.08v-86C447.916 83.67 388.33 24.084 314.8 24H184V0H72v96h24v56h8v48h48v-48h8V96h24V72h130.8c47.035.049 85.151 38.165 85.2 85.2v86c-.082 54.648-43.673 99.289-98.304 100.672A56 56 0 0 0 256 320h-32a56.143 56.143 0 0 0-36.632 13.736A72.374 72.374 0 0 1 152 272v-8h88v-48H16v48h88v8c.134 44.442 24.737 85.196 64 106.016V432H0v48h480v-48H312zM136 184h-16v-32h16v32zm8-48h-32V96h32v40zm24-56H88V16h80v64zm248 163.2v-86c-.066-55.864-45.336-101.134-101.2-101.2H184V40h130.8c64.697.075 117.125 52.503 117.2 117.2v86c.277 68.494-51.799 125.86-120 132.192 0-.8-.152-1.536-.192-2.312-.088-1.72-.184-3.448-.424-5.144-.144-.976-.392-1.928-.584-2.896-.304-1.552-.624-3.104-1.056-4.616-.088-.288-.12-.592-.208-.88C369.765 354.117 415.925 303.673 416 243.2zM32 248v-16h192v16H32zm88 24v-8h16v8a88.505 88.505 0 0 0 40.8 74.032c-.408.656-.888 1.288-1.248 1.944a55.955 55.955 0 0 0-5.456 12.864A104.394 104.394 0 0 1 120 272zm344 192H16v-16h168v-72c0-.736 0-1.416.072-2.4a38.68 38.68 0 0 1 5.408-17.736 34.106 34.106 0 0 1 4.984-6.784A40.169 40.169 0 0 1 224 336h32a40.047 40.047 0 0 1 34.632 20.064A38.697 38.697 0 0 1 296 376v72h168v16z">
		</path>
		<path d="M240 344c-17.673 0-32 14.327-32 32 0 17.673 14.327 32 32 32 17.673 0 32-14.327 32-32 0-17.673-14.327-32-32-32zm0 48c-8.837 0-16-7.163-16-16s7.163-16 16-16 16 7.163 16 16-7.163 16-16 16z">
		</path>
	</g>
</svg>
