<svg width="48" height="48" xmlns="http://www.w3.org/2000/svg" viewBox="0 0 48 48"><g fill="none" class="nc-icon-wrapper"><path fill-rule="evenodd" clip-rule="evenodd" d="M14.207 19.403C13.55 20.06 13 21.02 13 22.292c0 1.872.612 3.125 1.264 3.897.137.162.275.302.411.424v-5.862h2v19.614a.64.64 0 0 0 .635.635.64.64 0 0 0 .634-.635v-9.172h5.27v9.172a.64.64 0 0 0 .634.635.64.64 0 0 0 .635-.635V19.751h9.172a.64.64 0 0 0 .635-.635.64.64 0 0 0-.635-.635h-17.98l-.005.002a1.81 1.81 0 0 0-.484.189c-.298.157-.648.4-.979.731zm.468 9.577a4.304 4.304 0 0 1-.459-.233 5.808 5.808 0 0 1-1.48-1.267C11.776 26.343 11 24.633 11 22.292c0-1.903.838-3.349 1.794-4.304a6.141 6.141 0 0 1 1.463-1.087c.444-.233.956-.42 1.418-.42h17.98a2.64 2.64 0 0 1 2.635 2.635 2.64 2.64 0 0 1-2.635 2.635h-7.172v18.614A2.64 2.64 0 0 1 23.848 43a2.64 2.64 0 0 1-2.635-2.635v-7.172h-1.269v7.172A2.64 2.64 0 0 1 17.31 43a2.64 2.64 0 0 1-2.635-2.635V28.98z" fill="currentColor"></path><path d="M34 11v30h-2V11h2z" fill="currentColor"></path><path d="M26 15c0-1.657 3.134-3 7-3s7 1.343 7 3c-5-1.5-8.5-1.5-14 0z" fill="currentColor"></path><path fill-rule="evenodd" clip-rule="evenodd" d="M26 11h-1.455c.195.489.303 1.021.303 1.578 0 2.35-1.919 4.269-4.27 4.269a4.279 4.279 0 0 1-4.268-4.27c0-.556.107-1.088.303-1.577H15c0-2.761 2.462-5 5.5-5S26 8.239 26 11zm-3.796 0h-3.25c-.398.41-.644.967-.644 1.578a2.279 2.279 0 0 0 2.269 2.269 2.279 2.279 0 0 0 2.269-2.27c0-.61-.246-1.168-.644-1.577zM20.5 10a1.5 1.5 0 1 0 0-3 1.5 1.5 0 0 0 0 3z" fill="currentColor"></path></g></svg>