<svg width="48" height="48" xmlns="http://www.w3.org/2000/svg" viewBox="0 0 48 48"><g fill="none" class="nc-icon-wrapper"><path fill-rule="evenodd" clip-rule="evenodd" d="M4 13a3 3 0 0 1 3-3h22a3 3 0 0 1 3 3v6h3.718a3 3 0 0 1 2.035.796l5.282 4.875A3 3 0 0 1 44 26.876V35h-4v-2h2v-6.124a1 1 0 0 0-.322-.735l-5.282-4.876a1 1 0 0 0-.678-.265H32v12h2v2H23v-2h7V13a1 1 0 0 0-1-1H7a1 1 0 0 0-1 1v20h3v2H4V13zm10 20h3v2h-3v-2z" fill="currentColor"></path><path fill-rule="evenodd" clip-rule="evenodd" d="M11 36a2 2 0 1 0 0-4 2 2 0 0 0 0 4zm0 2a4 4 0 1 0 0-8 4 4 0 0 0 0 8z" fill="currentColor"></path><path fill-rule="evenodd" clip-rule="evenodd" d="M20 36a2 2 0 1 0 0-4 2 2 0 0 0 0 4zm0 2a4 4 0 1 0 0-8 4 4 0 0 0 0 8z" fill="currentColor"></path><path fill-rule="evenodd" clip-rule="evenodd" d="M37 36a2 2 0 1 0 0-4 2 2 0 0 0 0 4zm0 2a4 4 0 1 0 0-8 4 4 0 0 0 0 8z" fill="currentColor"></path><path fill-rule="evenodd" clip-rule="evenodd" d="M43 28H5v-2h38v2z" fill="currentColor"></path><path fill-rule="evenodd" clip-rule="evenodd" d="M18 14a1 1 0 0 1 1 1v8a1 1 0 1 1-2 0v-8a1 1 0 0 1 1-1z" fill="currentColor"></path><path fill-rule="evenodd" clip-rule="evenodd" d="M13 19a1 1 0 0 1 1-1h8a1 1 0 1 1 0 2h-8a1 1 0 0 1-1-1z" fill="currentColor"></path></g></svg>