<svg width="48" height="48" xmlns="http://www.w3.org/2000/svg" viewBox="0 0 48 48"><g fill="none" class="nc-icon-wrapper"><path fill-rule="evenodd" clip-rule="evenodd" d="M25 5.009a1 1 0 1 0-2 0v7.322c-.923.623-1.717 2.09-2.256 4.069l-.45.078-2.44-2.464v-3.625a1 1 0 0 0-.29-.703L13.57 5.65a1 1 0 1 0-1.421 1.407l3.706 3.743v3.625a1 1 0 0 0 .29.704l1.75 1.768L6.116 18.95c-.484 2.322.29 6.968 7.265 6.968.212 0 .42-.006.622-.018L12.3 27.05a1 1 0 0 0-.432.971l.878 6.11-3.475 2.34a1 1 0 1 0 1.117 1.66l3.996-2.69a1 1 0 0 0 .431-.972l-.878-6.111 3.106-2.091-.9.908a1 1 0 0 0-.239 1.017l2.54 7.698-3.083 6.683a1 1 0 1 0 1.816.838l3.249-7.041a1 1 0 0 0 .042-.733l-2.472-7.49 2.219-2.241C20.754 30.033 22.245 33 24 33c1.759 0 3.252-2.98 3.788-7.12l2.244 2.266-2.472 7.49a1 1 0 0 0 .042.732l3.248 7.042a1 1 0 0 0 1.816-.838l-3.083-6.683 2.54-7.698a1 1 0 0 0-.239-1.017l-.9-.909 3.106 2.092-.878 6.11a1 1 0 0 0 .431.972l3.996 2.69a1 1 0 1 0 1.117-1.658l-3.475-2.34.878-6.11a1 1 0 0 0-.431-.973l-1.704-1.147c.203.012.41.018.622.018 6.974 0 7.75-4.646 7.265-6.968l-11.777-2.054 1.75-1.768a1 1 0 0 0 .29-.704v-3.624l3.706-3.744a1 1 0 1 0-1.421-1.407l-3.996 4.036a1 1 0 0 0-.29.703v3.625l-2.44 2.464-.478-.083c-.54-1.976-1.333-3.441-2.255-4.064V5.009zM19.73 18.75l-.122-.123-11.574 2.018c.067.519.24 1.056.562 1.522.536.774 1.767 1.751 4.785 1.751 2.735 0 4.312-1.217 5.292-2.74.488-.759.83-1.604 1.057-2.428zm8.567 0c.227.824.57 1.67 1.057 2.427.98 1.524 2.557 2.741 5.292 2.741 3.018 0 4.249-.977 4.785-1.751a3.456 3.456 0 0 0 .563-1.521l-11.575-2.019-.122.123zM26 22.5c0 2.72-.424 5.093-1.04 6.713-.312.816-.634 1.34-.89 1.623-.025.03-.049.054-.07.075a1.853 1.853 0 0 1-.07-.075c-.256-.283-.578-.806-.89-1.623C22.425 27.593 22 25.22 22 22.5s.424-5.093 1.04-6.713c.312-.817.634-1.34.89-1.623.025-.03.049-.054.07-.075.021.021.045.046.07.075.256.283.578.806.89 1.623.616 1.62 1.04 3.993 1.04 6.713zm-2.142 8.525l.01-.005a.04.04 0 0 1-.01.005zm.273-.005a.04.04 0 0 1 .011.005.04.04 0 0 1-.01-.005z" fill="currentColor"></path></g></svg>