<svg width="48" height="48" xmlns="http://www.w3.org/2000/svg" viewBox="0 0 48 48"><g fill="none" class="nc-icon-wrapper"><path fill-rule="evenodd" clip-rule="evenodd" d="M38 8.264a3 3 0 1 1-6 0 3 3 0 0 1 6 0zm-.357 4.245a5 5 0 1 0-5.283.002H30.5a2.5 2.5 0 0 0-2.152 1.227l-4.315 7.296-4.316-7.296a2.5 2.5 0 0 0-2.151-1.227h-1.86a5 5 0 1 0-5.283-.002H7.675c-.462 0-.974.186-1.418.42-.475.248-.988.612-1.463 1.087C3.838 14.97 3 16.416 3 18.319c0 2.341.776 4.052 1.737 5.188.475.563.993.982 1.48 1.267.147.086.3.166.458.234v17.385a2.64 2.64 0 0 0 2.635 2.634 2.64 2.64 0 0 0 2.634-2.634V31.22h2.27v11.173a2.64 2.64 0 0 0 2.634 2.634 2.64 2.64 0 0 0 2.635-2.634v-19.23l2.43 4.11a2.5 2.5 0 0 0 4.525-.484l2.145-3.627v19.23a2.64 2.64 0 0 0 2.635 2.635 2.64 2.64 0 0 0 2.634-2.634V31.22h2.27v11.173a2.64 2.64 0 0 0 2.634 2.634 2.64 2.64 0 0 0 2.635-2.634V25.008c.157-.068.311-.148.458-.234a5.807 5.807 0 0 0 1.48-1.267c.96-1.136 1.737-2.847 1.737-5.188 0-1.903-.838-3.348-1.794-4.303a6.138 6.138 0 0 0-1.463-1.088c-.444-.233-.956-.42-1.418-.42h-2.748zM25.776 23.98l2.946-4.982 1.861-3.146v26.541a.64.64 0 0 0 .635.634.64.64 0 0 0 .634-.634V29.22h6.27v13.173a.64.64 0 0 0 .634.634.64.64 0 0 0 .635-.634V23.244h.002v-6.76h2v6.154a4.27 4.27 0 0 0 .408-.422c.653-.772 1.265-2.024 1.265-3.897 0-1.273-.55-2.232-1.208-2.888a4.147 4.147 0 0 0-.978-.732c-.287-.15-.454-.183-.485-.189-.005 0-.006-.001-.004-.001h-7.827l-.074.001H30.5a.5.5 0 0 0-.43.246l-4.875 8.242.58.982zM15.502 14.51l.073.001h1.991a.5.5 0 0 1 .43.246l6.5 10.99a.5.5 0 1 1-.86.509l-4.293-7.257-1.86-3.146v26.541a.64.64 0 0 1-.635.634.64.64 0 0 1-.635-.634V29.22H9.944v13.173a.64.64 0 0 1-.634.634.64.64 0 0 1-.635-.634V23.244h-.002v-6.76h-2v6.154a4.258 4.258 0 0 1-.409-.422C5.612 21.445 5 20.192 5 18.32c0-1.273.55-2.232 1.207-2.888.331-.331.68-.575.98-.732.286-.15.453-.183.484-.189l.004-.001h7.827zm-2.436-3.245a3 3 0 1 1 0-6 3 3 0 0 1 0 6z" fill="currentColor"></path></g></svg>