<svg width="48" height="48" xmlns="http://www.w3.org/2000/svg" viewBox="0 0 48 48"><g fill="none" class="nc-icon-wrapper"><path fill-rule="evenodd" clip-rule="evenodd" d="M21 8a3 3 0 1 1 4.453 2.626c.104.405.04.852-.217 1.224l-1.485 2.16H29.392h.004c.031.007.198.04.485.19.298.157.648.4.979.731.657.657 1.207 1.616 1.207 2.889 0 1.872-.612 3.125-1.265 3.897a3.816 3.816 0 0 1-.962.832c-.208.122-.35.168-.413.186H25.5a.5.5 0 1 1 0-1H30v-2h-4.5a2.5 2.5 0 0 0 0 5h2.89v18.638a.64.64 0 0 1-.634.634.64.64 0 0 1-.634-.634V29.72h-6.27v13.652a.64.64 0 0 1-.634.634.64.64 0 0 1-.635-.634V20.038a1.5 1.5 0 0 1-2 .15v23.185a2.64 2.64 0 0 0 2.635 2.634 2.64 2.64 0 0 0 2.634-2.634V31.72h2.27v11.652a2.64 2.64 0 0 0 2.634 2.634 2.64 2.64 0 0 0 2.635-2.634V24.508c.157-.068.311-.147.458-.233a5.812 5.812 0 0 0 1.48-1.267c.96-1.137 1.737-2.847 1.737-5.188 0-1.903-.838-3.349-1.794-4.304a6.138 6.138 0 0 0-1.463-1.087c-.444-.233-.956-.42-1.418-.42H26.988a5 5 0 1 0-5.932.032 3.952 3.952 0 0 0-2.393 1.225c.241-.162.53-.255.837-.255h1.297l1.672-2.43A2.998 2.998 0 0 1 21 8zm-2.949 6.123a4.012 4.012 0 0 0-.468 1.886v.208l.453-2.032.015-.062z" fill="currentColor"></path><path fill-rule="evenodd" clip-rule="evenodd" d="M25.416 8.94a2.5 2.5 0 0 0-3.476.644l-1.669 2.427h-.77a2.5 2.5 0 0 0-2.441 1.957l-1 4.489a2.5 2.5 0 0 0 4.5 1.96l5.5-8a2.5 2.5 0 0 0-.643-3.477zm-1.828 1.777a.5.5 0 0 1 .824.566l-5.5 8a.5.5 0 0 1-.9-.392l1-4.489a.5.5 0 0 1 .488-.391h1.823l2.265-3.294z" fill="currentColor"></path></g></svg>