<svg width="48" height="48" xmlns="http://www.w3.org/2000/svg" viewBox="0 0 48 48"><g fill="none" class="nc-icon-wrapper"><path d="M22.384 16.736a2.263 2.263 0 0 1-.729-1.616 2.242 2.242 0 0 1 .67-1.64 2.291 2.291 0 0 1 1.66-.663 2.308 2.308 0 0 1 1.634.72 2.25 2.25 0 0 1-.056 3.144 2.304 2.304 0 0 1-3.18.055zM13.747 5l2.16 2.135a11.254 11.254 0 0 0-3.352 8.003c0 3.002 1.206 5.88 3.352 8.003l-2.16 2.135a14.327 14.327 0 0 1-3.143-4.651 14.198 14.198 0 0 1 0-10.974A14.327 14.327 0 0 1 13.747 5zm20.506 0a14.327 14.327 0 0 1 3.143 4.651 14.198 14.198 0 0 1 0 10.974 14.327 14.327 0 0 1-3.143 4.651l-2.16-2.135a11.255 11.255 0 0 0 3.352-8.003c0-3.002-1.206-5.88-3.352-8.003L34.253 5zM18.065 9.268l2.158 2.133a5.28 5.28 0 0 0-1.158 1.714 5.23 5.23 0 0 0 0 4.043 5.28 5.28 0 0 0 1.158 1.713l-2.158 2.134a8.253 8.253 0 0 1-2.459-5.868c0-2.202.885-4.313 2.459-5.87zm11.87 0a8.253 8.253 0 0 1 2.459 5.868 8.253 8.253 0 0 1-2.459 5.87l-2.158-2.134a5.28 5.28 0 0 0 1.158-1.714 5.23 5.23 0 0 0 0-4.043 5.28 5.28 0 0 0-1.158-1.713l2.158-2.134z" fill="currentColor"></path><path fill-rule="evenodd" clip-rule="evenodd" d="M36 28.5H12a1.5 1.5 0 0 0-1.5 1.5v10a1.5 1.5 0 0 0 1.5 1.5h24a1.5 1.5 0 0 0 1.5-1.5V30a1.5 1.5 0 0 0-1.5-1.5zM12 27a3 3 0 0 0-3 3v10a3 3 0 0 0 3 3h24a3 3 0 0 0 3-3V30a3 3 0 0 0-3-3H12z" fill="currentColor"></path><path d="M21.862 36.254h1.128v1.593h-1.128V40h-1.975v-2.153h-4.081l-.09-1.245 4.15-6.555h1.996v6.207zm-4.176 0h2.2V32.74l-.13.226-2.07 3.288z" fill="currentColor"></path><path d="M32.144 38.742c-.37.442-.891.786-1.566 1.032-.674.242-1.422.363-2.242.363-.861 0-1.618-.187-2.27-.56-.647-.38-1.148-.926-1.504-1.642-.35-.715-.53-1.556-.54-2.522v-.677c0-.993.167-1.852.5-2.577.337-.729.82-1.285 1.449-1.668.633-.387 1.374-.58 2.221-.58 1.18 0 2.104.282 2.769.847.665.56 1.06 1.378 1.183 2.454h-1.997c-.09-.57-.294-.987-.608-1.251-.31-.264-.738-.396-1.285-.396-.698 0-1.228.261-1.593.786-.364.524-.55 1.303-.554 2.337v.636c0 1.044.199 1.832.595 2.366.396.533.978.8 1.743.8.77 0 1.32-.165 1.648-.493v-1.716h-1.866v-1.51h3.917v3.971z" fill="currentColor"></path></g></svg>