<svg width="48" height="48" xmlns="http://www.w3.org/2000/svg" viewBox="0 0 48 48"><g fill="none" class="nc-icon-wrapper"><path d="M22.384 16.807a2.263 2.263 0 0 1-.729-1.616 2.243 2.243 0 0 1 .67-1.64 2.291 2.291 0 0 1 1.66-.663 2.31 2.31 0 0 1 1.634.72 2.25 2.25 0 0 1-.056 3.144 2.304 2.304 0 0 1-3.18.056zM13.747 5.071l2.16 2.136a11.254 11.254 0 0 0-3.352 8.002c0 3.002 1.206 5.88 3.352 8.003l-2.16 2.135a14.327 14.327 0 0 1-3.143-4.651 14.198 14.198 0 0 1 0-10.973 14.327 14.327 0 0 1 3.143-4.652zm20.506 0a14.327 14.327 0 0 1 3.143 4.652 14.198 14.198 0 0 1 0 10.973 14.327 14.327 0 0 1-3.143 4.651l-2.16-2.135a11.254 11.254 0 0 0 3.352-8.003c0-3.001-1.206-5.88-3.352-8.002l2.16-2.136zM18.065 9.34l2.158 2.134a5.28 5.28 0 0 0-1.158 1.713 5.23 5.23 0 0 0 0 4.043 5.28 5.28 0 0 0 1.158 1.714l-2.158 2.134a8.253 8.253 0 0 1-2.459-5.87c0-2.2.885-4.312 2.459-5.868zm11.87 0a8.253 8.253 0 0 1 2.459 5.869 8.253 8.253 0 0 1-2.459 5.869l-2.158-2.134a5.28 5.28 0 0 0 1.158-1.714 5.23 5.23 0 0 0 0-4.043 5.28 5.28 0 0 0-1.158-1.713l2.158-2.134z" fill="currentColor"></path><path fill-rule="evenodd" clip-rule="evenodd" d="M36 28.571H12a1.5 1.5 0 0 0-1.5 1.5v10a1.5 1.5 0 0 0 1.5 1.5h24a1.5 1.5 0 0 0 1.5-1.5v-10a1.5 1.5 0 0 0-1.5-1.5zm-24-1.5a3 3 0 0 0-3 3v10a3 3 0 0 0 3 3h24a3 3 0 0 0 3-3v-10a3 3 0 0 0-3-3H12z" fill="currentColor"></path><path d="M16.21 35.177l.575-5.059h5.578v1.648h-3.958l-.246 2.14c.47-.251.968-.377 1.497-.377.948 0 1.69.294 2.228.882.538.588.807 1.41.807 2.468 0 .643-.137 1.219-.41 1.73-.27.505-.656.9-1.162 1.182-.506.278-1.103.417-1.791.417-.602 0-1.16-.12-1.675-.362a3.021 3.021 0 0 1-1.224-1.032 2.82 2.82 0 0 1-.471-1.511h1.955c.04.414.184.738.43.97.25.228.577.342.978.342.446 0 .79-.16 1.032-.478.242-.324.362-.78.362-1.367 0-.566-.139-.998-.417-1.3-.278-.3-.672-.45-1.182-.45-.47 0-.85.123-1.142.369l-.191.177-1.573-.39z" fill="currentColor"></path><path d="M32.042 38.813c-.369.442-.89.787-1.565 1.033-.674.241-1.422.362-2.242.362-.861 0-1.618-.187-2.27-.56-.647-.379-1.148-.926-1.504-1.641-.35-.716-.53-1.556-.54-2.523v-.676c0-.994.167-1.853.5-2.578.337-.729.82-1.285 1.449-1.667.633-.388 1.374-.582 2.221-.582 1.18 0 2.104.283 2.769.848.665.56 1.06 1.379 1.182 2.454h-1.996c-.09-.57-.294-.986-.608-1.25-.31-.265-.738-.397-1.285-.397-.697 0-1.228.262-1.593.786-.364.524-.55 1.303-.554 2.338v.636c0 1.043.199 1.831.595 2.365.397.533.978.8 1.743.8.77 0 1.32-.164 1.648-.493v-1.715h-1.867v-1.511h3.917v3.971z" fill="currentColor"></path></g></svg>