<svg width="48" height="48" xmlns="http://www.w3.org/2000/svg" viewBox="0 0 48 48"><g fill="none" class="nc-icon-wrapper"><path fill-rule="evenodd" clip-rule="evenodd" d="M32.81 19.625l1.046.633a4.2 4.2 0 0 0 1.947.589l3.048-1.002c.557-.485.91-1.086 1.05-1.709a2.884 2.884 0 0 0-.331-2.093c-.385-.666-1.038-1.235-1.89-1.57l-.966-.378-.246-1.008c-.145-.591-.491-1.162-1.03-1.62l-2.988-.944h-1.092l-.6-.79c-.475-.626-1.207-1.12-2.095-1.35l-7.448-.379a4.07 4.07 0 0 0-2.207.907l-.748.63-.956-.204a4.75 4.75 0 0 0-.954-.104 4.231 4.231 0 0 0-2.122.57c-.618.362-1.075.86-1.345 1.409l-.246.5-3.121 1.996c-.341.5-.509 1.057-.508 1.608v.035c-.004.249.033.5.11.745l.337 1.058-.722.845c-.476.559-.709 1.213-.704 1.857v.016c-.001.75.314 1.514.953 2.124l.546.522.065.753c.046.545.258 1.089.639 1.57.382.482.923.884 1.58 1.139l.136.052.126.072a10.463 10.463 0 0 1 3.425 3.084 9.63 9.63 0 0 1 1.253 2.477h4.041v-3.526h2m-11.704-.295a8.464 8.464 0 0 1 2.772 2.492 7.49 7.49 0 0 1 1.309 3.329h7.623v-2m-11.704-3.82a5.725 5.725 0 0 1-2.424-1.763 4.926 4.926 0 0 1-1.065-2.64c-1.01-.966-1.573-2.244-1.571-3.573-.008-1.146.408-2.26 1.183-3.168a4.337 4.337 0 0 1-.204-1.382 4.883 4.883 0 0 1 1.128-3.103l2.953-1.888c.453-.92 1.191-1.701 2.125-2.25a6.232 6.232 0 0 1 3.14-.845c.46.003.918.052 1.367.148.948-.798 2.166-1.284 3.457-1.381l7.771.394c1.385.31 2.595 1.067 3.401 2.129h.409l3.624 1.145c1.028.744 1.744 1.783 2.028 2.944 1.243.487 2.264 1.346 2.89 2.431a4.884 4.884 0 0 1 .552 3.532c-.27 1.2-.989 2.28-2.035 3.058l-3.713 1.22a6.23 6.23 0 0 1-3.285-.884 6.198 6.198 0 0 1-3.244.904c-.876 0-1.131-.18-1.617-.523-.157-.11-.337-.238-.57-.381-.27.256-.393.49-.503.698-.165.313-.3.567-.848.757m3.286-2.562a4.199 4.199 0 0 0 2.447-.596l1.04-.641" fill="currentColor"></path><path fill-rule="evenodd" clip-rule="evenodd" d="M22.137 11.407a1 1 0 0 0-1.074.537l-.804 1.61h-1.905a1 1 0 0 0-.537.156l-3.964 2.522a1 1 0 0 0-.447 1.023l.72 3.964a1 1 0 0 0 .32.569l2.908 2.584v7.792a1 1 0 1 0 2 0v-8.24a1 1 0 0 0-.336-.748l-2.986-2.654-.538-2.963 3.151-2.006h1.232v3.325a1 1 0 1 0 2 0v-4.089l.64-1.28 2.85.518 2.288 2.942a1 1 0 0 0 .573.362l3.123.695 1.332.665a1 1 0 1 0 .894-1.789l-1.441-.72a1.003 1.003 0 0 0-.23-.082l-2.893-.643-2.302-2.96a1 1 0 0 0-.61-.37l-3.964-.72z" fill="currentColor"></path><path fill-rule="evenodd" clip-rule="evenodd" d="M20.483 9.31a1 1 0 0 0-.526 1.312l1.082 2.523a1 1 0 1 0 1.838-.788l-1.081-2.522a1 1 0 0 0-1.313-.526zm-3.561 1.063a1 1 0 0 0-.586 1.288l1.082 2.883a1 1 0 0 0 1.872-.702l-1.081-2.883a1 1 0 0 0-1.287-.586zm11.583.312a1 1 0 0 0-1.406-.156l-1.802 1.441a1 1 0 1 0 1.25 1.562l1.802-1.441a1 1 0 0 0 .156-1.406zm4.544 3.508a1 1 0 0 0-1-1h-2.163a1 1 0 0 0-.894.553l-1.081 2.162a1 1 0 1 0 1.789.894l.804-1.61h1.545a1 1 0 0 0 1-1zm-22.437.994a1 1 0 0 0 .447 1.342l2.883 1.441a1 1 0 1 0 .895-1.788l-2.883-1.442a1 1 0 0 0-1.342.447zm12.874.274a1 1 0 0 0-.447-.106h-2.162a1 1 0 1 0 0 2h1.926l2.672 1.336a1 1 0 0 0 .894-1.789l-2.883-1.441zm-7.669 4.872a1 1 0 0 0-1.414 0l-2.162 2.163a1 1 0 1 0 1.414 1.414l2.162-2.163a1 1 0 0 0 0-1.414z" fill="currentColor"></path><path fill-rule="evenodd" clip-rule="evenodd" d="M23 38h-8v-2h8v2z" fill="currentColor"></path><path fill-rule="evenodd" clip-rule="evenodd" d="M23 42h-8v-2h8v2z" fill="currentColor"></path></g></svg>