<svg width="48" height="48" xmlns="http://www.w3.org/2000/svg" viewBox="0 0 48 48"><g fill="none" class="nc-icon-wrapper"><path fill-rule="evenodd" clip-rule="evenodd" d="M24 42c9.941 0 18-8.059 18-18S33.941 6 24 6 6 14.059 6 24s8.059 18 18 18zm0 2c11.046 0 20-8.954 20-20S35.046 4 24 4 4 12.954 4 24s8.954 20 20 20z" fill="currentColor"></path><path d="M19 20a2 2 0 1 1-4 0 2 2 0 0 1 4 0z" fill="currentColor"></path><path d="M33 20a2 2 0 1 1-4 0 2 2 0 0 1 4 0z" fill="currentColor"></path><path fill-rule="evenodd" clip-rule="evenodd" d="M16 31a1 1 0 0 1 1-1h14a1 1 0 1 1 0 2H17a1 1 0 0 1-1-1z" fill="currentColor"></path></g></svg>