<svg width="48" height="48" xmlns="http://www.w3.org/2000/svg" viewBox="0 0 48 48"><g fill="none" class="nc-icon-wrapper"><path fill-rule="evenodd" clip-rule="evenodd" d="M22.66 32.507c-1.71-1.873-4.335-4.505-5.781-4.15C11.474 29.685 6 32.393 6 36.467V43h36v-6.533c0-4.074-5.474-6.782-10.879-8.11-1.396-.343-4.027 2.308-5.757 4.17-.233.25-.45.487-.645.7-.295.323-.54.59-.719.773-.124-.135-.28-.312-.466-.52a92.598 92.598 0 0 0-.873-.973zm8.197-2.154a2.89 2.89 0 0 0-.414.221c-.498.311-1.109.814-1.774 1.44-.926.873-1.723 1.743-2.373 2.454-.326.357-.615.674-.866.93l-1.477 1.511-1.428-1.558c-.148-.162-.325-.36-.526-.587-.674-.758-1.615-1.816-2.635-2.776-.658-.62-1.264-1.115-1.76-1.42a2.637 2.637 0 0 0-.433-.222c-2.516.633-4.917 1.555-6.655 2.705C8.693 34.257 8 35.426 8 36.467V41h32v-4.533c0-1.041-.693-2.21-2.516-3.416-1.732-1.146-4.122-2.065-6.627-2.698z" fill="currentColor"></path><path d="M30 35h6v2h-6v-2z" fill="currentColor"></path><path d="M32 39v-6h2v6h-2z" fill="currentColor"></path><path fill-rule="evenodd" clip-rule="evenodd" d="M24 5c-2.24 0-5.029.738-6.865 1.32-.46.146-.73.658-.547 1.176l2.024 5.734c3.587-1.14 7.189-1.14 10.776 0l2.024-5.734c.183-.518-.087-1.03-.547-1.175C29.029 5.738 26.239 5 24 5zm-7.47-.586C18.39 3.824 21.431 3 24 3s5.61.824 7.47 1.414c1.6.508 2.364 2.228 1.828 3.747l-2.355 6.672a1 1 0 0 1-1.294.603c-3.774-1.415-7.524-1.415-11.298 0a1 1 0 0 1-1.294-.603L14.702 8.16c-.536-1.52.228-3.24 1.829-3.747z" fill="currentColor"></path><path d="M21 8h6v2h-6V8z" fill="currentColor"></path><path d="M23 12V6h2v6h-2z" fill="currentColor"></path><path fill-rule="evenodd" clip-rule="evenodd" d="M18.75 14.37a7 7 0 1 0 10.5 0l1.5-1.323a9 9 0 1 1-13.5 0l1.5 1.323z" fill="currentColor"></path></g></svg>