<svg width="48" height="48" xmlns="http://www.w3.org/2000/svg" viewBox="0 0 48 48"><g fill="none" class="nc-icon-wrapper"><path fill-rule="evenodd" clip-rule="evenodd" d="M8.057 16.25a4.187 4.187 0 0 1-.539-.488c-1.597-1.738-2.03-4.087-.967-5.248.526-.575 1.322-.75 2.185-.568.563.118 1.155.388 1.72.798.246-.638.6-1.181 1.028-1.583.505-.474 1.112-.751 1.765-.752.719 0 1.382.333 1.915.896.32.34.594.762.804 1.244.466-.297.945-.5 1.405-.603.876-.195 1.686-.024 2.22.558 1.066 1.158.636 3.509-.958 5.25-.156.17-.338.333-.54.487a2.82 2.82 0 0 1 1.514 2.998L16.42 37.625a3.37 3.37 0 0 1-3.324 2.785 3.37 3.37 0 0 1-3.33-2.78L6.55 19.25a2.82 2.82 0 0 1 1.507-3zm6.172-4.954l.886 2.036 1.877-1.2c.452-.287.82-.376 1.034-.38.1-.003.15.013.163.018l.005.002c.003.003.04.044.067.173a1.69 1.69 0 0 1-.014.63c-.104.571-.433 1.278-1.013 1.912-.304.33-.95.739-1.813 1.053-.757.275-1.45.394-1.888.399h-.046c-.041 0-.08-.002-.117-.005l-.121-.008-.122.007a3.805 3.805 0 0 1-.21.006h-.022c-.618-.001-1.395-.136-2.158-.402-.88-.308-1.516-.713-1.82-1.044-.581-.632-.911-1.339-1.017-1.91a1.69 1.69 0 0 1-.014-.629c.026-.13.063-.17.066-.173l.009-.004a.533.533 0 0 1 .204-.015c.258.017.681.145 1.173.502l2 1.452.887-2.297c.176-.456.408-.762.61-.935.194-.165.334-.192.416-.192.117 0 .591.116.978 1.004zm2.578 6.522l-7.458.006a.943.943 0 0 0-.932 1.103l.466 2.662 2.777-.002c.523 0 .948.42.948.94s-.423.942-.946.942l-2.45.002 1.153 6.588h.355c.523-.001.947.42.948.94 0 .52-.423.941-.947.942h-.026l.94 5.366c.123.706.74 1.22 1.46 1.22s1.337-.516 1.459-1.222l1.747-10.075-2.741.003a.944.944 0 0 1-.949-.94c0-.52.424-.942.947-.943l2.842-.002c.077 0 .151.009.223.026l1.119-6.455a.943.943 0 0 0-.935-1.1z" fill="currentColor"></path><path d="M38.038 28.037a.946.946 0 0 0-1.058-.816.942.942 0 0 0-.821 1.051c.057.455-.006 1.245-.418 1.992-.394.712-1.131 1.435-2.53 1.79a.94.94 0 1 0 .469 1.824c1.906-.483 3.075-1.539 3.722-2.709.627-1.135.738-2.332.636-3.132z" fill="currentColor"></path><path fill-rule="evenodd" clip-rule="evenodd" d="M32.616 16.187a.937.937 0 0 0 .147-1.323.952.952 0 0 0-1.331-.146c-1.245.991-1.763 2.63-1.89 4.214-.068.871-.025 1.783.11 2.668l-.211-.126a5.978 5.978 0 0 0-7.706 1.382l-.05.063a6.076 6.076 0 0 0-.694 1.08l-.146.29a9.113 9.113 0 0 0-.846 2.59l-.018.113a9.873 9.873 0 0 0 2.494 8.33l.537.581a10.652 10.652 0 0 0 4.483 2.883 10.738 10.738 0 0 0 12.262-4.203l.453-.676a10.457 10.457 0 0 0 1.771-5.829v-.442a7.3 7.3 0 0 0-.286-2.018l-.117-.404a6.287 6.287 0 0 0-2.83-3.659 6.358 6.358 0 0 0-6.76.166l-.345.23a10.1 10.1 0 0 1-.211-2.87c.108-1.366.535-2.377 1.184-2.894zm-2.084 8.032a.952.952 0 0 0 1.195-.075c.056-.028.11-.06.163-.094l1.15-.764a4.453 4.453 0 0 1 4.735-.116 4.403 4.403 0 0 1 1.982 2.562l.116.404c.141.489.213.994.213 1.501v.443a8.582 8.582 0 0 1-1.453 4.784l-.453.676A8.831 8.831 0 0 1 28.093 37a8.755 8.755 0 0 1-3.685-2.37l-.537-.581A8 8 0 0 1 21.85 27.3l.019-.113a7.24 7.24 0 0 1 .67-2.057l.147-.291a4.19 4.19 0 0 1 .48-.745l.05-.064a4.074 4.074 0 0 1 5.251-.942l1.213.722.678.336c.057.028.115.053.174.073z" fill="currentColor"></path><path d="M32.5 19.688c-.001-2.6 2.118-4.708 4.734-4.71.002 2.599-2.117 4.708-4.733 4.71z" fill="currentColor"></path></g></svg>