<svg width="48" height="48" xmlns="http://www.w3.org/2000/svg" viewBox="0 0 48 48"><g fill="none" class="nc-icon-wrapper"><path fill-rule="evenodd" clip-rule="evenodd" d="M15.533 8.193c-2.12.158-4.158 1.366-6.078 3.687-1.71 2.066-1.73 5.306-.995 8.942.359 1.777.88 3.563 1.393 5.225.114.37.23.738.342 1.098.385 1.23.745 2.38.981 3.338 1.183 4.792 2.26 7.494 4.576 9.434.107.09.154.085.18.082h.002c.07-.007.224-.052.483-.24.533-.39 1.142-1.108 1.87-2.026l.295-.375c.61-.775 1.28-1.624 1.959-2.301.757-.755 1.757-1.537 2.935-1.54 1.176-.004 2.168.785 2.912 1.536.67.676 1.328 1.526 1.93 2.3l.293.377c.718.919 1.319 1.638 1.846 2.028.255.189.407.233.471.24h.003c.022.002.065.008.168-.08 1.03-.866 1.694-1.555 2.254-2.488.573-.954 1.069-2.214 1.675-4.268a1 1 0 0 1 1.918.565c-.62 2.1-1.172 3.556-1.878 4.733-.72 1.197-1.566 2.051-2.682 2.99-.485.407-1.055.6-1.662.537-.564-.058-1.055-.325-1.456-.62-.785-.581-1.55-1.53-2.233-2.405l-.31-.399c-.608-.782-1.181-1.52-1.758-2.102-.71-.717-1.19-.946-1.485-.945-.316.001-.811.242-1.53.958-.586.584-1.17 1.324-1.786 2.106l-.312.395c-.693.874-1.466 1.821-2.259 2.4-.404.294-.898.558-1.462.614-.608.06-1.178-.131-1.665-.539-2.854-2.39-4.046-5.675-5.233-10.488-.22-.892-.555-1.96-.935-3.175-.116-.37-.236-.753-.358-1.15-.517-1.675-1.063-3.54-1.443-5.419-.743-3.678-.932-7.776 1.415-10.613 2.136-2.581 4.632-4.194 7.47-4.407 2.64-.197 5.375.833 8.157 3.04.252-.171.57-.379.946-.604.98-.588 2.367-1.307 3.963-1.803 3.198-.994 7.416-1.124 10.735 2.707 1.737 2.005 2.558 4.085 2.762 6.19.203 2.081-.203 4.129-.818 6.074a1 1 0 1 1-1.907-.604c.575-1.817.9-3.572.735-5.277-.164-1.683-.812-3.375-2.283-5.074-2.596-2.996-5.843-2.972-8.63-2.106-1.398.434-2.635 1.072-3.529 1.609a17.11 17.11 0 0 0-1.312.872 6.67 6.67 0 0 0-.066.05l-.015.01-.001.002-.621-.784m-7.967-2.307c2.125-.16 4.564.72 7.318 3.068l-7.318-3.068zm7.318 3.068a1 1 0 0 0 1.27.024l-1.27-.024z" fill="currentColor"></path><path fill-rule="evenodd" clip-rule="evenodd" d="M22.726 9.867a1 1 0 0 1 1.407-.141l5.5 4.5a1 1 0 0 1-1.266 1.548l-5.5-4.5a1 1 0 0 1-.14-1.407z" fill="currentColor"></path><path fill-rule="evenodd" clip-rule="evenodd" d="M33 33a7 7 0 1 0 0-14 7 7 0 0 0 0 14zm0 2a9 9 0 1 0 0-18 9 9 0 0 0 0 18z" fill="currentColor"></path><path d="M32 22a1 1 0 1 1 2 0v8a1 1 0 1 1-2 0v-8z" fill="currentColor"></path><path d="M29 27a1 1 0 1 1 0-2h8a1 1 0 1 1 0 2h-8z" fill="currentColor"></path></g></svg>