<svg width="48" height="48" xmlns="http://www.w3.org/2000/svg" viewBox="0 0 48 48"><g fill="none" class="nc-icon-wrapper"><path fill-rule="evenodd" clip-rule="evenodd" d="M18.125 29.628s-.744-.72-1.246-.597C11.474 30.359 6 33.067 6 37.14V44h36v-6.86c0-4.073-5.474-6.781-10.879-8.11-.502-.123-1.246.598-1.246.598S24.227 33 23.547 33c-.014 0-5.422-3.372-5.422-3.372zm12.529 1.305l-.78-1.305.78 1.305zm0 0l.03.05-.03-.05zm.03.05l.216.362h-.002l-.003.003-.013.008-.049.029-.184.109a143.047 143.047 0 0 1-2.702 1.563c-.756.426-1.557.864-2.222 1.2-.329.167-.653.323-.936.442-.14.059-.299.12-.46.171-.111.035-.417.13-.782.13a3.684 3.684 0 0 1-.695-.125 2.055 2.055 0 0 1-.247-.111l-.06-.033-.042-.025a9.278 9.278 0 0 1-.244-.15l-.62-.384-1.865-1.16-1.861-1.16-.613-.382-.172-.107-.045-.028-.012-.008-.003-.001v-.001l.206-.332-.207.332-.18-.113-.098-.094c-2.375.629-4.623 1.515-6.273 2.606C8.693 34.93 8 36.1 8 37.14V42h32v-4.86c0-1.04-.693-2.21-2.516-3.416-1.65-1.091-3.898-1.977-6.273-2.606l-.112.108-.2.12-.215-.363zm-13.408.008l.06-.098-.06.098zm.06-.098l.79-1.265-.79 1.265z" fill="#333"></path><path d="M12 38a1 1 0 0 1 1-1h5a1 1 0 1 1 0 2h-5a1 1 0 0 1-1-1z" fill="#333"></path><path d="M32.803 34.15c.062-.2.332-.2.395 0l.565 1.825c.028.09.108.15.198.15h1.831c.201 0 .285.27.122.393l-1.481 1.128a.223.223 0 0 0-.076.243l.566 1.825c.062.2-.157.367-.32.243l-1.48-1.128a.2.2 0 0 0-.245 0l-1.482 1.128c-.162.124-.381-.043-.319-.243l.566-1.825a.223.223 0 0 0-.076-.243l-1.481-1.128c-.163-.123-.08-.393.122-.393h1.831c.09 0 .17-.06.198-.15l.566-1.825z" fill="#fff"></path><path fill-rule="evenodd" clip-rule="evenodd" d="M33.24 34.285l-.043-.135a.205.205 0 0 0-.394 0l-.566 1.825a.209.209 0 0 1-.198.15h-1.831c-.201 0-.285.27-.122.393l1.482 1.128a.223.223 0 0 1 .075.243l-.566 1.825c-.062.2.157.367.32.243l1.481-1.128a.2.2 0 0 1 .244 0l1.481 1.128c.163.124.382-.043.32-.243l-.566-1.825a.223.223 0 0 1 .076-.243l1.481-1.128c.163-.123.08-.393-.122-.393h-1.831c-.09 0-.17-.06-.198-.15l-.523-1.69z" fill="#333"></path><path fill-rule="evenodd" clip-rule="evenodd" d="M15 17v-2h2v2a7 7 0 1 0 14 0v-2h2v2a9 9 0 1 1-18 0z" fill="#333"></path><path fill-rule="evenodd" clip-rule="evenodd" d="M24.157 3.012L24 4l-.157-.988.157-.024.157.024zm9.853 10.284l.075-.116a13.679 13.679 0 0 0 1.9-4.913c.13-.751-.261-1.342-.644-1.717-.387-.38-.912-.694-1.457-.959-1.102-.534-2.565-.995-3.981-1.368a62.059 62.059 0 0 0-3.94-.887 69.724 69.724 0 0 0-1.672-.302l-.098-.016-.027-.004-.01-.002L24 4l-.157-.988-.01.002-.025.004-.099.016a69.349 69.349 0 0 0-1.665.301c-1.07.207-2.5.509-3.926.885-1.412.373-2.873.832-3.978 1.367-.546.265-1.07.579-1.46.956-.384.372-.779.953-.67 1.7a12.39 12.39 0 0 0 1.262 3.854 11.97 11.97 0 0 0 .719 1.212c.006.151.026.332.072.534.123.552.427 1.23 1.094 1.876C16.471 16.989 19.044 18 24 18c4.956 0 7.53-1.01 8.843-2.281.667-.645.971-1.324 1.094-1.876a3.08 3.08 0 0 0 .073-.547zM31.702 14H16.297c.068.09.15.184.25.281.754.73 2.68 1.72 7.452 1.72s6.698-.99 7.453-1.72c.1-.097.181-.19.248-.28zm-16.18-2h16.943a11.71 11.71 0 0 0 1.53-3.964.914.914 0 0 0-.055-.058c-.16-.158-.461-.36-.929-.587-.923-.448-2.235-.87-3.618-1.234a60.071 60.071 0 0 0-3.809-.857A67.777 67.777 0 0 0 24 5.013a66.979 66.979 0 0 0-1.576.285 59.74 59.74 0 0 0-3.795.856c-1.38.364-2.69.785-3.617 1.233-.469.228-.774.431-.94.592a.907.907 0 0 0-.067.072c.2 1.27.642 2.352 1.043 3.126.177.342.344.62.475.823zm-1.547-3.907s0-.003.004-.008a.03.03 0 0 1-.004.008zm20.054-.011l-.004-.008.004.008z" fill="#333"></path><path d="M26.5 7.333S24.667 6.667 24 6c-.667.667-2.5 1.333-2.5 1.333S22 11 24 11s2.5-3.667 2.5-3.667z" fill="#333"></path></g></svg>