<svg width="48" height="48" xmlns="http://www.w3.org/2000/svg" viewBox="0 0 48 48"><g fill="none" class="nc-icon-wrapper"><path fill-rule="evenodd" clip-rule="evenodd" d="M24 42c9.941 0 18-8.059 18-18S33.941 6 24 6 6 14.059 6 24s8.059 18 18 18zm0 2c11.046 0 20-8.954 20-20S35.046 4 24 4 4 12.954 4 24s8.954 20 20 20z" fill="currentColor"></path><path d="M19 20a2 2 0 1 1-4 0 2 2 0 0 1 4 0z" fill="currentColor"></path><path d="M33 20a2 2 0 1 1-4 0 2 2 0 0 1 4 0z" fill="currentColor"></path><path fill-rule="evenodd" clip-rule="evenodd" d="M29.433 30.177h-.002l-.018.013-.083.054a13.194 13.194 0 0 1-1.579.844C26.701 31.56 25.35 32 24 32c-1.35 0-2.701-.44-3.752-.912a13.194 13.194 0 0 1-1.578-.844 6.503 6.503 0 0 1-.083-.054l-.018-.012-.002-.002m0 0a1 1 0 0 0-1.134 1.648l.534-.776-.534.776.002.001.003.002.01.007.032.021a12.06 12.06 0 0 0 .518.32c.344.202.836.47 1.43.737C20.606 33.44 22.253 34 24 34c1.748 0 3.395-.56 4.571-1.088a15.211 15.211 0 0 0 1.837-.984c.048-.03.086-.055.112-.073l.032-.021.01-.007.003-.002h.001c0-.001.001-.002-.566-.825l.567.823a1 1 0 0 0-1.134-1.646" fill="currentColor"></path></g></svg>