<svg width="48" height="48" xmlns="http://www.w3.org/2000/svg" viewBox="0 0 48 48"><g fill="none" class="nc-icon-wrapper"><path fill-rule="evenodd" clip-rule="evenodd" d="M20.468 9.002A3.001 3.001 0 1 1 26.469 9a3.001 3.001 0 0 1-6.002.002zm3-5.002a5 5 0 0 0-4.77 6.505H18.1c-.462 0-.975.187-1.418.42-.475.248-.989.612-1.464 1.087-.956.955-1.793 2.4-1.793 4.303 0 2.341.776 4.052 1.736 5.188.475.563.993.982 1.48 1.267.147.086.301.166.459.234v18.864a2.64 2.64 0 0 0 2.634 2.635h.019a2.64 2.64 0 0 0 2.635-2.635V31.216h2.25v10.652a2.64 2.64 0 0 0 2.634 2.635h.02a2.64 2.64 0 0 0 2.634-2.635V23.133l.241.69a2.5 2.5 0 0 0 2.182 1.671A2.998 2.998 0 0 0 31 28v.667a1 1 0 1 0 2 0V28a1 1 0 1 1 2 0v14a1 1 0 1 0 2 0V28a3 3 0 0 0-2.97-3 2.501 2.501 0 0 0 .86-2.824l-3.254-9.323a3.5 3.5 0 0 0-3.305-2.347h-.093A5 5 0 0 0 23.468 4zM18.1 12.505h1.798a4.984 4.984 0 0 0 3.569 1.499c1.397 0 2.66-.574 3.568-1.498h1.295a1.5 1.5 0 0 1 1.417 1.006L33 22.835a.5.5 0 1 1-.944.33l-2.186-6.263-1.944.33v24.636a.64.64 0 0 1-.634.635h-.02a.64.64 0 0 1-.634-.635V29.216h-6.25v12.652a.64.64 0 0 1-.635.635h-.019a.64.64 0 0 1-.634-.635V21.24h-.003V16h-2v4.634a4.272 4.272 0 0 1-.408-.421c-.653-.773-1.265-2.025-1.265-3.898 0-1.273.55-2.232 1.208-2.888.33-.331.68-.575.979-.732.286-.15.453-.183.484-.189l.005-.001z" fill="currentColor"></path></g></svg>