<svg width="48" height="48" xmlns="http://www.w3.org/2000/svg" viewBox="0 0 48 48"><g fill="none" class="nc-icon-wrapper"><path fill-rule="evenodd" clip-rule="evenodd" d="M23 4a1 1 0 0 0-.996 1.093 5.025 5.025 0 0 1 1.99.013A1 1 0 0 0 23 4zm2.857 1.92a3 3 0 1 0-5.725-.038 4.997 4.997 0 0 0-2.165 4.12 5 5 0 0 0 .23 1.503h-.625c-.462 0-.974.187-1.418.42-.475.248-.988.612-1.464 1.087-.955.955-1.793 2.4-1.793 4.303 0 2.336.772 4.043 1.73 5.18.473.562.99.983 1.475 1.269.09.053.183.104.278.15l-2.36 10.073-.288 1.228h2.84v7.653a2.64 2.64 0 0 0 2.634 2.635 2.64 2.64 0 0 0 2.635-2.635v-7.652h2.27v7.652a2.64 2.64 0 0 0 2.634 2.635 2.64 2.64 0 0 0 2.634-2.635v-7.653h2.928l-.288-1.228-.902-3.852A1 1 0 0 0 33 29.668V29a1 1 0 1 1 2 0v14a1 1 0 1 0 2 0V29a3 3 0 0 0-2.546-2.966 2.501 2.501 0 0 0 .827-3.058l-4.222-9.404a3.5 3.5 0 0 0-3.193-2.066h-.129c.15-.475.23-.98.23-1.504a4.996 4.996 0 0 0-2.11-4.083zM22.967 7a3.001 3.001 0 0 0-2.597 4.505h.028l.3.368A2.96 2.96 0 0 0 23 12.967a2.96 2.96 0 0 0 2.3-1.093l.134-.164A3.001 3.001 0 0 0 22.967 7zm-5.395 6.505h1.826a4.984 4.984 0 0 0 3.57 1.499c1.397 0 2.66-.574 3.567-1.498h1.33a1.5 1.5 0 0 1 1.37.886l4.221 9.403a.5.5 0 0 1-.912.41l-3.252-7.244-1.913.41V22.953l.027.112 2.378 10.149H27.379v9.653a.64.64 0 0 1-.634.635.64.64 0 0 1-.635-.635v-9.652h-6.269v9.652a.64.64 0 0 1-.635.635.64.64 0 0 1-.634-.635v-9.653h-2.317l2.284-9.747.278-1.19h.003v-.008l.004-.018h-.004V17.02h-2v4.82a4.094 4.094 0 0 1-.664-.633c-.65-.773-1.26-2.024-1.26-3.892 0-1.273.551-2.232 1.208-2.888.331-.331.68-.575.979-.732.286-.15.454-.183.484-.189l.005-.001zm13.147 11.519a2.496 2.496 0 0 0 1.721 1.413A2.998 2.998 0 0 0 31 29v.639l-1.62-6.916v-.684l1.34 2.985z" fill="currentColor"></path></g></svg>