<svg width="48" height="48" xmlns="http://www.w3.org/2000/svg" viewBox="0 0 48 48"><g fill="none" class="nc-icon-wrapper"><g clip-path="url(#clip0)"><path fill-rule="evenodd" clip-rule="evenodd" d="M33.546 4.348L3.847 34.047a1 1 0 0 0 0 1.414l9.193 9.192a1 1 0 0 0 1.414 0l29.699-29.698a1 1 0 0 0 0-1.414L34.96 4.348a1 1 0 0 0-1.414 0zM2.433 32.633a3 3 0 0 0 0 4.242l9.193 9.193a3 3 0 0 0 4.242 0l29.699-29.699a3 3 0 0 0 0-4.242l-9.193-9.193a3 3 0 0 0-4.242 0L2.433 32.633z" fill="#333"></path><path d="M10.565 30.863a1.5 1.5 0 1 1-2.121 2.121 1.5 1.5 0 0 1 2.121-2.12z" fill="#333"></path><path d="M13.393 28.035a1.5 1.5 0 1 1-2.121 2.121 1.5 1.5 0 0 1 2.121-2.121z" fill="#333"></path><path d="M16.222 25.207a1.5 1.5 0 1 1-2.121 2.121 1.5 1.5 0 0 1 2.12-2.121z" fill="#333"></path><path d="M19.05 22.379a1.5 1.5 0 1 1-2.12 2.121 1.5 1.5 0 0 1 2.12-2.121z" fill="#333"></path><path d="M21.879 19.55a1.5 1.5 0 1 1-2.122 2.122 1.5 1.5 0 0 1 2.122-2.121z" fill="#333"></path><path d="M24.707 16.723a1.5 1.5 0 1 1-2.121 2.12 1.5 1.5 0 0 1 2.121-2.12z" fill="#333"></path><path d="M27.535 13.893a1.5 1.5 0 1 1-2.12 2.12 1.5 1.5 0 0 1 2.12-2.12z" fill="#333"></path><path d="M30.364 11.064a1.5 1.5 0 1 1-2.121 2.122 1.5 1.5 0 0 1 2.121-2.122z" fill="#333"></path><path d="M33.192 8.236a1.5 1.5 0 1 1-2.121 2.121 1.5 1.5 0 0 1 2.121-2.12z" fill="#333"></path><path d="M17.636 37.935a1.5 1.5 0 1 1-2.121 2.122 1.5 1.5 0 0 1 2.121-2.122z" fill="#333"></path><path d="M13.393 37.935a1.5 1.5 0 1 1-2.121 2.122 1.5 1.5 0 0 1 2.121-2.122z" fill="#333"></path><path d="M20.465 35.107a1.5 1.5 0 1 1-2.122 2.122 1.5 1.5 0 0 1 2.122-2.122z" fill="#333"></path><path d="M23.293 32.277A1.5 1.5 0 1 1 21.17 34.4a1.5 1.5 0 0 1 2.122-2.122z" fill="#333"></path><path d="M26.121 29.45a1.5 1.5 0 1 1-2.12 2.12 1.5 1.5 0 0 1 2.12-2.12z" fill="#333"></path><path d="M28.95 26.621a1.5 1.5 0 1 1-2.121 2.121 1.5 1.5 0 0 1 2.12-2.121z" fill="#333"></path><path d="M31.778 23.793a1.5 1.5 0 1 1-2.121 2.121 1.5 1.5 0 0 1 2.121-2.121z" fill="#333"></path><path d="M34.606 20.965a1.5 1.5 0 1 1-2.12 2.121 1.5 1.5 0 0 1 2.12-2.121z" fill="#333"></path><path d="M37.435 18.137a1.5 1.5 0 1 1-2.121 2.12 1.5 1.5 0 0 1 2.121-2.12z" fill="#333"></path><path d="M40.264 15.309a1.5 1.5 0 1 1-2.122 2.12 1.5 1.5 0 0 1 2.121-2.12z" fill="#333"></path><path d="M40.264 11.064a1.5 1.5 0 1 1-2.122 2.122 1.5 1.5 0 0 1 2.121-2.122z" fill="#333"></path><path d="M37.435 8.236a1.5 1.5 0 1 1-2.121 2.121 1.5 1.5 0 0 1 2.121-2.12z" fill="#333"></path><path d="M7.86 34.06l-.672 2.51-1.837-1.837 2.51-.672z" fill="#333"></path><path fill-rule="evenodd" clip-rule="evenodd" d="M33.546 4.348L3.847 34.047a1 1 0 0 0 0 1.414l9.193 9.192a1 1 0 0 0 1.414 0l29.699-29.698a1 1 0 0 0 0-1.414L34.96 4.348a1 1 0 0 0-1.414 0zM2.433 32.633a3 3 0 0 0 0 4.242l9.193 9.193a3 3 0 0 0 4.242 0l29.699-29.699a3 3 0 0 0 0-4.242l-9.193-9.193a3 3 0 0 0-4.242 0L2.433 32.633z" fill="#333"></path><path d="M10.565 30.863a1.5 1.5 0 1 1-2.121 2.121 1.5 1.5 0 0 1 2.121-2.12z" fill="#333"></path><path d="M13.393 28.035a1.5 1.5 0 1 1-2.121 2.121 1.5 1.5 0 0 1 2.121-2.121z" fill="#333"></path><path d="M16.222 25.207a1.5 1.5 0 1 1-2.121 2.121 1.5 1.5 0 0 1 2.12-2.121z" fill="#333"></path><path d="M19.05 22.379a1.5 1.5 0 1 1-2.12 2.121 1.5 1.5 0 0 1 2.12-2.121z" fill="#333"></path><path d="M21.879 19.55a1.5 1.5 0 1 1-2.122 2.122 1.5 1.5 0 0 1 2.122-2.121z" fill="#333"></path><path d="M24.707 16.723a1.5 1.5 0 1 1-2.121 2.12 1.5 1.5 0 0 1 2.121-2.12z" fill="#333"></path><path d="M27.535 13.893a1.5 1.5 0 1 1-2.12 2.12 1.5 1.5 0 0 1 2.12-2.12z" fill="#333"></path><path d="M30.364 11.064a1.5 1.5 0 1 1-2.121 2.122 1.5 1.5 0 0 1 2.121-2.122z" fill="#333"></path><path d="M33.192 8.236a1.5 1.5 0 1 1-2.121 2.121 1.5 1.5 0 0 1 2.121-2.12z" fill="#333"></path><path d="M17.636 37.935a1.5 1.5 0 1 1-2.121 2.122 1.5 1.5 0 0 1 2.121-2.122z" fill="#333"></path><path d="M13.393 37.935a1.5 1.5 0 1 1-2.121 2.122 1.5 1.5 0 0 1 2.121-2.122z" fill="#333"></path><path d="M20.465 35.107a1.5 1.5 0 1 1-2.122 2.122 1.5 1.5 0 0 1 2.122-2.122z" fill="#333"></path><path d="M23.293 32.277A1.5 1.5 0 1 1 21.17 34.4a1.5 1.5 0 0 1 2.122-2.122z" fill="#333"></path><path d="M26.121 29.45a1.5 1.5 0 1 1-2.12 2.12 1.5 1.5 0 0 1 2.12-2.12z" fill="#333"></path><path d="M28.95 26.621a1.5 1.5 0 1 1-2.121 2.121 1.5 1.5 0 0 1 2.12-2.121z" fill="#333"></path><path d="M31.778 23.793a1.5 1.5 0 1 1-2.121 2.121 1.5 1.5 0 0 1 2.121-2.121z" fill="#333"></path><path d="M34.606 20.965a1.5 1.5 0 1 1-2.12 2.121 1.5 1.5 0 0 1 2.12-2.121z" fill="#333"></path><path d="M37.435 18.137a1.5 1.5 0 1 1-2.121 2.12 1.5 1.5 0 0 1 2.121-2.12z" fill="#333"></path><path d="M40.264 15.309a1.5 1.5 0 1 1-2.122 2.12 1.5 1.5 0 0 1 2.121-2.12z" fill="#333"></path><path d="M40.264 11.064a1.5 1.5 0 1 1-2.122 2.122 1.5 1.5 0 0 1 2.121-2.122z" fill="#333"></path><path d="M37.435 8.236a1.5 1.5 0 1 1-2.121 2.121 1.5 1.5 0 0 1 2.121-2.12z" fill="#333"></path><path d="M7.86 34.06l-.672 2.51-1.837-1.837 2.51-.672z" fill="#333"></path></g><defs><clipPath id="clip0"><path fill="#fff" d="M0 0h48v48H0z"></path></clipPath></defs></g></svg>