<svg width="48" height="48" xmlns="http://www.w3.org/2000/svg" viewBox="0 0 48 48"><g fill="none" class="nc-icon-wrapper"><g clip-path="url(#clip0)"><path fill-rule="evenodd" clip-rule="evenodd" d="M29.096 3.847L4.347 28.597a1 1 0 0 0 0 1.413L18.49 44.153a1 1 0 0 0 1.414 0l24.749-24.75a1 1 0 0 0 0-1.413L30.51 3.846a1 1 0 0 0-1.414 0zM2.933 27.182a3 3 0 0 0 0 4.242l14.142 14.143a3 3 0 0 0 4.243 0l24.749-24.75a3 3 0 0 0 0-4.242L31.925 2.433a3 3 0 0 0-4.243 0L2.933 27.182z" fill="#333"></path><path fill-rule="evenodd" clip-rule="evenodd" d="M8.944 29.657a.5.5 0 1 0-.707-.707.5.5 0 0 0 .707.707zm.707.707a1.5 1.5 0 1 0-2.122-2.121 1.5 1.5 0 0 0 2.122 2.12z" fill="#333"></path><path fill-rule="evenodd" clip-rule="evenodd" d="M12.48 26.121a.5.5 0 1 0-.708-.707.5.5 0 0 0 .707.707zm.706.707a1.5 1.5 0 1 0-2.121-2.12 1.5 1.5 0 0 0 2.121 2.12z" fill="#333"></path><path fill-rule="evenodd" clip-rule="evenodd" d="M16.015 22.586a.5.5 0 1 0-.708-.707.5.5 0 0 0 .708.707zm.707.707a1.5 1.5 0 1 0-2.121-2.121 1.5 1.5 0 0 0 2.12 2.12z" fill="#333"></path><path fill-rule="evenodd" clip-rule="evenodd" d="M19.55 19.05a.5.5 0 1 0-.707-.707.5.5 0 0 0 .707.707zm.707.707a1.5 1.5 0 1 0-2.12-2.12 1.5 1.5 0 0 0 2.12 2.12z" fill="#333"></path><path fill-rule="evenodd" clip-rule="evenodd" d="M23.086 15.515a.5.5 0 1 0-.707-.707.5.5 0 0 0 .707.707zm.707.707a1.5 1.5 0 1 0-2.121-2.122 1.5 1.5 0 0 0 2.12 2.122z" fill="#333"></path><path fill-rule="evenodd" clip-rule="evenodd" d="M26.621 11.98a.5.5 0 1 0-.707-.708.5.5 0 0 0 .707.707zm.707.706a1.5 1.5 0 1 0-2.12-2.12 1.5 1.5 0 0 0 2.12 2.12z" fill="#333"></path><path fill-rule="evenodd" clip-rule="evenodd" d="M30.157 8.444a.5.5 0 1 0-.708-.707.5.5 0 0 0 .708.707zm.707.707a1.5 1.5 0 1 0-2.121-2.122 1.5 1.5 0 0 0 2.121 2.122z" fill="#333"></path><path fill-rule="evenodd" clip-rule="evenodd" d="M12.48 33.192a.5.5 0 1 0-.708-.707.5.5 0 0 0 .707.707zm.706.708a1.5 1.5 0 1 0-2.121-2.122 1.5 1.5 0 0 0 2.121 2.122z" fill="#333"></path><path fill-rule="evenodd" clip-rule="evenodd" d="M16.015 29.657a.5.5 0 1 0-.708-.707.5.5 0 0 0 .708.707zm.707.707a1.5 1.5 0 1 0-2.121-2.121 1.5 1.5 0 0 0 2.12 2.12z" fill="#333"></path><path fill-rule="evenodd" clip-rule="evenodd" d="M19.55 26.121a.5.5 0 1 0-.707-.707.5.5 0 0 0 .707.707zm.707.707a1.5 1.5 0 1 0-2.12-2.12 1.5 1.5 0 0 0 2.12 2.12z" fill="#333"></path><path fill-rule="evenodd" clip-rule="evenodd" d="M23.086 22.586a.5.5 0 1 0-.707-.707.5.5 0 0 0 .707.707zm.707.707a1.5 1.5 0 1 0-2.121-2.121 1.5 1.5 0 0 0 2.12 2.12z" fill="#333"></path><path fill-rule="evenodd" clip-rule="evenodd" d="M26.621 19.05a.5.5 0 1 0-.707-.707.5.5 0 0 0 .707.707zm.707.707a1.5 1.5 0 1 0-2.12-2.12 1.5 1.5 0 0 0 2.12 2.12z" fill="#333"></path><path fill-rule="evenodd" clip-rule="evenodd" d="M30.157 15.515a.5.5 0 1 0-.708-.707.5.5 0 0 0 .708.707zm.707.707a1.5 1.5 0 1 0-2.121-2.122 1.5 1.5 0 0 0 2.121 2.122z" fill="#333"></path><path fill-rule="evenodd" clip-rule="evenodd" d="M33.692 11.98a.5.5 0 1 0-.706-.708.5.5 0 0 0 .706.707zm.708.706a1.5 1.5 0 1 0-2.122-2.12 1.5 1.5 0 0 0 2.122 2.12z" fill="#333"></path><path fill-rule="evenodd" clip-rule="evenodd" d="M16.015 36.728a.5.5 0 1 0-.708-.707.5.5 0 0 0 .708.707zm.707.707a1.5 1.5 0 1 0-2.121-2.121 1.5 1.5 0 0 0 2.12 2.12z" fill="#333"></path><path fill-rule="evenodd" clip-rule="evenodd" d="M19.55 33.192a.5.5 0 1 0-.707-.707.5.5 0 0 0 .707.707zm.707.708a1.5 1.5 0 1 0-2.12-2.122 1.5 1.5 0 0 0 2.12 2.122z" fill="#333"></path><path fill-rule="evenodd" clip-rule="evenodd" d="M23.086 29.657a.5.5 0 1 0-.707-.707.5.5 0 0 0 .707.707zm.707.707a1.5 1.5 0 1 0-2.121-2.121 1.5 1.5 0 0 0 2.12 2.12z" fill="#333"></path><path fill-rule="evenodd" clip-rule="evenodd" d="M26.621 26.121a.5.5 0 1 0-.707-.707.5.5 0 0 0 .707.707zm.707.707a1.5 1.5 0 1 0-2.12-2.12 1.5 1.5 0 0 0 2.12 2.12z" fill="#333"></path><path fill-rule="evenodd" clip-rule="evenodd" d="M30.157 22.586a.5.5 0 1 0-.708-.707.5.5 0 0 0 .708.707zm.707.707a1.5 1.5 0 1 0-2.121-2.121 1.5 1.5 0 0 0 2.121 2.12z" fill="#333"></path><path fill-rule="evenodd" clip-rule="evenodd" d="M33.692 19.05a.5.5 0 1 0-.706-.707.5.5 0 0 0 .706.707zm.708.707a1.5 1.5 0 1 0-2.122-2.12 1.5 1.5 0 0 0 2.122 2.12z" fill="#333"></path><path fill-rule="evenodd" clip-rule="evenodd" d="M37.228 15.515a.5.5 0 1 0-.707-.707.5.5 0 0 0 .707.707zm.707.707a1.5 1.5 0 1 0-2.121-2.122 1.5 1.5 0 0 0 2.121 2.122z" fill="#333"></path><path d="M20.257 38.85a1.5 1.5 0 1 1-2.12 2.12 1.5 1.5 0 0 1 2.12-2.12z" fill="#333"></path><path fill-rule="evenodd" clip-rule="evenodd" d="M19.55 40.264a.5.5 0 1 0-.707-.708.5.5 0 0 0 .707.708zm.707.707a1.5 1.5 0 1 0-2.12-2.122 1.5 1.5 0 0 0 2.12 2.122z" fill="#333"></path><path d="M23.793 35.314a1.5 1.5 0 1 1-2.121 2.12 1.5 1.5 0 0 1 2.12-2.12z" fill="#333"></path><path fill-rule="evenodd" clip-rule="evenodd" d="M23.086 36.728a.5.5 0 1 0-.707-.707.5.5 0 0 0 .707.707zm.707.707a1.5 1.5 0 1 0-2.121-2.121 1.5 1.5 0 0 0 2.12 2.12z" fill="#333"></path><path d="M27.328 31.778a1.5 1.5 0 1 1-2.12 2.122 1.5 1.5 0 0 1 2.12-2.122z" fill="#333"></path><path fill-rule="evenodd" clip-rule="evenodd" d="M26.621 33.192a.5.5 0 1 0-.707-.707.5.5 0 0 0 .707.707zm.707.708a1.5 1.5 0 1 0-2.12-2.122 1.5 1.5 0 0 0 2.12 2.122z" fill="#333"></path><path d="M30.864 28.243a1.5 1.5 0 1 1-2.121 2.12 1.5 1.5 0 0 1 2.121-2.12z" fill="#333"></path><path fill-rule="evenodd" clip-rule="evenodd" d="M30.157 29.657a.5.5 0 1 0-.708-.707.5.5 0 0 0 .708.707zm.707.707a1.5 1.5 0 1 0-2.121-2.121 1.5 1.5 0 0 0 2.121 2.12z" fill="#333"></path><path d="M34.4 24.707a1.5 1.5 0 1 1-2.122 2.121 1.5 1.5 0 0 1 2.122-2.12z" fill="#333"></path><path fill-rule="evenodd" clip-rule="evenodd" d="M33.692 26.121a.5.5 0 1 0-.706-.707.5.5 0 0 0 .706.707zm.708.707a1.5 1.5 0 1 0-2.122-2.12 1.5 1.5 0 0 0 2.122 2.12z" fill="#333"></path><path d="M37.935 21.172a1.5 1.5 0 1 1-2.121 2.12 1.5 1.5 0 0 1 2.121-2.12z" fill="#333"></path><path fill-rule="evenodd" clip-rule="evenodd" d="M37.228 22.586a.5.5 0 1 0-.707-.707.5.5 0 0 0 .707.707zm.707.707a1.5 1.5 0 1 0-2.121-2.121 1.5 1.5 0 0 0 2.121 2.12z" fill="#333"></path><path d="M41.47 17.636a1.5 1.5 0 1 1-2.121 2.121 1.5 1.5 0 0 1 2.122-2.12z" fill="#333"></path><path fill-rule="evenodd" clip-rule="evenodd" d="M40.763 19.05a.5.5 0 1 0-.706-.707.5.5 0 0 0 .706.707zm.708.707a1.5 1.5 0 1 0-2.122-2.12 1.5 1.5 0 0 0 2.122 2.12z" fill="#333"></path></g><defs><clipPath id="clip0"><path fill="#fff" d="M0 0h48v48H0z"></path></clipPath></defs></g></svg>