<svg width="48" height="48" xmlns="http://www.w3.org/2000/svg" viewBox="0 0 48 48"><g fill="none" class="nc-icon-wrapper"><path fill-rule="evenodd" clip-rule="evenodd" d="M25.925 5.222a2.207 2.207 0 0 1 1.207.039c3.769 1.213 6.015 3.392 7.042 5.89.937 2.279.817 4.72.058 6.742 1.943.443 3.87 1.525 5.244 3.3 1.653 2.135 2.423 5.168 1.595 9.04-.079.37-.268.758-.568 1.066a1.783 1.783 0 0 1-1.381.553c-1.112-.06-1.781-1.02-1.736-1.955.128-2.671-.347-4.354-1.026-5.365-.655-.976-1.565-1.424-2.592-1.512-1.06-.091-2.259.206-3.356.781-1.092.573-1.994 1.374-2.507 2.188l-.329.57c-1.35 2.343-1.111 5.195.238 6.786.652.77 1.586 1.28 2.83 1.32 1.268.04 2.933-.41 4.986-1.731.785-.506 1.95-.41 2.56.522.327.498.333 1.042.214 1.472a2.207 2.207 0 0 1-.637 1.026c-2.933 2.655-5.942 3.51-8.617 3.15-2.399-.322-4.423-1.606-5.794-3.234-1.367 1.63-3.39 2.918-5.788 3.244-2.675.364-5.685-.486-8.622-3.137a2.207 2.207 0 0 1-.638-1.024c-.12-.43-.115-.974.21-1.473.61-.933 1.774-1.03 2.56-.526 2.055 1.318 3.721 1.765 4.989 1.723 1.244-.042 2.177-.554 2.828-1.325 1.346-1.593 1.58-4.446.226-6.786l-.33-.57c-.514-.813-1.417-1.612-2.51-2.183-1.098-.573-2.297-.869-3.357-.776-1.027.09-1.936.54-2.59 1.516-.677 1.012-1.15 2.696-1.017 5.367.047.936-.62 1.895-1.733 1.958a1.783 1.783 0 0 1-1.381-.551c-.301-.307-.49-.696-.57-1.065-.835-3.87-.07-6.905 1.58-9.044 1.591-2.063 3.932-3.193 6.178-3.474-.708-1.987-.8-4.356.107-6.573 1.023-2.498 3.263-4.68 7.027-5.898.36-.116.791-.147 1.207-.04.432.11.9.387 1.17.918.503.995.006 2.051-.824 2.48-2.169 1.12-3.39 2.34-3.986 3.459-.587 1.098-.61 2.162-.268 3.111.707 1.963 3.06 3.592 5.764 3.59l.658-.001c.962-.039 2.106-.421 3.147-1.082 1.045-.665 1.9-1.556 2.35-2.52.436-.934.501-1.946-.018-3.001-.538-1.092-1.76-2.343-4.14-3.564-.833-.428-1.33-1.485-.829-2.48.269-.532.737-.81 1.169-.92zm2.27 2.606c1.629 1.074 2.718 2.243 3.324 3.476.816 1.657.7 3.308.037 4.73-.649 1.39-1.808 2.546-3.09 3.361-1.282.815-2.774 1.344-4.164 1.394h-.018l-.694.001c-3.406.003-6.61-2.03-7.647-4.911-.53-1.473-.472-3.126.384-4.73.638-1.195 1.696-2.325 3.209-3.34-2.27 1.077-3.556 2.578-4.187 4.12-.778 1.902-.612 3.99.134 5.664.09.204.188.403.292.598l.797 1.493-1.692-.022a9.376 9.376 0 0 0-1.112.052c-1.824.194-3.715 1.098-4.972 2.726-1.007 1.307-1.66 3.15-1.472 5.617.116-1.947.584-3.474 1.348-4.616 1.027-1.535 2.516-2.26 4.078-2.396 1.528-.134 3.11.291 4.457.995 1.346.703 2.55 1.73 3.288 2.909l.01.015.348.6c1.705 2.95 1.546 6.74-.43 9.08-1.01 1.195-2.472 1.971-4.29 2.032-1.353.045-2.86-.307-4.496-1.11 2.068 1.428 4.011 1.79 5.661 1.566 2.037-.276 3.762-1.465 4.839-2.947.13-.18.253-.363.37-.55l.846-1.359.85 1.358c.116.186.24.37.37.548 1.08 1.481 2.807 2.667 4.843 2.94 1.651.222 3.594-.144 5.66-1.575-1.636.806-3.142 1.16-4.495 1.117-1.818-.058-3.28-.831-4.293-2.026-1.98-2.335-2.145-6.126-.445-9.077l.347-.602.01-.015c.736-1.18 1.939-2.21 3.284-2.914 1.346-.706 2.926-1.134 4.455-1.003 1.562.134 3.052.856 4.082 2.39.765 1.14 1.236 2.667 1.355 4.614.184-2.468-.472-4.31-1.482-5.615-1.259-1.626-3.151-2.527-4.976-2.718a9.528 9.528 0 0 0-.224-.02l-1.523-.124.722-1.346c.109-.204.211-.413.306-.627.744-1.677.907-3.767.125-5.669-.628-1.526-1.897-3.012-4.128-4.084z" fill="currentColor"></path><path fill-rule="evenodd" clip-rule="evenodd" d="M27.847 24.155a4 4 0 1 0-8 .006 4 4 0 0 0 8-.006zm-4.002-1.997a2 2 0 1 1 .003 4 2 2 0 0 1-.003-4z" fill="currentColor"></path><path fill-rule="evenodd" clip-rule="evenodd" d="M23.97 15.134c-1.355 0-2.607.369-3.374.983l-1.25-1.56c1.231-.988 2.978-1.422 4.623-1.423 1.644-.002 3.392.43 4.625 1.415l-1.248 1.563c-.768-.614-2.02-.98-3.376-.978z" fill="currentColor"></path><path fill-rule="evenodd" clip-rule="evenodd" d="M15.85 28.221c.68 1.173 1.625 2.072 2.54 2.428l-.724 1.864c-1.47-.572-2.722-1.866-3.546-3.29-.825-1.422-1.326-3.15-1.091-4.711l1.978.297c-.147.972.164 2.24.843 3.412z" fill="currentColor"></path><path fill-rule="evenodd" clip-rule="evenodd" d="M31.158 28.209c-.678 1.173-1.622 2.074-2.537 2.432l.728 1.863c1.47-.575 2.719-1.871 3.54-3.295.823-1.424 1.322-3.154 1.084-4.715l-1.977.302c.148.97-.16 2.239-.838 3.413z" fill="currentColor"></path></g></svg>