<svg width="48" height="48" xmlns="http://www.w3.org/2000/svg" viewBox="0 0 48 48"><g fill="none" class="nc-icon-wrapper"><path fill-rule="evenodd" clip-rule="evenodd" d="M9 8a3 3 0 1 1 6 0 3 3 0 0 1-6 0zm3-5a5.002 5.002 0 0 0-4.9 4H4v1c0 1.556.444 3.008 1.213 4.237-.145.06-.288.127-.425.198-.495.26-1.03.64-1.527 1.135-.997.997-1.871 2.505-1.871 4.49 0 2.45.812 4.238 1.814 5.424a6.058 6.058 0 0 0 1.544 1.322c.163.095.334.182.508.256v16.219A2.725 2.725 0 0 0 7.976 44a2.725 2.725 0 0 0 2.719-2.72V30.528h2.49v10.754A2.725 2.725 0 0 0 15.905 44a2.725 2.725 0 0 0 2.72-2.72V26.896c.448.07.907.105 1.375.105h1a7.976 7.976 0 0 0 5.687-2.373A21.385 21.385 0 0 0 26 30a3 3 0 0 0 .172 1H22v12h2V33h12v10h2v-9.721l3.18 8.746a3 3 0 0 0 5.64-2.05l-4-11a2.996 2.996 0 0 0-.584-.975H44a3 3 0 1 0 0-6h-6.08l-2.07-4.485a5 5 0 1 0-2.129-1.927 3 3 0 0 0-2.963.919l-.023.025-.02.027-.765.988-.013.018-.013.017c-.27.383-.588.865-.924 1.44V17h-1.709a2.492 2.492 0 0 0-1.759-.724h-2.797l-4.322-3.493A7.964 7.964 0 0 0 20 8V7h-3.1A5.002 5.002 0 0 0 12 3zM6.256 14h.452A7.968 7.968 0 0 0 11 15.938V18a9.003 9.003 0 0 0 5.625 8.346V41.28c0 .393-.327.719-.72.719a.725.725 0 0 1-.72-.72V28.528h-6.49v12.754c0 .393-.326.719-.72.719a.725.725 0 0 1-.72-.72V23.294h-.001V17h-2v5.719a4.47 4.47 0 0 1-.522-.526c-.695-.822-1.342-2.15-1.342-4.133 0-1.355.586-2.377 1.285-3.075a4.407 4.407 0 0 1 1.042-.779c.34-.178.529-.205.538-.206zM20 25c-.47 0-.93-.047-1.375-.135v-5.482l1.654 1.338a2.5 2.5 0 0 0 1.572.555h3.681a2.49 2.49 0 0 0 1.123-.265A6.003 6.003 0 0 1 21 25h-1zm-7-7a6.998 6.998 0 0 0 3.625 6.134v-8.94l1.628 1.317 3.283 2.654a.5.5 0 0 0 .315.111h3.681a.5.5 0 1 0 0-1h-3.505l-.275-.222-4.731-3.825A7.963 7.963 0 0 1 13 15.939V18zm-1-4a6.002 6.002 0 0 0 5.917-5H16.9a5.002 5.002 0 0 1-9.8 0H6.083A6.002 6.002 0 0 0 12 14zm23-1a3 3 0 1 1 6 0 3 3 0 0 1-6 0zm3 18H39.3l.239.658 3.521 9.684a1 1 0 1 0 1.88-.684l-4-11A1 1 0 0 0 40 29H29.992l.139-1.122a17.914 17.914 0 0 1 1.689-5.655l.924-1.892.882 1.912 1.466 3.176A1 1 0 0 0 36 26h8a1 1 0 1 0 0-2H36.64l-.268-.58-2.464-5.339a1 1 0 0 0-1.636-.266l-.726.938c-.398.566-.92 1.384-1.44 2.425C29.055 23.279 28 26.308 28 30a1 1 0 0 0 .992 1H38zm-4.724-4.743c.127.275.292.524.488.743h-1.468c.13-.649.294-1.259.48-1.827l.5 1.084z" fill="currentColor"></path></g></svg>