<svg width="48" height="48" xmlns="http://www.w3.org/2000/svg" viewBox="0 0 48 48"><g fill="none" class="nc-icon-wrapper"><path fill-rule="evenodd" clip-rule="evenodd" d="M24 5a3 3 0 0 0-3 3.002A3 3 0 1 0 24 5zm-5 3.002A5 5 0 1 1 24.192 13h5.107a3.75 3.75 0 0 1 2.348.826l7.322 5.88a2.75 2.75 0 1 1-3.444 4.29l-1.834-1.474c.285 1.447.42 3.12.307 5.037-.118 2.011-.696 3.445-1.276 4.396a6.4 6.4 0 0 1-.926 1.188l-.012.048a198.879 198.879 0 0 0-.91 3.84 95.538 95.538 0 0 0-.68 3.23c-.19 1.014-.295 1.754-.295 2.09 0 1.477-1.221 2.648-2.68 2.648-1.447 0-2.662-1.155-2.679-2.617l-.486-8.777h-.108l-.49 8.778c-.016 1.461-1.23 2.616-2.679 2.616-1.42 0-2.616-1.111-2.677-2.534l-1.903-9.272a6.363 6.363 0 0 1-1.092-1.12c-.725-.949-1.453-2.409-1.602-4.502a18.555 18.555 0 0 1 .644-4.956l-1.65 1.356a2.75 2.75 0 1 1-3.493-4.248l7.139-5.87A3.75 3.75 0 0 1 18.524 13h5.284A5.001 5.001 0 0 1 19 8.002zm11.9 24.603l-.97-.243-.023.091a121.897 121.897 0 0 0-.292 1.19c-.188.777-.44 1.834-.691 2.947a97.266 97.266 0 0 0-.695 3.302c-.184.981-.33 1.905-.33 2.46a.67.67 0 0 1-.68.647.67.67 0 0 1-.68-.703l-.54-9.746a1 1 0 0 0-1-.945h-2a1 1 0 0 0-.998.945l-.542 9.746a.67.67 0 0 1-.681.703.67.67 0 0 1-.68-.647c0-.068-.007-.135-.02-.202l-2-9.746a1 1 0 0 0-.48-.665l.001.001.003.002.003.002-.003-.002a2.72 2.72 0 0 1-.235-.175 4.364 4.364 0 0 1-.673-.71c-.503-.657-1.07-1.739-1.194-3.393a16.349 16.349 0 0 1 1.858-7.592 1 1 0 0 0-1.521-1.236l-4.61 3.79a.75.75 0 1 1-.953-1.158l7.139-5.87A1.75 1.75 0 0 1 18.524 15h10.774c.399 0 .786.136 1.096.386l7.323 5.88a.75.75 0 0 1-.94 1.17l-4.374-3.513a1 1 0 0 0-1.542 1.18c.745 1.701 1.331 4.1 1.14 7.338-.098 1.672-.57 2.79-.986 3.472-.21.343-.408.581-.545.726a2.477 2.477 0 0 1-.153.15l-.029.025c-.177.137-.304.33-.358.548l.97.243z" fill="currentColor"></path></g></svg>