<svg width="48" height="48" xmlns="http://www.w3.org/2000/svg" viewBox="0 0 48 48"><g fill="none" class="nc-icon-wrapper"><path fill-rule="evenodd" clip-rule="evenodd" d="M17 6h2V4h-6v2h2v2h-2.17a3.001 3.001 0 1 0 0 2H15v2.083A6.002 6.002 0 0 0 10 18v25a1 1 0 0 0 1 1h10a1 1 0 0 0 1-1V18a6.002 6.002 0 0 0-5-5.917V10h5V8h-5V6zm-1 8a4 4 0 0 0-4 4v2h8v-2a4 4 0 0 0-4-4zm-4 28V22h8v20h-8zM9 9a1 1 0 1 1 2 0 1 1 0 0 1-2 0zm17 12a4 4 0 0 1 8 0v6a4 4 0 0 1-8 0v-6zm4-2a2 2 0 0 0-2 2v6a2 2 0 1 0 4 0v-6a2 2 0 0 0-2-2zm8 7h-3v-2h3a3 3 0 1 1 0 6 1 1 0 0 0-1 1v1h4v2h-5a1 1 0 0 1-1-1v-2a3 3 0 0 1 3-3 1 1 0 1 0 0-2z" fill="currentColor"></path></g></svg>