<svg width="48" height="48" xmlns="http://www.w3.org/2000/svg" viewBox="0 0 48 48"><g fill="none" class="nc-icon-wrapper"><path fill-rule="evenodd" clip-rule="evenodd" d="M38.466 24.455L24 9.843 9.534 24.455C11.784 24.956 16.07 25.5 24 25.5s12.217-.544 14.466-1.045zM25.421 8.435a2 2 0 0 0-2.842 0l-15.73 15.89c-.496.5-.476 1.202.176 1.468C8.71 26.48 13.055 27.5 24 27.5s15.29-1.02 16.975-1.707c.652-.266.672-.968.176-1.468l-15.73-15.89z" fill="currentColor"></path><path d="M23.083 3.997a.92.92 0 1 1 1.834 0l-.376 4.505a.543.543 0 0 1-1.083 0l-.375-4.505z" fill="currentColor"></path><path d="M25.958 4.276a.92.92 0 1 1 1.588.917l-2.578 3.714a.543.543 0 0 1-.938-.542l1.928-4.09z" fill="currentColor"></path><path d="M22.042 4.276a.92.92 0 1 0-1.588.917l2.578 3.714a.543.543 0 0 0 .938-.542l-1.928-4.09z" fill="currentColor"></path><path fill-rule="evenodd" clip-rule="evenodd" d="M13 40.995c.303.09.707.19 1.22.288 1.433.276 3.431.497 5.78.617V37a4 4 0 0 1 8 0v4.9c2.349-.12 4.346-.34 5.78-.617a12.71 12.71 0 0 0 1.22-.288v-10.46c-2.73.28-6.304.463-11 .463s-8.27-.183-11-.463v10.46zm-2-11.563c0-.61.542-1.078 1.148-1.004 2.746.334 6.556.57 11.852.57s9.106-.236 11.852-.57A1.02 1.02 0 0 1 37 29.432v12.567c0 .944-4.255 1.736-9.976 1.946A.99.99 0 0 1 26 42.952v-5.953a2 2 0 1 0-4 0v5.953a.99.99 0 0 1-1.024.993C15.255 43.735 11 42.943 11 41.999V29.432z" fill="currentColor"></path></g></svg>