<svg width="48" height="48" xmlns="http://www.w3.org/2000/svg" viewBox="0 0 48 48"><g fill="none" class="nc-icon-wrapper"><path fill-rule="evenodd" clip-rule="evenodd" d="M24 6C14.059 6 6 14.059 6 24s8.059 18 18 18 18-8.059 18-18S33.941 6 24 6zM4 24C4 12.954 12.954 4 24 4s20 8.954 20 20-8.954 20-20 20S4 35.046 4 24z" fill="currentColor"></path><path fill-rule="evenodd" clip-rule="evenodd" d="M23 42V6h2v36h-2z" fill="currentColor"></path><path fill-rule="evenodd" clip-rule="evenodd" d="M23.293 23.293l1.414 1.414-13 13-1.414-1.414 13-13z" fill="currentColor"></path><path fill-rule="evenodd" clip-rule="evenodd" d="M37.435 36.02L24.707 23.294l-1.414 1.414L36.02 37.435l1.414-1.414z" fill="currentColor"></path></g></svg>