<svg width="48" height="48" xmlns="http://www.w3.org/2000/svg" viewBox="0 0 48 48"><g fill="none" class="nc-icon-wrapper"><path fill-rule="evenodd" clip-rule="evenodd" d="M16 19c2.763 0 5-2.237 5-5s-2.237-5-5-5-5 2.237-5 5 2.237 5 5 5zm0 2c3.867 0 7-3.133 7-7s-3.133-7-7-7-7 3.133-7 7 3.133 7 7 7z" fill="currentColor"></path><path fill-rule="evenodd" clip-rule="evenodd" d="M5.766 28.085c-.62.564-.766.998-.766 1.315V33h22v-3.6c0-.317-.146-.751-.766-1.315-.633-.576-1.607-1.134-2.84-1.62C20.923 25.49 17.923 25 16 25c-1.923 0-4.924.49-7.393 1.465-1.234.486-2.208 1.044-2.84 1.62zM16 23c-4.339 0-13 2.144-13 6.4V35h26v-5.6c0-4.256-8.661-6.4-13-6.4z" fill="currentColor"></path><path fill-rule="evenodd" clip-rule="evenodd" d="M35 21c1.658 0 3-1.342 3-3s-1.342-3-3-3-3 1.342-3 3 1.342 3 3 3zm0 2c2.763 0 5-2.238 5-5s-2.237-5-5-5-5 2.238-5 5 2.237 5 5 5z" fill="currentColor"></path><path fill-rule="evenodd" clip-rule="evenodd" d="M28 33h15v-2.667c0-.2-.079-.493-.496-.904-.435-.428-1.127-.864-2.038-1.253C38.633 27.393 36.4 27 35 27c-1.401 0-3.634.393-5.466 1.176-.685.293-1.246.611-1.667.933-.195-.654-.586-1.235-1.037-1.72C29.05 25.799 32.768 25 35 25c3.337 0 10 1.787 10 5.333V35H28v-2z" fill="currentColor"></path></g></svg>