<svg width="49" height="49" xmlns="http://www.w3.org/2000/svg" viewBox="0 0 49 49"><g fill="none" class="nc-icon-wrapper"><path fill-rule="evenodd" clip-rule="evenodd" d="M24.5 23.98c3.854 0 7-3.148 7-7.067 0-3.918-3.146-7.066-7-7.066s-7 3.148-7 7.066c0 3.919 3.146 7.067 7 7.067zm9-7.067c0 5.01-4.027 9.067-9 9.067s-9-4.057-9-9.067c0-5.009 4.027-9.066 9-9.066s9 4.057 9 9.066z" fill="currentColor"></path><path fill-rule="evenodd" clip-rule="evenodd" d="M18.625 29.8a1.1 1.1 0 0 0-1.246-.598C11.974 30.53 6.5 33.238 6.5 37.312v2.533a2 2 0 0 0 2 2h32a2 2 0 0 0 2-2v-2.533c0-4.074-5.474-6.782-10.879-8.11a1.1 1.1 0 0 0-1.246.597l-4.064 3h-3.622l-4.064-3zm13.096 1.491L26.969 34.8H22.03l-4.752-3.508c-2.371.63-4.615 1.514-6.263 2.604C9.193 35.102 8.5 36.27 8.5 37.312v2.533h32v-2.533c0-1.042-.693-2.21-2.516-3.417-1.648-1.09-3.892-1.975-6.264-2.604z" fill="currentColor"></path></g></svg>