<svg width="48" height="48" xmlns="http://www.w3.org/2000/svg" viewBox="0 0 48 48"><g fill="none" class="nc-icon-wrapper"><path fill-rule="evenodd" clip-rule="evenodd" d="M9.778 9A.783.783 0 0 0 9 9.778C9 25.918 22.081 39 38.222 39a.783.783 0 0 0 .778-.778v-6.204a.783.783 0 0 0-.778-.778 21.28 21.28 0 0 1-6.66-1.064l-.01-.003a.768.768 0 0 0-.783.187l-4.426 4.426-.648-.332c-5.216-2.672-9.494-6.93-12.15-12.152l-.33-.647 4.425-4.424a.784.784 0 0 0 .199-.801 21.198 21.198 0 0 1-1.061-6.652A.783.783 0 0 0 16 9H9.778zM7 9.778A2.783 2.783 0 0 1 9.778 7H16a2.783 2.783 0 0 1 2.778 2.778c0 2.115.338 4.142.963 6.033l.002.007.002.007a2.784 2.784 0 0 1-.691 2.82l-3.39 3.39a25.94 25.94 0 0 0 10.303 10.3l3.388-3.389a2.768 2.768 0 0 1 2.839-.667 19.28 19.28 0 0 0 6.028.961A2.783 2.783 0 0 1 41 32.018v6.204A2.783 2.783 0 0 1 38.222 41C20.977 41 7 27.023 7 9.778z" fill="currentColor"></path></g></svg>