<svg width="48" height="48" xmlns="http://www.w3.org/2000/svg" viewBox="0 0 48 48"><g fill="none" class="nc-icon-wrapper"><path fill-rule="evenodd" clip-rule="evenodd" d="M34.5 6a7.5 7.5 0 0 1 3.15 14.308L32.512 6.266A7.508 7.508 0 0 1 34.5 6zm-3.83 1.05a7.5 7.5 0 0 0 5.068 13.848L30.668 7.051zM34.5 4a9.5 9.5 0 1 1 0 19 9.5 9.5 0 0 1 0-19z" fill="currentColor"></path><path fill-rule="evenodd" clip-rule="evenodd" d="M13.5 28a7.5 7.5 0 0 1 3.15 14.308l-5.138-14.042A7.506 7.506 0 0 1 13.5 28zm-3.83 1.05a7.5 7.5 0 0 0 5.068 13.848L9.668 29.051zM13.5 26a9.5 9.5 0 1 1 0 19 9.5 9.5 0 0 1 0-19z" fill="currentColor"></path><path fill-rule="evenodd" clip-rule="evenodd" d="M21 13.5a7.5 7.5 0 0 1-14.013 3.722l13.286-6.948A7.47 7.47 0 0 1 21 13.5zm-1.828-4.907L6.232 15.36a7.5 7.5 0 0 1 12.94-6.767zM23 13.5a9.5 9.5 0 1 1-19 0 9.5 9.5 0 0 1 19 0z" fill="currentColor"></path><path fill-rule="evenodd" clip-rule="evenodd" d="M42 35.5a7.5 7.5 0 0 1-14.013 3.722l13.286-6.948A7.47 7.47 0 0 1 42 35.5zm-1.828-4.907l-12.94 6.767a7.5 7.5 0 0 1 12.94-6.767zM44 35.5a9.5 9.5 0 1 1-19 0 9.5 9.5 0 0 1 19 0z" fill="currentColor"></path></g></svg>