<svg width="48" height="48" xmlns="http://www.w3.org/2000/svg" viewBox="0 0 48 48"><g fill="none" class="nc-icon-wrapper"><path fill-rule="evenodd" clip-rule="evenodd" d="M42 30.5a7.5 7.5 0 0 1-13.972 3.792l13.748-5.62c.146.585.224 1.197.224 1.828zm-.966-3.685l-13.779 5.633a7.5 7.5 0 0 1 13.778-5.633zM44 30.5a9.5 9.5 0 1 1-19 0 9.5 9.5 0 0 1 19 0z" fill="currentColor"></path><path fill-rule="evenodd" clip-rule="evenodd" d="M8.377 12.75a7.5 7.5 0 0 1 13.262 6.225L7.376 14.488a7.507 7.507 0 0 1 1-1.738zm-1.503 3.677a7.5 7.5 0 0 0 14.066 4.425L6.875 16.427zm-.083-4.896a9.5 9.5 0 1 1 15.062 11.582A9.5 9.5 0 0 1 6.79 11.531z" fill="currentColor"></path></g></svg>