<svg width="48" height="48" xmlns="http://www.w3.org/2000/svg" viewBox="0 0 48 48"><g fill="none" class="nc-icon-wrapper"><path fill-rule="evenodd" clip-rule="evenodd" d="M22.5 20.934V6.066a7.501 7.501 0 0 0 0 14.868zM31 13.5a7.501 7.501 0 0 1-6.5 7.434V6.066c3.67.489 6.5 3.63 6.5 7.434zm2 0a9.5 9.5 0 1 1-19 0 9.5 9.5 0 0 1 19 0z" fill="currentColor"></path><path fill-rule="evenodd" clip-rule="evenodd" d="M13.5 27a7.5 7.5 0 0 1 3.15 14.308l-5.138-14.042A7.506 7.506 0 0 1 13.5 27zm-3.83 1.05a7.5 7.5 0 0 0 5.068 13.848L9.668 28.051zM13.5 25a9.5 9.5 0 1 1 0 19 9.5 9.5 0 0 1 0-19z" fill="currentColor"></path><path fill-rule="evenodd" clip-rule="evenodd" d="M42 34.5a7.5 7.5 0 0 1-14.013 3.722l13.286-6.948A7.47 7.47 0 0 1 42 34.5zm-1.828-4.907l-12.94 6.767a7.5 7.5 0 0 1 12.94-6.767zM44 34.5a9.5 9.5 0 1 1-19 0 9.5 9.5 0 0 1 19 0z" fill="currentColor"></path></g></svg>