<svg height="367" width="367" viewBox="0 0 367.406 367.406"><g fill="currentColor" class="nc-icon-wrapper"><path d="M367.406 71.727a71.929 71.929 0 0 0-29.952-58.4c-29.532-20.407-69.472-16.562-94.568 9.104l-72 72-11.312-11.312-33.944 33.944 11.312 11.312-16.928 16.936-21.84 21.816-34.704 34.696c-21.618 21.579-27.268 54.449-14.096 82.008l-42.48 42.48c-9.297 9.447-9.175 24.643.272 33.94 9.339 9.19 24.323 9.192 33.664.004l42.48-42.504c28.393 12.649 61.65 6.416 83.536-15.656l71.952-71.952 11.312 11.312 33.944-33.944-11.312-11.312 73.536-73.536a71.898 71.898 0 0 0 21.128-50.936zM155.534 290.791c-18.271 18.648-46.727 22.841-69.6 10.256a8 8 0 0 0-9.736 1.232l-46.712 46.672a8.208 8.208 0 0 1-11.304 0 8 8 0 0 1 0-11.304l46.664-46.672a8 8 0 0 0 1.224-9.736 55.757 55.757 0 0 1-7.752-28.424c.015-2.093.143-4.185.384-6.264h141.072l-44.24 44.24zm60.24-60.24h-152.8a56.1 56.1 0 0 1 11.792-17.376l5.984-5.976 16.536 17.184a8 8 0 0 0 11.528-11.096l-16.752-17.4 11.456-11.456 16.344 17.28a8.001 8.001 0 0 0 11.312.312 8.001 8.001 0 0 0 .312-11.312l-16.648-17.6 10.832-10.824 16.912 17a8.001 8.001 0 0 0 11.344-11.28l-16.944-17.032 11.32-11.328 79.2 79.2-11.728 11.704zm34.336-11.712L148.286 117.015l11.32-11.312 101.816 101.816-11.312 11.32zm84.864-107.488l-73.552 73.544-79.2-79.2 72-72c19.513-20.131 50.686-23.289 73.84-7.48 25.128 18.03 30.883 53.018 12.852 78.146a55.932 55.932 0 0 1-5.94 6.99z"></path><path d="M322.266 43.891a39.693 39.693 0 0 0-28.476-11.908 39.711 39.711 0 0 0-28.28 11.712 8 8 0 0 0-.196 11.312 8 8 0 0 0 11.508 0c9.503-9.047 24.433-9.047 33.936 0a8 8 0 0 0 11.312.196 8 8 0 0 0 .196-11.312z"></path></g></svg>