<svg viewBox="0 0 367.406 367.406">
	<path d="M367.406,71.727c-0.003-23.153-11.151-44.888-29.952-58.4c-29.532-20.407-69.472-16.562-94.568,9.104l-72,72
			l-11.312-11.312l-33.944,33.944l11.312,11.312l-16.928,16.936l-21.84,21.816L63.47,201.823
			c-21.618,21.579-27.268,54.449-14.096,82.008l-42.48,42.48c-9.297,9.447-9.175,24.643,0.272,33.94
			c9.339,9.19,24.323,9.192,33.664,0.004l42.48-42.504c28.393,12.649,61.65,6.416,83.536-15.656l71.952-71.952l11.312,11.312
			l33.944-33.944l-11.312-11.312l73.536-73.536C359.811,109.167,367.413,90.839,367.406,71.727z M155.534,290.791
			c-18.271,18.648-46.727,22.841-69.6,10.256c-3.146-1.862-7.153-1.355-9.736,1.232l-46.712,46.672
			c-3.168,3.008-8.136,3.008-11.304,0c-3.118-3.123-3.118-8.181,0-11.304l46.664-46.672c2.584-2.585,3.088-6.592,1.224-9.736
			c-5.086-8.608-7.763-18.426-7.752-28.424c0.015-2.093,0.143-4.185,0.384-6.264h141.072L155.534,290.791z M215.774,230.551h-152.8
			c2.802-6.483,6.803-12.378,11.792-17.376l5.984-5.976l16.536,17.184c3.064,3.183,8.129,3.28,11.312,0.216
			c3.183-3.064,3.28-8.129,0.216-11.312l-16.752-17.4l11.456-11.456l16.344,17.28c3.038,3.21,8.102,3.35,11.312,0.312
			c3.21-3.038,3.35-8.102,0.312-11.312l-16.648-17.6l10.832-10.824l16.912,17c3.169,3.079,8.233,3.006,11.313-0.162
			c3.005-3.092,3.019-8.009,0.031-11.118l-16.944-17.032l11.32-11.328l79.2,79.2L215.774,230.551z M250.11,218.839L148.286,117.015
			l11.32-11.312l101.816,101.816L250.11,218.839z M334.974,111.351l-73.552,73.544l-79.2-79.2l72-72
			c19.513-20.131,50.686-23.289,73.84-7.48c25.128,18.03,30.883,53.018,12.852,78.146
			C339.129,106.85,337.142,109.187,334.974,111.351z" />
	<path d="M322.266,43.891c-0.064-0.067-0.13-0.132-0.196-0.196c-7.482-7.528-17.667-11.746-28.28-11.712
			c-10.613-0.032-20.797,4.186-28.28,11.712c-3.178,3.07-3.266,8.134-0.196,11.312c3.07,3.178,8.134,3.266,11.312,0.196
			c0.067-0.064,0.132-0.13,0.196-0.196c9.503-9.047,24.433-9.047,33.936,0c3.07,3.178,8.134,3.266,11.312,0.196
			C325.248,52.134,325.336,47.069,322.266,43.891z" />
</svg>
