<svg width="48" height="48" xmlns="http://www.w3.org/2000/svg" viewBox="0 0 48 48"><g fill="none" class="nc-icon-wrapper"><path fill-rule="evenodd" clip-rule="evenodd" d="M19.5 5a3 3 0 1 0 0 6 3 3 0 0 0 0-6zm-5 3a5 5 0 1 1 7.164 4.509h3.226c.462 0 .975.186 1.419.42.474.248.988.612 1.463 1.087.956.954 1.794 2.4 1.794 4.303 0 2.341-.777 4.052-1.737 5.188a5.808 5.808 0 0 1-1.48 1.267 4.304 4.304 0 0 1-.459.234v17.385a2.64 2.64 0 0 1-2.634 2.634 2.64 2.64 0 0 1-2.635-2.634V31.22h-2.269v11.173a2.64 2.64 0 0 1-2.634 2.634 2.64 2.64 0 0 1-2.635-2.634V17.51h-4.94v17.324a4.287 4.287 0 0 1 3.428 4.2v5.143H9.857v-6H8.143v6H6.429v-6H4.714v6H3v-5.143a4.287 4.287 0 0 1 3.429-4.2V17.51H5.5a2.5 2.5 0 0 1 0-5h.929V9h1.714v3.51h8.795c.042-.002.084-.002.126-.002h.272A5 5 0 0 1 14.5 8zm-.417 7.51h-5.94v-1H16.99l.074-.001h7.826l.005.001c.03.006.198.039.485.19.298.156.647.4.978.73.657.657 1.208 1.616 1.208 2.89 0 1.872-.612 3.124-1.265 3.896a4.256 4.256 0 0 1-.41.424V17h-2v25.393a.64.64 0 0 1-.635.634.64.64 0 0 1-.635-.634V29.22h-6.269v13.173a.64.64 0 0 1-.634.634.64.64 0 0 1-.635-.634V15.51h-1zm-8.583-1h.929v1H5.5a.5.5 0 0 1 0-1z" fill="currentColor"></path><path fill-rule="evenodd" clip-rule="evenodd" d="M37 20a1 1 0 0 1 1 1v23a1 1 0 1 1-2 0V21a1 1 0 0 1 1-1z" fill="currentColor"></path><path fill-rule="evenodd" clip-rule="evenodd" d="M39.179 39.82c.112.027.231.054.355.078.33.065.663.103.959.095.304-.009.498-.065.605-.127.108-.062.253-.202.413-.46.155-.253.288-.56.397-.879.041-.119.078-.236.11-.347a7.107 7.107 0 0 0-.355-.079 4.48 4.48 0 0 0-.96-.095c-.304.01-.498.066-.605.128-.107.062-.253.2-.413.46-.155.252-.288.56-.397.878-.041.12-.077.236-.11.347zm4.017-2.32l.366-.931h-.002l-.003-.002-.008-.003-.027-.01a6.754 6.754 0 0 0-.414-.143 9.774 9.774 0 0 0-1.062-.273 6.455 6.455 0 0 0-1.4-.13c-.485.013-1.046.104-1.548.393-.502.29-.861.731-1.115 1.144a6.46 6.46 0 0 0-.587 1.278 9.737 9.737 0 0 0-.378 1.486l-.005.028-.001.01v.004L38 40.5l-.989-.15c-.069.461.19.91.623 1.08L38 40.5l-.366.93h.002l.003.002.008.003.027.01.093.035a9.774 9.774 0 0 0 1.383.382c.417.08.907.144 1.4.13.485-.014 1.046-.104 1.548-.394.502-.29.861-.731 1.116-1.144a6.46 6.46 0 0 0 .586-1.278 9.753 9.753 0 0 0 .378-1.486l.005-.028.001-.01v-.002l.001-.001-.989-.15zm0 0l.989.149c.069-.461-.19-.91-.623-1.08l-.366.93z" fill="currentColor"></path><path fill-rule="evenodd" clip-rule="evenodd" d="M32.179 38.18c.032.111.068.228.109.347.109.318.242.626.397.878.16.26.306.399.413.46.108.063.3.12.605.128.296.008.63-.03.96-.095.123-.024.242-.05.355-.079a7.092 7.092 0 0 0-.11-.347 4.484 4.484 0 0 0-.397-.878c-.16-.259-.306-.398-.413-.46-.107-.062-.3-.119-.605-.127-.296-.009-.63.03-.96.094a7.111 7.111 0 0 0-.354.08zm4.017 2.32c.99-.148.99-.149.989-.149v-.005l-.002-.008-.005-.029a9.114 9.114 0 0 0-.084-.43 9.746 9.746 0 0 0-.294-1.056 6.46 6.46 0 0 0-.586-1.278c-.255-.413-.614-.853-1.116-1.143-.502-.29-1.063-.38-1.548-.395a6.455 6.455 0 0 0-1.4.131 9.774 9.774 0 0 0-1.476.416l-.027.01-.008.003-.003.002h-.001l.365.93-.365-.93c-.434.17-.693.618-.624 1.079L31 37.5l-.989.148v.005l.002.009.005.029.017.097a9.75 9.75 0 0 0 .361 1.389c.138.401.328.857.587 1.277.254.413.613.854 1.115 1.144.502.29 1.063.38 1.548.394a6.46 6.46 0 0 0 1.4-.13 9.753 9.753 0 0 0 1.476-.416l.027-.01.008-.004h.003l.001-.001-.365-.931zm0 0l.365.93c.434-.17.693-.618.624-1.079l-.989.149z" fill="currentColor"></path><path fill-rule="evenodd" clip-rule="evenodd" d="M39.179 32.82c.112.027.231.054.355.078.33.065.663.103.959.095.304-.009.498-.065.605-.127.108-.062.253-.202.413-.46.155-.253.288-.56.397-.879.041-.119.078-.236.11-.347a7.107 7.107 0 0 0-.355-.079 4.48 4.48 0 0 0-.96-.095c-.304.01-.498.066-.605.128-.107.062-.253.2-.413.46-.155.252-.288.56-.397.878-.041.12-.077.236-.11.347zm4.017-2.32l.366-.931h-.002l-.003-.002-.008-.003-.027-.01a6.754 6.754 0 0 0-.414-.143 9.774 9.774 0 0 0-1.062-.273 6.455 6.455 0 0 0-1.4-.13c-.485.013-1.046.104-1.548.393-.502.29-.861.731-1.115 1.144a6.46 6.46 0 0 0-.587 1.278 9.737 9.737 0 0 0-.378 1.486l-.005.028-.001.01v.004L38 33.5l-.989-.15c-.069.461.19.91.623 1.08L38 33.5l-.366.93h.002l.003.002.008.003.027.01.093.035a9.774 9.774 0 0 0 1.383.382c.417.08.907.144 1.4.13.485-.014 1.046-.104 1.548-.394.502-.29.861-.731 1.116-1.144a6.46 6.46 0 0 0 .586-1.278 9.753 9.753 0 0 0 .378-1.486l.005-.028.001-.01v-.002l.001-.001-.989-.15zm0 0l.989.149c.069-.461-.19-.91-.623-1.08l-.366.93z" fill="currentColor"></path><path fill-rule="evenodd" clip-rule="evenodd" d="M37 19.64a7.16 7.16 0 0 0 .246-.269c.22-.253.421-.523.562-.783.144-.268.192-.464.192-.588 0-.124-.048-.32-.192-.588-.141-.26-.341-.53-.562-.783A7.16 7.16 0 0 0 37 16.36a7.16 7.16 0 0 0-.246.268c-.22.253-.421.523-.562.783-.144.268-.192.464-.192.588 0 .124.048.32.192.588.141.26.341.53.562.783.083.095.166.185.246.268zM37 15l-.623-.782-.002.001-.002.002-.007.006-.022.018a9.14 9.14 0 0 0-.33.288c-.208.188-.486.459-.768.782-.28.32-.579.713-.813 1.147-.23.427-.433.958-.433 1.538 0 .58.202 1.111.433 1.538.234.434.534.827.813 1.147a9.758 9.758 0 0 0 1.098 1.07l.022.018.007.006.003.002c0 .001.001.002.624-.78l-.623.78c.364.291.881.292 1.246.002L37 21l.623.782h.002l.002-.003.007-.006.022-.018.076-.063a9.758 9.758 0 0 0 1.022-1.007c.28-.32.579-.713.813-1.147.23-.427.433-.958.433-1.538 0-.58-.202-1.111-.433-1.538a6.454 6.454 0 0 0-.813-1.147 9.758 9.758 0 0 0-1.098-1.07l-.022-.018-.007-.006-.003-.002s-.001-.001-.624.781zm0 0l.623-.782a1.001 1.001 0 0 0-1.246 0L37 15z" fill="currentColor"></path><path fill-rule="evenodd" clip-rule="evenodd" d="M32.179 31.18c.032.111.068.228.109.347.109.318.242.626.397.878.16.26.306.399.413.46.108.063.3.12.605.128.296.008.63-.03.96-.095.123-.024.242-.05.355-.079a7.092 7.092 0 0 0-.11-.347 4.484 4.484 0 0 0-.397-.878c-.16-.259-.306-.398-.413-.46-.107-.062-.3-.119-.605-.127-.296-.009-.63.03-.96.094a7.111 7.111 0 0 0-.354.08zm4.017 2.32c.99-.148.99-.149.989-.149v-.005l-.002-.008-.005-.029a9.114 9.114 0 0 0-.084-.43 9.746 9.746 0 0 0-.294-1.056 6.46 6.46 0 0 0-.586-1.278c-.255-.413-.614-.853-1.116-1.143-.502-.29-1.063-.38-1.548-.395a6.455 6.455 0 0 0-1.4.131 9.774 9.774 0 0 0-1.476.416l-.027.01-.008.003-.003.002h-.001l.365.93-.365-.93c-.434.17-.693.618-.624 1.079L31 30.5l-.989.148v.005l.002.009.005.029.017.097a9.75 9.75 0 0 0 .361 1.389c.138.401.328.857.587 1.277.254.413.613.854 1.115 1.144.502.29 1.063.38 1.548.394a6.46 6.46 0 0 0 1.4-.13 9.753 9.753 0 0 0 1.476-.416l.027-.01.008-.004h.003l.001-.001-.365-.931zm0 0l.365.93c.434-.17.693-.618.624-1.079l-.989.149z" fill="currentColor"></path><path fill-rule="evenodd" clip-rule="evenodd" d="M39.179 25.82c.112.027.231.054.355.078.33.065.663.103.959.095.304-.009.498-.065.605-.127.108-.062.253-.202.413-.46.155-.253.288-.56.397-.879.041-.119.078-.236.11-.347a7.107 7.107 0 0 0-.355-.079 4.48 4.48 0 0 0-.96-.095c-.304.01-.498.066-.605.128-.107.062-.253.2-.413.46-.155.252-.288.56-.397.878-.041.12-.077.236-.11.347zm4.017-2.32l.366-.931h-.002l-.003-.002-.008-.003-.027-.01a6.754 6.754 0 0 0-.414-.143 9.774 9.774 0 0 0-1.062-.273 6.455 6.455 0 0 0-1.4-.13c-.485.013-1.046.104-1.548.393-.502.29-.861.731-1.115 1.144a6.46 6.46 0 0 0-.587 1.278 9.737 9.737 0 0 0-.378 1.486l-.005.028-.001.01v.004L38 26.5l-.989-.15c-.069.461.19.91.623 1.08L38 26.5l-.366.93h.002l.003.002.008.003.027.01.093.035a9.774 9.774 0 0 0 1.383.381c.417.081.907.145 1.4.131.485-.014 1.046-.104 1.548-.394.502-.29.861-.731 1.116-1.144a6.46 6.46 0 0 0 .586-1.278 9.753 9.753 0 0 0 .378-1.486l.005-.028.001-.01v-.002l.001-.001-.989-.15zm0 0l.989.149c.069-.461-.19-.91-.623-1.08l-.366.93z" fill="currentColor"></path><path fill-rule="evenodd" clip-rule="evenodd" d="M32.179 24.18c.032.111.068.228.109.347.109.318.242.626.397.878.16.26.306.399.413.46.108.063.3.12.605.128.296.008.63-.03.96-.095.123-.024.242-.05.355-.079a7.092 7.092 0 0 0-.11-.347 4.484 4.484 0 0 0-.397-.878c-.16-.259-.306-.398-.413-.46-.107-.062-.3-.119-.605-.127-.296-.009-.63.03-.96.094a7.111 7.111 0 0 0-.354.08zm4.017 2.32c.99-.148.99-.149.989-.149v-.005l-.002-.009-.005-.028a9.114 9.114 0 0 0-.084-.43 9.746 9.746 0 0 0-.294-1.056 6.46 6.46 0 0 0-.586-1.278c-.255-.413-.614-.853-1.116-1.143-.502-.29-1.063-.38-1.548-.395a6.455 6.455 0 0 0-1.4.131 9.774 9.774 0 0 0-1.476.416l-.027.01-.008.003-.003.002h-.001l.365.93-.365-.93c-.434.17-.693.618-.624 1.079L31 23.5l-.989.148v.005l.002.009.005.029.017.097a9.75 9.75 0 0 0 .361 1.389c.138.401.328.857.587 1.277.254.413.613.854 1.115 1.144.502.29 1.063.38 1.548.394a6.46 6.46 0 0 0 1.4-.13 9.753 9.753 0 0 0 1.476-.416l.027-.01.008-.004h.003l.001-.001-.365-.931zm0 0l.365.93c.434-.17.693-.618.624-1.079l-.989.149z" fill="currentColor"></path></g></svg>