<svg width="48" height="48" xmlns="http://www.w3.org/2000/svg" viewBox="0 0 48 48"><g fill="none" class="nc-icon-wrapper"><path fill-rule="evenodd" clip-rule="evenodd" d="M2 7a3 3 0 0 1 3-3h33a3 3 0 0 1 3 3v3.77c6.941 7.855 6.655 19.859-.858 27.372-7.81 7.81-20.474 7.81-28.284 0C5.87 32.156 4.473 23.318 7.664 16H5a3 3 0 0 1-3-3V7zm22.78 9c.898 1.622.673 3.846-1.159 5.14l-.977.69c-1.38.973-.545 3.143 1.13 2.942a3.626 3.626 0 0 1 3.903 2.55l1.514 5.007a9.127 9.127 0 0 0 1.116-.556A2.994 2.994 0 0 1 29.1 30.03l-1.414-5.657a3 3 0 0 1 5.82-1.455l.8 3.199 2.07-.16a3 3 0 0 1 3.04 4.045c-.971 2.59-4.558 8.13-12.378 9a3 3 0 0 1-3.241-2.255l-.687-2.746-2.746.687a3 3 0 1 1-1.456-5.821l5.657-1.414c.31-.078.62-.104.921-.085a1.626 1.626 0 0 0-1.473-.611c-3.738.448-5.598-4.392-2.523-6.562l.978-.69c1.537-1.085.77-3.503-1.112-3.503H9.869C6.53 22.735 7.665 31.12 13.272 36.728c7.03 7.03 18.427 7.03 25.456 0 6.22-6.22 6.936-15.862 2.147-22.87A3.001 3.001 0 0 1 38 16H24.78zM5 6a1 1 0 0 0-1 1v6a1 1 0 0 0 1 1h33a1 1 0 0 0 1-1V7a1 1 0 0 0-1-1H5zm.344 6.416c0 .368.28.584.664.584h3.04a.53.53 0 0 0 .536-.528.536.536 0 0 0-.536-.536H7.096l.912-.704C9 10.464 9.48 10 9.48 9.064v-.016C9.48 8 8.712 7.32 7.552 7.32c-.848 0-1.376.304-1.824.824a.616.616 0 0 0-.144.384c0 .312.248.56.56.56a.562.562 0 0 0 .416-.176c.312-.336.56-.488.912-.488.44 0 .752.256.752.728 0 .464-.272.776-.968 1.344L5.664 11.8c-.208.168-.32.376-.32.616zm7.467.048c0 .328.256.584.584.584a.584.584 0 0 0 .592-.584v-.672h.296c.28 0 .504-.216.504-.496a.502.502 0 0 0-.504-.504h-.296V7.896a.584.584 0 0 0-.592-.584c-.36 0-.536.144-.768.416l-2.432 2.824c-.184.216-.288.416-.288.672 0 .328.272.568.6.568h2.304v.672zm-1.488-1.672l1.488-1.744v1.744h-1.488zm4.5.296h2.384a.57.57 0 0 0 .568-.568.57.57 0 0 0-.568-.568h-2.384a.57.57 0 0 0-.568.568.57.57 0 0 0 .568.568zm3.41 1.328c0 .368.28.584.664.584h3.04a.53.53 0 0 0 .536-.528.536.536 0 0 0-.536-.536h-1.952l.912-.704c.992-.768 1.472-1.232 1.472-2.168v-.016c0-1.048-.768-1.728-1.928-1.728-.848 0-1.376.304-1.824.824a.616.616 0 0 0-.144.384c0 .312.248.56.56.56a.562.562 0 0 0 .416-.176c.312-.336.56-.488.912-.488.44 0 .752.256.752.728 0 .464-.272.776-.968 1.344L19.553 11.8c-.208.168-.32.376-.32.616zm7.113.68c1.216 0 2.136-.792 2.136-1.936v-.016c0-1.168-.856-1.784-1.968-1.784-.552 0-.88.176-1.16.36.08-.736.432-1.296 1.128-1.296.336 0 .568.08.824.224a.67.67 0 0 0 .304.088c.32 0 .584-.248.584-.568 0-.248-.128-.416-.32-.528-.336-.2-.792-.336-1.352-.336-1.672 0-2.456 1.328-2.456 3.056v.016c0 1.112.256 1.712.664 2.12.392.392.888.6 1.616.6zm-.048-1.056c-.608 0-.976-.36-.976-.832v-.016c0-.472.352-.808.96-.808s.976.344.976.816v.016c0 .48-.352.824-.96.824zm4.28.544c.113.312.345.504.64.504h.129c.296 0 .52-.184.632-.504l1.104-3.208 1.104 3.208c.112.32.336.504.632.504h.128c.296 0 .528-.192.64-.504l1.568-4.4a.853.853 0 0 0 .048-.24.594.594 0 0 0-.608-.592c-.304 0-.512.2-.592.44l-1.112 3.432-1.12-3.4c-.096-.296-.312-.488-.624-.488h-.096c-.312 0-.528.2-.624.488l-1.12 3.4-1.112-3.432a.622.622 0 0 0-.6-.44c-.344 0-.632.256-.632.6a.8.8 0 0 0 .048.232l1.568 4.4zm9.564 7.173a2 2 0 1 1-2.828 2.829 2 2 0 0 1 2.828-2.829zM41.556 24a4 4 0 1 1-5.656-5.657A4 4 0 0 1 41.556 24zm-4.15 4.349a1 1 0 0 0-.876-.396l-2.912.224a1 1 0 0 1-1.047-.755l-1.005-4.018a1 1 0 0 0-1.94.485l1.414 5.657a1 1 0 0 0 1.047.754l.47-.036a1 1 0 0 1 .767 1.72c-1.149 1.098-2.745 2.14-4.876 2.701a1 1 0 0 1-1.225-.724l-.96-3.84a1 1 0 0 0-1.213-.727l-5.657 1.414a1 1 0 1 0 .486 1.94l3.716-.929a1 1 0 0 1 1.213.728l.929 3.716a1 1 0 0 0 1.08.752c6.847-.761 9.93-5.591 10.726-7.714a1 1 0 0 0-.137-.952z" fill="currentColor"></path></g></svg>