<svg width="48" height="48" xmlns="http://www.w3.org/2000/svg" viewBox="0 0 48 48"><g fill="none" class="nc-icon-wrapper"><path fill-rule="evenodd" clip-rule="evenodd" d="M23.007 7.089a3.726 3.726 0 0 1 .231-1.546c.186-.494.475-.947.849-1.33a4.004 4.004 0 0 1 1.326-.897 4.13 4.13 0 0 1 3.174 0c.5.209.952.514 1.326.897.374.383.663.836.849 1.33.185.495.264 1.02.23 1.546a3.824 3.824 0 0 1-1.163 2.75A4.12 4.12 0 0 1 26.993 11a4.105 4.105 0 0 1-2.832-1.162 3.81 3.81 0 0 1-1.154-2.75zm3.986 1.91a2.12 2.12 0 0 0 1.438-.59c.37-.363.563-.836.562-1.312v-.068l.004-.067a1.726 1.726 0 0 0-.108-.716 1.835 1.835 0 0 0-.407-.636 2.005 2.005 0 0 0-.664-.447 2.13 2.13 0 0 0-1.636 0c-.256.106-.481.26-.664.447-.183.188-.32.405-.407.636a1.726 1.726 0 0 0-.108.716l.005.071v.071a1.81 1.81 0 0 0 .554 1.306c.366.36.878.579 1.43.59z" fill="currentColor"></path><path fill-rule="evenodd" clip-rule="evenodd" d="M25.57 10.94a5.59 5.59 0 0 0-3.975-.698l-.01.002-.01.002c-1.145.252-1.963 1.071-2.545 1.823-.3.387-.568.796-.803 1.168l-.2.319c-.155.248-.293.468-.43.67l-2.735 3.79-.007.01-.007.01a2.418 2.418 0 0 0 .425 3.2l.008.006 4.937 4.108.006.005.006.005c.247.199.53.345.832.431a588.45 588.45 0 0 1-2.18 6.47c-.692 2.026-1.38 4.028-1.849 5.389-.348 1.012-.574 1.67-.589 1.718l-.39 1.29h5.757l.145 2.995a2.41 2.41 0 0 0 .687 1.66 2.359 2.359 0 0 0 1.684.71c.635 0 1.24-.258 1.683-.71a2.41 2.41 0 0 0 .688-1.658l.154-2.914h4.907v-1c0-.148-.059-1.072-.132-2.225l-.105-1.679c-.058-.93-.113-1.87-.152-2.628-.041-.79-.059-1.303-.052-1.437.002-.03.016-.124.23-.338.103-.103.224-.206.374-.332l.03-.025c.132-.11.298-.249.442-.392l.009-.008.007-.008a8.557 8.557 0 0 0 1.553-2.23l.009-.018.007-.018a7.07 7.07 0 0 0 .575-2.425l.002-.035v-.035a9.83 9.83 0 0 0-1.255-4.675l-.264-.528-.001-.003c-.981-1.995-1.887-3.319-3.223-5.02a17.663 17.663 0 0 0-4.14-4.671l-.05-.04-.054-.032zm-4.96 2.354c.495-.638.943-.991 1.385-1.092a3.588 3.588 0 0 1 2.491.42 15.665 15.665 0 0 1 3.648 4.15l.032.052.038.048c1.3 1.651 2.127 2.862 3.038 4.715l.003.006.278.557.012.022.012.023a7.83 7.83 0 0 1 1.009 3.706 5.072 5.072 0 0 1-.403 1.687 6.557 6.557 0 0 1-1.173 1.683c-.082.08-.186.167-.34.296l-.002.002c-.145.121-.33.277-.504.451-.342.342-.773.883-.813 1.65-.014.263.013.908.051 1.642.04.768.096 1.717.154 2.648l.114 1.823v.002l.046.73.014.226h-4.745l-.05.947-.206 3.884v.053a.411.411 0 0 1-.116.288.359.359 0 0 1-.256.11.359.359 0 0 1-.256-.11.411.411 0 0 1-.116-.288v-.048l-.193-3.968-.046-.952h-4.914l.313-.91c.45-1.311 1.051-3.058 1.66-4.84 1.03-3.015 2.111-6.21 2.514-7.52a.71.71 0 0 1 .009-.036c.168-.622.4-1.729.436-2.813a16.838 16.838 0 0 0-.56-4.046c-.09-.413-.179-.806-.265-1.191a95.831 95.831 0 0 1-.346-1.573l-.414-1.989-1.324 1.541-2.88 3.354-.666.776.791.649 3.787 3.105a.374.374 0 0 1-.011.693.218.218 0 0 1-.041.015.405.405 0 0 1-.096.01.374.374 0 0 1-.283-.129l-4.861-4.044a.418.418 0 0 1-.071-.536l2.733-3.788.008-.01.008-.012c.163-.24.334-.514.5-.778.06-.095.117-.189.175-.279.227-.36.453-.702.693-1.012zm.625 5.69c.116.436.213.876.288 1.32l-1.394-1.143.91-1.06.185.837.005.023.006.023z" fill="currentColor"></path></g></svg>