<svg width="48" height="48" xmlns="http://www.w3.org/2000/svg" viewBox="0 0 48 48"><g fill="none" class="nc-icon-wrapper"><path fill-rule="evenodd" clip-rule="evenodd" d="M13.272 36.728C7.665 31.12 6.53 22.734 9.87 16.003h11.487c1.881 0 2.649 2.418 1.112 3.503l-.978.69c-3.075 2.17-1.214 7.01 2.523 6.562a1.626 1.626 0 0 1 1.473.611 2.997 2.997 0 0 0-.92.085l-5.658 1.414a3 3 0 1 0 1.456 5.82l2.746-.686.687 2.746a3 3 0 0 0 3.241 2.255c7.82-.87 11.406-6.41 12.378-9a3 3 0 0 0-3.04-4.044l-2.07.159-.8-3.2a3 3 0 1 0-5.82 1.456l1.414 5.657c.183.731.623 1.34 1.207 1.742-.343.201-.715.389-1.116.556l-1.514-5.006a3.626 3.626 0 0 0-3.902-2.551c-1.676.201-2.51-1.969-1.131-2.942l.977-.69c1.866-1.317 2.065-3.6 1.109-5.23A3.001 3.001 0 0 0 27 13V7c0-.343-.058-.673-.164-.98 4.324.2 8.59 1.95 11.892 5.252 7.03 7.03 7.03 18.427 0 25.456-7.03 7.03-18.427 7.03-25.456 0zM24 6H5a1 1 0 0 0-1 1v6a1 1 0 0 0 1 1h19a1 1 0 0 0 1-1V7a1 1 0 0 0-1-1zm.558-1.948c5.587-.402 11.312 1.534 15.584 5.806 7.81 7.81 7.81 20.474 0 28.284-7.81 7.81-20.474 7.81-28.284 0C5.87 32.156 4.473 23.318 7.664 16H5a3 3 0 0 1-3-3V7a3 3 0 0 1 3-3h19c.19 0 .377.018.558.052zm15.584 15.705a2 2 0 1 1-2.828 2.829 2 2 0 0 1 2.828-2.829zM41.556 24a4 4 0 1 1-5.656-5.657A4 4 0 0 1 41.556 24zm-4.15 4.349a1 1 0 0 0-.876-.396l-2.912.224a1 1 0 0 1-1.047-.755l-1.005-4.018a1 1 0 0 0-1.94.485l1.414 5.657a1 1 0 0 0 1.047.754l.47-.036a1 1 0 0 1 .767 1.72c-1.149 1.098-2.745 2.14-4.876 2.701a1 1 0 0 1-1.225-.724l-.96-3.84a1 1 0 0 0-1.213-.727l-5.657 1.414a1 1 0 1 0 .486 1.94l3.716-.929a1 1 0 0 1 1.213.728l.929 3.716a1 1 0 0 0 1.08.752c6.847-.761 9.93-5.591 10.726-7.714a1 1 0 0 0-.137-.952zM7.861 13.096c1.248 0 2.016-.776 2.016-1.832v-.016c0-1.04-.744-1.44-1.504-1.568l1.096-1.048c.224-.216.368-.384.368-.688 0-.336-.264-.544-.624-.544H6.485a.533.533 0 0 0-.528.528c0 .288.24.528.528.528h1.72L7.117 9.552c-.192.192-.264.336-.264.504 0 .288.24.528.528.528h.192c.688 0 1.096.256 1.096.712v.016c0 .416-.328.68-.792.68-.44 0-.776-.144-1.096-.416a.585.585 0 0 0-.392-.152.601.601 0 0 0-.592.592c0 .176.096.344.208.44.456.392 1.056.64 1.856.64zm2.585-.68c0 .368.28.584.664.584h3.04a.53.53 0 0 0 .536-.528.536.536 0 0 0-.536-.536h-1.952l.912-.704c.992-.768 1.472-1.232 1.472-2.168v-.016c0-1.048-.768-1.728-1.928-1.728-.848 0-1.376.304-1.824.824a.616.616 0 0 0-.144.384c0 .312.248.56.56.56a.562.562 0 0 0 .416-.176c.312-.336.56-.488.912-.488.44 0 .752.256.752.728 0 .464-.272.776-.968 1.344L10.766 11.8c-.208.168-.32.376-.32.616zm6.288.168c.112.312.344.504.64.504h.128c.296 0 .52-.184.632-.504l1.104-3.208 1.104 3.208c.112.32.336.504.632.504h.128c.296 0 .528-.192.64-.504l1.568-4.4a.853.853 0 0 0 .048-.24.594.594 0 0 0-.608-.592c-.304 0-.512.2-.592.44l-1.112 3.432-1.12-3.4c-.096-.296-.312-.488-.624-.488h-.096c-.312 0-.528.2-.624.488l-1.12 3.4-1.112-3.432a.622.622 0 0 0-.6-.44c-.344 0-.632.256-.632.6a.8.8 0 0 0 .048.232l1.568 4.4z" fill="currentColor"></path></g></svg>