<svg width="48" height="48" xmlns="http://www.w3.org/2000/svg" viewBox="0 0 48 48"><g fill="none" class="nc-icon-wrapper"><path fill-rule="evenodd" clip-rule="evenodd" d="M38.466 24.455L24 9.843 9.534 24.455C11.784 24.956 16.07 25.5 24 25.5s12.217-.544 14.466-1.045zM25.421 8.435a2 2 0 0 0-2.842 0l-15.73 15.89c-.496.5-.476 1.202.176 1.468C8.71 26.48 13.055 27.5 24 27.5s15.29-1.02 16.975-1.707c.652-.266.672-.968.176-1.468l-15.73-15.89z" fill="currentColor"></path><path fill-rule="evenodd" clip-rule="evenodd" d="M13 40.995c.303.09.707.19 1.22.288 1.433.276 3.431.497 5.78.617V37a4 4 0 0 1 8 0v4.9c2.349-.12 4.346-.34 5.78-.617a12.71 12.71 0 0 0 1.22-.288v-10.46c-2.73.28-6.304.463-11 .463s-8.27-.183-11-.463v10.46zm-2-11.563c0-.61.542-1.078 1.148-1.004 2.746.334 6.556.57 11.852.57s9.106-.236 11.852-.57A1.02 1.02 0 0 1 37 29.432v12.567c0 .944-4.255 1.736-9.976 1.946A.99.99 0 0 1 26 42.952v-5.953a2 2 0 1 0-4 0v5.953a.99.99 0 0 1-1.024.993C15.255 43.735 11 42.943 11 41.999V29.432z" fill="currentColor"></path><path fill-rule="evenodd" clip-rule="evenodd" d="M13.467 17.64l3.536-3.572c.262.119.458.381.534.676.248.951.954 1.507 1.592 1.507.637 0 1.344-.556 1.591-1.507.105-.401.43-.743.845-.743s.739.342.843.743c.248.951.954 1.507 1.592 1.507.638 0 1.344-.556 1.592-1.507.104-.401.428-.743.844-.743.415 0 .74.342.843.743.248.951.954 1.507 1.592 1.507.638 0 1.344-.556 1.592-1.507.076-.295.271-.557.534-.676l3.536 3.572c-.249.072-.513.111-.79.111-1.027 0-1.874-.534-2.436-1.327-.563.793-1.41 1.327-2.436 1.327s-1.873-.534-2.435-1.327c-.563.793-1.41 1.327-2.436 1.327s-1.873-.534-2.436-1.327c-.562.793-1.409 1.327-2.435 1.327s-1.873-.534-2.436-1.327c-.562.793-1.41 1.327-2.435 1.327-.278 0-.542-.039-.791-.111zm-5.165 5.217l3.721-3.76c.236.132.41.38.475.658.242 1.038.968 1.646 1.623 1.646.654 0 1.38-.608 1.623-1.646.095-.409.425-.754.846-.754.422 0 .752.345.847.754.243 1.038.969 1.646 1.623 1.646.655 0 1.38-.608 1.623-1.646.096-.409.426-.754.847-.754s.751.345.847.754c.242 1.038.969 1.646 1.623 1.646s1.38-.608 1.623-1.646c.096-.409.426-.754.847-.754s.751.345.847.754c.242 1.038.968 1.646 1.623 1.646.654 0 1.38-.608 1.623-1.646.095-.409.425-.754.847-.754.42 0 .75.345.846.754.243 1.038.969 1.646 1.623 1.646.655 0 1.38-.608 1.623-1.646.065-.278.238-.526.475-.657l3.721 3.759a2.718 2.718 0 0 1-.879.144c-1.04 0-1.9-.57-2.47-1.416C35.78 22.43 34.92 23 33.88 23c-1.04 0-1.9-.57-2.47-1.416C30.84 22.43 29.98 23 28.94 23c-1.04 0-1.899-.57-2.47-1.416C25.9 22.43 25.042 23 24 23c-1.04 0-1.9-.57-2.47-1.416C20.96 22.43 20.1 23 19.06 23c-1.04 0-1.9-.57-2.47-1.416-.57.846-1.429 1.416-2.47 1.416-1.04 0-1.899-.57-2.47-1.416C11.08 22.43 10.223 23 9.18 23c-.31 0-.603-.05-.878-.144z" fill="currentColor"></path></g></svg>