<svg xmlns="http://www.w3.org/2000/svg" height="479" width="479" viewBox="0 0 479.978 479.978">
	<g fill="currentColor" class="nc-icon-wrapper">
		<path d="M407.767 58.554h-.016C329.633-19.537 203-19.515 124.909 58.603A199.998 199.998 0 0 0 68.167 173.13L14.343 292.698a8 8 0 0 0 7.28 11.28h44.72v88a8 8 0 0 0 8 8h88v72a8 8 0 0 0 8 8h192a8 8 0 0 0 8-8V370.714a196.459 196.459 0 0 0 37.424-29.328c78.098-78.103 78.098-204.728 0-282.832zm-11.328 271.528a180.042 180.042 0 0 1-38.096 29.096 8 8 0 0 0-4 6.952v97.848h-176v-72a8 8 0 0 0-8-8h-88v-88a8 8 0 0 0-8-8H33.999l49.24-109.36a7.703 7.703 0 0 0 .64-2.264C96.908 75.573 189.17 4.435 289.952 17.464c100.782 13.029 171.919 105.291 158.89 206.073a183.995 183.995 0 0 1-52.403 106.545z">
		</path>
		<path d="M391.495 121.578a48.01 48.01 0 0 0-14.272-11.744c-1.591-29.678-26.128-52.921-55.848-52.904a56.425 56.425 0 0 0-13.432 1.68c-20.525-23.012-55.818-25.027-78.83-4.502a55.834 55.834 0 0 0-11.57 14.422 42.57 42.57 0 0 0-18.76 1.856 45.132 45.132 0 0 0-22.832 17.696c-30.875 1.818-54.43 28.32-52.612 59.194 1.722 29.253 25.705 52.231 55.004 52.702h64c.245-.036.488-.084.728-.144 21.763 21.526 56.797 21.526 78.56 0 .235.06.472.108.712.144h30.48c23.165.398 43.428-15.52 48.528-38.12a48.265 48.265 0 0 0-9.856-40.28zm-5.832 37.128v-.016c-3.578 15.142-17.287 25.698-32.84 25.288h-20a55.256 55.256 0 0 0 5.52-24 8 8 0 0 0-16 0 38.728 38.728 0 0 1-5.416 20c-11.002 19.101-35.405 25.666-54.506 14.664a39.909 39.909 0 0 1-14.71-14.744 38.647 38.647 0 0 1-5.368-19.92 8 8 0 0 0-16 0 55.295 55.295 0 0 0 5.544 24h-53.544c-22.056.027-39.958-17.831-39.984-39.887-.022-18.457 12.606-34.524 30.544-38.865a39.275 39.275 0 0 0 1.24 19.864 8 8 0 0 0 15.16-5.112c-3.527-14.55 4.525-29.41 18.64-34.4a25.8 25.8 0 0 1 7.64-1.216 56.417 56.417 0 0 0-1.24 11.616 8 8 0 0 0 16 0c.018-2.498.27-4.989.752-7.44a25.932 25.932 0 0 1 11.304 13.6 8 8 0 0 0 15.16-5.12 42.136 42.136 0 0 0-20.28-23.536c12.194-18.166 36.806-23.007 54.972-10.812a39.926 39.926 0 0 1 3.588 2.716 55.984 55.984 0 0 0-10.064 7.936 8 8 0 0 0-.196 11.312 8 8 0 0 0 11.508 0 39.969 39.969 0 0 1 8.88-6.504 39.572 39.572 0 0 1 4.376 17.848 8 8 0 0 0 16 0 55.676 55.676 0 0 0-4.8-22.656c1.288-.12 2.552-.376 3.864-.376 18.791-.021 35.046 13.081 39.016 31.448a47.381 47.381 0 0 0-6.08-.416 8 8 0 0 0 0 16 32.03 32.03 0 0 1 6.272.696 39.683 39.683 0 0 1-10.96 20.56 8 8 0 0 0-.196 11.312 8 8 0 0 0 11.508 0 55.606 55.606 0 0 0 14.32-24.568 32.578 32.578 0 0 1 3.832 3.744 31.885 31.885 0 0 1 6.544 26.984z">
		</path>
		<path d="M300.311 160.778a8 8 0 0 0-10.927 2.934l-.001.002a8.16 8.16 0 0 1-7.04 4.264 7.999 7.999 0 0 1-6.888-4 7.358 7.358 0 0 1-1.112-4 8 8 0 0 0-16 0 23.106 23.106 0 0 0 3.28 12c6.609 11.439 21.24 15.354 32.678 8.745a23.924 23.924 0 0 0 8.922-9.057 8 8 0 0 0-2.912-10.888z">
		</path>
		<path d="M298.343 111.978a8 8 0 0 0 0 16c4.418 0 8 3.582 8 8a8 8 0 0 0 16 0c0-13.254-10.745-24-24-24z">
		</path>
		<path d="M178.343 151.978c-4.418 0-8-3.582-8-8a8 8 0 0 0-16 0c0 13.255 10.745 24 24 24a8 8 0 0 0 0-16z">
		</path>
		<path d="M218.343 111.978a8 8 0 0 0 0 16c4.418 0 8 3.582 8 8a8 8 0 0 0 16 0c0-13.254-10.745-24-24-24z">
		</path>
	</g>
</svg>
