<svg width="48" height="48" xmlns="http://www.w3.org/2000/svg" viewBox="0 0 48 48"><g fill="none" class="nc-icon-wrapper"><path fill-rule="evenodd" clip-rule="evenodd" d="M35.293 15.707L34 14.414 30.914 17.5l.793.793.707.707 1.293 1.293-1.414 1.414L31 20.414l-5.879 5.879a3.001 3.001 0 0 1-3.528.529L19.515 28.9a1 1 0 0 0 .437.1h10.634l2.707-2.707.293-.293H38c.889 0 1.687.386 2.236 1H41a3 3 0 0 1 3 3v6a3 3 0 0 1-3 3h-7a3.998 3.998 0 0 1-3.465-2h-14.28a7 7 0 0 1-4.61-1.732l-2.948-2.58-.47.499-1.454-1.373.418-.443-1.85-1.618-.341-.3V11.185l1.776 2.186 8.054 9.912.443-.468 1.454 1.373-.625.661 2.078 2.558 1.998-1.998a3.001 3.001 0 0 1 .53-3.53L26.585 16l-1.293-1.293 1.414-1.414L28 14.586l.707.707.793.793L32.586 13l-1.293-1.293 1.414-1.414 4 4-1.414 1.414zm-18.534 13.12l-2.042-2.512-4.646 4.919 2.89 2.529A5 5 0 0 0 16.255 35H32a2 2 0 0 0 2 2h1a4.978 4.978 0 0 1-1-3v-2h1.17c-.11-.313-.17-.65-.17-1v-1h2v1a1 1 0 0 0 1 1h1v-3a1 1 0 0 0-1-1h-3.586l-2.707 2.707-.293.293H19.952a3 3 0 0 1-1.878-.66L16.414 32h-2.828l3.173-3.173zM28 17.414L29.586 19 27.5 21.086 25.914 19.5 28 17.414zM13.445 24.75l-4.88 5.167L7 28.546v-11.73l6.445 7.933zM42 36a1 1 0 0 1-1 1h-2a3 3 0 0 1-3-3v-.764c.53.475 1.232.764 2 .764h3v-5a1 1 0 0 1 1 1v6zM24.5 20.914l-2.379 2.379a1 1 0 0 0 0 1.414l.172.172a1 1 0 0 0 1.414 0l2.379-2.379-1.586-1.586z" fill="currentColor"></path></g></svg>