<svg width="48" height="48" xmlns="http://www.w3.org/2000/svg" viewBox="0 0 48 48"><g fill="none" class="nc-icon-wrapper"><path fill-rule="evenodd" clip-rule="evenodd" d="M24 42c9.941 0 18-8.059 18-18S33.941 6 24 6 6 14.059 6 24s8.059 18 18 18zm0 2c11.046 0 20-8.954 20-20S35.046 4 24 4 4 12.954 4 24s8.954 20 20 20z" fill="currentColor"></path><path fill-rule="evenodd" clip-rule="evenodd" d="M24.633 12.007c-2.043-.068-4.159.337-5.9 1.193-1.735.853-3.202 2.214-3.7 4.103a1 1 0 1 0 1.934.51c.3-1.141 1.23-2.12 2.65-2.818 1.409-.693 3.192-1.047 4.95-.989 1.763.059 3.402.528 4.572 1.375 1.135.822 1.861 2.016 1.861 3.694 0 1.765-.997 3.053-2.464 3.97-1.48.926-3.311 1.38-4.595 1.457A1 1 0 0 0 23 25.5V28a1 1 0 1 0 2 0v-.77a1 1 0 0 1 .788-.977c1.25-.272 2.612-.763 3.81-1.512C31.427 23.596 33 21.754 33 19.075c0-2.365-1.072-4.143-2.689-5.314-1.58-1.144-3.64-1.686-5.678-1.754zm-6.782-.602c2.072-1.018 4.52-1.474 6.849-1.397 2.312.077 4.794.692 6.784 2.133C33.581 13.66 35 16.021 35 19.075c0 3.595-2.15 5.99-4.342 7.361-1.172.733-2.449 1.246-3.658 1.578A3 3 0 0 1 21 28v-2.5a3 3 0 0 1 2.823-2.995c1.007-.06 2.502-.435 3.652-1.155C28.564 20.67 29 19.938 29 19.075c0-.994-.383-1.602-1.034-2.074-.76-.55-1.979-.946-3.466-.996-1.471-.049-2.923.254-4.001.784-1.095.538-1.493 1.134-1.598 1.534a3 3 0 0 1-5.802-1.53c.696-2.638 2.702-4.38 4.752-5.388zM24.001 34a1 1 0 1 0 0 2 1 1 0 0 0 0-2zm-3 1a3 3 0 1 1 6 0 3 3 0 0 1-6 0z" fill="currentColor"></path></g></svg>