<svg width="48" height="48" xmlns="http://www.w3.org/2000/svg" viewBox="0 0 48 48"><g fill="none" class="nc-icon-wrapper"><path fill-rule="evenodd" clip-rule="evenodd" d="M24 4a1 1 0 0 1 .894.553l19 38A1 1 0 0 1 43 44H5a1 1 0 0 1-.894-1.447l19-38A1 1 0 0 1 24 4zM6.618 42h34.764L24 7.236 6.618 42z" fill="currentColor"></path><path fill-rule="evenodd" clip-rule="evenodd" d="M24.409 21.005c-1.332-.045-2.725.22-3.883.818-1.165.602-2.162 1.583-2.498 2.977a1 1 0 0 0 1.944.469c.162-.673.659-1.25 1.471-1.669.81-.418 1.854-.632 2.898-.596 1.049.035 2 .318 2.659.785.285.202.55.459.737.801.19.348.263.717.263 1.087 0 .551-.151.949-.37 1.255-.227.318-.562.586-.988.805-.87.449-1.96.615-2.713.669a1 1 0 0 0-.929.997V31a1 1 0 0 0 1.998.063 1 1 0 0 1 .773-.913 7.72 7.72 0 0 0 1.787-.635C28.839 28.855 30 27.66 30 25.677c0-1.558-.752-2.746-1.844-3.52l.578-.816-.578.816c-1.059-.75-2.42-1.107-3.747-1.152zm-4.801-.959c1.507-.779 3.25-1.095 4.869-1.04 1.605.055 3.376.485 4.835 1.519l-.559.79.56-.79c1.553 1.1 2.687 2.866 2.687 5.152 0 2.952-1.802 4.728-3.526 5.616a9.22 9.22 0 0 1-1.622.641A3 3 0 0 1 21 31v-1.597a3 3 0 0 1 2.787-2.992c.66-.047 1.428-.189 1.939-.452a1.03 1.03 0 0 0 .267-.179.588.588 0 0 0-.011-.231.446.446 0 0 0-.138-.128c-.26-.185-.802-.392-1.57-.418-.756-.026-1.452.136-1.913.374a1.32 1.32 0 0 0-.391.279.334.334 0 0 0-.054.082 3 3 0 0 1-5.832-1.407c.51-2.115 2.006-3.501 3.524-4.285zM24 36a1 1 0 1 0 0 2 1 1 0 0 0 0-2zm-3 1a3 3 0 1 1 6 0 3 3 0 0 1-6 0z" fill="currentColor"></path></g></svg>