<svg width="48" height="48" xmlns="http://www.w3.org/2000/svg" viewBox="0 0 48 48"><g fill="none" class="nc-icon-wrapper"><path fill-rule="evenodd" clip-rule="evenodd" d="M24 29.349a2 2 0 0 1 1.668-1.973c2.124-.358 4.504-1.029 6.597-2.128 3.082-1.618 5.736-4.285 5.736-8.403 0-3.638-1.707-6.339-4.268-8.12-2.524-1.754-5.85-2.607-9.188-2.714-3.343-.106-6.794.532-9.613 1.863C12.12 9.2 9.816 11.283 9.036 14.12a1 1 0 0 0 1.93.53c.568-2.07 2.306-3.782 4.82-4.969 2.495-1.178 5.625-1.77 8.695-1.672 3.077.099 5.993.885 8.11 2.357 2.083 1.449 3.41 3.564 3.41 6.478 0 3.07-1.92 5.191-4.665 6.633-2.737 1.436-6.086 2.07-8.393 2.201a1 1 0 0 0-.943.999V30a1 1 0 1 0 2 0v-.651zM23 37a2 2 0 1 0 0 4 2 2 0 0 0 0-4zM34.874 7.083c3.04 2.114 5.127 5.4 5.127 9.762 0 5.165-3.387 8.379-6.806 10.174-2.331 1.224-4.928 1.947-7.195 2.33V30a3 3 0 0 1-6 0v-3.322a3 3 0 0 1 2.83-2.995c2.118-.121 5.166-.71 7.576-1.976C32.786 20.457 34 18.89 34 16.845c0-2.195-.952-3.723-2.552-4.836-1.71-1.189-4.217-1.91-7.032-2-2.797-.089-5.605.456-7.778 1.482-2.205 1.04-3.386 2.38-3.745 3.69a3 3 0 0 1-5.786-1.59c.99-3.606 3.86-6.057 6.97-7.526 3.143-1.484 6.916-2.168 10.531-2.052 3.598.114 7.335 1.033 10.265 3.07zM19 39a4 4 0 1 1 8 0 4 4 0 0 1-8 0z" fill="currentColor"></path></g></svg>