<svg width="48" height="48" xmlns="http://www.w3.org/2000/svg" viewBox="0 0 48 48"><g fill="none" class="nc-icon-wrapper"><path fill-rule="evenodd" clip-rule="evenodd" d="M24.485 5h-12v38h12V5zm-12-2a2 2 0 0 0-2 2v38a2 2 0 0 0 2 2h12a2 2 0 0 0 2-2V5a2 2 0 0 0-2-2h-12z" fill="currentColor"></path><path d="M21.485 38.02a3 3 0 1 1-6 0 3 3 0 0 1 6 0z" fill="currentColor"></path><path d="M16.485 32.113a2 2 0 1 1 4 0 2 2 0 0 1-4 0z" fill="currentColor"></path><path fill-rule="evenodd" clip-rule="evenodd" d="M20.485 25V11a2 2 0 0 0-4 0v14a2 2 0 1 0 4 0zm-2-18a4 4 0 0 0-4 4v14a4 4 0 1 0 8 0V11a4 4 0 0 0-4-4z" fill="currentColor"></path><path d="M32.194 34.68c1.4 0 2.383-.723 2.383-2.013v-.018c0-1.132-.742-1.606-2.059-1.949-1.122-.288-1.4-.427-1.4-.854v-.018c0-.316.287-.566.834-.566.446 0 .89.158 1.364.436a.685.685 0 0 0 .362.102.657.657 0 0 0 .668-.659.651.651 0 0 0-.316-.566c-.584-.37-1.27-.575-2.06-.575-1.325 0-2.272.78-2.272 1.958v.018c0 1.29.845 1.652 2.152 1.986 1.086.278 1.308.464 1.308.826v.018c0 .38-.352.613-.937.613-.63 0-1.168-.223-1.66-.585a.686.686 0 0 0-.408-.13.657.657 0 0 0-.668.659c0 .223.111.427.27.538a4.19 4.19 0 0 0 2.439.78z" fill="currentColor"></path><path d="M36.502 33.837c0 .293.226.53.506.53s.507-.237.507-.53v-3.94a.519.519 0 0 0-.507-.53h-.013c-.14 0-.287.035-.48.091l-.66.203a.473.473 0 0 0-.34.46c0 .252.207.461.447.461a.802.802 0 0 0 .18-.028l.36-.097v3.38z" fill="currentColor"></path><path d="M32.194 43.36c1.4 0 2.383-.723 2.383-2.013v-.019c0-1.132-.742-1.605-2.059-1.948-1.122-.288-1.4-.427-1.4-.854v-.018c0-.316.287-.566.834-.566.446 0 .89.157 1.364.436a.685.685 0 0 0 .362.102.657.657 0 0 0 .668-.659.651.651 0 0 0-.316-.566c-.584-.371-1.27-.575-2.06-.575-1.325 0-2.272.78-2.272 1.958v.018c0 1.29.845 1.652 2.152 1.986 1.086.278 1.308.464 1.308.825v.019c0 .38-.352.612-.937.612-.63 0-1.168-.222-1.66-.584a.687.687 0 0 0-.408-.13.657.657 0 0 0-.668.659c0 .222.111.426.27.538a4.19 4.19 0 0 0 2.439.78z" fill="currentColor"></path><path d="M31.516 23.407c0 .398.316.714.715.714a.709.709 0 0 0 .714-.714v-4.52h1.373a.661.661 0 0 0 .658-.658.661.661 0 0 0-.658-.659h-4.174a.661.661 0 0 0-.659.66c0 .361.297.658.659.658h1.372v4.519z" fill="currentColor"></path><path d="M32.815 15.571c1.039 0 1.725-.306 2.31-.816a.673.673 0 0 0 .24-.51.67.67 0 0 0-.667-.66.668.668 0 0 0-.427.158c-.408.325-.807.51-1.41.51-1.113 0-1.882-.927-1.882-2.04v-.02c0-1.113.788-2.022 1.882-2.022.51 0 .928.167 1.327.464a.75.75 0 0 0 .426.14c.39 0 .705-.307.705-.697 0-.25-.13-.454-.278-.566-.538-.399-1.196-.658-2.17-.658-1.995 0-3.386 1.512-3.386 3.358v.019c0 1.865 1.42 3.34 3.33 3.34z" fill="currentColor"></path></g></svg>