<svg width="48" height="48" xmlns="http://www.w3.org/2000/svg" viewBox="0 0 48 48"><g fill="none" class="nc-icon-wrapper"><path fill-rule="evenodd" clip-rule="evenodd" d="M35 19c-2.21 0-4 1.79-4 4s1.79 4 4 4 4-1.79 4-4-1.79-4-4-4zm-6 4c0-3.315 2.685-6 6-6s6 2.685 6 6-2.685 6-6 6-6-2.685-6-6z" fill="currentColor"></path><path fill-rule="evenodd" clip-rule="evenodd" d="M27.496 34.429c-.417.41-.496.704-.496.904V39h16v-3.667c0-.2-.079-.493-.496-.904-.435-.428-1.127-.864-2.038-1.253C38.633 32.393 36.4 32 35 32c-1.401 0-3.634.393-5.466 1.176-.911.39-1.603.825-2.038 1.253zM35 30c-3.337 0-10 1.787-10 5.333V41h20v-5.667C45 31.787 38.337 30 35 30z" fill="currentColor"></path><path fill-rule="evenodd" clip-rule="evenodd" d="M15 39v-7h-2v9h14v-2H15z" fill="currentColor"></path><path fill-rule="evenodd" clip-rule="evenodd" d="M14 29.586l5.707 5.707-1.414 1.414L14 32.414l-4.293 4.293-1.414-1.414L14 29.586z" fill="currentColor"></path><path fill-rule="evenodd" clip-rule="evenodd" d="M7 9a3 3 0 0 1 3-3h8a3 3 0 0 1 3 3v1h4v19H3V10h4V9zm0 3H5v2h2v-2zm0 4H5v11h5v-6h8v6h5V16h-2v1a3 3 0 0 1-3 3h-8a3 3 0 0 1-3-3v-1zm14-2h2v-2h-2v2zm-5 13v-4h-4v4h4zM10 8a1 1 0 0 0-1 1v8a1 1 0 0 0 1 1h8a1 1 0 0 0 1-1V9a1 1 0 0 0-1-1h-8zm3 4V9h2v3h3v2h-3v3h-2v-3h-3v-2h3z" fill="currentColor"></path></g></svg>