<svg width="48" height="48" xmlns="http://www.w3.org/2000/svg" viewBox="0 0 48 48"><g fill="none" class="nc-icon-wrapper"><path fill-rule="evenodd" clip-rule="evenodd" d="M21 8a1 1 0 0 1 1 1v14h2V12a1 1 0 1 1 2 0v14.713c0 1.876 2.351 2.72 3.544 1.271l3.644-4.425a1.262 1.262 0 0 1 2.062 1.443l-6.16 10.473A9.178 9.178 0 0 1 12 30.821V17a1 1 0 1 1 2 0v8h2V12a1 1 0 1 1 2 0v11h2V9a1 1 0 0 1 1-1zm-3 1.17V9a3 3 0 1 1 6 0v.17A3 3 0 0 1 28 12v14.713l3.644-4.425a3.262 3.262 0 0 1 5.33 3.728l-6.16 10.473A11.179 11.179 0 0 1 21.178 42C15.005 42 10 36.995 10 30.822V17a3 3 0 0 1 4-2.83V12a3 3 0 0 1 4-2.83z" fill="currentColor"></path></g></svg>