<svg width="48" height="48" xmlns="http://www.w3.org/2000/svg" viewBox="0 0 48 48"><g fill="none" class="nc-icon-wrapper"><path fill-rule="evenodd" clip-rule="evenodd" d="M29.25 9a3 3 0 1 1 6 0 3 3 0 0 1-6 0zm3-5a5 5 0 0 0-1.206 9.854l-2.753.459a3.5 3.5 0 0 0-2.555 1.887l-2.472 4.944a2.5 2.5 0 0 0 .276 2.67l2.699 3.41-1.439 4.795a2.51 2.51 0 0 0-.22-.406l-4-6A2.5 2.5 0 0 0 18.5 24.5h-.936a4.5 4.5 0 1 0-4.127 0H12.5a2.5 2.5 0 0 0-2.08 1.113l-4 6A2.5 2.5 0 0 0 10 35.001V41a2.5 2.5 0 0 0 5 0v-4h1v4a2.5 2.5 0 1 0 5 0v-6a2.501 2.501 0 0 0 3.001 0h2.749v6a2.5 2.5 0 0 0 5 0v-6h1v6a2.5 2.5 0 0 0 5 0v-6H40.594l-.386-1.288-2.097-6.989c.1-.105.192-.22.275-.345l2.7-4.088a2.5 2.5 0 0 0 .15-2.496l-2.7-5.4a2.5 2.5 0 0 0-2.647-1.348l-.926.155A5 5 0 0 0 32.25 4zm-5.656 29l1.192-3.973a2.501 2.501 0 0 0 3.437-.492 7.076 7.076 0 0 0 2.176-.148c.706-.163 1.475-.466 2.143-1.004.234.074.474.113.714.117l1.65 5.5H35.75v8a.5.5 0 0 1-1 0v-8h-5v8a.5.5 0 0 1-1 0v-8H26.594zm7.422-6.983a2.498 2.498 0 0 1 .198-2.395l.854-1.294a.989.989 0 0 0-.332-.278l-.442-.23-2.86-.953-.684-.228V19a.5.5 0 1 0-1 0v2a.5.5 0 0 0 .342.475l.633.211 2.29.764-2.159 1.08-.835.417 1.19 1.502c.265.336.43.719.5 1.113.36.008.796-.02 1.24-.123a3.537 3.537 0 0 0 1.065-.421zM27.75 21c0 .61.22 1.18.598 1.622a2.987 2.987 0 0 0-.542.564l-.45.615.473.597 1.813 2.291a.5.5 0 1 1-.784.62l-3.75-4.736a.5.5 0 0 1-.055-.534l2.472-4.945a1.5 1.5 0 0 1 1.095-.809l7.598-1.266a.5.5 0 0 1 .53.27l.487.976a3 3 0 0 0-4.222 3.02l-.263-.087v-.199a2.5 2.5 0 1 0-5 .001v2zm9.305.81a3.006 3.006 0 0 0 1.874-2.158l.518 1.037a.5.5 0 0 1-.03.499l-2.7 4.087a.5.5 0 0 1-.834-.551l1.158-1.754.249-.376-.117-.435a2.981 2.981 0 0 0-.118-.35zM35 19a1 1 0 1 1 2 0 1 1 0 0 1-2 0zm-22 1.5a2.5 2.5 0 1 1 5 0 2.5 2.5 0 0 1-5 0zm-.916 6.223a.5.5 0 0 1 .416-.223h6a.5.5 0 0 1 .416.223l4 6a.5.5 0 1 1-.832.554L20.832 31.4 19 28.651V41a.5.5 0 0 1-1 0v-6h-5v6a.5.5 0 1 1-1 0V28.651l-1.832 2.748-1.252 1.878a.5.5 0 1 1-.832-.554l4-6z" fill="currentColor"></path></g></svg>