<svg width="48" height="48" xmlns="http://www.w3.org/2000/svg" viewBox="0 0 48 48"><g fill="none" class="nc-icon-wrapper"><path fill-rule="evenodd" clip-rule="evenodd" d="M5 41V5h2v36H5z" fill="currentColor"></path><path fill-rule="evenodd" clip-rule="evenodd" d="M17 10V6h2v4h-2z" fill="currentColor"></path><path fill-rule="evenodd" clip-rule="evenodd" d="M24 11H12v10h12V11zM10 9v14h16V9H10z" fill="currentColor"></path><path fill-rule="evenodd" clip-rule="evenodd" d="M30 26v4h10v-4H30zm-2 6h14v-8H28v8z" fill="currentColor"></path><path fill-rule="evenodd" clip-rule="evenodd" d="M10 13H7v6h3v-6zm-5-2v10h7V11H5z" fill="currentColor"></path><path fill-rule="evenodd" clip-rule="evenodd" d="M24 21V11h6c5.523 0 10 4.477 10 10v5H30v-3a2 2 0 0 0-2-2h-4zm8 3h6v-3a8 8 0 0 0-8-8h-4v6h2a4 4 0 0 1 4 4v1z" fill="currentColor"></path><path fill-rule="evenodd" clip-rule="evenodd" d="M35 42a2 2 0 0 0 2-2c0-1.066-.654-2.37-1.59-3.6-.138-.18-.275-.351-.41-.512-.135.16-.272.332-.41.512C33.655 37.63 33 38.934 33 40a2 2 0 0 0 2 2zm1.32-7.498zM35 44a4 4 0 0 0 4-4c0-3.5-4-7-4-7s-4 3.5-4 7a4 4 0 0 0 4 4z" fill="currentColor"></path><path fill-rule="evenodd" clip-rule="evenodd" d="M27 6a1 1 0 0 1-1 1H10a1 1 0 1 1 0-2h16a1 1 0 0 1 1 1z" fill="currentColor"></path></g></svg>