<svg width="48" height="48" xmlns="http://www.w3.org/2000/svg" viewBox="0 0 48 48"><g fill="none" class="nc-icon-wrapper"><path fill-rule="evenodd" clip-rule="evenodd" d="M32 17v-6h2v6h-2z" fill="currentColor"></path><path fill-rule="evenodd" clip-rule="evenodd" d="M30 13h6v2h-6v-2z" fill="currentColor"></path><path fill-rule="evenodd" clip-rule="evenodd" d="M37 13v-3h-8v8h8v-5zM5 13h22V8h12v5h4v2h-4v1h3v21h2v2H4v-2h2V16h21v-1H5v-2zm22 7v-2H8v19h21V23h8v14h3V18h-1v2H27zm-3 5H13v6h11v-6zm-13 0v6h-1v2h17v-2h-1v-8H11v2zm20 12h4V25h-4v12z" fill="currentColor"></path><path fill-rule="evenodd" clip-rule="evenodd" d="M6 18v-5h2v5H6z" fill="currentColor"></path><path fill-rule="evenodd" clip-rule="evenodd" d="M40 18v-5h2v5h-2z" fill="currentColor"></path></g></svg>