<svg width="48" height="48" xmlns="http://www.w3.org/2000/svg" viewBox="0 0 48 48"><g fill="none" class="nc-icon-wrapper"><path fill-rule="evenodd" clip-rule="evenodd" d="M24 42c9.941 0 18-8.059 18-18S33.941 6 24 6 6 14.059 6 24s8.059 18 18 18zm0 2c11.046 0 20-8.954 20-20S35.046 4 24 4 4 12.954 4 24s8.954 20 20 20z" fill="currentColor"></path><path fill-rule="evenodd" clip-rule="evenodd" d="M16.925 34.38a1 1 0 0 1-1.854-.751L16 34c-.928-.371-.928-.372-.928-.373v-.001l.002-.003.003-.007.008-.02a2.688 2.688 0 0 1 .107-.225c.072-.14.178-.33.326-.55a7.498 7.498 0 0 1 1.442-1.59C18.344 30.079 20.572 29 24 29s5.656 1.078 7.04 2.232a7.5 7.5 0 0 1 1.442 1.588 5.702 5.702 0 0 1 .41.722l.023.055.008.019.003.007.001.003.001.001c0 .001 0 .002-.928.373l.928-.371a1 1 0 0 1-1.853.75l-.005-.011a3.716 3.716 0 0 0-.252-.438 5.502 5.502 0 0 0-1.058-1.162C28.744 31.922 26.972 31 24 31s-4.744.922-5.76 1.768c-.515.43-.853.855-1.058 1.162a3.695 3.695 0 0 0-.252.438l-.005.012z" fill="currentColor"></path><path fill-rule="evenodd" clip-rule="evenodd" d="M18.832 19.445a1 1 0 0 1-.277 1.387c-1.564 1.043-2.644 1.585-4.239 2.117a1 1 0 0 1-.632-1.898c1.405-.468 2.325-.925 3.761-1.883a1 1 0 0 1 1.387.277z" fill="currentColor"></path><path fill-rule="evenodd" clip-rule="evenodd" d="M29.168 19.445a1 1 0 0 0 .277 1.387c1.564 1.043 2.644 1.585 4.239 2.117a1 1 0 0 0 .632-1.898c-1.405-.468-2.325-.925-3.761-1.883a1 1 0 0 0-1.387.277z" fill="currentColor"></path></g></svg>