<svg width="48" height="48" xmlns="http://www.w3.org/2000/svg" viewBox="0 0 48 48"><g fill="none" class="nc-icon-wrapper"><path fill-rule="evenodd" clip-rule="evenodd" d="M13.928 9.048a8.748 8.748 0 0 0-1.56 1.948l-1.736-.992a10.74 10.74 0 0 1 1.94-2.427C13.43 6.787 14.624 6 16 6h17v2H16c-.624 0-1.346.38-2.072 1.048z" fill="currentColor"></path><path fill-rule="evenodd" clip-rule="evenodd" d="M23 16V7.5h2V16h-2z" fill="currentColor"></path><path fill-rule="evenodd" clip-rule="evenodd" d="M10 24a6 6 0 0 1 6-6h16a6 6 0 0 1 6 6v17a3 3 0 0 1-3 3H13a3 3 0 0 1-3-3V24zm6-4a4 4 0 0 0-4 4v17a1 1 0 0 0 1 1h22a1 1 0 0 0 1-1V24a4 4 0 0 0-4-4H16z" fill="currentColor"></path><path fill-rule="evenodd" clip-rule="evenodd" d="M18 30h12v2H18v-2z" fill="currentColor"></path><path fill-rule="evenodd" clip-rule="evenodd" d="M23 37V25h2v12h-2z" fill="currentColor"></path><path fill-rule="evenodd" clip-rule="evenodd" d="M17 16a2 2 0 0 1 2-2h10a2 2 0 0 1 2 2v4H17v-4zm12 0H19v2h10v-2z" fill="currentColor"></path></g></svg>