<svg width="48" height="48" xmlns="http://www.w3.org/2000/svg" viewBox="0 0 48 48"><g fill="none" class="nc-icon-wrapper"><path fill-rule="evenodd" clip-rule="evenodd" d="M31 21H17a2 2 0 0 0-2 2v17a2 2 0 0 0 2 2h14a2 2 0 0 0 2-2V23a2 2 0 0 0-2-2zm-14-2a4 4 0 0 0-4 4v17a4 4 0 0 0 4 4h14a4 4 0 0 0 4-4V23a4 4 0 0 0-4-4H17z" fill="currentColor"></path><path fill-rule="evenodd" clip-rule="evenodd" d="M21 22h-3a2 2 0 0 0-2 2v13h5v-2h-3V24h3v-2zm6 2h3v11h-3v2h5V24a2 2 0 0 0-2-2h-3v2z" fill="currentColor"></path><path fill-rule="evenodd" clip-rule="evenodd" d="M24 33a3 3 0 1 0 0-6 3 3 0 0 0 0 6zm0 2a5 5 0 1 0 0-10 5 5 0 0 0 0 10z" fill="currentColor"></path><path fill-rule="evenodd" clip-rule="evenodd" d="M23 26v-5h2v5h-2z" fill="currentColor"></path><path fill-rule="evenodd" clip-rule="evenodd" d="M23 37v-3h2v3h-2z" fill="currentColor"></path><path d="M22 20h4v2a1 1 0 0 1-1 1h-2a1 1 0 0 1-1-1v-2z" fill="currentColor"></path><path fill-rule="evenodd" clip-rule="evenodd" d="M23 6l2-2v7h-2V6zm0 13h-4v-2h2v-5a1 1 0 0 1 1-1h1v8zm2 0h4v-2h-2v-5a1 1 0 0 0-1-1h-1v8z" fill="currentColor"></path></g></svg>