<svg viewBox="0 0 396 396">
	<path d="M240.648,198.016L209.024,166.4L42.624,0L27.872,14.824c-31.2,31.2-4,102.208,22.624,128.8l99.648,99.64l22.624-22.624
			l22.624,22.632l-11.312,11.312L325.504,396l56.568-56.56L240.648,198.016z M150.144,220.64l-88.336-88.328
			c-14.068-15.646-23.989-34.57-28.856-55.04c-5.672-22.88-3.392-41.528,6.232-51.16l3.472-3.488l152.736,152.768l-5.656,5.656
			L87.92,79.216L76.6,90.528L178.424,192.36L150.144,220.64z M184.08,209.328l22.624-22.624l22.632,22.624l-22.632,22.632
			L184.08,209.328z M206.704,254.584l33.944-33.944l47.032,47.032h-67.888L206.704,254.584z M235.792,283.672h67.888l32,32h-67.888
			L235.792,283.672z M283.8,331.672h67.88l7.768,7.768l-33.944,33.936L283.8,331.672z" />
	<rect x="57.295" y="59.911" transform="matrix(0.7071 -0.7071 0.7071 0.7071 -28.8956 66.0613)" width="16" height="16" />
</svg>
