<svg height="396" width="396" viewBox="0 0 396 396"><g fill="currentColor" class="nc-icon-wrapper"><path d="M240.648 198.016L209.024 166.4 42.624 0 27.872 14.824c-31.2 31.2-4 102.208 22.624 128.8l99.648 99.64 22.624-22.624 22.624 22.632-11.312 11.312L325.504 396l56.568-56.56-141.424-141.424zm-90.504 22.624l-88.336-88.328a125.864 125.864 0 0 1-28.856-55.04c-5.672-22.88-3.392-41.528 6.232-51.16l3.472-3.488 152.736 152.768-5.656 5.656L87.92 79.216 76.6 90.528 178.424 192.36l-28.28 28.28zm33.936-11.312l22.624-22.624 22.632 22.624-22.632 22.632-22.624-22.632zm22.624 45.256l33.944-33.944 47.032 47.032h-67.888l-13.088-13.088zm29.088 29.088h67.888l32 32h-67.888l-32-32zm48.008 48h67.88l7.768 7.768-33.944 33.936-41.704-41.704z"></path><path d="M53.98 67.911l11.314-11.313L76.608 67.91 65.294 79.225z"></path></g></svg>