<svg xmlns="http://www.w3.org/2000/svg" height="483" width="483" viewBox="0 0 483.392 483.392">
	<g fill="currentColor" class="nc-icon-wrapper">
		<path d="M329.696 307.392c-2.6 0-5.168.152-7.712.392l-24.864-43.088 61.032-105.704c22.848-39.6 18.512-99.6-11.016-152.84l-1.04-1.96A8 8 0 0 0 339.088 0a8 8 0 0 0-7.008 4.144l-90.384 163.96L151.344 4.192a8 8 0 0 0-7.008-4.144 8 8 0 0 0-7.008 4.192l-.992 1.848c-29.608 53.304-33.944 113.304-11.096 152.904l61.032 105.704-24.864 43.088c-2.552-.24-5.12-.392-7.712-.392-48.601 0-88 39.399-88 88s39.399 88 88 88 88-39.399 88-88a85.945 85.945 0 0 0-4.392-27.104l4.392-7.608 4.392 7.608a86.059 86.059 0 0 0-4.392 27.104c0 48.601 39.399 88 88 88s88-39.399 88-88-39.399-88-88-88zm9.144-282.4c21.304 44.952 23.72 94.344 5.448 125.992l-56.408 97.704-23.592-40.88c.136-.208.312-.368.432-.584l48-88a8.002 8.002 0 0 0-14.048-7.664l-43.696 80.12-4.096-7.096 87.96-159.592zm-199.736 126c-18.264-31.6-15.856-80.984 5.448-126l88 159.576-4.096 7.088-43.736-80.096a8.002 8.002 0 0 0-14.048 7.664l48 88c.12.216.296.376.432.584l-23.592 40.88-56.408-97.696zm14.592 316.4c-39.764 0-72-32.236-72-72 0-39.765 32.236-72 72-72 3.626-.001 7.245.29 10.824.872a71.647 71.647 0 0 1 56.592 46 69.476 69.476 0 0 1 4.584 25.128c-.044 39.746-32.254 71.956-72 72zm75.528-117.12c-1.144-1.92-2.4-3.752-3.688-5.6-.24-.336-.44-.696-.688-1.032a87.501 87.501 0 0 0-6.536-7.92c-.656-.704-1.336-1.368-2.008-2.056a90.974 90.974 0 0 0-5.768-5.352c-.72-.608-1.416-1.24-2.16-1.832a87.59 87.59 0 0 0-8.168-5.784c-.672-.424-1.384-.8-2.072-1.176a88.866 88.866 0 0 0-10.096-5.08 84.462 84.462 0 0 0-8.376-3.064c-.472-.144-.92-.336-1.392-.472l-.168-.056 17.408-30.176 36.944 64-3.232 5.6zm12.472-21.592l-36.944-64 36.944-64 36.944 64-36.944 64zm9.296 15.968l36.888-63.976 17.408 30.176-.216.072c-.256.072-.496.176-.744.248a88.747 88.747 0 0 0-9.096 3.32c-.904.392-1.8.8-2.688 1.208a90.308 90.308 0 0 0-7.472 3.92c-.6.36-1.224.664-1.816 1.032a87.46 87.46 0 0 0-8.24 5.832c-.744.584-1.432 1.216-2.152 1.832a86.695 86.695 0 0 0-5.68 5.256c-.72.728-1.456 1.448-2.152 2.208a86.69 86.69 0 0 0-6.4 7.76c-.328.456-.608.952-.936 1.416-1.208 1.736-2.4 3.472-3.504 5.296l-3.2-5.6zm78.704 122.744c-39.746-.044-71.956-32.254-72-72a69.589 69.589 0 0 1 4.616-25.216 71.598 71.598 0 0 1 56.672-45.928 66.725 66.725 0 0 1 10.712-.856c39.765 0 72 32.235 72 72 0 39.764-32.235 72-72 72z">
		</path>
		<path d="M241.696 243.392c-13.255 0-24 10.745-24 24s10.745 24 24 24 24-10.745 24-24-10.745-24-24-24zm0 32a8 8 0 1 1 0-16 8 8 0 0 1 0 16z">
		</path>
		<path d="M329.696 339.392c-30.928 0-56 25.072-56 56s25.072 56 56 56 56-25.072 56-56c-.04-30.912-25.088-55.96-56-56zm0 96c-22.091 0-40-17.909-40-40s17.909-40 40-40 40 17.909 40 40c-.026 22.08-17.92 39.974-40 40z">
		</path>
		<path d="M153.696 339.392c-30.928 0-56 25.072-56 56s25.072 56 56 56 56-25.072 56-56c-.04-30.912-25.088-55.96-56-56zm0 96c-22.091 0-40-17.909-40-40s17.909-40 40-40 40 17.909 40 40c-.026 22.08-17.92 39.974-40 40z">
		</path>
	</g>
</svg>
