<svg height="480" width="480" viewBox="0 0 480.021 480.021"><g fill="currentColor" class="nc-icon-wrapper"><path d="M400.194 355.552C385.892 324.122 354.53 303.962 320 304V122.24c0-44.8-26.912-88.496-73.928-119.84l-1.728-1.12c-.088-.056-.184-.072-.272-.128-.088-.056-.16-.136-.248-.184-.24-.128-.496-.176-.736-.28a8.03 8.03 0 0 0-1.008-.376 8.602 8.602 0 0 0-1.008-.176A8.224 8.224 0 0 0 240 0a8.51 8.51 0 0 0-1.008.096 8.113 8.113 0 0 0-1.072.184 8.666 8.666 0 0 0-.984.376c-.24.104-.504.152-.744.28-.088.048-.16.128-.248.184-.088.056-.184.072-.272.128l-1.824 1.184C186.912 33.744 160 77.4 160 122.24V304c-48.601-.054-88.043 39.302-88.097 87.903-.054 48.601 39.302 88.043 87.903 88.097 34.53.038 65.892-20.122 80.194-51.552 20.13 44.236 72.309 63.779 116.545 43.649s63.779-72.309 43.649-116.545zM248 23.408C284.224 51 304 85.72 304 122.24v88.16l-56-31.12V23.408zM160 464c-39.764 0-72-32.236-72-72 0-39.765 32.236-72 72-72 39.765 0 72 32.235 72 72-.044 39.746-32.254 71.956-72 72zm72-122.4a88.543 88.543 0 0 0-56-36.072V248h56v93.6zM176 232V122.24c0-36.544 19.8-71.288 56-98.84V184a8.001 8.001 0 0 0 4.12 6.992l67.88 37.72v76.8a87.066 87.066 0 0 0-16 4.64V264h-16v54.4a88.879 88.879 0 0 0-24 23.2V232h-72zm144 232c-39.764 0-72-32.236-72-72 0-39.765 32.236-72 72-72 39.765 0 72 32.235 72 72-.044 39.746-32.254 71.956-72 72z"></path><path d="M160 336c-30.928 0-56 25.072-56 56s25.072 56 56 56 56-25.072 56-56c-.04-30.911-25.089-55.96-56-56zm0 96c-22.091 0-40-17.909-40-40s17.909-40 40-40 40 17.909 40 40c-.026 22.08-17.92 39.974-40 40z"></path><path d="M320 336c-30.928 0-56 25.072-56 56s25.072 56 56 56 56-25.072 56-56c-.04-30.911-25.089-55.96-56-56zm0 96c-22.091 0-40-17.909-40-40s17.909-40 40-40 40 17.909 40 40c-.026 22.08-17.92 39.974-40 40z"></path><path d="M272 232h16v16h-16z"></path></g></svg>