<svg viewBox="0 0 483.392 483.392">
	<path d="M329.696,307.392c-2.6,0-5.168,0.152-7.712,0.392l-24.864-43.088l61.032-105.704c22.848-39.6,18.512-99.6-11.016-152.84
				l-1.04-1.96c-1.393-2.574-4.081-4.182-7.008-4.192c-2.917,0.001-5.602,1.588-7.008,4.144l-90.384,163.96L151.344,4.192
				c-1.406-2.556-4.091-4.143-7.008-4.144c-2.927,0.01-5.615,1.618-7.008,4.192l-0.992,1.848
				c-29.608,53.304-33.944,113.304-11.096,152.904l61.032,105.704l-24.864,43.088c-2.552-0.24-5.12-0.392-7.712-0.392
				c-48.601,0-88,39.399-88,88c0,48.601,39.399,88,88,88s88-39.399,88-88c-0.002-9.212-1.485-18.363-4.392-27.104l4.392-7.608
				l4.392,7.608c-2.905,8.741-4.388,17.892-4.392,27.104c0,48.601,39.399,88,88,88c48.601,0,88-39.399,88-88
				C417.696,346.791,378.297,307.392,329.696,307.392z M338.84,24.992c21.304,44.952,23.72,94.344,5.448,125.992l-56.408,97.704
				l-23.592-40.88c0.136-0.208,0.312-0.368,0.432-0.584l48-88c2.116-3.879,0.687-8.74-3.192-10.856
				c-3.879-2.116-8.74-0.687-10.856,3.192l-43.696,80.12l-4.096-7.096L338.84,24.992z M139.104,150.992
				c-18.264-31.6-15.856-80.984,5.448-126l88,159.576l-4.096,7.088L184.72,111.56c-2.116-3.879-6.977-5.308-10.856-3.192
				c-3.879,2.116-5.308,6.977-3.192,10.856l48,88c0.12,0.216,0.296,0.376,0.432,0.584l-23.592,40.88L139.104,150.992z
				 M153.696,467.392c-39.764,0-72-32.236-72-72c0-39.765,32.236-72,72-72c3.626-0.001,7.245,0.29,10.824,0.872
				c25.84,3.867,47.527,21.495,56.592,46c3.068,8.021,4.622,16.541,4.584,25.128C225.652,435.138,193.442,467.348,153.696,467.392z
				 M229.224,350.272c-1.144-1.92-2.4-3.752-3.688-5.6c-0.24-0.336-0.44-0.696-0.688-1.032c-2.022-2.766-4.204-5.41-6.536-7.92
				c-0.656-0.704-1.336-1.368-2.008-2.056c-1.851-1.872-3.773-3.656-5.768-5.352c-0.72-0.608-1.416-1.24-2.16-1.832
				c-2.61-2.082-5.337-4.013-8.168-5.784c-0.672-0.424-1.384-0.8-2.072-1.176c-2.304-1.349-4.669-2.595-7.096-3.736
				c-0.992-0.464-1.984-0.912-3-1.344c-2.736-1.168-5.532-2.191-8.376-3.064c-0.472-0.144-0.92-0.336-1.392-0.472l-0.168-0.056
				l17.408-30.176l36.944,64L229.224,350.272z M241.696,328.68l-36.944-64l36.944-64l36.944,64L241.696,328.68z M250.992,344.648
				l36.888-63.976l17.408,30.176l-0.216,0.072c-0.256,0.072-0.496,0.176-0.744,0.248c-3.09,0.94-6.127,2.049-9.096,3.32
				c-0.904,0.392-1.8,0.8-2.688,1.208c-2.56,1.195-5.051,2.501-7.472,3.92c-0.6,0.36-1.224,0.664-1.816,1.032
				c-2.857,1.784-5.608,3.731-8.24,5.832c-0.744,0.584-1.432,1.216-2.152,1.832c-1.968,1.664-3.861,3.416-5.68,5.256
				c-0.72,0.728-1.456,1.448-2.152,2.208c-2.282,2.461-4.419,5.052-6.4,7.76c-0.328,0.456-0.608,0.952-0.936,1.416
				c-1.208,1.736-2.4,3.472-3.504,5.296L250.992,344.648z M329.696,467.392c-39.746-0.044-71.956-32.254-72-72
				c-0.036-8.619,1.529-17.169,4.616-25.216c9.091-24.506,30.814-42.111,56.672-45.928c3.542-0.573,7.124-0.859,10.712-0.856
				c39.765,0,72,32.235,72,72C401.696,435.156,369.461,467.392,329.696,467.392z" />
	<path d="M241.696,243.392c-13.255,0-24,10.745-24,24s10.745,24,24,24s24-10.745,24-24S254.951,243.392,241.696,243.392z
				 M241.696,275.392c-4.418,0-8-3.582-8-8s3.582-8,8-8s8,3.582,8,8S246.114,275.392,241.696,275.392z" />
	<path d="M329.696,339.392c-30.928,0-56,25.072-56,56c0,30.928,25.072,56,56,56c30.928,0,56-25.072,56-56
				C385.656,364.48,360.608,339.432,329.696,339.392z M329.696,435.392c-22.091,0-40-17.909-40-40c0-22.091,17.909-40,40-40
				c22.091,0,40,17.909,40,40C369.67,417.472,351.776,435.366,329.696,435.392z" />
	<path d="M153.696,339.392c-30.928,0-56,25.072-56,56c0,30.928,25.072,56,56,56c30.928,0,56-25.072,56-56
				C209.656,364.48,184.608,339.432,153.696,339.392z M153.696,435.392c-22.091,0-40-17.909-40-40c0-22.091,17.909-40,40-40
				s40,17.909,40,40C193.67,417.472,175.776,435.366,153.696,435.392z" />
</svg>
