<svg viewBox="0 0 480.021 480.021">
	<path d="M400.194,355.552C385.892,324.122,354.53,303.962,320,304V122.24c0-44.8-26.912-88.496-73.928-119.84l-1.728-1.12
			c-0.088-0.056-0.184-0.072-0.272-0.128c-0.088-0.056-0.16-0.136-0.248-0.184c-0.24-0.128-0.496-0.176-0.736-0.28
			c-0.327-0.148-0.664-0.273-1.008-0.376c-0.332-0.079-0.669-0.137-1.008-0.176C240.718,0.067,240.36,0.022,240,0
			c-0.338,0.012-0.674,0.044-1.008,0.096c-0.361,0.037-0.719,0.099-1.072,0.184c-0.335,0.105-0.664,0.231-0.984,0.376
			c-0.24,0.104-0.504,0.152-0.744,0.28c-0.088,0.048-0.16,0.128-0.248,0.184c-0.088,0.056-0.184,0.072-0.272,0.128l-1.824,1.184
			C186.912,33.744,160,77.4,160,122.24V304c-48.601-0.054-88.043,39.302-88.097,87.903c-0.054,48.601,39.302,88.043,87.903,88.097
			c34.53,0.038,65.892-20.122,80.194-51.552c20.13,44.236,72.309,63.779,116.545,43.649S420.324,399.788,400.194,355.552z
			 M248,23.408C284.224,51,304,85.72,304,122.24v88.16l-56-31.12V23.408z M160,464c-39.764,0-72-32.236-72-72
			c0-39.765,32.236-72,72-72c39.765,0,72,32.235,72,72C231.956,431.746,199.746,463.956,160,464z M232,341.6
			c-13.26-18.855-33.35-31.796-56-36.072V248h56V341.6z M176,232V122.24c0-36.544,19.8-71.288,56-98.84V184
			c0.002,2.906,1.579,5.583,4.12,6.992l67.88,37.72v76.8c-5.469,1.032-10.827,2.585-16,4.64V264h-16v54.4
			c-9.393,6.148-17.537,14.02-24,23.2V232H176z M320,464c-39.764,0-72-32.236-72-72c0-39.765,32.236-72,72-72
			c39.765,0,72,32.235,72,72C391.956,431.746,359.746,463.956,320,464z" />
	<path d="M160,336c-30.928,0-56,25.072-56,56c0,30.928,25.072,56,56,56c30.928,0,56-25.072,56-56
			C215.96,361.089,190.911,336.04,160,336z M160,432c-22.091,0-40-17.909-40-40c0-22.091,17.909-40,40-40s40,17.909,40,40
			C199.974,414.08,182.08,431.974,160,432z" />
	<path d="M320,336c-30.928,0-56,25.072-56,56c0,30.928,25.072,56,56,56c30.928,0,56-25.072,56-56
			C375.96,361.089,350.911,336.04,320,336z M320,432c-22.091,0-40-17.909-40-40c0-22.091,17.909-40,40-40c22.091,0,40,17.909,40,40
			C359.974,414.08,342.08,431.974,320,432z" />
	<rect x="272" y="232" width="16" height="16" />
</svg>
