<svg width="48" height="48" xmlns="http://www.w3.org/2000/svg" viewBox="0 0 48 48"><g fill="none" class="nc-icon-wrapper"><path fill-rule="evenodd" clip-rule="evenodd" d="M16.642 30.228c.172-.042.346-.06.518-.059a1 1 0 0 1 .74.341l6.1 6.971 6.1-6.97a1 1 0 0 1 .74-.342c.172-.002.346.017.518.06 2.762.673 5.603 1.71 7.778 3.138C41.29 34.78 43 36.727 43 39.25V44a1 1 0 0 1-1 1H6a1 1 0 0 1-1-1v-4.75c0-2.523 1.711-4.47 3.864-5.883 2.175-1.429 5.016-2.465 7.778-3.139zm.13 2.03c-2.524.643-4.98 1.58-6.81 2.78C8.026 36.31 7 37.73 7 39.25V43h34v-3.75c0-1.52-1.026-2.94-2.962-4.211-1.83-1.202-4.286-2.138-6.81-2.782l-6.475 7.401a1 1 0 0 1-1.506 0l-6.476-7.4zm14.35-1.058z" fill="currentColor"></path><path d="M36 37s-2-1-3-2c-1 1-3 2-3 2s1.047 4 3 4 3-4 3-4z" fill="currentColor"></path><path fill-rule="evenodd" clip-rule="evenodd" d="M20.5 29a2 2 0 0 1 2-2h3a2 2 0 0 1 2 2v1.382a2 2 0 0 1-.873 1.652l.854 4.27-1.962.392-1-5a1 1 0 0 1 .534-1.09l.447-.224V29h-3v1.586l.707.707a1 1 0 0 1 .27.924l-1 4.5-1.953-.434.88-3.964-.318-.319a2 2 0 0 1-.586-1.414V29z" fill="currentColor"></path><path fill-rule="evenodd" clip-rule="evenodd" d="M15 17v-2h2v2a7 7 0 1 0 14 0v-2h2v2a9 9 0 1 1-18 0z" fill="currentColor"></path><path fill-rule="evenodd" clip-rule="evenodd" d="M24.16 3.013L24 4l-.16-.987.16-.026.16.026zm9.844 10.384l.066-.075c.219-.254.505-.623.789-1.1A8.023 8.023 0 0 0 36 8.097c0-.705-.415-1.236-.804-1.586-.403-.363-.93-.672-1.483-.936-1.116-.534-2.562-.992-3.955-1.364a60.66 60.66 0 0 0-3.846-.879 66.718 66.718 0 0 0-1.622-.298l-.096-.016-.025-.004-.01-.001L24 4l-.16-.987-.009.001-.025.004-.096.016-.356.062c-.306.054-.743.134-1.265.236a60.66 60.66 0 0 0-3.847.88c-1.393.37-2.839.83-3.955 1.363-.553.264-1.08.573-1.483.936-.39.35-.804.881-.804 1.586 0 1.77.573 3.171 1.141 4.125a7.872 7.872 0 0 0 .855 1.175c.01.132.03.282.066.446.124.552.428 1.23 1.095 1.876C16.471 16.989 19.044 18 24 18c4.956 0 7.53-1.01 8.843-2.281.667-.646.971-1.324 1.094-1.876.037-.164.057-.314.067-.445zM31.702 14H16.297c.068.09.15.184.25.281.754.73 2.68 1.719 7.452 1.719s6.698-.99 7.453-1.719c.1-.097.181-.191.248-.281zM15.43 12h17.138a5.9 5.9 0 0 0 .572-.802A6.025 6.025 0 0 0 34 8.15a.862.862 0 0 0-.142-.153c-.198-.179-.53-.39-1.008-.618-.947-.453-2.25-.873-3.608-1.235a58.682 58.682 0 0 0-3.716-.85A64.929 64.929 0 0 0 24 5.015l-.299.052c-.295.052-.719.129-1.227.229-1.019.2-2.37.49-3.716.849-1.357.362-2.661.782-3.608 1.235-.477.228-.81.44-1.008.618A.862.862 0 0 0 14 8.15a6.025 6.025 0 0 0 .859 3.048c.21.35.417.62.572.802z" fill="currentColor"></path><path d="M26 9a2 2 0 1 1-4 0 2 2 0 0 1 4 0z" fill="currentColor"></path></g></svg>