<svg width="48" height="48" xmlns="http://www.w3.org/2000/svg" viewBox="0 0 48 48"><g fill="none" class="nc-icon-wrapper"><path d="M41.852 10.26a1.147 1.147 0 0 0-.923-1.095l-5.75-1.143a1.147 1.147 0 1 0-.447 2.25l3.595.714-3.241 2.72a10.322 10.322 0 0 0-16.659 11.765 1.147 1.147 0 0 0 2.056-1.017 8.028 8.028 0 1 1 4.864 4.123 1.147 1.147 0 0 0-.666 2.195 10.321 10.321 0 0 0 11.81-15.251l3.132-2.628.084 3.311A1.147 1.147 0 0 0 42 16.147l-.148-5.886z" fill="currentColor"></path><path d="M9.471 16.272a8.028 8.028 0 0 1 9.56-3.371 1.147 1.147 0 1 0 .775-2.16 10.321 10.321 0 1 0-4.631 19.975v2.356h-3.44a1.147 1.147 0 0 0 0 2.294h3.44v3.44a1.147 1.147 0 0 0 2.294 0v-3.44l3.44-.001a1.147 1.147 0 1 0 0-2.294h-3.44v-2.355a10.323 10.323 0 0 0 8.32-14.37 1.147 1.147 0 1 0-2.103.914 8.028 8.028 0 1 1-14.215-.988z" fill="currentColor"></path></g></svg>