<svg width="48" height="48" xmlns="http://www.w3.org/2000/svg" viewBox="0 0 48 48"><g fill="none" class="nc-icon-wrapper"><path fill-rule="evenodd" clip-rule="evenodd" d="M14.127 14.127v.126a3.644 3.644 0 0 0 .167.75c.184.55.57 1.35 1.406 2.186l3.573 3.573-9.714 9.714.904.905 13.852-5.327 6.955 5.216-5.216-6.955 5.327-13.852-.905-.904-9.714 9.714-3.573-3.573c-.835-.835-1.636-1.222-2.187-1.406a3.654 3.654 0 0 0-.628-.153 1.759 1.759 0 0 0-.121-.014h-.126zm19.587-4.159L28.318 24l6.476 8.635 4.317-2.159 1.08 1.08-8.636 8.634-1.079-1.079 2.159-4.317L24 28.318 9.968 33.713 6.73 30.476l9.714-9.714-2.158-2.159a7.996 7.996 0 0 1-1.536-2.112 6.366 6.366 0 0 1-.551-1.607c-.072-.375-.072-.598-.072-.598l-3.238 3.238c-1.08 1.08-2.159 0-1.08-1.08l8.635-8.634c1.08-1.08 2.16 0 1.08 1.079l-3.238 3.238s.223 0 .598.072c.395.075.959.231 1.607.551.648.32 1.38.804 2.112 1.536l2.159 2.158 9.714-9.714 3.238 3.238z" fill="currentColor"></path></g></svg>