<svg width="48" height="48" xmlns="http://www.w3.org/2000/svg" viewBox="0 0 48 48"><g fill="none" class="nc-icon-wrapper"><path fill-rule="evenodd" clip-rule="evenodd" d="M12 27a1.999 1.999 0 1 0 0-4 1.999 1.999 0 1 0 0 4zm4-2c0 2.21-1.79 4-4 4s-4-1.79-4-4 1.79-4 4-4 4 1.79 4 4z" fill="currentColor"></path><path fill-rule="evenodd" clip-rule="evenodd" d="M11.296 31.004c-.071-.075-.191-.226-.34-.414-.509-.64-1.353-1.703-1.725-1.573C7.129 29.751 5 31.247 5 33.497v1.19C5 35.413 5.588 36 6.313 36h11.375c.724 0 1.312-.588 1.312-1.313v-1.19c0-2.25-2.129-3.746-4.23-4.48-.373-.13-1.217.933-1.726 1.573-.149.188-.269.34-.34.414h-1.408zm3.748.294a23 23 0 0 0-.386.477l-.044.055c-.068.085-.136.172-.197.246a5.205 5.205 0 0 1-.266.308l-.59.62H10.44l-.591-.62a5.245 5.245 0 0 1-.266-.308l-.197-.245c-.014-.02-.03-.038-.044-.056-.126-.16-.256-.322-.386-.477a5.335 5.335 0 0 0-1.26.848c-.51.48-.696.92-.696 1.35V34h10v-.504c0-.43-.186-.87-.697-1.35a5.337 5.337 0 0 0-1.259-.848zm-6.576-.522zm7.065-.001z" fill="currentColor"></path><path fill-rule="evenodd" clip-rule="evenodd" d="M36 27a1.999 1.999 0 1 0 0-4 1.999 1.999 0 1 0 0 4zm4-2c0 2.21-1.79 4-4 4s-4-1.79-4-4 1.79-4 4-4 4 1.79 4 4z" fill="currentColor"></path><path fill-rule="evenodd" clip-rule="evenodd" d="M33.715 29.347c-.088-.258-.289-.398-.484-.33-2.102.734-4.231 2.23-4.231 4.48v1.19c0 .725.588 1.313 1.313 1.313h11.375c.724 0 1.312-.588 1.312-1.313v-1.19c0-2.25-2.129-3.746-4.23-4.48-.196-.068-.397.072-.485.33l-1.58 1.657H35.295l-1.58-1.657zm-.856 2a5.227 5.227 0 0 0-1.162.799c-.511.48-.697.92-.697 1.35V34h10v-.504c0-.43-.186-.87-.697-1.35a5.226 5.226 0 0 0-1.162-.799l-1.58 1.657H34.44l-1.58-1.657z" fill="currentColor"></path><path fill-rule="evenodd" clip-rule="evenodd" d="M39 15H9v-2h30v2z" fill="currentColor"></path><path fill-rule="evenodd" clip-rule="evenodd" d="M11.707 10.293a1 1 0 0 1 0 1.414l-2.121 2.121 2.121 2.122a1 1 0 0 1-1.414 1.414l-2.121-2.121a2 2 0 0 1 0-2.829l2.121-2.121a1 1 0 0 1 1.414 0z" fill="currentColor"></path><path fill-rule="evenodd" clip-rule="evenodd" d="M36.293 17.707a1 1 0 0 1 0-1.414l2.121-2.121-2.121-2.122a1 1 0 1 1 1.414-1.414l2.121 2.121a2 2 0 0 1 0 2.829l-2.12 2.121a1 1 0 0 1-1.415 0z" fill="currentColor"></path></g></svg>