<svg height="480" width="480" viewBox="0 0 480.049 480.049"><g fill="currentColor" class="nc-icon-wrapper"><path d="M424.073 0c-26.51-.027-48.022 21.442-48.049 47.951-.024 23.441 16.887 43.47 40 47.377v216.72c-.081 46.627-31.154 87.515-76.056 100.08a119.14 119.14 0 0 0 12.056-52.08V222.361c14.112-5.92 24-27.264 24-54.312 0-31.928-13.76-56-32-56s-32 24.072-32 56c0 27.048 9.888 48.392 24 54.312v137.688a103.283 103.283 0 0 1-16.264 55.608c-2.568.192-5.128.392-7.736.392h-16c-57.41-.066-103.934-46.59-104-104v-40h48c22.08-.026 39.974-17.92 40-40v-192c-.026-22.08-17.92-39.974-40-40h-192c-22.08.026-39.974 17.92-40 40v192c.026 22.08 17.92 39.974 40 40h48v88c.075 66.243 53.757 119.925 120 120h16a119.775 119.775 0 0 0 96.752-49.312c59.147-8.373 103.145-58.951 103.248-118.688V95.329c23.066-3.919 39.957-23.883 40-47.28C472.051 21.539 450.583.027 424.073 0zM24.024 40.049c0-13.255 10.745-24 24-24h192c13.255 0 24 10.745 24 24v144h-240v-144zm24 216c-13.255 0-24-10.745-24-24v-32h240v32c0 13.255-10.745 24-24 24h-192zm184 208h-16c-57.41-.066-103.934-46.59-104-104v-88h64v40c.075 66.243 53.757 119.925 120 120h10.872a103.64 103.64 0 0 1-74.872 32zm96-296c0-24.416 9.48-40 16-40s16 15.584 16 40-9.48 40-16 40-16-15.584-16-40zm96-88c-17.673 0-32-14.327-32-32s14.327-32 32-32a31.573 31.573 0 0 1 16.152 4.536l-21.808 21.808 11.312 11.312 21.808-21.808a31.573 31.573 0 0 1 4.536 16.152c0 17.673-14.327 32-32 32z"></path></g></svg>