<svg viewBox="0 0 480.049 480.049">
	<path d="M424.073,0c-26.51-0.027-48.022,21.442-48.049,47.951c-0.024,23.441,16.887,43.47,40,47.377v216.72
			c-0.081,46.627-31.154,87.515-76.056,100.08c7.912-16.223,12.034-34.031,12.056-52.08V222.361c14.112-5.92,24-27.264,24-54.312
			c0-31.928-13.76-56-32-56s-32,24.072-32,56c0,27.048,9.888,48.392,24,54.312v137.688c-0.005,19.708-5.648,39.003-16.264,55.608
			c-2.568,0.192-5.128,0.392-7.736,0.392h-16c-57.41-0.066-103.934-46.59-104-104v-40h48c22.08-0.026,39.974-17.92,40-40v-192
			c-0.026-22.08-17.92-39.974-40-40h-192c-22.08,0.026-39.974,17.92-40,40v192c0.026,22.08,17.92,39.974,40,40h48v88
			c0.075,66.243,53.757,119.925,120,120h16c38.277-0.033,74.234-18.359,96.752-49.312c59.147-8.373,103.145-58.951,103.248-118.688
			V95.329c23.066-3.919,39.957-23.883,40-47.28C472.051,21.539,450.583,0.027,424.073,0z M24.024,40.049c0-13.255,10.745-24,24-24
			h192c13.255,0,24,10.745,24,24v144h-240V40.049z M48.024,256.049c-13.255,0-24-10.745-24-24v-32h240v32c0,13.255-10.745,24-24,24
			H48.024z M232.024,464.049h-16c-57.41-0.066-103.934-46.59-104-104v-88h64v40c0.075,66.243,53.757,119.925,120,120h10.872
			C287.35,452.483,260.302,464.043,232.024,464.049z M328.024,168.049c0-24.416,9.48-40,16-40c6.52,0,16,15.584,16,40
			s-9.48,40-16,40C337.504,208.049,328.024,192.465,328.024,168.049z M424.024,80.049c-17.673,0-32-14.327-32-32s14.327-32,32-32
			c5.695,0.028,11.276,1.595,16.152,4.536l-21.808,21.808l11.312,11.312l21.808-21.808c2.941,4.876,4.508,10.457,4.536,16.152
			C456.024,65.722,441.697,80.049,424.024,80.049z" />
</svg>
