<svg width="48" height="48" xmlns="http://www.w3.org/2000/svg" viewBox="0 0 48 48"><g fill="none" class="nc-icon-wrapper"><path fill-rule="evenodd" clip-rule="evenodd" d="M19.764 10c.55-.614 1.348-1 2.236-1 .889 0 1.687.386 2.236 1H19.764zM19 12a3 3 0 0 0 3 3v-3h-3zm5 0v3a1 1 0 0 0 1 1h1v-4h-2zm4 0v6h-3c-.913 0-1.73-.408-2.281-1.051A5 5 0 1 1 26.584 10H29v2h-1zm-17 8H9a2 2 0 0 0-2 2v6a2 2 0 0 0 2 2h2a2 2 0 0 0 2-2v-6a2 2 0 0 0-2-2zm4 8v-7a1 1 0 0 1 1-1v12a4 4 0 0 0 4 4h2a4.002 4.002 0 0 0 3.805-2.763l1.691.564a8.001 8.001 0 0 1-15.45-1.939A4.002 4.002 0 0 0 15 28zm8.907 4.604l-3.698-1.232A2.5 2.5 0 0 1 18.5 29v-6a2.5 2.5 0 0 1 5 0v4.198l.5.167V22a2 2 0 0 0-2-2h-4v12a2 2 0 0 0 2 2h2a2 2 0 0 0 1.907-1.396zM18 18h4a4 4 0 0 1 4 4v6.031l3.378 1.127 5.234-2.116.354.875 1.514-1.518 3.886-3.897 1.416 1.412-2.184 2.19h3.09v2h-7.646l.32.792-3.513 1.42a2.499 2.499 0 0 1-2.452 4.11A10.003 10.003 0 0 1 20 41c-5.185 0-9.449-3.947-9.95-9H9a4 4 0 0 1-4-4v-6a4 4 0 0 1 4-4H8a1 1 0 1 1 0-2h4a1 1 0 1 1 0 2h-1c1.046 0 2 .402 2.712 1.06A2.994 2.994 0 0 1 16 18h2zm3 4.5a.5.5 0 0 0-.5.5v6a.5.5 0 0 0 .342.474l9 3a.5.5 0 1 0 .316-.948l-7.974-2.659a1 1 0 0 1-.684-.948V23a.5.5 0 0 0-.5-.5zm-9.707-1.207L10 22.586l-1.293-1.293-1.414 1.414L8.586 24l-1.293 1.293 1.414 1.414L10 25.414l1.293 1.293 1.414-1.414L11.414 24l1.293-1.293-1.414-1.414z" fill="currentColor"></path></g></svg>