<svg width="48" height="48" xmlns="http://www.w3.org/2000/svg" viewBox="0 0 48 48"><g fill="none" class="nc-icon-wrapper"><path fill-rule="evenodd" clip-rule="evenodd" d="M24 8.52l-3.852 7.803a3 3 0 0 1-2.259 1.642l-8.612 1.251 6.232 6.075a3 3 0 0 1 .863 2.655L14.9 36.524l7.704-4.05a3 3 0 0 1 2.792 0l7.703 4.05-1.47-8.578a3 3 0 0 1 .862-2.655l6.232-6.075-8.613-1.251a3 3 0 0 1-2.258-1.642L24 8.52zm.897-2.703a1 1 0 0 0-1.794 0l-4.748 9.621a1 1 0 0 1-.753.547L6.984 17.528a1 1 0 0 0-.554 1.706l7.683 7.49a1 1 0 0 1 .287.884l-1.813 10.575a1 1 0 0 0 1.45 1.054l9.498-4.992a1 1 0 0 1 .93 0l9.497 4.992a1 1 0 0 0 1.451-1.054L33.6 27.608a1 1 0 0 1 .288-.885l7.683-7.489a1 1 0 0 0-.554-1.706l-10.618-1.543a1 1 0 0 1-.753-.547l-4.748-9.621z" fill="currentColor"></path></g></svg>