<svg width="48" height="48" xmlns="http://www.w3.org/2000/svg" viewBox="0 0 48 48"><g fill="none" class="nc-icon-wrapper"><path fill-rule="evenodd" clip-rule="evenodd" d="M24 12.52l-2.676 5.422a3 3 0 0 1-2.259 1.64l-5.984.87 4.33 4.221a3 3 0 0 1 .863 2.655l-1.022 5.96 5.352-2.814a3 3 0 0 1 2.792 0l5.352 2.814-1.022-5.96a3 3 0 0 1 .863-2.655l4.33-4.22-5.984-.87a3 3 0 0 1-2.259-1.641L24 12.519zm.897-2.703a1 1 0 0 0-1.794 0l-3.573 7.24a1 1 0 0 1-.753.546l-7.989 1.161a1 1 0 0 0-.554 1.706l5.781 5.635a1 1 0 0 1 .288.885l-1.365 7.957a1 1 0 0 0 1.45 1.054l7.147-3.756a1 1 0 0 1 .93 0L31.611 36a1 1 0 0 0 1.451-1.054l-1.365-7.957a1 1 0 0 1 .288-.885l5.781-5.635a1 1 0 0 0-.554-1.706l-7.99-1.16a1 1 0 0 1-.752-.548l-3.573-7.239z" fill="currentColor"></path></g></svg>