<svg width="48" height="48" xmlns="http://www.w3.org/2000/svg" viewBox="0 0 48 48"><g fill="none" class="nc-icon-wrapper"><path fill-rule="evenodd" clip-rule="evenodd" d="M25.307 19.595h-.94a6.905 6.905 0 0 1-13.22 0h-.94a7.81 7.81 0 0 0 15.1 0zm2.21-1.002c.056-.55-.397-.998-.95-.998h-2.905c-.552 0-.99.452-1.101.993a4.904 4.904 0 0 1-9.608 0c-.112-.541-.55-.993-1.102-.993H8.946c-.552 0-1.005.449-.95.998a9.811 9.811 0 0 0 19.52 0z" fill="currentColor"></path><path fill-rule="evenodd" clip-rule="evenodd" d="M14.081 28.297v-2.675h2v2.675a1.676 1.676 0 0 0 3.351 0v-2.293h2v2.293a3.676 3.676 0 0 1-7.35 0z" fill="currentColor"></path><path fill-rule="evenodd" clip-rule="evenodd" d="M32.898 25a3.102 3.102 0 0 0-3.103 3.102v7.5a6.398 6.398 0 0 1-12.795 0V30.8h2v4.802a4.398 4.398 0 1 0 8.795 0v-7.5a5.102 5.102 0 0 1 10.205 0v3.548h-2v-3.548A3.102 3.102 0 0 0 32.898 25z" fill="currentColor"></path><path fill-rule="evenodd" clip-rule="evenodd" d="M37.378 33.432a.676.676 0 1 0 0-1.35.676.676 0 0 0 0 1.35zm0 2a2.676 2.676 0 1 0 0-5.351 2.676 2.676 0 0 0 0 5.351z" fill="currentColor"></path><path fill-rule="evenodd" clip-rule="evenodd" d="M12.622 8.784a1 1 0 0 0-1 1v7.81h-2v-7.81a3 3 0 0 1 3-3h1.567v2h-1.567z" fill="currentColor"></path><path fill-rule="evenodd" clip-rule="evenodd" d="M14.19 7.568a.216.216 0 1 0 0 .432.216.216 0 0 0 0-.432zm0 2a1.784 1.784 0 1 0 0-3.568 1.784 1.784 0 0 0 0 3.568z" fill="currentColor"></path><path fill-rule="evenodd" clip-rule="evenodd" d="M22.892 8.784a1 1 0 0 1 1 1v7.81h2v-7.81a3 3 0 0 0-3-3h-1.568v2h1.568z" fill="currentColor"></path><path fill-rule="evenodd" clip-rule="evenodd" d="M21.324 7.568a.216.216 0 1 1 0 .432.216.216 0 0 1 0-.432zm0 2a1.784 1.784 0 1 1 0-3.568 1.784 1.784 0 0 1 0 3.568z" fill="currentColor"></path></g></svg>