<svg width="48" height="48" xmlns="http://www.w3.org/2000/svg" viewBox="0 0 48 48"><g fill="none" class="nc-icon-wrapper"><path fill-rule="evenodd" clip-rule="evenodd" d="M19.967 11.507a2.5 2.5 0 0 0-2.24 1.39l.896.444-.896-.444-3.467 6.992a2.5 2.5 0 0 0 .32 2.711l5 6a2.5 2.5 0 1 0 3.84-3.201l-.768.64.769-.64-4.375-5.249-1.536 1.28 4.374 5.25a.5.5 0 1 1-.768.64l-5-6a.5.5 0 0 1-.064-.543l3.467-6.992a.5.5 0 0 1 .448-.278v-2z" fill="currentColor"></path><path fill-rule="evenodd" clip-rule="evenodd" d="M31.326 14.428c.657.656 1.207 1.615 1.207 2.888 0 1.873-.612 3.125-1.264 3.898a4.26 4.26 0 0 1-.411.424v-5.863h-2v27.094a.64.64 0 0 1-.635.635.64.64 0 0 1-.634-.635V31.217h-2v11.652a2.64 2.64 0 0 0 2.634 2.635 2.64 2.64 0 0 0 2.635-2.635V24.005c.157-.068.311-.148.458-.234a5.807 5.807 0 0 0 1.48-1.267c.96-1.136 1.737-2.847 1.737-5.188 0-1.903-.838-3.348-1.794-4.303a6.138 6.138 0 0 0-1.463-1.088c-.444-.232-.956-.42-1.418-.42h-9.934v2h9.934l.004.002c.031.006.198.04.485.19.298.156.648.4.979.73zM20.05 42.869V26.5h-2v16.369a2.64 2.64 0 0 0 2.635 2.635 2.64 2.64 0 0 0 2.635-2.635V31.217h-2v11.652a.64.64 0 0 1-.635.635.64.64 0 0 1-.635-.635z" fill="currentColor"></path><path fill-rule="evenodd" clip-rule="evenodd" d="M24.467 4.497a3 3 0 0 0-3 3.001 3 3 0 1 0 3-3.001zm-5 3.001a5 5 0 1 1 5 5.002 5 5 0 0 1-5-5.002z" fill="currentColor"></path><path fill-rule="evenodd" clip-rule="evenodd" d="M21.5 28a1.5 1.5 0 0 0 1.1-2.52 4 4 0 1 1-1.905 2.286c.232.148.508.234.805.234zm5 1a2 2 0 1 1-4 0 2 2 0 0 1 4 0z" fill="currentColor"></path></g></svg>