<svg width="48" height="48" xmlns="http://www.w3.org/2000/svg" viewBox="0 0 48 48"><g fill="none" class="nc-icon-wrapper"><path fill-rule="evenodd" clip-rule="evenodd" d="M18.707 4.697a1 1 0 0 1 1.414 0l8.486 8.485a1 1 0 0 1-1.415 1.415L18.707 6.11a1 1 0 0 1 0-1.414z" fill="currentColor"></path><path fill-rule="evenodd" clip-rule="evenodd" d="M28.707 4.707a1 1 0 0 1 0 1.414l-8.485 8.485a1 1 0 0 1-1.414-1.414l8.485-8.485a1 1 0 0 1 1.414 0z" fill="currentColor"></path><path fill-rule="evenodd" clip-rule="evenodd" d="M24.316 15.051a1 1 0 0 0-.632 0L8.869 19.99a.999.999 0 0 0-.527.41L4.398 25.46a1 1 0 0 0 .473 1.564l3.322 1.107.003 8.631a3 3 0 0 0 2.051 2.846l13.382 4.46a1 1 0 0 0 .747 0l13.382-4.46a3 3 0 0 0 2.051-2.846v-8.63l3.326-1.108a1 1 0 0 0 .472-1.564l-3.995-5.128a.999.999 0 0 0-.48-.344L24.316 15.05zm-14.773 7.06l12.803 4.267-2.698 3.463-12.803-4.267 2.698-3.463zm14.46 2.71l11.65-3.883L24 17.054l-11.65 3.883 11.653 3.883zM10.196 36.762l-.002-7.964 9.492 3.163a1 1 0 0 0 1.105-.334l2.21-2.836v12.96l-12.121-4.04a1 1 0 0 1-.684-.95zm27.614-7.964l-9.49 3.163a1 1 0 0 1-1.106-.334l-2.213-2.84.004 12.963 12.12-4.04a1 1 0 0 0 .684-.948v-7.964zm-9.452 1.042l-2.7-3.464 12.803-4.267 2.7 3.465-12.803 4.266z" fill="currentColor"></path></g></svg>