<svg width="48" height="48" xmlns="http://www.w3.org/2000/svg" viewBox="0 0 48 48"><g fill="none" class="nc-icon-wrapper"><path fill-rule="evenodd" clip-rule="evenodd" d="M24.032 13c.445 0 .806.366.806.798v11.056h2v-8.18a.807.807 0 0 1 1.613 0V27.64l1.888.46 1.54-2.977a1.031 1.031 0 0 1 1.462-.413l.044.027.046.023c.553.276.726.957.416 1.443l-.012.018-3.71 6.393C29.211 34.127 27.721 35 26.02 35H20.69C18.077 35 16 32.926 16 30.337V17.933a.807.807 0 0 1 1.613 0v6.741h2v-9.528a.807.807 0 0 1 1.612 0v9.618h2V13.798c0-.432.361-.798.807-.798zm-2.521-.43a2.807 2.807 0 0 1 5.327 1.228v.197a2.807 2.807 0 0 1 3.613 2.68v6.996a3.033 3.033 0 0 1 3.916-.678c1.572.815 2.104 2.792 1.177 4.267l-3.697 6.373-.005.007C30.59 35.719 28.468 37 26.02 37H20.69C16.981 37 14 34.04 14 30.337V17.933a2.807 2.807 0 0 1 3.613-2.68v-.107a2.807 2.807 0 0 1 3.898-2.577z" fill="currentColor"></path><path fill-rule="evenodd" clip-rule="evenodd" d="M24 5c10.493 0 19 8.507 19 19s-8.507 19-19 19S5 34.493 5 24 13.507 5 24 5zm21 19c0-11.598-9.402-21-21-21S3 12.402 3 24s9.402 21 21 21 21-9.402 21-21z" fill="currentColor"></path></g></svg>