<svg width="48" height="48" xmlns="http://www.w3.org/2000/svg" viewBox="0 0 48 48"><g fill="none" class="nc-icon-wrapper"><path fill-rule="evenodd" clip-rule="evenodd" d="M27.185 36.649A4 4 0 1 0 29 40.024L29.224 36h1.552L31 40.024a4 4 0 1 0 1.815-3.375L31 4.01 30 4.066l-.998-.056-1.817 32.639zm3.48-2.65L30 22.059 29.335 34h1.33zM31 18a1 1 0 1 1-2 0 1 1 0 0 1 2 0zm-8 22a2 2 0 1 1 4 0 2 2 0 0 1-4 0zm12-2a2 2 0 1 0 0 4 2 2 0 0 0 0-4z" fill="currentColor"></path><path fill-rule="evenodd" clip-rule="evenodd" d="M17 4.234V16a3 3 0 0 1-3 3c-1.64 0-3.046-1.348-2.936-3.067.261-4.11 1.287-6.77 2.303-8.432.507-.83 1.006-1.402 1.395-1.776a5.462 5.462 0 0 1 .64-.53l.052-.033.018-.011.007-.005.004-.002h.001c0-.001.002-.001.516.856l-.514-.857L17 4.233zm-2 4.432c-.808 1.369-1.704 3.68-1.94 7.394-.031.486.371.94.94.94a1 1 0 0 0 1-1V8.666z" fill="currentColor"></path><path fill-rule="evenodd" clip-rule="evenodd" d="M15 41.5v-21a.5.5 0 0 0-1 0v21a.5.5 0 0 0 1 0zM14.5 18a2.5 2.5 0 0 0-2.5 2.5v21a2.5 2.5 0 0 0 5 0v-21a2.5 2.5 0 0 0-2.5-2.5z" fill="currentColor"></path><path fill-rule="evenodd" clip-rule="evenodd" d="M12.293 23.293l3-3 1.414 1.414-3 3-1.414-1.414z" fill="currentColor"></path><path fill-rule="evenodd" clip-rule="evenodd" d="M12.293 27.293l3-3 1.414 1.414-3 3-1.414-1.414z" fill="currentColor"></path><path fill-rule="evenodd" clip-rule="evenodd" d="M12.293 31.293l3-3 1.414 1.414-3 3-1.414-1.414z" fill="currentColor"></path></g></svg>