<svg width="48" height="48" xmlns="http://www.w3.org/2000/svg" viewBox="0 0 48 48"><g fill="none" class="nc-icon-wrapper"><path fill-rule="evenodd" clip-rule="evenodd" d="M22.85 3.555a2.5 2.5 0 0 0-3.532-.169l-5.5 5a2.5 2.5 0 0 0-.188 3.509l3.953 4.459v25.775a2.64 2.64 0 0 0 2.635 2.635 2.64 2.64 0 0 0 2.634-2.635V30.956h2.27V42.13a2.64 2.64 0 0 0 2.634 2.635 2.64 2.64 0 0 0 2.635-2.635V24.744c.157-.068.311-.148.458-.234a5.81 5.81 0 0 0 1.48-1.266c.96-1.137 1.737-2.847 1.737-5.188 0-1.903-.838-3.349-1.794-4.304a6.14 6.14 0 0 0-1.463-1.087c-.444-.233-.957-.42-1.418-.42h-7.827c-.042 0-.084 0-.126.002h-.813l-1.616-1.822 3.673-3.339a2.5 2.5 0 0 0 .168-3.531zm-2.186 1.311a.5.5 0 0 1 .672.74L16.933 9.61l-.731.664.655.74 2.57 2.897.298.336h1.765l.074-.002h7.827l.004.001c.03.006.198.04.485.19.298.156.648.4.979.73.656.657 1.207 1.617 1.207 2.89 0 1.872-.612 3.124-1.265 3.897-.135.16-.273.3-.408.422V16.22h-2v6.76h-.002v19.15a.64.64 0 0 1-.635.634.64.64 0 0 1-.634-.635V28.956h-6.27V42.13a.64.64 0 0 1-.634.635.64.64 0 0 1-.635-.635V16.245c0-.068.004-.136.01-.202l.055-.559-.449-.337a.509.509 0 0 1-.073-.068l-4-4.51a.5.5 0 0 1 .038-.703l5.5-5z" fill="currentColor"></path><path fill-rule="evenodd" clip-rule="evenodd" d="M24 11a3 3 0 1 0-1.511-5.592c.09-.315.106-.624.011-.908a1.46 1.46 0 0 0-.85-.914C22.35 3.212 23.15 3 24 3a4.99 4.99 0 0 1 3.861 1.823c-.177.265-.363.58-.516.923-.2.447-.345.941-.345 1.436C27 8.186 27.672 9 28.5 9c.144 0 .282-.024.414-.07a5.002 5.002 0 0 1-9.737.393L20.5 8c.159-.127.344-.29.538-.477A3 3 0 0 0 24 11z" fill="currentColor"></path><path fill-rule="evenodd" clip-rule="evenodd" d="M28.5 8c.242 0 .5-.21.5-.545 0-.338-.17-.81-.5-1.35-.33.54-.5 1.012-.5 1.35 0 .335.258.545.5.545zm-1.327-3.504l.032-.043C27.845 3.584 28.5 3 28.5 3s.656.584 1.295 1.453l.032.043C30.425 5.32 31 6.386 31 7.455 31 8.86 29.88 10 28.5 10S26 8.86 26 7.455c0-1.068.575-2.136 1.173-2.959z" fill="currentColor"></path></g></svg>