<svg width="48" height="48" xmlns="http://www.w3.org/2000/svg" viewBox="0 0 48 48"><g fill="none" class="nc-icon-wrapper"><path fill-rule="evenodd" clip-rule="evenodd" d="M10.952 12.103a17.017 17.017 0 0 1 8.06-5.36 5.741 5.741 0 0 1 1.81-2.478 19.002 19.002 0 0 0-12.409 7.867c.158-.02.318-.03.48-.03h2.059zm-3.593 7.405a3.92 3.92 0 0 1-1.717-1.423A19.027 19.027 0 0 0 5 23c0 5.85 2.644 11.082 6.801 14.568l.621-2.12A16.954 16.954 0 0 1 7 23c0-1.197.124-2.365.359-3.492zm12.054 19.866l-.523 1.24a3.804 3.804 0 0 1-.139.652C20.418 41.744 22.18 42 24 42c1.82 0 3.582-.256 5.249-.734a3.804 3.804 0 0 1-.14-.653l-.522-1.239c-1.46.408-2.998.626-4.587.626-1.59 0-3.128-.218-4.587-.626zm16.165-3.926l.62 2.12C40.357 34.082 43 28.85 43 23c0-1.7-.223-3.348-.642-4.915a3.92 3.92 0 0 1-1.717 1.423C40.876 20.635 41 21.803 41 23c0 4.916-2.087 9.344-5.422 12.448zm1.47-23.345h2.058c.163 0 .323.01.48.03a19.019 19.019 0 0 0-11.243-7.634 5.71 5.71 0 0 1 1.649 2.587 17.037 17.037 0 0 1 7.056 5.017z" fill="currentColor"></path><path fill-rule="evenodd" clip-rule="evenodd" d="M24.444 4c-2.618 0-4.787 2.105-4.787 4.72 0 1.992 1.259 3.688 3.016 4.382h-5.915a3.995 3.995 0 0 1 1.14 2h21.208c.507 0 .894.407.894.86 0 .454-.387.86-.894.86H26.995l.375 1.281.7 2.392A3.983 3.983 0 0 1 30 20h.01l-.345-1.178h9.441c1.577 0 2.894-1.267 2.894-2.86 0-1.592-1.317-2.86-2.894-2.86h-12.89c1.757-.694 3.016-2.39 3.016-4.382 0-2.615-2.17-4.72-4.788-4.72zm9.416 36.255l-3.593-12.264a3.977 3.977 0 0 0 1.9-.628l3.66 12.496.041.138v.143c0 1.592-1.317 2.86-2.894 2.86-1.261 0-2.196-.948-2.838-1.869-.681-.977-1.266-2.26-1.762-3.542-.5-1.294-.932-2.65-1.29-3.797l-.119-.377a71.956 71.956 0 0 0-.503-1.574H24.83a4.006 4.006 0 0 0-1.375-2h4.367l.258.611c.222.526.492 1.392.79 2.35l.123.393c.358 1.146.774 2.446 1.248 3.673.478 1.237.994 2.341 1.537 3.12.581.834.993 1.012 1.197 1.012.464 0 .827-.34.886-.745zm-16.1-3.387a37.9 37.9 0 0 0 .39-1.06 3.998 3.998 0 0 0 1.753 1.04c-.09.248-.182.495-.277.74-.496 1.283-1.08 2.566-1.762 3.543-.642.921-1.577 1.869-2.839 1.869-1.576 0-2.893-1.268-2.893-2.86v-.143l.04-.138 6.163-21.037h-1.5a3.992 3.992 0 0 0 1.08-2h3.09l-.375 1.281-6.49 22.152a.889.889 0 0 0 .885.745c.205 0 .617-.178 1.199-1.012.542-.779 1.058-1.883 1.536-3.12zm-6.595-18.046a3.992 3.992 0 0 1-1.08-2H8.894c-.507 0-.894-.406-.894-.86 0-.453.387-.86.894-.86H10.1a3.995 3.995 0 0 1 1.141-2H8.894C7.317 13.102 6 14.37 6 15.962c0 1.593 1.317 2.86 2.894 2.86h2.271zM21.657 8.72c0-1.477 1.24-2.72 2.787-2.72 1.548 0 2.788 1.243 2.788 2.72 0 1.476-1.24 2.72-2.788 2.72-1.548 0-2.787-1.244-2.787-2.72z" fill="currentColor"></path><path fill-rule="evenodd" clip-rule="evenodd" d="M14 18a2 2 0 1 0 0-4 2 2 0 0 0 0 4zm0 2a4 4 0 1 0 0-8 4 4 0 0 0 0 8z" fill="currentColor"></path><path fill-rule="evenodd" clip-rule="evenodd" d="M30 26a2 2 0 1 0 0-4 2 2 0 0 0 0 4zm0 2a4 4 0 1 0 0-8 4 4 0 0 0 0 8z" fill="currentColor"></path><path fill-rule="evenodd" clip-rule="evenodd" d="M21 35a2 2 0 1 0 0-4 2 2 0 0 0 0 4zm0 2a4 4 0 1 0 0-8 4 4 0 0 0 0 8z" fill="currentColor"></path></g></svg>