<svg width="48" height="48" xmlns="http://www.w3.org/2000/svg" viewBox="0 0 48 48"><g fill="none" class="nc-icon-wrapper"><path fill-rule="evenodd" clip-rule="evenodd" d="M31 10h-2v1h-3.5a.5.5 0 0 0 0 1h9a.5.5 0 0 0 0-1H31v-1z" fill="currentColor"></path><path fill-rule="evenodd" clip-rule="evenodd" d="M28 6a1 1 0 0 0-1 1v2a1 1 0 0 0 1 1h4a1 1 0 0 0 1-1V7a1 1 0 0 0-1-1h-4zm2 3a1 1 0 1 0 0-2 1 1 0 0 0 0 2z" fill="currentColor"></path><path fill-rule="evenodd" clip-rule="evenodd" d="M36 39V18.84a2 2 0 0 0-.698-1.519l-1.82-1.56A2.814 2.814 0 0 1 32.525 14h-5.05c-.091.68-.43 1.31-.957 1.762l-1.82 1.56A2 2 0 0 0 24 18.84V39h12zM23.397 15.803A4 4 0 0 0 22 18.84V40a1 1 0 0 0 1 1h14a1 1 0 0 0 1-1V18.84a4 4 0 0 0-1.397-3.037l-1.82-1.56a.813.813 0 0 1-.283-.617c0-.898-.728-1.626-1.626-1.626h-5.748c-.898 0-1.626.728-1.626 1.626a.813.813 0 0 1-.284.617l-1.82 1.56z" fill="currentColor"></path><path fill-rule="evenodd" clip-rule="evenodd" d="M30 23a5 5 0 1 1 0 10 5 5 0 0 1 0-10zm0 1.5a3.5 3.5 0 0 1 2.948 5.387l-4.835-4.835A3.483 3.483 0 0 1 30 24.5zm-2.948 1.613a3.5 3.5 0 0 0 4.835 4.835l-4.835-4.835z" fill="currentColor"></path><path d="M20 39.5c0 .828-.5 1.5-4 1.5s-4-.672-4-1.5c0-.5 1.79-1.5 4-1.5s4 1 4 1.5z" fill="currentColor"></path><path fill-rule="evenodd" clip-rule="evenodd" d="M12.693 34.678a.375.375 0 0 1 .129.515l-1.16 1.932h1.029c.331 0 .634.187.783.484l.861 1.723a.375.375 0 0 1-.67.336l-.862-1.724a.125.125 0 0 0-.112-.069h-1.25a.625.625 0 0 1-.535-.947l1.272-2.12a.375.375 0 0 1 .515-.13z" fill="currentColor"></path><path fill-rule="evenodd" clip-rule="evenodd" d="M16.627 34.568c.1.181.035.41-.146.51l-1.777.986a.125.125 0 0 0-.002.218l.7.404c.287.166.456.48.436.81l-.116 1.924a.375.375 0 1 1-.748-.045l.115-1.924a.125.125 0 0 0-.062-.115l-.7-.404a.875.875 0 0 1 .013-1.523l1.777-.987c.181-.1.41-.035.51.146z" fill="currentColor"></path><path fill-rule="evenodd" clip-rule="evenodd" d="M20.374 36.53a.375.375 0 0 1-.403.345l-2.25-.173.671.665a.875.875 0 0 1-.022 1.264l-1.616 1.493a.375.375 0 1 1-.509-.551l1.616-1.493a.125.125 0 0 0 .004-.18l-.913-.904a.625.625 0 0 1 .487-1.068l2.59.2a.375.375 0 0 1 .345.402z" fill="currentColor"></path><path d="M12.966 39.68c.117.54-.443 1.12-1.253 1.297-.81.177-1.56-.118-1.679-.657-.117-.54.443-1.12 1.253-1.297.81-.176 1.56.118 1.678.657z" fill="currentColor"></path><path fill-rule="evenodd" clip-rule="evenodd" d="M7.223 38.887a.25.25 0 0 0-.447.225L7 39l-.224.112.001.001v.002l.003.004.007.013c.006.01.013.024.024.04.02.035.05.08.09.134.081.108.205.25.38.39.354.282.908.554 1.719.554h2a.25.25 0 0 0 0-.5H9c-.69 0-1.135-.228-1.406-.445a1.668 1.668 0 0 1-.356-.392.677.677 0 0 1-.013-.022l-.002-.004z" fill="currentColor"></path><path fill-rule="evenodd" clip-rule="evenodd" d="M11.06 39.758a.25.25 0 0 1 .182.303l-.242-.06.242.06v.003l-.002.005-.005.02-.02.07a4.14 4.14 0 0 1-.44.974c-.331.529-.897 1.117-1.775 1.117-.81 0-1.365-.272-1.719-.554a2.17 2.17 0 0 1-.47-.523 1.167 1.167 0 0 1-.024-.04l-.007-.014-.002-.004-.001-.002L7 41l-.224.112a.25.25 0 0 1 .447-.225m0 0l.002.004a1.165 1.165 0 0 0 .077.115c.06.08.154.19.292.3.271.216.717.444 1.406.444.622 0 1.056-.411 1.35-.882a3.64 3.64 0 0 0 .403-.912l.004-.013v-.003" fill="currentColor"></path><path fill-rule="evenodd" clip-rule="evenodd" d="M7 10.943h.314v.85c0 .562.224 1.102.622 1.5a.122.122 0 0 1 .035.086v10.242a.122.122 0 0 1-.035.086 2.122 2.122 0 0 0-.622 1.5v.85H7V30h10.514v-3.943H17.2v-.85c0-.562-.223-1.102-.622-1.5a.122.122 0 0 1-.035-.086V13.379c0-.032.013-.063.035-.086.399-.398.622-.938.622-1.5v-.85h.314V7H7v3.943zm8.2 15.114v-.85a.121.121 0 0 0-.036-.086 2.122 2.122 0 0 1-.621-1.5V13.379c0-.563.223-1.102.621-1.5a.121.121 0 0 0 .036-.086v-.85H9.314v.85c0 .032.013.063.036.086.398.398.621.937.621 1.5v10.242c0 .563-.223 1.103-.621 1.5a.122.122 0 0 0-.036.087v.85H15.2z" fill="currentColor"></path></g></svg>