<svg width="48" height="48" xmlns="http://www.w3.org/2000/svg" viewBox="0 0 48 48"><g fill="none" class="nc-icon-wrapper"><path fill-rule="evenodd" clip-rule="evenodd" d="M18.05 15.807l-4.242 4.243L25.95 32.192a2.828 2.828 0 0 0 4 0l.242-.243a2.828 2.828 0 0 0 0-4L18.05 15.808zm-7.07 4.243l13.556 13.556a4.828 4.828 0 0 0 6.828 0l.243-.242a4.828 4.828 0 0 0 0-6.828L18.05 12.978l-7.07 7.071z" fill="#333"></path><path d="M16.2 25.272l7.072-7.071 1.414 1.414-7.07 7.071-1.415-1.414z" fill="#333"></path><path fill-rule="evenodd" clip-rule="evenodd" d="M16.2 25.272l1.415 1.414 7.071-7.07-1.414-1.415-7.071 7.071z" fill="#333"></path><path fill-rule="evenodd" clip-rule="evenodd" d="M11.686 12.272l-1.414 1.414 3.536 3.536 1.414-1.415-3.536-3.535zm-4.242 1.414l6.364 6.364 4.242-4.243-6.364-6.363-4.242 4.242z" fill="#333"></path><path d="M6.737 15.807a1 1 0 0 1 0-1.414l5.656-5.657a1 1 0 1 1 1.415 1.415L8.15 15.807a1 1 0 0 1-1.414 0z" fill="#333"></path><path fill-rule="evenodd" clip-rule="evenodd" d="M6.737 14.393a1 1 0 1 0 1.414 1.414l5.657-5.656a1 1 0 0 0-1.415-1.415l-5.656 5.657z" fill="#333"></path><path d="M32.192 35.606a1 1 0 0 1 1.414-1.414l2.829 2.829a1 1 0 0 1-1.414 1.414l-2.829-2.829z" fill="#333"></path><path fill-rule="evenodd" clip-rule="evenodd" d="M33.606 34.192l2.829 2.829a1 1 0 0 1-1.414 1.414l-2.829-2.829a1 1 0 0 1 1.414-1.414z" fill="#333"></path><path d="M28.657 33.485l2.828-2.828 2.122 2.121a2 2 0 1 1-2.829 2.828l-2.121-2.12z" fill="#fff"></path><path fill-rule="evenodd" clip-rule="evenodd" d="M28.657 33.485l2.121 2.121a2 2 0 1 0 2.829-2.828l-2.122-2.121-2.828 2.828z" fill="#333"></path><path d="M20.444 29.515a1 1 0 0 1 0-1.415l2.12-2.12a1 1 0 1 1 1.415 1.413l-2.121 2.122a1 1 0 0 1-1.414 0z" fill="#333"></path><path fill-rule="evenodd" clip-rule="evenodd" d="M20.444 28.1a1 1 0 1 0 1.414 1.415l2.121-2.122a1 1 0 0 0-1.414-1.414L20.444 28.1z" fill="#333"></path><path d="M23.272 32.343a1 1 0 0 1 0-1.414l2.121-2.122a1 1 0 0 1 1.415 1.415l-2.122 2.121a1 1 0 0 1-1.414 0z" fill="#333"></path><path fill-rule="evenodd" clip-rule="evenodd" d="M23.272 30.929a1 1 0 0 0 1.414 1.414l2.122-2.121a1 1 0 0 0-1.415-1.415l-2.121 2.122z" fill="#333"></path><path d="M9.565 22.878a1 1 0 0 1 0-1.414l9.9-9.9a1 1 0 0 1 1.414 1.415l-9.9 9.9a1 1 0 0 1-1.414 0z" fill="#333"></path><path fill-rule="evenodd" clip-rule="evenodd" d="M9.565 21.464a1 1 0 1 0 1.414 1.415l9.9-9.9a1 1 0 0 0-1.415-1.414l-9.9 9.9z" fill="#333"></path></g></svg>