<svg xmlns="http://www.w3.org/2000/svg" height="384" width="384" viewBox="0 0 384.672 384.672">
	<g fill="currentColor" class="nc-icon-wrapper">
		<path d="M322.444 107.48l7.736-7.736c8.209-8.231 8.209-21.553 0-29.784l-2.08-2.08 56.568-56.568L373.356 0l-56.568 56.536-2.072-2.072c-8.341-7.939-21.443-7.939-29.784 0l-7.736 7.736-28.256-28.256L79.204 203.648 62.236 186.68 28.3 220.616l45.248 45.256-22.624 22.664c-9.388-9.375-24.596-9.375-33.984 0L.004 305.472l79.2 79.2 16.936-16.936c9.373-9.372 9.375-24.568.003-33.941l-.003-.003 22.632-22.632 45.248 45.256 33.944-33.944-16.968-16.968 169.736-169.768-28.288-28.256zm-26.2-41.672a5.168 5.168 0 0 1 7.2 0l15.464 15.464a5.063 5.063 0 0 1 0 7.16l-7.736 7.736-22.624-22.632 7.696-7.728zM84.86 356.384l-5.656 5.656-56.568-56.568 5.656-5.656a8 8 0 0 1 11.314-.006l.006.006 45.248 45.256a8 8 0 0 1 0 11.312zm0-33.944l-22.624-22.624 22.624-22.624 22.632 22.624L84.86 322.44zm79.192 11.32L50.924 220.616l11.312-11.28L175.372 322.44l-11.32 11.32zm5.688-39.624l-79.2-79.2 16.976-16.968 39.592 39.6 11.312-11.312-39.592-39.608 16.968-16.968 16.968 16.976 11.312-11.312-16.968-16.976 16.976-16.968 39.592 39.6 11.32-11.32-39.656-39.544 16.968-16.976 17 16.976 11.32-11.312-16.968-17 16.968-16.968 39.6 39.6 11.312-11.312-39.6-39.6 17-17.008 79.2 79.2-158.4 158.4z">
		</path>
	</g>
</svg>
