<svg viewBox="0 0 480 480">
	<path d="M369.488,0H110.512C89.255,0.022,72.026,17.247,72,38.504v402.992c0.026,21.257,17.255,38.482,38.512,38.504h258.976
				c21.257-0.022,38.486-17.247,38.512-38.504V38.504C407.974,17.247,390.745,0.022,369.488,0z M392,441.496
				c-0.018,12.424-10.088,22.491-22.512,22.504H248v-48h-16v48H110.512C98.088,463.987,88.018,453.92,88,441.496V38.504
				C88.018,26.08,98.088,16.013,110.512,16H232v48h16V16h121.488c12.424,0.013,22.494,10.08,22.512,22.504V441.496z" />
	<rect x="232" y="336" width="16" height="48" />
	<rect x="232" y="256" width="16" height="48" />
	<rect x="232" y="176" width="16" height="48" />
	<rect x="232" y="96" width="16" height="48" />
	<path d="M159.992,296c30.928,0.002,56.002-25.068,56.004-55.996c0.001-14.851-5.897-29.093-16.396-39.596
				C189.12,189.871,174.861,183.963,160,184c-30.928-0.002-56.002,25.068-56.004,55.996S129.064,295.998,159.992,296z
				 M188.288,268.28L188.288,268.28c-13.44,13.443-34.486,15.57-50.344,5.088l55.424-55.424
				C203.848,233.799,201.724,254.839,188.288,268.28z M160.002,200.002c7.842,0,15.512,2.306,22.054,6.63l-55.424,55.424
				c-4.339-6.536-6.646-14.211-6.632-22.056C120.001,217.909,137.91,200.001,160.002,200.002z" />
	<path d="M159.992,160c30.928,0.002,56.002-25.068,56.004-55.996c0.001-14.851-5.897-29.093-16.396-39.596
				C189.12,53.871,174.861,47.963,160,48c-30.928-0.002-56.002,25.068-56.004,55.996C103.994,134.924,129.064,159.998,159.992,160z
				 M188.288,132.28c-13.44,13.443-34.486,15.57-50.344,5.088l55.424-55.424C203.848,97.799,201.724,118.839,188.288,132.28z
				 M160.002,64.002c7.842,0,15.512,2.306,22.054,6.63l-55.424,55.424c-4.339-6.536-6.646-14.211-6.632-22.056
				C120.001,81.909,137.91,64.001,160.002,64.002z" />
	<path d="M160,320c-30.928-0.002-56.002,25.068-56.004,55.996c-0.002,30.928,25.068,56.002,55.996,56.004
				c30.928,0.002,56.002-25.068,56.004-55.996c0.001-14.851-5.897-29.093-16.396-39.596C189.12,325.871,174.861,319.963,160,320z
				 M120,376c0.001-22.091,17.91-39.999,40.002-39.998c7.842,0,15.512,2.306,22.054,6.63l-55.424,55.424
				C122.293,391.52,119.986,383.845,120,376z M188.288,404.28c-13.44,13.443-34.486,15.57-50.344,5.088l55.424-55.424
				C203.848,369.799,201.724,390.839,188.288,404.28z" />
	<path d="M319.992,296c30.928,0.002,56.002-25.068,56.004-55.996c0.001-14.851-5.897-29.093-16.396-39.596
				C349.12,189.871,334.861,183.963,320,184c-30.928-0.002-56.002,25.068-56.004,55.996
				C263.994,270.924,289.064,295.998,319.992,296z M348.288,268.28L348.288,268.28c-13.44,13.443-34.486,15.57-50.344,5.088
				l55.424-55.424C363.848,233.799,361.725,254.839,348.288,268.28z M320.002,200.002c7.842,0,15.512,2.306,22.054,6.63
				l-55.424,55.424c-4.339-6.536-6.646-14.211-6.632-22.056C280.001,217.909,297.91,200.001,320.002,200.002z" />
	<path d="M319.992,160c30.928,0.002,56.002-25.068,56.004-55.996c0.001-14.851-5.897-29.093-16.396-39.596
				C349.12,53.871,334.861,47.963,320,48c-30.928-0.002-56.002,25.068-56.004,55.996C263.994,134.924,289.064,159.998,319.992,160z
				 M348.288,132.28c-13.44,13.443-34.486,15.57-50.344,5.088l55.424-55.424C363.848,97.799,361.725,118.839,348.288,132.28z
				 M320.002,64.002c7.842,0,15.512,2.306,22.054,6.63l-55.424,55.424c-4.339-6.536-6.646-14.211-6.632-22.056
				C280.001,81.909,297.91,64.001,320.002,64.002z" />
	<path d="M320,320c-30.928-0.002-56.002,25.068-56.004,55.996c-0.002,30.928,25.068,56.002,55.996,56.004
				c30.928,0.002,56.002-25.068,56.004-55.996c0.001-14.851-5.897-29.093-16.396-39.596C349.12,325.871,334.861,319.963,320,320z
				 M280,376c0.001-22.091,17.91-39.999,40.002-39.998c7.842,0,15.512,2.306,22.054,6.63l-55.424,55.424
				C282.293,391.52,279.986,383.845,280,376z M348.288,404.28c-13.44,13.443-34.486,15.57-50.344,5.088l55.424-55.424
				C363.848,369.799,361.725,390.839,348.288,404.28z" />
</svg>
