<svg xmlns="http://www.w3.org/2000/svg" height="480" width="480" viewBox="0 0 480 480">
	<g fill="currentColor" class="nc-icon-wrapper">
		<path d="M369.488 0H110.512C89.255.022 72.026 17.247 72 38.504v402.992c.026 21.257 17.255 38.482 38.512 38.504h258.976c21.257-.022 38.486-17.247 38.512-38.504V38.504C407.974 17.247 390.745.022 369.488 0zM392 441.496c-.018 12.424-10.088 22.491-22.512 22.504H248v-48h-16v48H110.512c-12.424-.013-22.494-10.08-22.512-22.504V38.504C88.018 26.08 98.088 16.013 110.512 16H232v48h16V16h121.488c12.424.013 22.494 10.08 22.512 22.504v402.992z">
		</path>
		<path d="M232 336h16v48h-16z">
		</path>
		<path d="M232 256h16v48h-16z">
		</path>
		<path d="M232 176h16v48h-16z">
		</path>
		<path d="M232 96h16v48h-16z">
		</path>
		<path d="M159.992 296c30.928.002 56.002-25.068 56.004-55.996a56.002 56.002 0 0 0-16.396-39.596A55.656 55.656 0 0 0 160 184c-30.928-.002-56.002 25.068-56.004 55.996s25.068 56.002 55.996 56.004zm28.296-27.72c-13.44 13.443-34.486 15.57-50.344 5.088l55.424-55.424c10.48 15.855 8.356 36.895-5.08 50.336zm-28.286-68.278a39.999 39.999 0 0 1 22.054 6.63l-55.424 55.424A39.751 39.751 0 0 1 120 240c.001-22.091 17.91-39.999 40.002-39.998z">
		</path>
		<path d="M159.992 160c30.928.002 56.002-25.068 56.004-55.996A56.002 56.002 0 0 0 199.6 64.408 55.656 55.656 0 0 0 160 48c-30.928-.002-56.002 25.068-56.004 55.996-.002 30.928 25.068 56.002 55.996 56.004zm28.296-27.72c-13.44 13.443-34.486 15.57-50.344 5.088l55.424-55.424c10.48 15.855 8.356 36.895-5.08 50.336zm-28.286-68.278a39.999 39.999 0 0 1 22.054 6.63l-55.424 55.424A39.751 39.751 0 0 1 120 104c.001-22.091 17.91-39.999 40.002-39.998z">
		</path>
		<path d="M160 320c-30.928-.002-56.002 25.068-56.004 55.996-.002 30.928 25.068 56.002 55.996 56.004 30.928.002 56.002-25.068 56.004-55.996a56.002 56.002 0 0 0-16.396-39.596A55.656 55.656 0 0 0 160 320zm-40 56c.001-22.091 17.91-39.999 40.002-39.998a39.999 39.999 0 0 1 22.054 6.63l-55.424 55.424A39.751 39.751 0 0 1 120 376zm68.288 28.28c-13.44 13.443-34.486 15.57-50.344 5.088l55.424-55.424c10.48 15.855 8.356 36.895-5.08 50.336z">
		</path>
		<path d="M319.992 296c30.928.002 56.002-25.068 56.004-55.996a56.002 56.002 0 0 0-16.396-39.596A55.656 55.656 0 0 0 320 184c-30.928-.002-56.002 25.068-56.004 55.996-.002 30.928 25.068 56.002 55.996 56.004zm28.296-27.72c-13.44 13.443-34.486 15.57-50.344 5.088l55.424-55.424c10.48 15.855 8.357 36.895-5.08 50.336zm-28.286-68.278a39.999 39.999 0 0 1 22.054 6.63l-55.424 55.424A39.751 39.751 0 0 1 280 240c.001-22.091 17.91-39.999 40.002-39.998z">
		</path>
		<path d="M319.992 160c30.928.002 56.002-25.068 56.004-55.996A56.002 56.002 0 0 0 359.6 64.408 55.656 55.656 0 0 0 320 48c-30.928-.002-56.002 25.068-56.004 55.996-.002 30.928 25.068 56.002 55.996 56.004zm28.296-27.72c-13.44 13.443-34.486 15.57-50.344 5.088l55.424-55.424c10.48 15.855 8.357 36.895-5.08 50.336zm-28.286-68.278a39.999 39.999 0 0 1 22.054 6.63l-55.424 55.424A39.751 39.751 0 0 1 280 104c.001-22.091 17.91-39.999 40.002-39.998z">
		</path>
		<path d="M320 320c-30.928-.002-56.002 25.068-56.004 55.996-.002 30.928 25.068 56.002 55.996 56.004 30.928.002 56.002-25.068 56.004-55.996a56.002 56.002 0 0 0-16.396-39.596A55.656 55.656 0 0 0 320 320zm-40 56c.001-22.091 17.91-39.999 40.002-39.998a39.999 39.999 0 0 1 22.054 6.63l-55.424 55.424A39.751 39.751 0 0 1 280 376zm68.288 28.28c-13.44 13.443-34.486 15.57-50.344 5.088l55.424-55.424c10.48 15.855 8.357 36.895-5.08 50.336z">
		</path>
	</g>
</svg>
