<svg width="48" height="48" xmlns="http://www.w3.org/2000/svg" viewBox="0 0 48 48"><g fill="none" class="nc-icon-wrapper"><path fill-rule="evenodd" clip-rule="evenodd" d="M8.345 21.677h-2.6v6.8h8.6v-.8a6 6 0 0 0-6-6zm-4.6-2v10.8h12.6v-2.8a8 8 0 0 0-8-8h-4.6z" fill="currentColor"></path><path fill-rule="evenodd" clip-rule="evenodd" d="M23.995 28.477a4.75 4.75 0 1 0 0-9.5 4.75 4.75 0 0 0 0 9.5zm0 2a6.75 6.75 0 1 0 0-13.5 6.75 6.75 0 0 0 0 13.5z" fill="currentColor"></path><path fill-rule="evenodd" clip-rule="evenodd" d="M2.745 34.977a2.8 2.8 0 0 1 2.8-2.8h29.7v2h-29.7a.8.8 0 0 0 0 1.6h25.221v2H5.546a2.8 2.8 0 0 1-2.8-2.8z" fill="currentColor"></path><path fill-rule="evenodd" clip-rule="evenodd" d="M8.803 12.783c3.465-4.613 8.984-7.6 15.2-7.6 10.494 0 19 8.507 19 19 0 10.494-8.506 19-19 19a18.945 18.945 0 0 1-13.568-5.7l-1.666-1.7h8.517l.226.126a13.336 13.336 0 0 0 6.492 1.675c7.4 0 13.4-6 13.4-13.4 0-7.401-6-13.4-13.4-13.4-3.4 0-6.5 1.264-8.863 3.35l-.284.25H7.601l1.202-1.601zm2.963-.4h2.342a15.342 15.342 0 0 1 9.896-3.6c8.505 0 15.4 6.895 15.4 15.4 0 8.506-6.895 15.4-15.4 15.4-2.612 0-5.074-.65-7.231-1.8h-2.971a16.921 16.921 0 0 0 10.202 3.4c9.389 0 17-7.61 17-17 0-9.388-7.611-17-17-17a16.948 16.948 0 0 0-12.238 5.2z" fill="currentColor"></path></g></svg>