<svg width="48" height="48" xmlns="http://www.w3.org/2000/svg" viewBox="0 0 48 48"><g fill="none" class="nc-icon-wrapper"><path fill-rule="evenodd" clip-rule="evenodd" d="M18.391 14.687c-.375-.386-.912-.687-1.866-.687-.319 0-.777.134-1.395.654-.625.525-1.299 1.352-1.982 2.485-1.365 2.261-2.57 5.4-3.475 8.722-.902 3.308-1.472 6.67-1.63 9.32-.078 1.332-.048 2.413.07 3.188a3.709 3.709 0 0 0 .205.828c.96.73 2.598 1.022 4.633.628 2.058-.4 4.076-1.43 5.355-2.704.443-.442.84-1.172 1.137-2.261.293-1.076.45-2.361.517-3.761.066-1.393.04-2.833-.004-4.208l-.04-1.129c-.036-.946-.07-1.856-.07-2.616 0-.258.003-.531.006-.816.015-1.648.034-3.69-.411-5.465-.254-1.014-.616-1.732-1.05-2.178zM8.345 39.251zm13.507-16.85C21.89 18.87 21.964 12 16.525 12c-7.45 0-12.773 26.007-9.58 28.66 3.194 2.654 9.58 1.062 12.773-2.123 2.578-2.57 2.355-8.578 2.195-12.891-.035-.93-.066-1.78-.066-2.5 0-.226.002-.476.005-.746z" fill="currentColor"></path><path fill-rule="evenodd" clip-rule="evenodd" d="M29.609 14.687c.375-.386.912-.687 1.866-.687.319 0 .777.134 1.395.654.625.525 1.299 1.352 1.982 2.485 1.365 2.261 2.57 5.4 3.475 8.722.901 3.308 1.472 6.67 1.63 9.32.078 1.332.048 2.413-.07 3.188a3.71 3.71 0 0 1-.205.828c-.96.73-2.598 1.022-4.633.628-2.058-.4-4.076-1.43-5.355-2.704-.443-.442-.84-1.172-1.137-2.261-.293-1.076-.45-2.361-.517-3.761-.066-1.393-.04-2.833.004-4.208l.04-1.129c.036-.946.07-1.856.07-2.616 0-.258-.003-.531-.006-.816-.015-1.648-.034-3.69.411-5.465.254-1.014.616-1.732 1.05-2.178zm10.046 24.564zm-13.507-16.85C26.11 18.87 26.036 12 31.475 12c7.45 0 12.773 26.007 9.58 28.66-3.194 2.654-9.58 1.062-12.773-2.123-2.578-2.57-2.355-8.578-2.195-12.891.035-.93.066-1.78.066-2.5 0-.226-.002-.476-.005-.746z" fill="currentColor"></path><path fill-rule="evenodd" clip-rule="evenodd" d="M23 6h2v14.5c0 2.102-.936 3.308-1.996 3.926a4.318 4.318 0 0 1-1.977.574H21.002C21 25 21 25 21 24l-.001-1H20.99h.005l.05-.003a2.318 2.318 0 0 0 .95-.298c.44-.257 1.005-.801 1.005-2.199V6z" fill="currentColor"></path><path fill-rule="evenodd" clip-rule="evenodd" d="M25 6h-2v14.5c0 2.102.936 3.308 1.996 3.926a4.318 4.318 0 0 0 1.977.574H26.998C27 25 27 25 27 24l.001-1H27.005l-.05-.003a2.318 2.318 0 0 1-.95-.298c-.44-.257-1.005-.801-1.005-2.199V6z" fill="currentColor"></path><path fill-rule="evenodd" clip-rule="evenodd" d="M33.5 19a.5.5 0 1 0 0-1 .5.5 0 0 0 0 1zm0 2a2.5 2.5 0 1 0 0-5 2.5 2.5 0 0 0 0 5z" fill="currentColor"></path><path fill-rule="evenodd" clip-rule="evenodd" d="M32.5 31a.5.5 0 1 0 0-1 .5.5 0 0 0 0 1zm0 2a2.5 2.5 0 1 0 0-5 2.5 2.5 0 0 0 0 5z" fill="currentColor"></path><path fill-rule="evenodd" clip-rule="evenodd" d="M38.5 29a.5.5 0 1 0 0-1 .5.5 0 0 0 0 1zm0 2a2.5 2.5 0 1 0 0-5 2.5 2.5 0 0 0 0 5z" fill="currentColor"></path><path fill-rule="evenodd" clip-rule="evenodd" d="M31 25a1 1 0 1 0 0-2 1 1 0 0 0 0 2zm0 2a3 3 0 1 0 0-6 3 3 0 0 0 0 6z" fill="currentColor"></path></g></svg>