<svg height="479" width="479" viewBox="0 0 479.97 479.97"><g fill="currentColor" class="nc-icon-wrapper"><path d="M53.415 197.929a80.031 80.031 0 0 0 15.018 9.705v-.016a7.999 7.999 0 0 0 8.6-.96l101.68-82.64a8 8 0 0 0 2.696-8.224 79.524 79.524 0 0 0-15.016-29.84 201.403 201.403 0 0 1 147.2 0 79.524 79.524 0 0 0-15.016 29.84 8 8 0 0 0 2.696 8.224l101.68 82.64a7.999 7.999 0 0 0 8.6.96c39.527-19.562 55.713-67.464 36.15-106.991a79.945 79.945 0 0 0-9.75-15.129 9.674 9.674 0 0 0-.704-.8c-.104-.128-.224-.248-.336-.376a240.858 240.858 0 0 0-9.264-9.264l-.424-.376-.328-.288c-104.819-99.146-268.814-99.198-373.696-.12a8.35 8.35 0 0 0-.488.44l-.392.344a240.858 240.858 0 0 0-9.264 9.264 9.108 9.108 0 0 0-.368.416c-.12.144-.352.4-.536.616-27.977 34.197-22.935 84.598 11.262 112.575zm1.042-102.367l.28-.312a233.348 233.348 0 0 1 8.32-8.328l.488-.44.44-.384c98.713-93.482 253.287-93.482 352 0 .136.128.28.248.424.368l.328.296a226.43 226.43 0 0 1 8.32 8.312c.144.168.28.328.432.48 20.219 24.631 19.139 60.409-2.528 83.776a64 64 0 0 1-14.12 11.52l-93.328-75.864a63.69 63.69 0 0 1 17.088-26.008 8 8 0 0 0-2.064-13.152 216.411 216.411 0 0 0-181.104 0 8 8 0 0 0-2.064 13.152 63.69 63.69 0 0 1 17.088 26.008l-93.352 75.872a64.247 64.247 0 0 1-31.12-54.888 63.311 63.311 0 0 1 14.472-40.408z"></path><path d="M247.985 263.97h-16v32h-32v16h32v32h16v-32h32v-16h-32z"></path><path d="M239.985 231.97c-39.764 0-72 32.235-72 72 0 39.764 32.236 72 72 72 39.765 0 72-32.236 72-72-.048-39.744-32.256-71.951-72-72zm0 128c-30.928 0-56-25.072-56-56s25.072-56 56-56 56 25.072 56 56c-.035 30.913-25.087 55.965-56 56z"></path><path d="M287.985 184.17v-24.2c0-13.255-10.745-24-24-24h-48c-13.255 0-24 10.745-24 24v24.2c-98.359 4.387-175.88 85.344-176 183.8v64a8 8 0 0 0 8 8h40c.026 22.08 17.92 39.974 40 40h32c22.08-.026 39.974-17.92 40-40h128c.026 22.08 17.92 39.974 40 40h32c22.08-.026 39.974-17.92 40-40h40a8 8 0 0 0 8-8v-64c-.12-98.456-77.641-179.413-176-183.8zm-80-24.2a8 8 0 0 1 8-8h48a8 8 0 0 1 8 8v24h-64v-24zm-72 304h-32c-13.255 0-24-10.745-24-24h80c0 13.255-10.745 24-24 24zm240 0h-32c-13.255 0-24-10.745-24-24h80c0 13.255-10.745 24-24 24zm72-40h-416v-56c.101-92.742 75.258-167.899 168-168h80c92.742.101 167.899 75.258 168 168v56z"></path></g></svg>