<svg height="432" width="432" viewBox="0 0 432 432"><g fill="currentColor" class="nc-icon-wrapper"><path d="M311.84 356a17.814 17.814 0 0 0-.168-2.76 7.999 7.999 0 0 0-6.12-6.64L186.92 319.24a8 8 0 0 0-8.664 3.696 72.11 72.11 0 0 0-8.56 21.648 167.831 167.831 0 0 1-82.28-82.28 72.11 72.11 0 0 0 21.648-8.56 8 8 0 0 0 3.696-8.664L85.4 126.44a8 8 0 0 0-6.696-6.128 13.857 13.857 0 0 0-2.192-.136C75.064 120.088 73.528 120 72 120c-38.216-.008-69.781 29.843-71.904 68C0 189.304 0 190.696 0 192s0 2.696.08 3.552C1.189 325.455 106.099 430.557 236 431.904c1.304.088 2.696.096 4 .096s2.696 0 3.88-.088c38.197-2.086 68.105-33.658 68.12-71.912 0-1.528-.088-3.064-.16-4zm-68.952 59.944h-.016c-.928.056-1.936.056-2.872.056-.936 0-1.944 0-3.328-.08-121.522-1.157-219.687-99.508-220.616-221.032C16 193.944 16 192.944 16 192s0-1.944.064-3c1.595-29.411 25.685-52.568 55.136-53l24.608 106.704a55.425 55.425 0 0 1-20.28 5.144 8 8 0 0 0-6.976 10.872 183.777 183.777 0 0 0 104.72 104.744 8.001 8.001 0 0 0 10.872-6.976 55.425 55.425 0 0 1 5.144-20.28L296 360.8c-.447 29.489-23.661 53.591-53.112 55.144z"></path><path d="M424 88h-80V8a8 8 0 0 0-8-8h-80a8 8 0 0 0-8 8v80h-80a8 8 0 0 0-8 8v80a8 8 0 0 0 8 8h80v80a8 8 0 0 0 8 8h80a8 8 0 0 0 8-8v-80h80a8 8 0 0 0 8-8V96a8 8 0 0 0-8-8zm-8 80h-80a8 8 0 0 0-8 8v80h-64v-80a8 8 0 0 0-8-8h-80v-64h80a8 8 0 0 0 8-8V16h64v80a8 8 0 0 0 8 8h80v64z"></path></g></svg>