<svg viewBox="0 0 480.56 480.56">
	<path d="M306.337,396.824l-115.28-34c-3.233-0.954-6.716,0.22-8.712,2.936c-6.025,8.152-10.264,17.483-12.44,27.384
				c-31.449-14.44-57.643-38.283-74.968-68.24c8.993-3.008,17.306-7.757,24.464-13.976c2.355-2.06,3.293-5.305,2.4-8.304
				L88.785,190.976c-0.891-3.005-3.456-5.213-6.56-5.648c-3.309-0.486-6.648-0.737-9.992-0.752h-1.536
				c-36.609,0.763-66.815,28.883-70.192,65.344c-0.024,0.352-0.024,0.704,0,1.056c0.319,8.066,1.064,16.109,2.232,24.096
				c16.314,116.8,115.577,204.12,233.504,205.408c0.752,0.056,2.4,0.08,4.064,0.08s3.128,0,3.808-0.072
				c38.197-2.086,68.105-33.658,68.12-71.912c0-1.52-0.088-3.048-0.16-4.08C312.073,400.95,309.738,397.827,306.337,396.824z
				 M243.129,464.52h0.008c-1.016,0.056-4.8,0.056-6.224,0c-110.218-1.043-203.079-82.585-218.36-191.744
				c-1.066-7.261-1.755-14.572-2.064-21.904c2.866-28.073,26.173-49.628,54.384-50.296h1.36c0.901,0,1.813,0.024,2.736,0.072
				l29.976,101.344c-6.916,4.99-14.872,8.349-23.272,9.824c-4.35,0.774-7.248,4.929-6.474,9.278c0.136,0.763,0.382,1.502,0.73,2.194
				c20.391,40.67,55.18,72.302,97.6,88.744c4.121,1.594,8.753-0.455,10.347-4.576c0.3-0.776,0.477-1.594,0.525-2.424
				c0.525-8.906,3.205-17.55,7.808-25.192l104,30.68C295.165,439.548,272.135,462.977,243.129,464.52z" />
	<path d="M436.985,144.576c19.363-38.504,11.549-85.115-19.312-115.2c-37.829-37.111-97.688-39.329-138.16-5.12
				c-40.47-34.187-100.307-31.969-138.136,5.12c-30.867,30.08-38.69,76.69-19.336,115.2H80.073v16h52
				c2.848,3.765,5.952,7.331,9.288,10.672L273.905,301.72c3.111,3.049,8.089,3.049,11.2,0l132.568-130.472
				c3.332-3.338,6.428-6.904,9.264-10.672h53.136v-16H436.985z M279.513,284.792L153.337,160.576h46.736
				c3.032,0.001,5.805-1.712,7.16-4.424l35.632-71.264l13.248,132.488c0.358,3.541,3.012,6.42,6.512,7.064
				c0.477,0.092,0.962,0.138,1.448,0.136c3.047,0.017,5.838-1.699,7.2-4.424l29.744-59.576h19.056c2.904,0,5.581-1.574,6.992-4.112
				l29.768-53.6l11.424,51.432c0.808,3.669,4.059,6.281,7.816,6.28h29.6L279.513,284.792z M418.641,144.576h-36.168l-14.6-65.736
				c-0.954-4.314-5.224-7.038-9.538-6.084c-2.239,0.495-4.158,1.927-5.27,3.932l-37.704,67.888h-19.288
				c-3.047-0.017-5.838,1.699-7.2,4.424l-19.632,39.264L256.033,55.776c-0.438-4.396-4.358-7.605-8.754-7.167
				c-2.735,0.273-5.139,1.931-6.366,4.391l-45.784,91.576h-54.744c-8.419-13.254-12.884-28.634-12.872-44.336
				c-0.013-22.395,9.033-43.843,25.08-59.464c33.695-33.024,87.617-33.024,121.312,0c3.111,3.049,8.089,3.049,11.2,0
				c33.696-33.029,87.624-33.029,121.32,0C434.535,68.132,439.632,111.442,418.641,144.576z" />
</svg>
