<svg xmlns="http://www.w3.org/2000/svg" height="480" width="480" viewBox="0 0 480.56 480.56">
	<g fill="currentColor" class="nc-icon-wrapper">
		<path d="M306.337 396.824l-115.28-34a8 8 0 0 0-8.712 2.936 72.118 72.118 0 0 0-12.44 27.384 167.196 167.196 0 0 1-74.968-68.24 72.24 72.24 0 0 0 24.464-13.976 8 8 0 0 0 2.4-8.304L88.785 190.976a8 8 0 0 0-6.56-5.648 70.952 70.952 0 0 0-9.992-.752h-1.536c-36.609.763-66.815 28.883-70.192 65.344a7.753 7.753 0 0 0 0 1.056 229.088 229.088 0 0 0 2.232 24.096c16.314 116.8 115.577 204.12 233.504 205.408.752.056 2.4.08 4.064.08s3.128 0 3.808-.072c38.197-2.086 68.105-33.658 68.12-71.912 0-1.52-.088-3.048-.16-4.08a7.999 7.999 0 0 0-5.736-7.672zm-63.208 67.696h.008c-1.016.056-4.8.056-6.224 0-110.218-1.043-203.079-82.585-218.36-191.744a212.353 212.353 0 0 1-2.064-21.904c2.866-28.073 26.173-49.628 54.384-50.296h1.36c.901 0 1.813.024 2.736.072l29.976 101.344a56.462 56.462 0 0 1-23.272 9.824 8 8 0 0 0-5.744 11.472 183.276 183.276 0 0 0 97.6 88.744 8 8 0 0 0 10.872-7 55.11 55.11 0 0 1 7.808-25.192l104 30.68c-1.044 29.028-24.074 52.457-53.08 54z">
		</path>
		<path d="M436.985 144.576c19.363-38.504 11.549-85.115-19.312-115.2-37.829-37.111-97.688-39.329-138.16-5.12-40.47-34.187-100.307-31.969-138.136 5.12-30.867 30.08-38.69 76.69-19.336 115.2H80.073v16h52a103.328 103.328 0 0 0 9.288 10.672L273.905 301.72a8 8 0 0 0 11.2 0l132.568-130.472a101.535 101.535 0 0 0 9.264-10.672h53.136v-16h-43.088zM279.513 284.792L153.337 160.576h46.736a8.001 8.001 0 0 0 7.16-4.424l35.632-71.264 13.248 132.488a8 8 0 0 0 6.512 7.064c.477.092.962.138 1.448.136a8 8 0 0 0 7.2-4.424l29.744-59.576h19.056a8 8 0 0 0 6.992-4.112l29.768-53.6 11.424 51.432a8 8 0 0 0 7.816 6.28h29.6l-126.16 124.216zm139.128-140.216h-36.168l-14.6-65.736a8 8 0 0 0-14.808-2.152l-37.704 67.888h-19.288a8 8 0 0 0-7.2 4.424l-19.632 39.264-13.208-132.488A8 8 0 0 0 240.913 53l-45.784 91.576h-54.744a82.571 82.571 0 0 1-12.872-44.336 82.919 82.919 0 0 1 25.08-59.464c33.695-33.024 87.617-33.024 121.312 0a8 8 0 0 0 11.2 0c33.696-33.029 87.624-33.029 121.32 0 28.11 27.356 33.207 70.666 12.216 103.8z">
		</path>
	</g>
</svg>
