<svg viewBox="0 0 432 432">
	<path d="M311.84,356c0.016-0.923-0.041-1.846-0.168-2.76c-0.476-3.263-2.906-5.9-6.12-6.64L186.92,319.24
			c-3.384-0.779-6.884,0.714-8.664,3.696c-4.007,6.705-6.898,14.016-8.56,21.648c-36.361-16.737-65.543-45.919-82.28-82.28
			c7.632-1.662,14.943-4.553,21.648-8.56c2.982-1.78,4.475-5.28,3.696-8.664L85.4,126.44c-0.745-3.234-3.409-5.672-6.696-6.128
			c-0.726-0.103-1.459-0.149-2.192-0.136C75.064,120.088,73.528,120,72,120c-38.216-0.008-69.781,29.843-71.904,68
			C0,189.304,0,190.696,0,192s0,2.696,0.08,3.552C1.189,325.455,106.099,430.557,236,431.904c1.304,0.088,2.696,0.096,4,0.096
			s2.696,0,3.88-0.088c38.197-2.086,68.105-33.658,68.12-71.912C312,358.472,311.912,356.936,311.84,356z M242.888,415.944h-0.016
			C241.944,416,240.936,416,240,416c-0.936,0-1.944,0-3.328-0.08C115.15,414.763,16.985,316.412,16.056,194.888
			C16,193.944,16,192.944,16,192c0-0.944,0-1.944,0.064-3c1.595-29.411,25.685-52.568,55.136-53l24.608,106.704
			c-6.372,2.987-13.255,4.732-20.28,5.144c-4.41,0.268-7.768,4.06-7.5,8.47c0.05,0.823,0.227,1.633,0.524,2.402
			c18.669,48.058,56.666,86.064,104.72,104.744c4.121,1.594,8.753-0.454,10.348-4.574c0.297-0.769,0.474-1.579,0.524-2.402
			c0.412-7.025,2.157-13.908,5.144-20.28L296,360.8C295.553,390.289,272.339,414.391,242.888,415.944z" />
	<path d="M424,88h-80V8c0-4.418-3.582-8-8-8h-80c-4.418,0-8,3.582-8,8v80h-80c-4.418,0-8,3.582-8,8v80c0,4.418,3.582,8,8,8h80v80
			c0,4.418,3.582,8,8,8h80c4.418,0,8-3.582,8-8v-80h80c4.418,0,8-3.582,8-8V96C432,91.582,428.418,88,424,88z M416,168h-80
			c-4.418,0-8,3.582-8,8v80h-64v-80c0-4.418-3.582-8-8-8h-80v-64h80c4.418,0,8-3.582,8-8V16h64v80c0,4.418,3.582,8,8,8h80V168z" />
</svg>
