<svg viewBox="0 0 372.793 372.793">
	<path d="M351.958,32.149l-11.312-11.312c-31.408-31.408-74.76-27.04-113.136,11.312L91.75,167.909
			c-0.602,0.752-1.137,1.555-1.6,2.4c-0.048,0.12-39.24,106.312-39.24,106.312l-15.728,15.728c-3.123,3.124-3.123,8.188,0,11.312
			L6.894,331.957c-9.297,9.448-9.175,24.643,0.273,33.94c9.339,9.19,24.322,9.192,33.663,0.004l28.288-28.28
			c3.124,3.123,8.188,3.123,11.312,0l15.728-15.736c0,0,106.248-39.2,106.4-39.272c0.828-0.461,1.613-0.997,2.344-1.6
			l135.768-135.76c15.958-14.714,26.913-34.052,31.328-55.304C375.377,68.546,367.861,46.867,351.958,32.149z M29.518,354.597
			c-3.172,3.005-8.14,3.005-11.312,0c-3.118-3.123-3.118-8.181,0-11.304l28.28-28.288l11.32,11.32L29.518,354.597z M168.23,278.293
			l-31.24-31.2c-3.182-3.065-8.247-2.97-11.312,0.212c-2.99,3.104-2.983,8.02,0.016,11.116l25.992,25.952l-62.704,23.104
			c-1.085,0.4-2.07,1.031-2.888,1.848l-11.32,11.32l-22.632-22.632l11.312-11.32c0.823-0.815,1.457-1.801,1.856-2.888l35.288-95.736
			l84.128,84.128L168.23,278.293z M199.222,264.085l-90.504-90.52L233.166,49.117l90.512,90.512L199.222,264.085z M356.174,87.453
			c-3.137,15.307-10.539,29.416-21.352,40.696l-90.144-90.144c4.065-3.544,8.374-6.798,12.896-9.736l43.48,43.472
			c3.178,3.07,8.242,2.982,11.312-0.196c2.994-3.1,2.994-8.015,0-11.116L272.43,20.501c19.481-8.92,42.495-4.209,56.904,11.648
			l11.312,11.312C352.924,54.558,358.766,71.107,356.174,87.453z" />
	<path d="M284.078,122.653l-33.944-33.944c-3.124-3.123-8.188-3.123-11.312,0l-45.24,45.248l-0.016,0.016l-45.24,45.24
			c-3.123,3.124-3.123,8.188,0,11.312l33.936,33.944c3.124,3.123,8.188,3.123,11.312,0l45.256-45.256l45.248-45.248
			C287.201,130.841,287.201,125.777,284.078,122.653z M187.91,207.517l-22.624-22.632l33.944-33.944l22.624,22.624L187.91,207.517z
			 M233.166,162.253l-22.624-22.624l33.936-33.944l22.624,22.632L233.166,162.253z" />
	<path d="M114.366,224.485l-5.648-5.656c-3.124-3.126-8.19-3.128-11.316-0.004s-3.128,8.19-0.004,11.316l5.656,5.656
			c3.178,3.07,8.243,2.982,11.312-0.196C117.36,232.5,117.36,227.585,114.366,224.485z" />
	<path d="M340.654,88.717l-5.656-5.656c-3.07-3.178-8.134-3.266-11.312-0.196c-3.178,3.07-3.266,8.134-0.196,11.312
			c0.064,0.067,0.13,0.132,0.196,0.196l5.656,5.656c3.178,3.07,8.242,2.982,11.312-0.196
			C343.648,96.732,343.648,91.817,340.654,88.717z" />
</svg>
