<svg width="48" height="49" xmlns="http://www.w3.org/2000/svg" viewBox="0 0 48 49"><g fill="none" class="nc-icon-wrapper"><path fill-rule="evenodd" clip-rule="evenodd" d="M21.013 30.011a2 2 0 0 1-.74 1.854 6 6 0 1 0 7.422-.006 2 2 0 0 1-.743-1.853c.02-.14.03-.284.03-.431l-.016-20a3 3 0 0 0-6 .005l.016 20c0 .147.01.291.031.431zm-2.047-20.43a5 5 0 1 1 10-.008l.016 20c0 .243-.017.481-.05.715a8 8 0 1 1-9.899.008 5.036 5.036 0 0 1-.05-.715l-.017-20z" fill="currentColor"></path><path d="M23.967 11.577a1 1 0 0 1 1-1l2-.002.001 2-2 .002a1 1 0 0 1-1-1z" fill="currentColor"></path><path d="M23.97 15.577a1 1 0 0 1 1-1l2-.002.002 2-2 .002a1 1 0 0 1-1.001-1z" fill="currentColor"></path><path d="M23.974 19.577a1 1 0 0 1 1-1l2-.002v2l-2 .002a1 1 0 0 1-1-1z" fill="currentColor"></path><path fill-rule="evenodd" clip-rule="evenodd" d="M19.29 30.874L29.3 40.866l1.413-1.416-10.008-9.991-1.413 1.415z" fill="currentColor"></path><path fill-rule="evenodd" clip-rule="evenodd" d="M19.287 26.874l11.01 10.991 1.412-1.415-11.008-10.991-1.414 1.415z" fill="currentColor"></path><path fill-rule="evenodd" clip-rule="evenodd" d="M20.7 24.287l6.505 6.495 1.413-1.416-6.505-6.494-1.413 1.415z" fill="currentColor"></path><path fill-rule="evenodd" clip-rule="evenodd" d="M24.7 24.284l2.502 2.498 1.413-1.416-2.502-2.497-1.413 1.415z" fill="currentColor"></path><path fill-rule="evenodd" clip-rule="evenodd" d="M19.976 22.58l8-.006.002 2-8 .007-.002-2z" fill="currentColor"></path><path fill-rule="evenodd" clip-rule="evenodd" d="M18 33.582l10.008 9.992 1.413-1.415-10.008-9.992L18 33.582z" fill="currentColor"></path><path fill-rule="evenodd" clip-rule="evenodd" d="M16.71 36.29l8.006 7.994 1.413-1.415-8.007-7.994-1.413 1.416z" fill="currentColor"></path></g></svg>