<svg xmlns="http://www.w3.org/2000/svg" height="372" width="372" viewBox="0 0 372.793 372.793">
	<g fill="currentColor" class="nc-icon-wrapper">
		<path d="M351.958 32.149l-11.312-11.312c-31.408-31.408-74.76-27.04-113.136 11.312L91.75 167.909a16.614 16.614 0 0 0-1.6 2.4c-.048.12-39.24 106.312-39.24 106.312l-15.728 15.728a8 8 0 0 0 0 11.312L6.894 331.957c-9.297 9.448-9.175 24.643.273 33.94 9.339 9.19 24.322 9.192 33.663.004l28.288-28.28a8 8 0 0 0 11.312 0l15.728-15.736s106.248-39.2 106.4-39.272a15.644 15.644 0 0 0 2.344-1.6l135.768-135.76a104 104 0 0 0 31.328-55.304 64.954 64.954 0 0 0-20.04-57.8zM29.518 354.597a8.224 8.224 0 0 1-11.312 0 8 8 0 0 1 0-11.304l28.28-28.288 11.32 11.32-28.288 28.272zm138.712-76.304l-31.24-31.2a8 8 0 0 0-11.296 11.328l25.992 25.952-62.704 23.104a8.007 8.007 0 0 0-2.888 1.848l-11.32 11.32-22.632-22.632 11.312-11.32a7.893 7.893 0 0 0 1.856-2.888l35.288-95.736 84.128 84.128-16.496 6.096zm30.992-14.208l-90.504-90.52L233.166 49.117l90.512 90.512-124.456 124.456zM356.174 87.453a82.844 82.844 0 0 1-21.352 40.696l-90.144-90.144a114.809 114.809 0 0 1 12.896-9.736l43.48 43.472a8 8 0 0 0 11.312-11.312L272.43 20.501c19.481-8.92 42.495-4.209 56.904 11.648l11.312 11.312a48.962 48.962 0 0 1 15.528 43.992z">
		</path>
		<path d="M284.078 122.653l-33.944-33.944a8 8 0 0 0-11.312 0l-45.24 45.248-.016.016-45.24 45.24a8 8 0 0 0 0 11.312l33.936 33.944a8 8 0 0 0 11.312 0l45.256-45.256 45.248-45.248a8 8 0 0 0 0-11.312zm-96.168 84.864l-22.624-22.632 33.944-33.944 22.624 22.624-33.944 33.952zm45.256-45.264l-22.624-22.624 33.936-33.944 22.624 22.632-33.936 33.936z">
		</path>
		<path d="M114.366 224.485l-5.648-5.656c-3.124-3.126-8.19-3.128-11.316-.004s-3.128 8.19-.004 11.316l5.656 5.656a8 8 0 0 0 11.312-11.312z">
		</path>
		<path d="M340.654 88.717l-5.656-5.656a8 8 0 0 0-11.312-.196 8 8 0 0 0 0 11.508l5.656 5.656a8 8 0 0 0 11.312-11.312z">
		</path>
	</g>
</svg>
