<svg height="480" width="480" viewBox="0 0 480 480"><g fill="currentColor" class="nc-icon-wrapper"><path d="M320 0v16H184a8 8 0 0 0-8 8v24h-72a8 8 0 0 0-8 8v192c.026 22.08 17.92 39.974 40 40h16v8c0 13.255 10.745 24 24 24v32h16v-32c13.255 0 24-10.745 24-24v-8h16c22.08-.026 39.974-17.92 40-40V56a8 8 0 0 0-8-8h-72V32h128v448h64V0h-64zm-64 248c0 13.255-10.745 24-24 24h-24a8 8 0 0 0-8 8v16a8 8 0 0 1-8 8h-16a8 8 0 0 1-8-8v-16a8 8 0 0 0-8-8h-24a24 24 0 0 1-22.528-16H160v-16h-48v-16h32v-16h-32v-16h48v-16h-48v-16h144v88zm0-184v80H112v-16h48v-16h-48V96h32V80h-32V64h144zm112 400h-32V16h32v448z"></path></g></svg>