<svg viewBox="0 0 480 480">
	<path d="M320,0v16H184c-4.418,0-8,3.582-8,8v24h-72c-4.418,0-8,3.582-8,8v192c0.026,22.08,17.92,39.974,40,40h16v8
			c0,13.255,10.745,24,24,24v32h16v-32c13.255,0,24-10.745,24-24v-8h16c22.08-0.026,39.974-17.92,40-40V56c0-4.418-3.582-8-8-8h-72
			V32h128v448h64V0H320z M256,248c0,13.255-10.745,24-24,24h-24c-4.418,0-8,3.582-8,8v16c0,4.418-3.582,8-8,8h-16
			c-4.418,0-8-3.582-8-8v-16c0-4.418-3.582-8-8-8h-24c-10.134-0.042-19.15-6.445-22.528-16H160v-16h-48v-16h32v-16h-32v-16h48v-16
			h-48v-16h144V248z M256,64v80H112v-16h48v-16h-48V96h32V80h-32V64H256z M368,464h-32V16h32V464z" />
</svg>
