<svg width="48" height="48" xmlns="http://www.w3.org/2000/svg" viewBox="0 0 48 48"><g fill="none" class="nc-icon-wrapper"><path fill-rule="evenodd" clip-rule="evenodd" d="M23.393 28.93a1 1 0 0 1 1 1v10a1 1 0 1 1-2 0v-10a1 1 0 0 1 1-1z" fill="currentColor"></path><path fill-rule="evenodd" clip-rule="evenodd" d="M19.393 36.93a1 1 0 0 1 1-1h6a1 1 0 1 1 0 2h-6a1 1 0 0 1-1-1z" fill="currentColor"></path><path fill-rule="evenodd" clip-rule="evenodd" d="M23.393 14.929a7 7 0 1 0 0 14 7 7 0 0 0 0-14zm0-2a9 9 0 1 0 0 18 9 9 0 0 0 0-18z" fill="currentColor"></path><path fill-rule="evenodd" clip-rule="evenodd" d="M29.118 16.705a1 1 0 0 1 .005-1.414l7.583-7.536a1 1 0 0 1 1.41 1.419l-7.584 7.535a1 1 0 0 1-1.414-.004z" fill="currentColor"></path><path fill-rule="evenodd" clip-rule="evenodd" d="M35.703 15.827a1 1 0 0 1-1.414 0l-4.243-4.242a1 1 0 0 1 1.414-1.415l4.243 4.243a1 1 0 0 1 0 1.414z" fill="currentColor"></path><path fill-rule="evenodd" clip-rule="evenodd" d="M37.875 13a1 1 0 0 1-1-1V9h-3a1 1 0 1 1 0-2h4a1 1 0 0 1 1 1v4a1 1 0 0 1-1 1z" fill="currentColor"></path><path fill-rule="evenodd" clip-rule="evenodd" d="M11.171 8.297l6.996 6.996a1 1 0 0 1-1.414 1.414L9.757 9.711a1 1 0 0 1 1.414-1.414z" fill="currentColor"></path><path fill-rule="evenodd" clip-rule="evenodd" d="M15 8.54a1 1 0 0 1-1 1h-3v3a1 1 0 0 1-2 0v-4a1 1 0 0 1 1-1h4a1 1 0 0 1 1 1z" fill="currentColor"></path></g></svg>