<svg width="48" height="48" xmlns="http://www.w3.org/2000/svg" viewBox="0 0 48 48"><g fill="none" class="nc-icon-wrapper"><path fill-rule="evenodd" clip-rule="evenodd" d="M22.858 9a2.279 2.279 0 0 1 2.27 2.27 2.279 2.279 0 0 1-2.27 2.268 2.279 2.279 0 0 1-2.269-2.269A2.279 2.279 0 0 1 22.86 9zm4.27 2.27c0-2.351-1.92-4.27-4.27-4.27a4.279 4.279 0 0 0-4.269 4.27c0 2.35 1.92 4.268 4.27 4.268 2.35 0 4.269-1.918 4.269-4.269z" fill="currentColor"></path><path fill-rule="evenodd" clip-rule="evenodd" d="M29.397 15.338a1 1 0 0 0-.75-.338H17.955v2h10.24l5.676 6.432a1.239 1.239 0 1 1-1.884 1.61l-3.254-3.937a1 1 0 0 0-1.97.241v17.712a.64.64 0 0 1-.635.634.64.64 0 0 1-.635-.634v-8.173a1 1 0 0 0-1-1h-3.27a1 1 0 0 0-1 1v8.173a.64.64 0 0 1-.634.634.64.64 0 0 1-.634-.634V24h-2v15.058a2.64 2.64 0 0 0 2.634 2.634 2.64 2.64 0 0 0 2.635-2.634v-7.173h1.269v7.173a2.64 2.64 0 0 0 2.635 2.634 2.64 2.64 0 0 0 2.634-2.634V24.279l1.684 2.037a3.239 3.239 0 1 0 4.925-4.207l-5.974-6.77z" fill="currentColor"></path><path fill-rule="evenodd" clip-rule="evenodd" d="M24.857 26.344a1.203 1.203 0 0 0-.438-1.557l-6.302-3.939a1 1 0 1 1 1.06-1.696l6.302 3.939a3.202 3.202 0 1 1-3.447 5.398l-6.553-4.274c-2.073-1.352-2.833-4.028-1.813-6.272A5.018 5.018 0 0 1 18.223 15h4.924v2h-4.924a3.018 3.018 0 0 0-2.737 1.77 3.017 3.017 0 0 0 1.086 3.77l6.553 4.274a1.203 1.203 0 0 0 1.732-.47z" fill="currentColor"></path><path fill-rule="evenodd" clip-rule="evenodd" d="M19.302 24.966l6-9.5 1.69 1.068-6 9.5-1.69-1.068z" fill="currentColor"></path><path fill-rule="evenodd" clip-rule="evenodd" d="M30.147 30a3 3 0 0 1 6 0v11a1 1 0 1 1-2 0V30a1 1 0 1 0-2 0v.5a1 1 0 1 1-2 0V30z" fill="currentColor"></path></g></svg>