<svg width="48" height="48" xmlns="http://www.w3.org/2000/svg" viewBox="0 0 48 48"><g fill="none" class="nc-icon-wrapper"><path fill-rule="evenodd" clip-rule="evenodd" d="M31.711 9a2.279 2.279 0 0 1 2.27 2.27 2.279 2.279 0 0 1-2.27 2.268 2.279 2.279 0 0 1-2.269-2.269A2.279 2.279 0 0 1 31.712 9zm4.27 2.27c0-2.351-1.92-4.27-4.27-4.27a4.279 4.279 0 0 0-4.269 4.27c0 2.35 1.919 4.268 4.27 4.268 2.35 0 4.268-1.918 4.268-4.269z" fill="currentColor"></path><path fill-rule="evenodd" clip-rule="evenodd" d="M38.083 18.096c.657.656 1.207 1.615 1.207 2.888 0 1.873-.612 3.125-1.264 3.897a4.25 4.25 0 0 1-.411.425v-5.863h-2v19.615a.64.64 0 0 1-.635.634.64.64 0 0 1-.634-.634v-9.173h-5.27v9.173a.64.64 0 0 1-.634.634.64.64 0 0 1-.634-.634V18.443h-9.173a.64.64 0 0 1-.635-.635.64.64 0 0 1 .635-.634h17.98l.005.001c.03.006.197.04.484.19.298.156.648.4.979.73zm-.468 9.577c.157-.068.311-.148.459-.234a5.81 5.81 0 0 0 1.48-1.267c.96-1.136 1.736-2.847 1.736-5.188 0-1.903-.838-3.348-1.794-4.303a6.137 6.137 0 0 0-1.463-1.088c-.444-.232-.956-.42-1.418-.42h-17.98A2.64 2.64 0 0 0 16 17.809a2.64 2.64 0 0 0 2.635 2.635h7.172v18.615a2.64 2.64 0 0 0 2.635 2.634 2.64 2.64 0 0 0 2.635-2.634v-7.173h1.269v7.173a2.64 2.64 0 0 0 2.634 2.634 2.64 2.64 0 0 0 2.635-2.634V27.673z" fill="currentColor"></path><path fill-rule="evenodd" clip-rule="evenodd" d="M7 32.5a3 3 0 0 1 3-3h11a3 3 0 0 1 3 3v6a3 3 0 0 1-3 3H10a3 3 0 0 1-3-3v-6zm3-1a1 1 0 0 0-1 1v6a1 1 0 0 0 1 1h11a1 1 0 0 0 1-1v-6a1 1 0 0 0-1-1H10z" fill="currentColor"></path><path fill-rule="evenodd" clip-rule="evenodd" d="M11 39.5v-8h2v8h-2z" fill="currentColor"></path><path fill-rule="evenodd" clip-rule="evenodd" d="M18 39.5v-8h2v8h-2z" fill="currentColor"></path><path fill-rule="evenodd" clip-rule="evenodd" d="M12 28a2 2 0 0 1 2-2h3a2 2 0 0 1 2 2v2.5h-2V28h-3v2.5h-2V28z" fill="currentColor"></path></g></svg>