<svg width="48" height="48" xmlns="http://www.w3.org/2000/svg" viewBox="0 0 48 48"><g fill="none" class="nc-icon-wrapper"><path fill-rule="evenodd" clip-rule="evenodd" d="M35 6h-2v2h1v11c0 2.327-1.353 4.653-2.486 6.193C30.7 26.3 30 27 30 27c.787 0 1.52.227 2.139.62A4.02 4.02 0 0 1 33.465 29H35v-2h5v2h-4a6 6 0 0 1 6 6v2h-5v-2a1 1 0 0 0-1-1h-2v4c0 1.48-.804 2.773-2 3.465V44h-2v-2H10v2H8v-2.535A3.998 3.998 0 0 1 6 38v-7a3.997 3.997 0 0 1 4-4s-.7-.7-1.514-1.807C7.353 23.653 6 21.327 6 19V8h1V6H5V4h30v2zm-3 26v1.347c-2.444 1.197-4.889.749-7.333-1.347A9.977 9.977 0 0 1 23 33.173V29h2v-6h-2v6h-2v-6h-2v6h-2v-6h-2v6h2v4.173A9.977 9.977 0 0 1 15.333 32C12.89 34.095 10.444 34.544 8 33.347V31a2 2 0 0 1 2-2h4.828L13 27.172V23h-2v2.134l-.107-.123a17.106 17.106 0 0 1-1.229-1.62C8.731 21.99 8 20.399 8 19v-1h24v1c0 1.399-.73 2.99-1.664 4.39A17.106 17.106 0 0 1 29 25.135V23h-2v4.172L25.172 29H30a2 2 0 0 1 2 2v1zm-13-3h2v4.908a5.493 5.493 0 0 1-2 0V29zm20 6a3 3 0 0 0-3-3h-2v-1h2a4 4 0 0 1 4 4h-1zm-31 .519V38a2 2 0 0 0 2 2h20a2 2 0 0 0 2-2v-2.482a7.744 7.744 0 0 1-2.666.482c-1.659 0-3.219-.548-4.668-1.498C23.218 35.452 21.659 36 20 36c-1.658 0-3.218-.549-4.667-1.498-1.448.95-3.008 1.498-4.666 1.498-.92 0-1.81-.169-2.667-.481zM9 6h22v2H9V6zm23 10H8v-6h24v6zm7.5 27c.828 0 1.5-.814 1.5-1.818C41 39.59 39.5 38 39.5 38S38 39.59 38 41.182c0 1.004.672 1.818 1.5 1.818z" fill="currentColor"></path></g></svg>