<svg width="48" height="48" xmlns="http://www.w3.org/2000/svg" viewBox="0 0 48 48"><g fill="none" class="nc-icon-wrapper"><path fill-rule="evenodd" clip-rule="evenodd" d="M21.8 12.401a1 1 0 0 1-.201 1.4A33.92 33.92 0 0 0 10.57 28.022 34.041 34.041 0 0 0 8 41a1 1 0 1 1-2 0c0-4.715.925-9.384 2.721-13.74a35.92 35.92 0 0 1 11.68-15.06 1 1 0 0 1 1.4.201z" fill="currentColor"></path><path fill-rule="evenodd" clip-rule="evenodd" d="M25.096 22.74l-.724.69a26.916 26.916 0 0 0-1.56 1.622l-.663.748-1.497-1.326.663-.748a28.91 28.91 0 0 1 1.676-1.742l.724-.69 1.38 1.446zm-4.453 5.069l-.535.845a29.64 29.64 0 0 0-2.114 3.986l-.4.916-1.833-.8.4-.917a31.641 31.641 0 0 1 2.258-4.255l.535-.845 1.69 1.07zm-3.886 8.128l-.262.965a31.39 31.39 0 0 0-.513 2.203l-.192.981-1.963-.383.192-.982c.154-.79.336-1.572.546-2.343l.262-.965 1.93.524z" fill="currentColor"></path><path fill-rule="evenodd" clip-rule="evenodd" d="M31.849 26.471a1 1 0 0 1-.32 1.378 16.706 16.706 0 0 0-2.605 2 15.773 15.773 0 0 0-3.647 5.125A14.918 14.918 0 0 0 24 41a1 1 0 1 1-2 0c0-2.346.492-4.668 1.447-6.833a17.773 17.773 0 0 1 4.108-5.775 18.705 18.705 0 0 1 2.916-2.24 1 1 0 0 1 1.378.32z" fill="currentColor"></path><path d="M42 7.5a1.5 1.5 0 1 1-3 0 1.5 1.5 0 0 1 3 0z" fill="currentColor"></path><path d="M42 12.5a1.5 1.5 0 1 1-3 0 1.5 1.5 0 0 1 3 0z" fill="currentColor"></path><path d="M42 17.5a1.5 1.5 0 1 1-3 0 1.5 1.5 0 0 1 3 0z" fill="currentColor"></path><path d="M41.5 21.35a1 1 0 1 1-2 0 1 1 0 0 1 2 0z" fill="currentColor"></path><path d="M36.687 7.922a1.5 1.5 0 1 1-2.97.42 1.5 1.5 0 0 1 2.97-.42z" fill="currentColor"></path><path d="M37.388 12.873a1.5 1.5 0 1 1-2.97.42 1.5 1.5 0 0 1 2.97-.42z" fill="currentColor"></path><path d="M38.089 17.823a1.5 1.5 0 1 1-2.97.421 1.5 1.5 0 0 1 2.97-.42z" fill="currentColor"></path><path d="M38.79 22.774a1.5 1.5 0 1 1-2.97.42 1.5 1.5 0 0 1 2.97-.42z" fill="currentColor"></path><path d="M30.045 9.63a1.5 1.5 0 1 1-2.736 1.23 1.5 1.5 0 0 1 2.736-1.23z" fill="currentColor"></path><path d="M32.095 14.191a1.5 1.5 0 1 1-2.737 1.23 1.5 1.5 0 0 1 2.737-1.23z" fill="currentColor"></path><path d="M34.144 18.752a1.5 1.5 0 1 1-2.736 1.23 1.5 1.5 0 0 1 2.736-1.23z" fill="currentColor"></path><path d="M35.077 22.266a1 1 0 1 1-1.825.82 1 1 0 0 1 1.825-.82z" fill="currentColor"></path><path d="M23.025 11.91a1.5 1.5 0 1 1-2.28 1.95 1.5 1.5 0 0 1 2.28-1.95z" fill="currentColor"></path><path d="M26.648 16.682a1.5 1.5 0 1 1-2.28 1.95 1.5 1.5 0 0 1 2.28-1.95z" fill="currentColor"></path><path d="M29.898 20.482a1.5 1.5 0 1 1-2.28 1.95 1.5 1.5 0 0 1 2.28-1.95z" fill="currentColor"></path><path d="M33.147 25.282a1.5 1.5 0 1 1-2.28 1.95 1.5 1.5 0 0 1 2.28-1.95z" fill="currentColor"></path><path d="M27.562 13.691a.868.868 0 1 1-1.737 0 .868.868 0 0 1 1.737 0z" fill="currentColor"></path><path d="M30.155 18.034a.868.868 0 1 1-1.736 0 .868.868 0 0 1 1.736 0z" fill="currentColor"></path><path d="M34.579 15.921a.868.868 0 1 1-1.736 0 .868.868 0 0 1 1.736 0z" fill="currentColor"></path><path d="M39.334 15.132a.868.868 0 1 1-1.736 0 .868.868 0 0 1 1.736 0z" fill="currentColor"></path><path d="M33.578 11.36a.868.868 0 1 1-1.737 0 .868.868 0 0 1 1.737 0z" fill="currentColor"></path><path d="M39 10.132a.868.868 0 1 1-1.736 0 .868.868 0 0 1 1.736 0z" fill="currentColor"></path></g></svg>