<svg width="48" height="48" xmlns="http://www.w3.org/2000/svg" viewBox="0 0 48 48"><g fill="none" class="nc-icon-wrapper"><path fill-rule="evenodd" clip-rule="evenodd" d="M24 5a3.001 3.001 0 1 0 .002 6.002A3.001 3.001 0 0 0 24 5zm-5 3.002A5 5 0 1 1 24.192 13H27.5c1.586 0 3 .998 3.533 2.492l3.36 9.436a2.75 2.75 0 1 1-5.19 1.82l-1.43-4.393-.696 3.375 2.191 2.63a1 1 0 0 1 .232.64v13.352c0 1.548-1.399 2.647-2.78 2.647-1.538 0-2.58-1.253-2.58-2.648V31.605h-.28v10.747c0 1.476-1.222 2.647-2.68 2.647-1.458 0-2.68-1.171-2.68-2.648V29a1 1 0 0 1 .232-.64l2.194-2.633-.66-3.323-1.41 4.324c-.29.859-1.06 1.372-1.727 1.623-.68.257-1.527.349-2.26.101-.843-.285-1.29-.936-1.42-1.65-.118-.639.016-1.304.197-1.836l3.185-9.418A3.75 3.75 0 0 1 20.384 13h3.424A5.001 5.001 0 0 1 19 8.002zM20.384 15a1.75 1.75 0 0 0-1.658 1.19l-3.186 9.417c-.13.383-.154.673-.124.836a.324.324 0 0 0 .024.079l.002.002s.002.003.006.005a.265.265 0 0 0 .062.029c.183.061.541.063.913-.078.382-.144.515-.33.537-.39l2.59-7.943a1 1 0 0 1 1.93.115l1.5 7.543a1 1 0 0 1-.212.835L20.5 29.362v12.99c0 .336.29.647.68.647a.67.67 0 0 0 .68-.648V30.605a1 1 0 0 1 1-1h2.28a1 1 0 0 1 1 1v11.747c0 .418.27.647.58.647.466 0 .78-.384.78-.648V29.363l-2.268-2.722a1 1 0 0 1-.211-.842l1.555-7.543a1 1 0 0 1 1.93-.107l2.594 7.965a.75.75 0 0 0 1.41-.514l-3.361-9.436A1.75 1.75 0 0 0 27.5 15h-7.116z" fill="currentColor"></path></g></svg>