<svg width="48" height="48" xmlns="http://www.w3.org/2000/svg" viewBox="0 0 48 48"><g fill="none" class="nc-icon-wrapper"><path fill-rule="evenodd" clip-rule="evenodd" d="M17.96 31.036c-.102-.005-.215-.01-.34-.013C16.882 31 15.887 31 14.5 31c-1.388 0-2.383 0-3.12.023-.125.004-.238.008-.34.013a3.5 3.5 0 0 0 6.92 0zm-6.954-.894zm-.792.975zm8.571 0h.002-.002zm-.79-.966zM14.5 36a5.5 5.5 0 0 0 5.5-5.5c0-.444 0-.757-.143-.977C19.518 29 18.372 29 14.5 29 9 29 9 29 9 30.5a5.5 5.5 0 0 0 5.5 5.5z" fill="currentColor"></path><path fill-rule="evenodd" clip-rule="evenodd" d="M28.494 27H23v2h5.239l.255-2zM21 25v6h9l.766-6H21z" fill="currentColor"></path><path fill-rule="evenodd" clip-rule="evenodd" d="M30.153 17H35v9h-2v-7h-1.153l-1.86 11.164-1.973-.328L30.153 17z" fill="currentColor"></path><path fill-rule="evenodd" clip-rule="evenodd" d="M33.062 31.158a3.5 3.5 0 1 0 6.876-1.316l1.964-.375a5.5 5.5 0 0 1-10.804 2.067l1.964-.376z" fill="currentColor"></path><path fill-rule="evenodd" clip-rule="evenodd" d="M40.647 28.752a4.5 4.5 0 0 0-8.642 1.524l8.642-1.524zm.112-.02c.001 0 0 0 0 0zm.346 1.97l-8.863 1.563c-1.027.181-2.251-.51-2.242-1.814a6.5 6.5 0 0 1 12.592-2.22c.455 1.222-.46 2.29-1.487 2.471z" fill="currentColor"></path><path fill-rule="evenodd" clip-rule="evenodd" d="M21 19h-9a1 1 0 0 0-1 1v1h11v-1a1 1 0 0 0-1-1zm-9-2a3 3 0 0 0-3 3v2a1 1 0 0 0 1 1h13a1 1 0 0 0 1-1v-2a3 3 0 0 0-3-3h-9z" fill="currentColor"></path><path fill-rule="evenodd" clip-rule="evenodd" d="M21 23h-6.444a7.558 7.558 0 0 0-7.396 6H21v-6zm-6.444-2A9.556 9.556 0 0 0 5 30.556c0 .245.199.444.444.444H21a2 2 0 0 0 2-2v-7.2a.8.8 0 0 0-.8-.8h-7.644z" fill="currentColor"></path><path fill-rule="evenodd" clip-rule="evenodd" d="M35 14h-2.5a1.5 1.5 0 0 0 0 3H35v-3zm-2.5-2a3.5 3.5 0 1 0 0 7h3.885c.34 0 .615-.276.615-.615v-5.77a.615.615 0 0 0-.615-.615H32.5z" fill="currentColor"></path><path d="M25.173 13.985a1 1 0 0 1 1.158-.812l2.955.52a1 1 0 1 1-.346 1.97l-2.955-.52a1 1 0 0 1-.812-1.158z" fill="currentColor"></path></g></svg>