<svg width="48" height="48" xmlns="http://www.w3.org/2000/svg" viewBox="0 0 48 48"><g fill="none" class="nc-icon-wrapper"><path fill-rule="evenodd" clip-rule="evenodd" d="M24 11c-7.18 0-13 5.82-13 13s5.82 13 13 13 13-5.82 13-13-5.82-13-13-13zM9 24c0-8.284 6.716-15 15-15 8.284 0 15 6.716 15 15 0 8.284-6.716 15-15 15-8.284 0-15-6.716-15-15z" fill="currentColor"></path><path fill-rule="evenodd" clip-rule="evenodd" d="M21 5a1 1 0 0 1 1-1h4a1 1 0 1 1 0 2h-1v6a1 1 0 1 1-2 0V6h-1a1 1 0 0 1-1-1z" fill="currentColor"></path><path fill-rule="evenodd" clip-rule="evenodd" d="M24 35a1 1 0 0 1 1 1v6h1a1 1 0 1 1 0 2h-4a1 1 0 1 1 0-2h1v-6a1 1 0 0 1 1-1z" fill="currentColor"></path><path fill-rule="evenodd" clip-rule="evenodd" d="M12.686 39.556a1 1 0 0 1-1.414 0l-2.828-2.828a1 1 0 1 1 1.414-1.414l.707.707 4.243-4.243a1 1 0 0 1 1.414 1.414l-4.243 4.243.707.707a1 1 0 0 1 0 1.414z" fill="currentColor"></path><path fill-rule="evenodd" clip-rule="evenodd" d="M31.778 16.222a1 1 0 0 1 0-1.414l4.243-4.243-.707-.707a1 1 0 0 1 1.414-1.414l2.828 2.828a1 1 0 0 1-1.414 1.414l-.707-.707-4.243 4.243a1 1 0 0 1-1.414 0z" fill="currentColor"></path><path fill-rule="evenodd" clip-rule="evenodd" d="M8.444 12.686a1 1 0 0 1 0-1.414l2.828-2.828a1 1 0 1 1 1.414 1.414l-.707.707 4.243 4.243a1 1 0 0 1-1.414 1.414l-4.243-4.243-.707.707a1 1 0 0 1-1.414 0z" fill="currentColor"></path><path fill-rule="evenodd" clip-rule="evenodd" d="M31.778 31.778a1 1 0 0 1 1.414 0l4.243 4.243.707-.707a1 1 0 0 1 1.414 1.414l-2.828 2.828a1 1 0 1 1-1.414-1.414l.707-.707-4.243-4.243a1 1 0 0 1 0-1.414z" fill="currentColor"></path><path fill-rule="evenodd" clip-rule="evenodd" d="M5 27a1 1 0 0 1-1-1v-4a1 1 0 1 1 2 0v1h6a1 1 0 1 1 0 2H6v1a1 1 0 0 1-1 1z" fill="currentColor"></path><path fill-rule="evenodd" clip-rule="evenodd" d="M35 24a1 1 0 0 1 1-1h6v-1a1 1 0 1 1 2 0v4a1 1 0 1 1-2 0v-1h-6a1 1 0 0 1-1-1z" fill="currentColor"></path><path fill-rule="evenodd" clip-rule="evenodd" d="M17 20.5a1 1 0 0 1 1 1V23h2v-1.5a1 1 0 1 1 2 0v5a1 1 0 1 1-2 0V25h-2v1.5a1 1 0 1 1-2 0v-5a1 1 0 0 1 1-1z" fill="currentColor"></path><path fill-rule="evenodd" clip-rule="evenodd" d="M24.5 20.5a1 1 0 0 1 1 1v5a1 1 0 1 1-2 0v-5a1 1 0 0 1 1-1z" fill="currentColor"></path><path fill-rule="evenodd" clip-rule="evenodd" d="M27.129 20.572a1 1 0 0 1 1.3.557l1.071 2.678 1.072-2.678a1 1 0 0 1 1.857.742l-2 5a1 1 0 0 1-1.857 0l-2-5a1 1 0 0 1 .557-1.3z" fill="currentColor"></path></g></svg>