<svg width="48" height="48" xmlns="http://www.w3.org/2000/svg" viewBox="0 0 48 48"><g fill="none" class="nc-icon-wrapper"><path d="M26.562 9l5.571 2.14-1.07 2.785-1.393-.535-1.113 2.902a9.015 9.015 0 0 1 2.902 2.754l2.84-1.264-.608-1.363 2.726-1.213 2.428 5.452-2.726 1.213-.608-1.362-2.838 1.263a9 9 0 0 1 .105 3.999l2.9 1.113.535-1.392L39 26.562l-2.14 5.571-2.785-1.07.534-1.392-2.9-1.114a9.015 9.015 0 0 1-2.755 2.902l1.264 2.84 1.363-.608 1.213 2.726-5.452 2.428-1.213-2.726 1.362-.608-1.263-2.838a8.984 8.984 0 0 1-4 .103l-1.114 2.903 1.394.534L21.438 39l-5.571-2.14 1.07-2.785 1.39.534 1.116-2.9a9.034 9.034 0 0 1-2.904-2.755L13.7 30.218l.607 1.363-2.726 1.213-2.427-5.452 2.726-1.213.605 1.364 2.84-1.265a9.055 9.055 0 0 1-.103-4l-2.902-1.112-.533 1.392L9 21.438l2.14-5.57 2.785 1.07-.535 1.392 2.902 1.115a9.025 9.025 0 0 1 2.754-2.905l-1.264-2.84-1.363.607-1.213-2.726 5.452-2.426 1.213 2.726-1.362.607 1.263 2.838A8.984 8.984 0 0 1 24 15.047a9 9 0 0 1 1.771.175l1.112-2.902-1.39-.533L26.561 9zM24 18.032A5.967 5.967 0 0 0 18.032 24 5.967 5.967 0 0 0 24 29.968 5.967 5.967 0 0 0 29.968 24 5.967 5.967 0 0 0 24 18.032zm-.746 7.26a1.493 1.493 0 1 1-1.494 2.585 1.493 1.493 0 0 1 1.494-2.585zm3.73-2.784a1.493 1.493 0 1 1-.001 2.985 1.493 1.493 0 0 1 .001-2.985zM23.8 20.67a1.493 1.493 0 1 1-2.586 1.491A1.493 1.493 0 0 1 23.8 20.67z" fill="currentColor"></path></g></svg>