<svg width="48" height="48" xmlns="http://www.w3.org/2000/svg" viewBox="0 0 48 48"><g fill="none" class="nc-icon-wrapper"><path fill-rule="evenodd" clip-rule="evenodd" d="M27.536 13.271l.006.003a2.275 2.275 0 0 0 2.497-.317 2.24 2.24 0 0 0 .538-.692l.003-.006a2.235 2.235 0 0 0-.315-2.48 2.276 2.276 0 0 0-1.12-.7l.524-1.93c.816.222 1.548.68 2.103 1.316a4.243 4.243 0 0 1-.422 6.003 4.264 4.264 0 0 1-3.092 1.033 4.278 4.278 0 0 1-1.604-.434 4.272 4.272 0 0 1-1.812-1.691 4.236 4.236 0 0 1 .32-4.72 4.273 4.273 0 0 1 2.023-1.435 4.293 4.293 0 0 1 2.484-.071l-.524 1.93a2.294 2.294 0 0 0-1.326.038 2.273 2.273 0 0 0-1.077.763 2.241 2.241 0 0 0 .794 3.39zm-3.9 13.193a2.771 2.771 0 0 0-1.053-1.867L16.07 19.94a35.202 35.202 0 0 1 .668-.612l.035-.03c.293-.263.453-.406.77-.764.123-.139.27-.31.457-.534.114.285.196.606.28.933l.04.157c.102.392.213.785.39 1.127.145.28.333.525.595.709l6.555 4.667c.195.138.414.238.646.296a1.94 1.94 0 0 0 1.327-.156c.413-.208 1.842-2.01 2.033-2.438.19-.427.23-.907.11-1.357a1.97 1.97 0 0 0-.763-1.105l-5.674-3.992c-.029-.494-.064-.975-.1-1.47a224.332 224.332 0 0 1-.079-1.138 57.754 57.754 0 0 1-.125-3.337v-.009a1.99 1.99 0 0 0-.683-1.484 1.91 1.91 0 0 0-.781-.405 6.175 6.175 0 0 0-4.74.217C12.95 10.71 7.856 16.84 7.856 16.84a9.423 9.423 0 0 0-1.525 2.352 3.023 3.023 0 0 0-.032 2.177c.26.7.773 1.27 1.434 1.595L16.5 29l.566 9.186c-.093.709.09 1.423.51 1.99.42.566 1.042.94 1.734 1.04.333.032.67-.006.99-.11.32-.104.618-.272.875-.495a2.577 2.577 0 0 0 .882-1.784l1.482-11.194a2.88 2.88 0 0 0 .097-1.169zm-2.258-.27c.108.09.193.214.24.364.05.16.053.337.003.507-.03.1-.051.202-.065.305l-1.482 11.195c-.006.043-.01.087-.013.13a.602.602 0 0 1-.199.407.515.515 0 0 1-.316.125.631.631 0 0 1-.363-.242.746.746 0 0 1-.134-.54 2 2 0 0 0 .013-.382l-.566-9.186a2 2 0 0 0-.862-1.524l-8.768-6.036a1.99 1.99 0 0 0-.252-.148.896.896 0 0 1-.441-.497 1.022 1.022 0 0 1 0-.702 7.424 7.424 0 0 1 1.22-1.85v-.002l.009-.01.038-.045.155-.182a45.133 45.133 0 0 1 2.705-2.853c1.776-1.712 3.809-3.345 5.42-3.935a2 2 0 0 0 .159-.066 4.175 4.175 0 0 1 3.206-.15c.05.018.1.034.15.048.017 1.927.118 3.323.21 4.584v.007c.036.497.07.963.097 1.44a2 2 0 0 0 .846 1.52l5.655 3.98c-.033.05-.08.118-.14.203a14.652 14.652 0 0 1-.995 1.225l-6.41-4.564a.86.86 0 0 1-.038-.077 2.71 2.71 0 0 1-.11-.313 13.023 13.023 0 0 1-.133-.494l-.01-.042a9.249 9.249 0 0 0-.35-1.136 2 2 0 0 0-3.39-.543c-.328.392-.498.582-.62.71-.114.118-.2.196-.407.381-.175.156-.404.361-.74.677a2 2 0 0 0 .207 3.084l6.471 4.627zm-.866-6.853l-.002-.002.002.002zm6.192 4.749c-.02.016-.02.018 0 0z" fill="currentColor"></path><path fill-rule="evenodd" clip-rule="evenodd" d="M40.238 37.819l-.013.012a.102.102 0 0 1 .013-.012zm-1.678.681c-1.177-.3-2.764-.5-4.56-.5-1.796 0-3.383.2-4.56.5 1.177.3 2.764.5 4.56.5 1.796 0 3.383-.2 4.56-.5zm-10.798-.681l.013.012a.082.082 0 0 1-.013-.012zm0 1.362l.013-.012a.109.109 0 0 1-.013.012zm12.463-.012l.013.012-.013-.012zM34 41c4.418 0 8-1.12 8-2.5S38.418 36 34 36s-8 1.12-8 2.5 3.582 2.5 8 2.5z" fill="currentColor"></path><path d="M31.738 18.793c0 .582-.474 1.054-1.058 1.054a1.056 1.056 0 0 1-1.06-1.054c0-.582.475-1.053 1.06-1.053.584 0 1.058.471 1.058 1.053z" fill="currentColor"></path><path d="M33.855 25.64c0 .873-.71 1.58-1.588 1.58a1.584 1.584 0 0 1-1.588-1.58c0-.873.711-1.58 1.588-1.58.877 0 1.588.707 1.588 1.58z" fill="currentColor"></path><path d="M37.03 28.274c0 .582-.473 1.053-1.058 1.053a1.056 1.056 0 0 1-1.058-1.053c0-.582.474-1.053 1.058-1.053.585 0 1.059.471 1.059 1.053z" fill="currentColor"></path><path d="M32.797 32.487c0 .582-.474 1.054-1.059 1.054a1.056 1.056 0 0 1-1.058-1.053c0-.582.473-1.054 1.058-1.054.585 0 1.059.472 1.059 1.053z" fill="currentColor"></path><path d="M39.148 35.174c0 .873-.71 1.58-1.588 1.58a1.584 1.584 0 0 1-1.588-1.58c0-.872.711-1.58 1.588-1.58.877 0 1.588.708 1.588 1.58z" fill="currentColor"></path></g></svg>