<svg width="48" height="48" xmlns="http://www.w3.org/2000/svg" viewBox="0 0 48 48"><g fill="none" class="nc-icon-wrapper"><path fill-rule="evenodd" clip-rule="evenodd" d="M5.764 31.993l2.666 3A3 3 0 0 0 10.672 36H36.72a3 3 0 0 0 2.496-1.336l2-3C42.545 29.67 41.116 27 38.72 27H8.006c-2.589 0-3.962 3.058-2.242 4.993zM12.5 34a2.5 2.5 0 1 0 0-5 2.5 2.5 0 0 0 0 5zM26 31.5a2.5 2.5 0 1 1-5 0 2.5 2.5 0 0 1 5 0zm8.5 2.5a2.5 2.5 0 1 0 0-5 2.5 2.5 0 0 0 0 5z" fill="currentColor"></path><path fill-rule="evenodd" clip-rule="evenodd" d="M8.586 24.414A2 2 0 0 1 8 23c0-6.176 5.252-11 11.5-11S31 16.824 31 23a2 2 0 0 1-2 2H10a2 2 0 0 1-1.414-.586zM12 23h-2v-.004c0-.686.082-1.354.235-1.996.96-4.008 4.744-7 9.265-7 4.521 0 8.305 2.992 9.265 7 .154.643.235 1.312.235 2H12z" fill="currentColor"></path><path d="M29 19a1 1 0 0 1 1-1h12a1 1 0 1 1 0 2H30a1 1 0 0 1-1-1z" fill="currentColor"></path></g></svg>