<svg width="48" height="48" xmlns="http://www.w3.org/2000/svg" viewBox="0 0 48 48"><g fill="none" class="nc-icon-wrapper"><path fill-rule="evenodd" clip-rule="evenodd" d="M24 31c2.153 0 4-1.816 4-4.182 0-2.08-1.206-4.613-2.67-6.838A30.89 30.89 0 0 0 24 18.12a30.89 30.89 0 0 0-1.33 1.86C21.207 22.206 20 24.737 20 26.819 20 29.184 21.847 31 24 31zm-1.303-14.46C20.932 18.767 18 23.037 18 26.818 18 30.232 20.686 33 24 33s6-2.768 6-6.182c0-3.78-2.932-8.05-4.697-10.278C24.543 15.58 24 15 24 15s-.544.58-1.303 1.54z" fill="currentColor"></path><path fill-rule="evenodd" clip-rule="evenodd" d="M33.9 14.1c-5.468-5.467-14.332-5.467-19.8 0l-1.414-1.413c6.249-6.249 16.38-6.249 22.628 0A15.953 15.953 0 0 1 40 23.95v3.636l3.293-3.293 1.414 1.414-5 5-.707.707-.707-.707-5-5 1.414-1.414L38 27.586V23.954a13.952 13.952 0 0 0-4.1-9.853zM14.1 33.9c5.468 5.467 14.332 5.467 19.8 0l1.414 1.414c-6.249 6.248-16.38 6.248-22.628 0A15.953 15.953 0 0 1 8 24.004v-3.59l-3.293 3.293-1.414-1.414 5-5L9 16.586l.707.707 5 5-1.414 1.414L10 20.414v3.59c0 3.583 1.367 7.163 4.1 9.896z" fill="currentColor"></path></g></svg>