<svg width="48" height="48" xmlns="http://www.w3.org/2000/svg" viewBox="0 0 48 48"><g fill="none" class="nc-icon-wrapper"><path fill-rule="evenodd" clip-rule="evenodd" d="M20.071 26.975l-.18.984.18-.984.018.003.018.004 6.642 1.463.043.009.041.013h.001l.01.003.047.014c.042.013.107.031.19.054.165.045.403.105.687.166.577.124 1.304.24 1.983.24.617 0 1.263.223 1.613.851.302.543.23 1.14.119 1.549a4.246 4.246 0 0 1-.76 1.454c.506-.188 1.06-.41 1.654-.65l.063-.025c1.625-.654 3.549-1.429 5.247-1.705 1.932-.313 3.346.372 3.991 1.608.577 1.105.442 2.556-.423 3.427-.216.217-.545.445-.875.655-.352.224-.786.477-1.268.746a86.33 86.33 0 0 1-3.362 1.752c-2.378 1.184-4.87 2.334-5.66 2.618-1.353.486-2.926.33-4.372.188l-.132-.014a54.142 54.142 0 0 0-1.306-.118c-1.928-.143-3.405-.604-4.77-1.03l-.025-.007c-1.47-.459-2.812-.874-4.615-.945a26.17 26.17 0 0 0-1.34.014 3.001 3.001 0 0 1-2.904 2.243h-1.68a3 3 0 0 1-3-3v-8.781a3 3 0 0 1 3-3h1.68c1.078 0 2.021.567 2.55 1.42 1.272-.452 2.65-.952 3.09-1.148.4-.18.863-.24 1.248-.262a9.219 9.219 0 0 1 1.195.021 14.727 14.727 0 0 1 1.329.164l.023.004.007.002h.003zm2.104 6.415l-.176.984.188-1.984 5.362.064h.012c.005 0 .013 0 .023-.002a1.39 1.39 0 0 0 .216-.039c.206-.053.544-.176.962-.469.145-.1.32-.277.479-.503.122-.176.214-.35.272-.501a12.289 12.289 0 0 1-2.164-.28 15.016 15.016 0 0 1-1.023-.257l-.046-.014-6.584-1.45h-.002a6.572 6.572 0 0 0-.315-.049c-.214-.03-.506-.067-.822-.09a7.26 7.26 0 0 0-.93-.019c-.305.017-.478.06-.545.09-.644.29-2.76 1.042-4.15 1.53l-1.13.396-.188-1.183a1 1 0 0 0-.988-.84h-1.68a1 1 0 0 0-1 1v8.78a1 1 0 0 0 1 1h1.68a1 1 0 0 0 1-1v-1.181l.966-.033c.904-.032 1.904-.058 2.357-.04 2.08.082 3.64.568 5.105 1.025l.026.008c1.372.428 2.66.828 4.349.953.468.035.921.08 1.348.122h.005c1.625.16 2.75.251 3.631-.066.662-.238 3.049-1.333 5.445-2.526a84.39 84.39 0 0 0 3.281-1.71c.465-.259.861-.49 1.167-.686.329-.209.487-.334.53-.377.173-.174.297-.655.07-1.091-.16-.304-.613-.768-1.899-.56-1.455.237-3.183.927-4.883 1.612l-.022.008c-.84.338-1.676.675-2.416.92-.716.235-1.482.435-2.135.396-.941-.056-2.6-.3-3.978-.52a159.794 159.794 0 0 1-2.367-.397l-.153-.027-.04-.007-.01-.002h-.004l.176-.985zm7.404-2.724v.003-.003z" fill="currentColor"></path><path fill-rule="evenodd" clip-rule="evenodd" d="M25 7h16v2H25V7zm18-2v6H23V7a2 2 0 0 1 2-2h18z" fill="currentColor"></path><path d="M23 14a1 1 0 0 1 1-1h6a1 1 0 1 1 0 2h-6a1 1 0 0 1-1-1z" fill="currentColor"></path><path fill-rule="evenodd" clip-rule="evenodd" d="M27 17.172a1 1 0 0 1 1 1v2a1 1 0 1 1-2 0v-2a1 1 0 0 1 1-1z" fill="currentColor"></path><path fill-rule="evenodd" clip-rule="evenodd" d="M29.707 17.293a1 1 0 0 1 1.414 0l1.415 1.414a1 1 0 1 1-1.415 1.414l-1.414-1.414a1 1 0 0 1 0-1.414z" fill="currentColor"></path><path fill-rule="evenodd" clip-rule="evenodd" d="M21.293 20.293a1 1 0 0 1 0-1.414l1.414-1.415a1 1 0 1 1 1.414 1.415l-1.414 1.414a1 1 0 0 1-1.414 0z" fill="currentColor"></path><path fill-rule="evenodd" clip-rule="evenodd" d="M27 22.172a1 1 0 0 1 1 1v2a1 1 0 1 1-2 0v-2a1 1 0 0 1 1-1z" fill="currentColor"></path><path fill-rule="evenodd" clip-rule="evenodd" d="M33.207 20.793a1 1 0 0 1 1.414 0l1.414 1.414a1 1 0 1 1-1.414 1.414l-1.414-1.414a1 1 0 0 1 0-1.414z" fill="currentColor"></path><path fill-rule="evenodd" clip-rule="evenodd" d="M17.793 23.543a1 1 0 0 1 0-1.414l1.414-1.415a1 1 0 1 1 1.414 1.415l-1.414 1.414a1 1 0 0 1-1.414 0z" fill="currentColor"></path></g></svg>