<svg width="48" height="48" xmlns="http://www.w3.org/2000/svg" viewBox="0 0 48 48"><g fill="none" class="nc-icon-wrapper"><path fill-rule="evenodd" clip-rule="evenodd" d="M11.784 40h24.432a2 2 0 0 0 1.997-1.89l1.556-28A2 2 0 0 0 37.772 8H10.228a2 2 0 0 0-1.997 2.11l1.556 28A2 2 0 0 0 11.784 40zm24.432 2a4 4 0 0 0 3.994-3.778l1.555-28A4 4 0 0 0 37.772 6H10.228a4 4 0 0 0-3.993 4.222l1.555 28A4 4 0 0 0 11.784 42h24.432z" fill="currentColor"></path><path fill-rule="evenodd" clip-rule="evenodd" d="M34.196 17.406a13.999 13.999 0 0 0-20.067-.334l4.638 3.488a.352.352 0 0 0 .13.006c.157-.014.377-.086.59-.23a8.048 8.048 0 0 1 9.245.153c.208.151.425.23.582.25.076.01.116.003.13-.001l4.752-3.332zm-4.743 3.329l-.008.003c.005-.003.007-.004.008-.003zm-10.694-.178s.003 0 .007.003l-.007-.003zm17.092-4.306c.742.818.515 2.075-.39 2.71l-4.872 3.417c-.904.634-2.14.378-3.033-.27a6.037 6.037 0 0 0-3.455-1.156 6.049 6.049 0 0 0-3.492 1.04c-.915.619-2.158.834-3.04.17l-4.757-3.578c-.882-.664-1.068-1.929-.299-2.722a16 16 0 0 1 23.338.389z" fill="currentColor"></path><path d="M27.182 15.572a1 1 0 0 1 1.51 1.312l-2.747 3.158a1 1 0 0 1-1.51-1.312l2.747-3.158z" fill="currentColor"></path></g></svg>