<svg width="48" height="48" xmlns="http://www.w3.org/2000/svg" viewBox="0 0 48 48"><g fill="none" class="nc-icon-wrapper"><path fill-rule="evenodd" clip-rule="evenodd" d="M18.845 15a1.75 1.75 0 0 0-1.627 1.104l-3.165 7.966a.75.75 0 0 0 1.394.554l2.624-6.603a1 1 0 0 1 1.93.369V24.477a1 1 0 0 1-.094.446L16.507 33h2.59a1 1 0 0 1 1 1v7.255c0 .444.344.745.68.745.337 0 .68-.301.68-.745V34a1 1 0 0 1 1-1h3.083a1 1 0 0 1 1 1v7.255c0 .444.344.745.68.745.336 0 .68-.301.68-.745V34a1 1 0 0 1 1-1h2.594l-3.416-8.112a1 1 0 0 1-.078-.392v-.021l1 .025h-1V18.664a1 1 0 0 1 1.919-.396l2.64 6.13a.75.75 0 1 0 1.377-.594L30.6 16.058A1.75 1.75 0 0 0 28.992 15H18.845zM18 24.298v-.683l-.694 1.748a2.75 2.75 0 1 1-5.111-2.031l3.165-7.967A3.75 3.75 0 0 1 18.845 13h10.147a3.75 3.75 0 0 1 3.444 2.267l3.337 7.746a2.75 2.75 0 0 1-5.051 2.176L30 23.513v.785l3.337 7.926A2 2 0 0 1 31.494 35h-1.595v6.255c0 1.476-1.168 2.745-2.68 2.745-1.51 0-2.679-1.269-2.679-2.745V35h-1.083v6.255c0 1.476-1.168 2.745-2.68 2.745-1.511 0-2.68-1.269-2.68-2.745V35h-1.59a2 2 0 0 1-1.844-2.776L18 24.298z" fill="currentColor"></path><path fill-rule="evenodd" clip-rule="evenodd" d="M24 5a3.001 3.001 0 1 0 .002 6.002A3.001 3.001 0 0 0 24 5zm-5 3.002a5 5 0 1 1 5 5.002 5 5 0 0 1-5-5.002z" fill="currentColor"></path></g></svg>