<svg width="48" height="48" xmlns="http://www.w3.org/2000/svg" viewBox="0 0 48 48"><g fill="none" class="nc-icon-wrapper"><path d="M11.63 18v5.892a2 2 0 0 1-.94 1.696l-1.57.981" stroke="currentColor"></path><path d="M15.63 18v5.914a2 2 0 0 0 .91 1.677l1.534.996" stroke="currentColor"></path><path d="M9.458 19.063l.78.625-.78-.625zm1.185-.563l-.009 1h.01v-1zm-5.165 5.538l.767.642.007-.009.007-.008-.781-.625zm-.195.3l.897.442v-.002l-.897-.44zm-.154.639l1 .016v-.002l-1-.014zm.134.643l.91-.413v-.001l-.91.414zm.185.305l.8-.6-.006-.008-.007-.009-.787.617zM8.43 29.9l-.8.6.8-.6zm.7.514h1v-.707l-.667-.236-.333.943zm3 2.586v-1h-1v1h1zm3 0h1v-1h-1v1zm3-2.586l-.332-.943-.668.236v.707h1zm.7-.514l-.8-.6.8.6zm2.981-3.975l-.786-.617-.007.009-.007.008.8.6zm.186-.305l-.91-.414-.002.001.912.413zm.133-.643l-1 .014v.002l1-.016zm-.154-.64l-.897.442v.001l.898-.442zm-.194-.299l-.781.625.007.008.007.009.767-.642zm-3.972-4.964l-.786.618.005.006.781-.624zm-.049-.059l-.754.656v.001l.755-.657zm-.48-.367l-.435.9.002.001.432-.901zm-.588-.147l-.042 1 .042-1zm-.077-.001v1h.009l-.009-1zm2.117 6.53l.8.6.465-.62-.484-.605-.781.625zm-.603-.754l.781-.625-1.78-2.226v2.851h1zm0 1.557h-1v3l1.8-2.4-.8-.6zm-9.603-.803l-.78-.625-.484.605.464.62.8-.6zm.603.803l-.8.6 1.8 2.4v-3h-1zm0-1.557h1v-2.85L8.35 23.65l.78.625zM16.63 13a3 3 0 0 1-3 3v2a5 5 0 0 0 5-5h-2zm-3-3a3 3 0 0 1 3 3h2a5 5 0 0 0-5-5v2zm-3 3a3 3 0 0 1 3-3V8a5 5 0 0 0-5 5h2zm3 3a3 3 0 0 1-3-3h-2a5 5 0 0 0 5 5v-2zm-3.39 3.688a.497.497 0 0 1 .395-.188l.018-2a2.497 2.497 0 0 0-1.975.938l1.562 1.25zm-3.98 4.975l3.98-4.975-1.562-1.25-3.98 4.975 1.562 1.25zm-.078.116a.488.488 0 0 1 .064-.1L4.71 23.397a2.49 2.49 0 0 0-.326.501l1.796.882zm-.052.212a.494.494 0 0 1 .05-.211l-1.793-.884a2.494 2.494 0 0 0-.257 1.066l2 .03zm.044.215a.494.494 0 0 1-.044-.213l-2-.033c-.005.363.067.73.224 1.074l1.82-.828zm.062.102a.491.491 0 0 1-.061-.1l-1.822.824c.081.18.185.352.31.511l1.573-1.235zM9.229 29.3l-2.98-3.974-1.6 1.2 2.98 3.974 1.6-1.2zm.233.171a.493.493 0 0 1-.233-.171l-1.6 1.2c.307.409.717.699 1.168.858l.665-1.887zM10.129 41V30.414h-2V41h2zm.5.5a.5.5 0 0 1-.5-.5h-2a2.5 2.5 0 0 0 2.5 2.5v-2zm.5-.5a.5.5 0 0 1-.5.5v2a2.5 2.5 0 0 0 2.5-2.5h-2zm0-8v8h2v-8h-2zm4-1h-3v2h3v-2zm1 9v-8h-2v8h2zm.5.5a.5.5 0 0 1-.5-.5h-2a2.5 2.5 0 0 0 2.5 2.5v-2zm.5-.5a.5.5 0 0 1-.5.5v2a2.5 2.5 0 0 0 2.5-2.5h-2zm0-10.586V41h2V30.414h-2zm1.333.944c.45-.16.86-.45 1.167-.858l-1.6-1.2a.493.493 0 0 1-.232.171l.665 1.887zm1.167-.858l2.981-3.975-1.6-1.2-2.98 3.975 1.6 1.2zm1.455-5.293a.488.488 0 0 1-.06.1l1.573 1.236a2.49 2.49 0 0 0 .31-.51l-1.823-.826zm1.822.827c.156-.344.229-.711.223-1.074l-2 .033a.494.494 0 0 1-.044.213l1.82.828zm-1.827-1.254c.032.066.05.138.05.211l2-.03a2.494 2.494 0 0 0-.257-1.065l-1.793.884zm1.794-.883a2.49 2.49 0 0 0-.326-.5l-1.533 1.283c.025.03.047.063.064.099l1.795-.882zM17.028 19.7L21 24.663l1.561-1.25-3.97-4.964-1.563 1.25zm-.021-.027a.453.453 0 0 1 .016.02l1.572-1.236a2.533 2.533 0 0 0-.08-.098l-1.508 1.314zm-.16-.123a.493.493 0 0 1 .159.122l1.51-1.312a2.492 2.492 0 0 0-.804-.613l-.865 1.803zm-.196-.049c.07.003.136.02.194.049l.868-1.802c-.3-.144-.632-.23-.98-.245L16.65 19.5zm-.027 0a.44.44 0 0 1 .026 0l.084-1.998a2.562 2.562 0 0 0-.127-.002l.017 2zm-5.98 0h5.971v-2h-5.972v2zm8.869 4.905l-.603-.754-1.562 1.25.603.753 1.562-1.25zm-2.384-.129v1.557h2v-1.557h-2zm.803.154l-.603.803 1.6 1.2.603-.803-1.6-1.2zm-10.206 1.2l.603.803 1.6-1.2-.603-.803-1.6 1.2zm.622-1.979l-.602.754 1.561 1.25.603-.754-1.562-1.25zm1.781 2.182v-1.557h-2v1.557h2z" fill="currentColor"></path><path fill-rule="evenodd" clip-rule="evenodd" d="M17.63 24.834l-2 2.667a2.5 2.5 0 0 0 4 3l2.624-3.5h-2.5l-1.725 2.3a.5.5 0 1 1-.8-.6l1.275-1.7h-.875v-2.167z" fill="currentColor"></path><path fill-rule="evenodd" clip-rule="evenodd" d="M9.625 24.834l2 2.667a2.5 2.5 0 0 1-4 3L5 27h2.5l1.725 2.3a.5.5 0 1 0 .8-.6L8.75 27h.875v-2.167z" fill="currentColor"></path><path d="M8.63 20v-2a2 2 0 0 1 2-2" stroke="currentColor"></path><path d="M18.63 20v-2a2 2 0 0 0-2-2" stroke="currentColor"></path><path d="M32.63 18v5.892a2 2 0 0 1-.94 1.696l-1.57.981" stroke="currentColor"></path><path d="M36.63 18v5.914a2 2 0 0 0 .91 1.677l1.534.996" stroke="currentColor"></path><path d="M30.458 19.063l.78.625-.78-.625zm1.185-.563l-.009 1h.01v-1zm-5.165 5.538l.767.642.007-.009.007-.008-.781-.625zm-.195.3l.897.442v-.002l-.897-.44zm-.154.639l1 .016v-.002l-1-.014zm.134.643l.91-.413v-.001l-.91.414zm.185.305l.8-.6-.006-.008-.007-.009-.787.617zm2.93 3.907l.966.258.125-.47-.29-.388-.8.6zM28 35l-.966-.258L26.698 36H28v-1zm2.13 0h1v-1h-1v1zm3 0v-1h-1v1h1zm3 0h1v-1h-1v1zm3 0v-1h-1v1h1zM41 35v1h1.477l-.549-1.371L41 35zm-1.839-4.597l-.354-.936-.953.36.379.947.928-.371zm.668-.503l-.8-.6.8.6zm2.981-3.975l-.786-.617-.007.009-.007.008.8.6zm.185-.305l-.91-.414v.001l.91.413zm.134-.643l-1 .014v.002l1-.016zm-.154-.64l-.897.442v.001l.897-.442zm-.194-.299l-.781.625.007.008.007.009.767-.642zm-3.972-4.964l-.786.618.005.006.781-.624zm-.048-.059l-.755.656v.001l.755-.657zm-.482-.367l-.434.9.002.001.432-.901zm-.587-.147l-.042 1 .042-1zm-.077-.001v1h.009l-.009-1zm2.117 6.53l.8.6.465-.62-.484-.605-.781.625zm-.603-.754l.781-.625-1.78-2.226v2.851h1zm0 1.557h-1v3l1.8-2.4-.8-.6zm-9.603-.803l-.78-.625-.484.605.464.62.8-.6zm.603.803l-.8.6 1.8 2.4v-3h-1zm0-1.557h1v-2.85l-1.78 2.225.78.625zM37.63 13a3 3 0 0 1-3 3v2a5 5 0 0 0 5-5h-2zm-3-3a3 3 0 0 1 3 3h2a5 5 0 0 0-5-5v2zm-3 3a3 3 0 0 1 3-3V8a5 5 0 0 0-5 5h2zm3 3a3 3 0 0 1-3-3h-2a5 5 0 0 0 5 5v-2zm-3.39 3.688a.497.497 0 0 1 .395-.188l.018-2a2.497 2.497 0 0 0-1.975.938l1.562 1.25zm-3.98 4.975l3.98-4.975-1.562-1.25-3.98 4.975 1.562 1.25zm-.078.116a.486.486 0 0 1 .064-.1l-1.534-1.283c-.13.156-.239.324-.326.501l1.796.882zm-.052.212a.494.494 0 0 1 .05-.211l-1.793-.884a2.494 2.494 0 0 0-.257 1.066l2 .03zm.044.215a.494.494 0 0 1-.044-.213l-2-.033c-.006.363.067.73.224 1.074l1.82-.828zm.062.102a.492.492 0 0 1-.061-.1l-1.822.824c.081.18.185.352.31.511l1.573-1.235zm2.943 3.924l-2.93-3.906-1.6 1.2 2.93 3.906 1.6-1.2zm-1.212 6.026l1.378-5.168-1.932-.516-1.378 5.168 1.932.516zM30.13 34H28v2h2.13v-2zm1 7v-6h-2v6h2zm.5.5a.5.5 0 0 1-.5-.5h-2a2.5 2.5 0 0 0 2.5 2.5v-2zm.5-.5a.5.5 0 0 1-.5.5v2a2.5 2.5 0 0 0 2.5-2.5h-2zm0-6v6h2v-6h-2zm4-1h-3v2h3v-2zm1 7v-6h-2v6h2zm.5.5a.5.5 0 0 1-.5-.5h-2a2.5 2.5 0 0 0 2.5 2.5v-2zm.5-.5a.5.5 0 0 1-.5.5v2a2.5 2.5 0 0 0 2.5-2.5h-2zm0-6v6h2v-6h-2zM41 34h-1.87v2H41v-2zm-2.767-3.226l1.839 4.597 1.856-.742-1.838-4.598-1.857.743zm1.282.564c.43-.162.82-.445 1.114-.838l-1.6-1.2a.493.493 0 0 1-.222.167l.708 1.871zm1.114-.838l2.981-3.975-1.6-1.2-2.98 3.975 1.6 1.2zm1.456-5.293a.488.488 0 0 1-.061.1l1.573 1.236a2.49 2.49 0 0 0 .31-.51l-1.822-.826zm1.82.827c.157-.344.23-.711.224-1.074l-2 .033a.494.494 0 0 1-.044.213l1.82.828zM42.08 24.78c.032.066.05.138.05.211l2-.03a2.494 2.494 0 0 0-.257-1.065l-1.793.884zm1.794-.883a2.49 2.49 0 0 0-.325-.5l-1.534 1.283c.025.03.047.063.064.099l1.795-.882zM38.028 19.7L42 24.663l1.562-1.25-3.972-4.964-1.562 1.25zm-.021-.027a.453.453 0 0 1 .016.02l1.572-1.236a2.533 2.533 0 0 0-.08-.098l-1.508 1.314zm-.16-.123a.493.493 0 0 1 .159.122l1.51-1.312a2.492 2.492 0 0 0-.804-.613l-.865 1.803zm-.196-.049c.07.003.136.02.194.049l.868-1.802c-.3-.144-.632-.23-.98-.245L37.65 19.5zm-.027 0a.44.44 0 0 1 .026 0l.084-1.998a2.562 2.562 0 0 0-.127-.002l.017 2zm-5.98 0h5.971v-2h-5.972v2zm8.869 4.905l-.603-.754-1.562 1.25.603.753 1.562-1.25zm-2.384-.129v1.557h2v-1.557h-2zm.803.154l-.603.803 1.6 1.2.603-.803-1.6-1.2zm-10.206 1.2l.603.803 1.6-1.2-.603-.803-1.6 1.2zm.622-1.979l-.602.754 1.561 1.25.603-.754-1.562-1.25zm1.781 2.182v-1.557h-2v1.557h2z" fill="currentColor"></path><path fill-rule="evenodd" clip-rule="evenodd" d="M38.63 24.834l-2 2.667a2.5 2.5 0 0 0 4 3l2.624-3.5h-2.5l-1.725 2.3a.5.5 0 1 1-.8-.6l1.275-1.7h-.875v-2.167z" fill="currentColor"></path><path fill-rule="evenodd" clip-rule="evenodd" d="M30.625 24.834l2 2.667a2.5 2.5 0 0 1-4 3L26 27h2.5l1.725 2.3a.5.5 0 1 0 .8-.6L29.75 27h.875v-2.167z" fill="currentColor"></path><path d="M29.63 20v-2a2 2 0 0 1 2-2" stroke="currentColor"></path><path d="M39.63 20v-2a2 2 0 0 0-2-2" stroke="currentColor"></path><path d="M38.627 5.405c0-.297-.34-.493-.636-.365L34.628 6.5l3.364 1.46c.295.128.636-.068.636-.366V5.405z" fill="currentColor"></path><path d="M31.263 5.04c-.295-.128-.636.068-.636.365v2.19c0 .297.34.493.636.365l3.364-1.46-3.364-1.46z" fill="currentColor"></path></g></svg>