<svg xmlns="http://www.w3.org/2000/svg" viewBox="0 0 64 64">
	<g fill="currentColor">
		<path d="M32 12a1 1 0 01-1-1V2a1 1 0 012 0v9a1 1 0 01-1 1zM15 12a1 1 0 01-1-1V2a1 1 0 012 0v9a1 1 0 01-1 1zM49 12a1 1 0 01-1-1V2a1 1 0 012 0v9a1 1 0 01-1 1z" />
		<path d="M35.587 55H6a1 1 0 01-1-1V21a1 1 0 011-1h52a1 1 0 011 1v20.211a14.065 14.065 0 012 2.605V9a2 2 0 00-2-2h-7v4a3 3 0 01-6 0V7H35v4a3 3 0 01-6 0V7H18v4a3 3 0 01-6 0V7H5a2 2 0 00-2 2v46a2 2 0 002 2h31.365a13.972 13.972 0 01-.778-2z" />
		<path d="M49 39a12 12 0 1012 12 12 12 0 00-12-12zm5 13h-4v4a1 1 0 01-2 0v-4h-4a1 1 0 010-2h4v-4a1 1 0 012 0v4h4a1 1 0 010 2z" />
	</g>
</svg>
